<svg width="234" height="132" viewBox="0 0 234 132" fill="none" xmlns="http://www.w3.org/2000/svg">
<path d="M1.47133 111.876C3.58289 113.117 5.77289 114.328 7.97797 115.486L8.58127 115.801L7.84524 116.832L7.24193 116.517C5.01876 115.357 2.80764 114.132 0.67496 112.882L0.0927734 112.542L0.892141 111.546L1.47133 111.876ZM14.6957 118.778C16.9853 119.833 19.314 120.841 21.6157 121.751L22.2552 122.009L21.6518 123.102L21.0123 122.844C18.6866 121.916 16.3337 120.906 14.0201 119.841L13.4017 119.555L14.0683 118.492L14.6957 118.778ZM86.9294 60.0407L87.5327 59.7107L88.3049 60.7188L87.7016 61.0488C86.5418 61.7029 85.4863 62.4829 84.5614 63.3692C83.8276 64.0717 83.1693 64.8294 82.5947 65.6329L82.2266 66.1486L81.02 65.5195L81.388 65.0038C82.0049 64.1383 82.7116 63.322 83.4996 62.5648C84.5091 61.5991 85.6621 60.7505 86.9294 60.0407ZM79.9643 70.9544L79.8677 71.55C79.5661 73.5121 80.0879 75.5205 81.4665 77.5213L81.8254 78.0369L80.6188 78.6479L80.2599 78.1323C78.7154 75.8944 78.1181 73.6229 78.4771 71.3876L78.5736 70.7894L79.9643 70.9544ZM94.4737 57.71C97.1335 57.4371 99.8282 57.5513 102.443 58.0477L103.134 58.174L102.832 59.3523L102.142 59.2285C99.6832 58.7606 97.1497 58.6516 94.6487 58.9063L93.9489 58.9836L93.7679 57.7873L94.4737 57.71ZM28.7135 124.363C31.1509 125.183 33.6033 125.923 36.0045 126.565L36.6771 126.745L36.2548 127.895L35.5821 127.715C33.1508 127.065 30.6652 126.315 28.1977 125.487L27.5401 125.265L28.0559 124.144L28.7135 124.363ZM86.4739 82.2601C88.4834 83.6003 90.6606 84.7461 92.9655 85.6763L93.6019 85.9341L92.9986 87.0221L92.3622 86.7643C89.9675 85.7972 87.7054 84.6065 85.6172 83.214L85.0652 82.8402L85.94 81.8966L86.4739 82.2601ZM109.918 60.3037C112.291 61.3078 114.532 62.5256 116.603 63.9364L117.155 64.3103L116.277 65.2539L115.725 64.8801C113.735 63.5229 111.581 62.3509 109.3 61.384L108.666 61.1261L109.294 60.0459L109.918 60.3037ZM43.4704 128.3C46.0163 128.8 48.5683 129.205 51.0599 129.504L51.7568 129.589L51.5607 130.783L50.8639 130.698C48.333 130.396 45.7358 129.984 43.1536 129.476L42.4659 129.339L42.7675 128.166L43.4704 128.3ZM100.127 87.9967C102.588 88.6073 105.094 89.0751 107.629 89.3967L108.326 89.4869L108.117 90.6781L107.421 90.5878C104.823 90.2578 102.254 89.7788 99.7315 89.1543L99.0528 88.9842L99.448 87.8265L100.127 87.9967ZM121.815 68.2112L122.265 68.6753C122.932 69.3611 123.562 70.0753 124.141 70.792C125.062 71.9263 125.87 73.1251 126.554 74.3758L126.856 74.9224L125.577 75.438L125.275 74.8914C124.623 73.7021 123.854 72.562 122.977 71.483C122.419 70.7946 121.812 70.1088 121.167 69.4487L120.717 68.9821L121.815 68.2112ZM58.734 130.115C61.3006 130.209 63.8711 130.187 66.4351 130.051L67.138 130.012L67.2255 131.216L66.5226 131.255C63.9114 131.394 61.2935 131.415 58.6797 131.319L57.9768 131.293L58.0371 130.089L58.734 130.115ZM115.291 89.9716C117.858 90.0303 120.427 89.9683 122.986 89.786L123.689 89.7344L123.803 90.9359L123.104 90.9875C120.495 91.1729 117.877 91.2358 115.261 91.1757L114.555 91.1576L114.594 89.9536L115.291 89.9716ZM74.07 129.249C76.595 128.859 79.091 128.343 81.5449 127.702L82.2176 127.526L82.6278 128.679L81.9552 128.854C79.4475 129.505 76.8971 130.03 74.3173 130.424L73.6235 130.53L73.3761 129.344L74.07 129.249ZM128.753 80.2619L128.862 80.8575C129.252 83.1038 129.301 85.3839 129.007 87.6409L128.931 88.2416L127.532 88.1101L127.607 87.512C127.887 85.3587 127.84 83.1836 127.468 81.0406L127.36 80.445L128.753 80.2619ZM88.7604 125.441C91.1103 124.567 93.433 123.584 95.6713 122.52L96.2897 122.228L96.9744 123.28L96.3711 123.574C94.0937 124.657 91.7257 125.657 89.3366 126.547L88.688 126.787L88.1269 125.68L88.7604 125.441ZM130.615 88.881C133.139 88.4736 135.638 87.9573 138.102 87.3341L138.777 87.1639L139.179 88.319L138.503 88.4917C135.984 89.1285 133.417 89.6623 130.88 90.0774L130.186 90.1882L129.924 89.0048L130.615 88.881ZM127.523 93.6869L127.299 94.2593C126.461 96.3942 125.412 98.4643 124.162 100.447L123.83 100.978L122.588 100.411L122.92 99.8773C124.13 97.9563 125.145 95.9499 125.954 93.8803L126.177 93.3079L127.523 93.6869ZM102.217 119.039C104.331 117.787 106.368 116.445 108.323 115.017L108.856 114.625L109.761 115.54L109.228 115.932C107.243 117.385 105.174 118.753 103.029 120.029L102.449 120.372L101.644 119.382L102.217 119.039ZM120.371 105.647L119.954 106.135C118.401 107.939 116.72 109.661 114.923 111.291L114.44 111.73L113.411 110.904L113.894 110.466C115.652 108.868 117.296 107.182 118.817 105.415L119.233 104.928L120.371 105.647ZM145.359 85.1323C147.722 84.2785 150.019 83.2986 152.237 82.1982L152.84 81.8966L153.546 82.9279L152.943 83.2295C150.673 84.3551 148.322 85.3583 145.905 86.2332L145.257 86.4678L144.708 85.3566L145.359 85.1323ZM193.404 42.5292L193.102 43.068C191.953 45.0559 190.725 47.0437 189.458 48.98L189.114 49.4956L187.883 48.9078L188.227 48.3921C189.485 46.4739 190.698 44.5041 191.847 42.5343L192.149 41.9929L193.404 42.5292ZM185.829 54.2216L185.452 54.7372C184.046 56.6451 182.58 58.5118 181.096 60.2882L180.686 60.7807L179.537 60.0794L179.947 59.5895C181.416 57.8286 182.867 55.9799 184.261 54.0952L184.635 53.5796L185.829 54.2216ZM158.68 78.5938C160.692 77.3253 162.701 75.9227 164.653 74.4248L165.178 74.0226L166.119 74.9198L165.594 75.322C163.609 76.8458 161.564 78.2715 159.516 79.5632L158.949 79.9216L158.11 78.9496L158.68 78.5938ZM176.804 65.1379L176.36 65.6046C174.686 67.3578 172.979 69.0285 171.202 70.6399L170.716 71.0782L169.691 70.2506L170.173 69.8123C171.929 68.2215 173.615 66.574 175.265 64.8414L175.712 64.3747L176.804 65.1379Z" fill="#49263E"/>
<path d="M205.234 38.4946L205.62 31.0176C205.62 31.0176 226.075 13.6634 226.262 13.3154L233.351 0.16626L218.214 9.31648L197.279 28.3595L205.234 38.4946Z" fill="#EF9D43"/>
<path d="M182.683 22.1199L233.351 0.160889L197.28 28.3567L182.683 22.1199Z" fill="#FEC786"/>
<path d="M205.62 31.0072L221.08 37.7055L233.351 0.161011L205.62 31.0072Z" fill="#FEC786"/>
</svg>
