<svg width="243" height="435" viewBox="0 0 243 435" fill="none" xmlns="http://www.w3.org/2000/svg">
<g clip-path="url(#clip0_475_2204)">
<path d="M68.3928 281.191C68.3928 281.191 60.1694 326.071 59.1414 355.844C58.1135 385.616 57.8359 425.535 57.8359 425.535H75.3108C75.3108 425.535 88.3451 359.154 92.0251 345.964C95.7051 332.774 94.7902 269.99 94.7902 269.99L68.3928 281.191Z" fill="#FCD9C0"/>
<path d="M34.708 431.418H77.0178V422.809C77.0178 422.809 73.934 418.71 69.2466 420.759C69.2466 420.759 62.1642 425.771 55.8835 419.735L40.3719 426.601C40.3719 426.601 34.708 428.497 34.708 431.418Z" fill="#3AA1C9"/>
<path d="M77.4084 431.808H34.3174V431.418C34.3174 428.251 40.0327 426.294 40.2794 426.232L55.9965 419.273L56.1918 419.458C62.123 425.218 68.7429 420.667 69.0205 420.483C74.006 418.238 77.244 422.533 77.3262 422.594L77.4084 422.697V431.808ZM35.1397 431.029H76.6169V422.953C75.7938 421.892 74.637 421.137 73.3321 420.81C72.0272 420.483 70.65 420.602 69.4214 421.149C69.4214 421.149 62.2258 426.14 55.8423 420.206L40.5672 426.96C39.1076 427.442 35.5715 429.041 35.1397 431.029Z" fill="#263238"/>
<path d="M75.0355 427.318L73.048 428.65L73.2201 428.906L75.2076 427.573L75.0355 427.318Z" fill="#010101"/>
<path d="M73.608 426.94L71.6309 428.269L71.8033 428.524L73.7804 427.195L73.608 426.94Z" fill="#010101"/>
<path d="M33.5559 430.281H77.8805C77.9132 430.281 77.9446 430.293 77.9677 430.317C77.9908 430.34 78.0038 430.371 78.0038 430.403V434.308C78.0038 434.341 77.9908 434.372 77.9677 434.395C77.9446 434.418 77.9132 434.431 77.8805 434.431H33.5559C33.4655 434.431 33.3759 434.414 33.2923 434.379C33.2088 434.344 33.1329 434.294 33.0689 434.23C33.005 434.166 32.9542 434.091 32.9196 434.007C32.885 433.924 32.8672 433.835 32.8672 433.745V430.977C32.8672 430.887 32.885 430.798 32.9196 430.715C32.9542 430.631 33.005 430.556 33.0689 430.492C33.1329 430.428 33.2088 430.378 33.2923 430.343C33.3759 430.309 33.4655 430.291 33.5559 430.291V430.281Z" fill="#7FC6A6"/>
<path d="M77.8813 434.995H33.567C33.2434 434.992 32.9338 434.863 32.705 434.635C32.4762 434.407 32.3464 434.098 32.3438 433.775V431.029C32.3437 430.704 32.4723 430.393 32.7014 430.163C32.9305 429.932 33.2416 429.802 33.567 429.799H77.8813C78.0512 429.802 78.2133 429.871 78.3326 429.992C78.4518 430.112 78.5186 430.275 78.5186 430.445V434.349C78.5186 434.519 78.4518 434.681 78.3326 434.802C78.2133 434.923 78.0512 434.992 77.8813 434.995ZM33.567 430.895C33.5197 430.898 33.4753 430.919 33.4428 430.953C33.4102 430.987 33.3922 431.033 33.3922 431.08V433.827C33.3947 433.872 33.4139 433.915 33.4462 433.947C33.4784 433.979 33.5214 433.998 33.567 434.001H77.4804V430.926L33.567 430.895Z" fill="#263238"/>
<path d="M129.699 281.191C129.699 281.191 137.923 326.071 138.951 355.844C139.979 385.616 140.256 425.535 140.256 425.535H122.781C122.781 425.535 109.747 359.154 106.067 345.964C102.387 332.774 103.302 269.99 103.302 269.99L129.699 281.191Z" fill="#FCD9C0"/>
<path d="M163.385 431.418H121.075V422.809C121.075 422.809 124.159 418.71 128.846 420.759C128.846 420.759 135.929 425.771 142.21 419.735L157.721 426.601C157.721 426.601 163.385 428.497 163.385 431.418Z" fill="#3AA1C9"/>
<path d="M120.685 422.697L120.767 422.594C120.767 422.543 124.087 418.238 129.073 420.483C129.35 420.678 135.97 425.228 141.901 419.458L142.096 419.273L157.814 426.232C158.06 426.304 163.776 428.282 163.776 431.418V431.808H120.685V422.697ZM157.536 426.97L142.261 420.216C135.898 426.15 128.692 421.169 128.682 421.159C127.453 420.612 126.076 420.493 124.771 420.82C123.466 421.147 122.31 421.902 121.486 422.963V431.039H162.953C162.542 429.041 158.985 427.442 157.536 426.96V426.97Z" fill="#263238"/>
<path d="M123.056 427.284L122.884 427.539L124.871 428.872L125.043 428.617L123.056 427.284Z" fill="#010101"/>
<path d="M124.475 426.915L124.303 427.17L126.28 428.5L126.452 428.245L124.475 426.915Z" fill="#010101"/>
<path d="M164.536 434.431H120.211C120.195 434.431 120.179 434.428 120.164 434.422C120.149 434.416 120.136 434.407 120.124 434.395C120.113 434.384 120.104 434.37 120.097 434.355C120.091 434.341 120.088 434.325 120.088 434.308V430.404C120.088 430.387 120.091 430.371 120.097 430.357C120.104 430.342 120.113 430.328 120.124 430.317C120.136 430.305 120.149 430.296 120.164 430.29C120.179 430.284 120.195 430.281 120.211 430.281H164.536C164.719 430.281 164.894 430.353 165.023 430.482C165.152 430.611 165.225 430.785 165.225 430.967V433.734C165.225 433.825 165.207 433.914 165.172 433.997C165.138 434.081 165.087 434.156 165.023 434.22C164.959 434.284 164.883 434.334 164.799 434.369C164.716 434.403 164.626 434.421 164.536 434.421V434.431Z" fill="#7FC6A6"/>
<path d="M119.574 434.308V430.403C119.574 430.234 119.641 430.071 119.76 429.951C119.879 429.83 120.041 429.761 120.211 429.758H164.526C164.851 429.761 165.162 429.891 165.391 430.122C165.62 430.352 165.749 430.663 165.749 430.988V433.734C165.746 434.057 165.616 434.366 165.388 434.594C165.159 434.822 164.849 434.951 164.526 434.954H120.211C120.041 434.951 119.879 434.882 119.76 434.761C119.641 434.64 119.574 434.478 119.574 434.308ZM120.602 430.803V433.878H164.515C164.561 433.875 164.604 433.856 164.636 433.824C164.668 433.792 164.688 433.749 164.69 433.704V430.957C164.69 430.91 164.672 430.864 164.64 430.83C164.607 430.796 164.563 430.775 164.515 430.772L120.602 430.803Z" fill="#263238"/>
<path d="M63.8596 237.388L52.9121 411.423C52.9121 411.423 69.688 420.862 87.0498 411.146L105.594 212.596L65.2679 215.025L63.8596 237.388Z" fill="#28364C"/>
<path d="M134.972 236.865L145.878 410.91C145.878 410.91 129.103 420.36 111.751 410.644L93.5977 218.828H134.057L134.972 236.865Z" fill="#28364C"/>
<path d="M191.653 148.029C195.623 141.83 200.143 135.998 205.16 130.606C205.548 130.234 205.862 129.792 206.085 129.304C206.192 129.059 206.223 128.789 206.176 128.526C206.128 128.264 206.004 128.021 205.818 127.828C205.17 127.265 204.184 127.706 203.474 128.177C201.851 129.23 200.305 130.398 198.849 131.672C200.576 129.048 202.306 126.421 204.04 123.79C204.332 123.406 204.551 122.972 204.687 122.509C204.755 122.282 204.762 122.041 204.71 121.81C204.658 121.578 204.548 121.364 204.389 121.187C204.214 121.029 204 120.92 203.77 120.87C203.539 120.819 203.299 120.83 203.073 120.9C202.62 121.039 202.2 121.269 201.84 121.577C199.539 123.478 197.484 125.657 195.724 128.064C197.784 124.71 199.595 121.209 201.141 117.59C201.47 116.842 201.758 115.919 201.254 115.284C201.055 115.059 200.793 114.898 200.502 114.822C200.211 114.745 199.904 114.756 199.62 114.854C199.045 115.066 198.533 115.418 198.129 115.878C195.364 118.553 193.925 122.263 192.568 125.861C193.443 122.848 194.028 119.76 194.315 116.637C194.315 115.868 194.315 114.925 193.596 114.587C193.341 114.487 193.061 114.468 192.794 114.532C192.527 114.596 192.287 114.741 192.105 114.946C191.758 115.325 191.492 115.772 191.324 116.258C190.118 119.353 188.991 122.475 187.942 125.625C187.747 126.199 186.061 132.43 184.488 130.298C184.285 129.968 184.155 129.597 184.108 129.212C183.872 127.982 183.635 126.752 183.388 125.512C183.312 124.873 183.09 124.26 182.741 123.719C182.602 123.485 182.391 123.303 182.14 123.199C181.888 123.095 181.609 123.076 181.346 123.145C181.082 123.213 180.848 123.365 180.679 123.578C180.51 123.79 180.414 124.052 180.407 124.323C179.38 129.97 182.402 135.597 182.124 141.377C185.917 142.552 189.248 144.877 191.653 148.029Z" fill="#FCD9C0"/>
<path d="M191.684 148.931L191.242 148.346C188.895 145.299 185.665 143.045 181.99 141.89L181.6 141.777V141.377C181.606 138.823 181.289 136.278 180.654 133.803C179.986 130.729 179.307 127.459 179.893 124.252C179.941 123.885 180.094 123.541 180.335 123.26C180.576 122.98 180.894 122.776 181.25 122.673C181.599 122.608 181.959 122.645 182.288 122.78C182.616 122.914 182.898 123.141 183.1 123.432C183.515 124.044 183.775 124.747 183.861 125.481L184.57 129.181C184.602 129.49 184.704 129.788 184.868 130.052C184.951 130.175 185.053 130.309 185.156 130.288C185.259 130.268 186.071 129.929 187.325 125.789L187.407 125.522C188.435 122.386 189.607 119.219 190.8 116.135C190.986 115.544 191.294 115 191.704 114.536C191.963 114.265 192.297 114.077 192.663 113.997C193.029 113.916 193.411 113.947 193.76 114.085C194.51 114.443 194.85 115.294 194.788 116.626C194.71 117.847 194.563 119.061 194.346 120.265C195.207 118.504 196.353 116.898 197.738 115.509C198.208 115.007 198.794 114.627 199.445 114.402C199.829 114.278 200.241 114.268 200.631 114.376C201.02 114.483 201.369 114.703 201.634 115.007C202.384 115.971 201.809 117.323 201.583 117.826C200.747 119.787 199.832 121.713 198.838 123.606C199.661 122.738 200.551 121.936 201.5 121.208C201.916 120.827 202.406 120.538 202.94 120.357C203.252 120.252 203.587 120.236 203.908 120.311C204.229 120.386 204.523 120.548 204.756 120.781C204.989 121.013 205.152 121.306 205.227 121.626C205.302 121.945 205.286 122.28 205.18 122.591C205.028 123.103 204.788 123.585 204.471 124.016L201.079 129.14C201.747 128.648 202.436 128.167 203.135 127.675C204.348 126.855 205.407 126.742 206.106 127.357C206.369 127.62 206.549 127.955 206.622 128.32C206.695 128.685 206.659 129.063 206.517 129.407C206.269 129.955 205.92 130.452 205.489 130.872C200.491 136.268 195.988 142.099 192.033 148.295L191.684 148.931ZM182.638 141.029C186.143 142.209 189.25 144.338 191.612 147.178C195.507 141.176 199.913 135.518 204.78 130.268C205.121 129.945 205.4 129.563 205.602 129.14C205.668 128.99 205.692 128.824 205.67 128.662C205.649 128.499 205.582 128.345 205.479 128.218C205.037 127.839 204.132 128.372 203.762 128.618C202.156 129.654 200.627 130.805 199.188 132.061L196.248 134.705L203.659 123.493C203.904 123.155 204.094 122.782 204.224 122.386C204.27 122.244 204.279 122.093 204.252 121.947C204.225 121.8 204.163 121.663 204.07 121.546C203.955 121.454 203.819 121.391 203.673 121.365C203.528 121.338 203.378 121.347 203.238 121.392C202.862 121.527 202.514 121.729 202.21 121.987C199.945 123.862 197.921 126.01 196.186 128.382L195.343 127.798C197.39 124.462 199.19 120.981 200.729 117.385C200.976 116.831 201.254 116.032 200.914 115.591C200.776 115.45 200.599 115.352 200.406 115.308C200.213 115.264 200.011 115.277 199.825 115.345C199.339 115.526 198.903 115.817 198.55 116.196C195.816 118.85 194.377 122.643 193.112 125.994L192.085 125.686C192.954 122.674 193.532 119.585 193.811 116.462C193.811 115.868 193.811 115.11 193.38 114.915C193.22 114.866 193.05 114.864 192.889 114.909C192.729 114.955 192.585 115.046 192.475 115.171C192.172 115.538 191.942 115.959 191.797 116.411C190.604 119.486 189.474 122.632 188.425 125.758L188.353 125.994C187.325 129.427 186.39 131.026 185.362 131.21C185.108 131.242 184.85 131.197 184.621 131.082C184.392 130.967 184.203 130.787 184.077 130.565C183.825 130.179 183.663 129.741 183.604 129.284L182.885 125.584C182.827 125.022 182.637 124.481 182.329 124.006C182.247 123.866 182.125 123.755 181.978 123.685C181.832 123.616 181.667 123.592 181.507 123.616C181.345 123.675 181.203 123.779 181.098 123.915C180.992 124.051 180.927 124.214 180.911 124.385C180.366 127.398 180.993 130.38 181.661 133.537C182.278 135.988 182.606 138.502 182.638 141.029Z" fill="#263238"/>
<path d="M181.846 140.332L160.465 173.128C160.465 173.128 145.642 136.858 135.795 128.433C125.947 120.009 94.9344 118.81 78.2921 123.688C61.6499 128.566 58.4016 134.705 53.5806 146.348C48.7596 157.991 0.775543 192.929 0.775543 192.929L13.3061 218.827L65.2682 169.1L64.2403 222.691L135.528 221.513L134.613 167.84C134.613 167.84 149.785 201.353 160.476 200.636C171.166 199.918 192.722 147.691 192.722 147.691C189.607 143.427 181.846 140.332 181.846 140.332Z" fill="#FFB532"/>
<path d="M63.7057 223.214L64.7336 170.33L13.1519 219.688L0.12793 192.765L0.477428 192.519C0.950278 192.17 48.3792 157.581 53.0974 146.153C57.9082 134.511 61.2078 128.208 78.1688 123.237C95.1297 118.266 126.358 119.701 136.144 128.085C145.2 135.843 158.163 166.282 160.568 172.062L181.641 139.697L182.072 139.83C182.401 139.953 190.008 143.027 193.164 147.393L193.328 147.629L193.226 147.885C192.342 150.038 171.423 200.451 160.537 201.179C151.162 201.753 138.817 177.761 135.199 170.228L136.083 222.015H135.569L63.7057 223.214ZM65.7616 167.87L64.7336 222.189L134.972 221.021L134.027 165.37L135.055 167.635C135.199 167.963 149.908 200.175 160.105 200.175H160.414C163.323 199.99 169.11 195.245 180.119 173.723C186.225 161.772 191.293 149.751 192.095 147.814C189.422 144.339 183.583 141.664 182.021 140.988L160.362 174.266L159.992 173.354C159.848 172.995 145.098 137.104 135.476 128.864C125.855 120.624 95.2428 119.332 78.4566 124.221C61.9171 129.069 58.8641 134.89 54.0534 146.543C49.3866 157.816 6.11051 189.67 1.42313 193.093L13.4911 217.967L65.7616 167.87Z" fill="#263238"/>
<g style="mix-blend-mode:darken">
<path d="M57.2606 144.37C58.2271 140.456 59.5128 136.627 61.1051 132.922C57.8568 136.427 55.8934 140.742 53.5806 146.348C48.7493 158.042 0.775543 192.929 0.775543 192.929L6.67589 205.115C6.71701 205.033 55.9859 149.32 57.2606 144.37Z" fill="#FF9C0A"/>
</g>
<g style="mix-blend-mode:darken">
<path d="M191.951 148.777C188.271 153.379 184.601 158.103 181.168 162.879C177.375 168.168 174.486 174.05 170.004 178.847C165.029 184.176 157.556 186.667 151.584 181.235C148.151 178.16 146.239 173.477 143.987 169.521C141.407 164.98 138.786 160.44 136.432 155.777C135.147 153.225 133.934 150.652 132.845 148.008C132.845 149.218 132.845 150.427 132.845 151.636C133.241 157.855 134.176 164.027 135.641 170.084C139.29 177.617 151.44 201.21 160.424 200.636C170.703 199.98 190.83 152.108 192.547 147.988C192.352 148.265 192.156 148.521 191.951 148.777Z" fill="#FF9C0A"/>
</g>
<path d="M125.402 122.069C122.49 120.702 119.526 119.479 116.511 118.4C114.167 117.559 111.957 116.35 109.49 116.032C103.446 115.413 97.34 115.974 91.5114 117.682C85.2096 119.63 79.0309 121.954 73.0085 124.641C71.3227 125.348 69.5135 126.178 68.6809 127.798C67.5091 130.063 68.6809 132.82 70.2948 134.828C71.9086 136.837 73.6972 138.538 75.1055 140.619C76.5138 142.699 77.4389 145.303 76.7708 147.721C75.9484 150.683 72.9468 152.702 72.2479 155.705C71.7442 157.878 72.5562 160.122 73.3477 162.213C74.9719 166.442 76.5926 170.682 78.2099 174.932C81.0573 182.383 84.2439 190.305 90.7507 194.917C93.5775 196.967 97.2164 198.207 100.516 197.151C103.363 196.229 105.399 193.769 107.146 191.35C111.933 184.415 116.027 177.027 119.368 169.295C120.838 166.026 122.452 162.879 123.984 159.723C124.675 158.321 124.913 156.74 124.664 155.198C124.415 153.656 123.693 152.229 122.596 151.114C121.496 150.089 120.037 149.371 119.43 148.039C118.618 146.184 119.749 144.104 120.797 142.361C123.556 137.741 125.895 132.884 127.787 127.849C128.335 126.775 128.463 125.537 128.147 124.375C127.559 123.286 126.578 122.462 125.402 122.069Z" fill="#FFD46D"/>
<path d="M89.1577 116.78C89.1577 116.78 79.9783 168.906 83.833 221.513H115.195C115.36 221.513 111.454 137.401 113.993 119.937L89.1577 116.78Z" fill="white"/>
<path d="M90.6582 202.481H90.9768C90.9768 201.907 90.9768 201.333 90.9049 200.769C90.8124 201.322 90.7301 201.907 90.6582 202.481Z" fill="#DCE2EC"/>
<path d="M112.739 96.785L113.15 96.498C113.561 98.087 113.656 99.741 113.427 101.366C113.222 104.277 112.996 107.167 112.893 110.078C112.918 112.696 113.263 115.301 113.921 117.836C114.053 118.341 114.095 118.865 114.044 119.384C113.918 119.968 113.646 120.511 113.253 120.962C110.508 124.354 105.605 125.061 101.236 124.918C97.5868 124.805 93.6189 124.262 90.5351 122.171C88.6849 120.921 88.8185 120.47 88.8699 118.512C88.9759 117.078 89.2063 115.654 89.5586 114.259C89.7642 113.234 91.4294 104.318 90.0109 104.338C94.0531 104.259 98.0598 103.568 101.894 102.289C103.754 101.674 105.646 100.946 107.445 100.239C109.328 99.2802 111.103 98.1222 112.739 96.785Z" fill="#FCD9C0"/>
<path d="M102.171 125.42H101.143C98.0589 125.328 93.6285 124.928 90.1746 122.581C88.2935 121.32 88.2216 120.675 88.273 118.84V118.492C88.326 117.483 88.488 116.483 88.7561 115.509C88.8692 115.069 88.972 114.628 89.0645 114.167C89.9691 109.545 90.3391 105.343 89.8868 104.81C89.934 104.822 89.9836 104.822 90.0307 104.81V103.785C94.0187 103.699 97.9703 103.008 101.749 101.735C103.425 101.182 105.275 100.474 107.269 99.6852C108.695 99.0003 110.036 98.1543 111.268 97.164C111.658 96.8771 112.039 96.5901 112.419 96.3236L113.447 95.6472L113.663 96.2929C114.09 97.9035 114.191 99.5828 113.961 101.233L113.827 102.934C113.663 105.271 113.488 107.69 113.406 110.108C113.406 112.561 113.706 115.005 114.3 117.385L114.372 117.744C114.522 118.308 114.567 118.895 114.506 119.476C114.365 120.147 114.053 120.772 113.601 121.29C111.36 124.026 107.526 125.42 102.171 125.42ZM90.997 104.82C91.4596 106.87 90.555 111.994 90.1027 114.362C90.0102 114.833 89.8971 115.284 89.784 115.735C89.5294 116.637 89.3777 117.566 89.3317 118.502V118.861C89.3317 120.46 89.3317 120.716 90.7811 121.73C94.0191 123.913 98.2851 124.293 101.204 124.385C106.755 124.559 110.651 123.288 112.81 120.613C113.152 120.237 113.39 119.777 113.499 119.281C113.538 118.823 113.496 118.361 113.375 117.918L113.303 117.559C112.692 115.098 112.385 112.572 112.388 110.037C112.471 107.638 112.645 105.209 112.81 102.862L112.933 101.182C113.079 99.8961 113.055 98.597 112.861 97.3178L111.915 98.0044C110.619 99.0519 109.2 99.9397 107.691 100.649C105.686 101.489 103.805 102.206 102.109 102.77C98.5183 103.964 94.7784 104.654 90.997 104.82Z" fill="#263238"/>
<g style="mix-blend-mode:multiply">
<path d="M113.869 117.816C113.211 115.281 112.866 112.675 112.841 110.057C112.944 107.147 113.17 104.256 113.376 101.346C113.638 99.7272 113.578 98.0732 113.201 96.4775L112.79 96.7645C111.166 98.085 109.405 99.2291 107.537 100.177C105.738 100.936 103.847 101.663 101.986 102.227C98.1524 103.506 94.1458 104.198 90.1035 104.277C91.0184 104.277 90.6586 107.905 90.2269 110.805C94.9965 113.05 101.174 110.877 105.276 114.905C107.63 117.201 108.699 120.429 109.388 123.678C110.866 123.094 112.177 122.154 113.201 120.941C113.595 120.49 113.867 119.947 113.993 119.363C114.044 118.844 114.002 118.32 113.869 117.816Z" fill="#ECBE9D"/>
</g>
<path d="M122.452 56.0152C123.879 58.4901 124.949 61.1538 125.628 63.9272C126.357 66.3936 126.731 68.9505 126.738 71.5216C126.893 74.1986 126.81 76.8839 126.492 79.5464C125.856 83.5087 124.327 87.2756 122.02 90.5639C119.646 93.9152 116.469 96.3134 113.797 99.3778C113.067 100.208 111.936 101.489 110.713 100.741C109.767 100.198 109.87 98.8346 110.055 97.7688C110.977 92.3285 110.848 86.7627 109.675 81.3707C108.544 76.195 106.899 71.2551 106.282 65.936C105.892 62.6359 103.445 64.04 101.307 64.7676C98.5215 65.7003 95.4686 66.346 92.6006 65.3723C91.6447 65.0546 90.7504 64.5627 89.7738 64.3474C88.7341 64.1491 87.6708 64.1042 86.6181 64.2142C80.7897 64.5217 75.7117 65.8233 70.0786 63.3431C68.3421 62.6701 66.8995 61.408 66.0045 59.7789C65.1095 58.1498 64.8195 56.2581 65.1856 54.4369C65.6595 52.459 66.8332 50.718 68.4912 49.5338C70.1492 48.3495 72.1801 47.8015 74.2109 47.9904C75.3939 48.2638 76.6045 48.4013 77.8189 48.4003C79.3917 48.2363 79.8748 47.068 80.7485 46.0431C81.8206 44.9255 83.0583 43.9785 84.4183 43.2349C87.1394 41.6912 90.1682 40.7639 93.2894 40.519C100.403 39.9246 109.274 41.9231 113.437 48.1851C113.905 49.0769 114.52 49.884 115.256 50.5731C116.023 51.0436 116.845 51.4188 117.703 51.6902C119.667 52.6504 121.315 54.1511 122.452 56.0152Z" fill="#182023"/>
<path d="M90.5146 59.5921C86.1253 60.248 82.8256 63.3739 78.5186 64.245C78.4829 64.2461 78.4478 64.2549 78.4159 64.2709C78.3839 64.2868 78.3558 64.3094 78.3335 64.3373C78.3078 64.3996 78.3078 64.4696 78.3335 64.532C78.8756 66.3004 79.271 68.1103 79.5157 69.9433C79.8895 73.5843 79.81 77.2573 79.2792 80.8788C78.7139 84.4556 77.8299 88.053 78.1691 91.681C78.3832 93.8613 79.0274 95.9779 80.0646 97.9091C81.1019 99.8403 82.5118 101.548 84.2133 102.934C88.9624 106.767 95.6028 107.321 101.4 106.009C111.145 103.959 116.891 94.0382 116.285 84.4864C116.26 84.362 116.262 84.2338 116.29 84.1102C116.319 83.9866 116.373 83.8703 116.449 83.769C116.547 83.6852 116.663 83.6255 116.789 83.5947C118.947 82.8773 120.828 81.9139 121.538 79.5567C121.7 79.0849 121.767 78.5858 121.735 78.0881C121.703 77.5904 121.573 77.1039 121.353 76.6563C119.811 73.9199 116.018 75.9286 114.907 77.9271C114.527 78.6138 114.579 79.1263 113.736 79.3722C112.276 79.7924 111.68 79.6797 111.094 78.2039C110.426 76.4206 111.094 74.873 111.094 73.0795C111.094 71.2859 111.33 69.6666 110.323 68.0678C109.729 67.305 109.186 66.5039 108.699 65.6696C108.324 64.7616 108.166 63.7793 108.236 62.7999C108.267 61.056 108.569 59.3274 109.13 57.6755C107.928 58.7724 106.535 59.6408 105.019 60.2377C102.706 61.0371 100.177 60.6887 97.8232 60.2377C95.4412 59.6118 92.9699 59.3935 90.5146 59.5921Z" fill="#FCD9C0"/>
<path d="M95.7978 107.208C91.5052 107.327 87.3022 105.97 83.8944 103.365C82.1265 101.938 80.6628 100.172 79.5895 98.173C78.5161 96.1735 77.8548 93.9801 77.6445 91.722C77.5005 88.7808 77.7529 85.8336 78.3949 82.9593L78.765 80.807C79.2896 77.2228 79.369 73.5879 79.0014 69.9843C78.8394 68.5709 78.5504 67.1749 78.1379 65.813L77.8295 64.6652C77.7722 64.4665 77.7944 64.2535 77.8912 64.0708C77.9497 63.9816 78.0268 63.9061 78.1173 63.8495C78.2078 63.7929 78.3095 63.7565 78.4155 63.7428C80.366 63.2594 82.2407 62.5111 83.9869 61.5188C85.9878 60.356 88.1697 59.5351 90.4423 59.0898C92.6916 58.8832 94.9599 59.0705 97.1444 59.6433L97.864 59.7868C100.054 60.207 102.582 60.5964 104.844 59.7868C106.293 59.2033 107.626 58.3669 108.781 57.3168L110.189 56.1484L109.603 57.8702C109.056 59.4615 108.761 61.1282 108.729 62.8102C108.665 63.7145 108.806 64.6216 109.14 65.4646C109.393 65.9525 109.696 66.4127 110.045 66.8379C110.281 67.1454 110.528 67.4631 110.734 67.7911C111.478 69.1296 111.78 70.6682 111.597 72.1878C111.597 72.4748 111.597 72.772 111.597 73.0794C111.588 73.6729 111.539 74.2652 111.453 74.8525C111.242 75.9046 111.295 76.9925 111.607 78.0194C112.029 79.157 112.296 79.2595 113.663 78.8803C114.044 78.7675 114.105 78.6343 114.26 78.2346C114.338 78.0451 114.427 77.8603 114.527 77.6811C115.016 76.8662 115.694 76.1802 116.505 75.6809C117.315 75.1815 118.234 74.8834 119.183 74.8115C119.736 74.8007 120.28 74.9449 120.755 75.2275C121.229 75.5102 121.614 75.92 121.866 76.4103C122.121 76.9162 122.272 77.4677 122.311 78.0325C122.35 78.5974 122.276 79.1643 122.092 79.7002C121.301 82.3341 119.183 83.359 117.014 84.0764C116.961 84.0914 116.909 84.1121 116.86 84.1379C116.848 84.2434 116.848 84.35 116.86 84.4556C117.498 94.9709 110.919 104.461 101.554 106.531C99.6662 106.967 97.7357 107.194 95.7978 107.208ZM78.8986 64.6857C78.9808 64.9829 79.0528 65.2699 79.135 65.5466C79.5591 66.9699 79.8584 68.4273 80.0293 69.9023C80.4003 73.585 80.314 77.2992 79.7723 80.9608C79.6593 81.6884 79.5359 82.4161 79.4023 83.1335C78.7794 85.9308 78.5305 88.7981 78.6622 91.6605C79.0936 95.9377 81.208 99.8701 84.542 102.596C88.6537 105.937 94.8213 107.034 101.297 105.599C110.168 103.631 116.408 94.5917 115.791 84.5786C115.761 84.3805 115.773 84.1781 115.828 83.9854C115.883 83.7926 115.979 83.6139 116.11 83.4615C116.266 83.3223 116.453 83.2207 116.655 83.1642C118.854 82.4366 120.448 81.5244 121.064 79.4644C121.345 78.6475 121.294 77.7534 120.921 76.974C120.752 76.653 120.495 76.3863 120.18 76.2049C119.865 76.0235 119.506 75.9348 119.142 75.9491C118.377 76.0166 117.638 76.2635 116.986 76.6695C116.334 77.0756 115.787 77.6294 115.39 78.2858C115.306 78.4333 115.233 78.5876 115.174 78.747C115.089 79.0441 114.928 79.3138 114.706 79.5295C114.484 79.7452 114.21 79.8995 113.91 79.9769C112.327 80.4381 111.34 80.3356 110.641 78.4908C110.27 77.3105 110.199 76.0566 110.436 74.8422C110.512 74.2952 110.557 73.7443 110.569 73.1922C110.569 72.8745 110.569 72.567 110.569 72.28C110.749 70.9596 110.5 69.6167 109.86 68.447C109.664 68.1419 109.451 67.8477 109.223 67.5656C108.825 67.081 108.48 66.5553 108.195 65.9975C107.798 65.0232 107.626 63.9724 107.691 62.9229C107.714 61.6796 107.873 60.4425 108.164 59.2333C107.254 59.9358 106.242 60.4957 105.162 60.8936C102.664 61.7545 100.023 61.3446 97.6584 60.8936L96.9286 60.7501C94.8668 60.1763 92.7218 59.9579 90.5862 60.1045C88.4138 60.5289 86.3287 61.3154 84.4186 62.4309C82.6794 63.4077 80.8252 64.1651 78.8986 64.6857Z" fill="#263238"/>
<g style="mix-blend-mode:multiply">
<path d="M121.424 76.6871C119.882 73.9506 116.089 75.9594 114.979 77.9579C114.599 78.6446 114.65 79.157 113.807 79.403C112.348 79.8232 111.751 79.7105 111.165 78.2346C110.497 76.4513 111.165 74.9038 111.165 73.1102C111.165 71.3167 111.402 69.6974 110.395 68.0986C109.801 67.3358 109.258 66.5346 108.77 65.7004C108.396 64.7924 108.237 63.81 108.308 62.8307C108.339 61.0868 108.64 59.3581 109.202 57.7063C108 58.8032 106.606 59.6716 105.09 60.2685C102.778 61.0679 100.249 60.7194 97.8948 60.2685C95.5323 59.6311 93.0788 59.3955 90.6376 59.5716C86.2483 60.2275 82.9487 63.3534 78.6416 64.2245C78.6059 64.2256 78.5709 64.2345 78.5389 64.2504C78.507 64.2663 78.4789 64.289 78.4566 64.3168C78.4309 64.3791 78.4309 64.4491 78.4566 64.5115C78.5285 64.8087 78.6108 65.1059 78.693 65.3929C80.6132 65.2384 82.5157 64.9126 84.3775 64.4193C86.2381 63.9068 87.9856 63.1074 89.8153 62.5232C91.3426 61.9937 92.9473 61.7201 94.5643 61.7136C96.2341 61.8798 97.8813 62.2234 99.4779 62.7385C101.287 63.1792 103.764 62.7385 104.618 64.7882C105.471 66.838 105.029 68.98 105.162 71.0195C105.378 74.3093 106.478 77.5275 107.043 80.7763C107.593 83.7958 107.697 86.8791 107.352 89.9285C106.684 95.2271 104.618 100.741 100.393 104.215C99.2564 105.14 98.0058 105.915 96.6716 106.521C98.3191 106.524 99.9624 106.356 101.575 106.019C111.145 103.959 116.891 94.0383 116.285 84.4864C116.26 84.362 116.262 84.2338 116.29 84.1102C116.318 83.9866 116.373 83.8703 116.449 83.769C116.547 83.6852 116.663 83.6255 116.788 83.5947C118.947 82.8773 120.828 81.9139 121.537 79.5567C121.878 78.6224 121.838 77.5918 121.424 76.6871Z" fill="#ECBE9D"/>
</g>
<path d="M87.2349 75.2624C87.2349 75.5952 87.1358 75.9206 86.9501 76.1972C86.7644 76.4739 86.5005 76.6893 86.1918 76.8162C85.8832 76.9431 85.5437 76.9758 85.2164 76.9101C84.8891 76.8444 84.5888 76.6833 84.3534 76.4472C84.1181 76.2111 83.9583 75.9107 83.8944 75.584C83.8306 75.2572 83.8654 74.919 83.9946 74.612C84.1237 74.3051 84.3414 74.0433 84.62 73.8598C84.8986 73.6764 85.2255 73.5795 85.5594 73.5816C85.7803 73.5816 85.999 73.6251 86.203 73.7097C86.4069 73.7943 86.5921 73.9183 86.7478 74.0745C86.9035 74.2307 87.0267 74.4161 87.1103 74.6199C87.1939 74.8238 87.2363 75.0421 87.2349 75.2624Z" fill="#2E2C41"/>
<path d="M100.444 75.2624C100.45 75.5982 100.355 75.9281 100.171 76.2096C99.9869 76.4911 99.7227 76.7112 99.4122 76.8415C99.1017 76.9718 98.7592 77.0064 98.4288 76.9408C98.0984 76.8752 97.7953 76.7124 97.5586 76.4734C97.3219 76.2344 97.1624 75.9302 97.1007 75.6C97.0391 75.2698 97.0781 74.9288 97.2127 74.6209C97.3472 74.313 97.5713 74.0523 97.8558 73.8726C98.1404 73.6928 98.4725 73.6022 98.8092 73.6123C99.2429 73.6229 99.6555 73.8008 99.9604 74.1085C100.265 74.4163 100.438 74.8299 100.444 75.2624Z" fill="#2E2C41"/>
<path d="M122.988 83.4476C125.557 80.8861 125.557 76.733 122.988 74.1715C120.419 71.61 116.253 71.61 113.684 74.1715C111.115 76.733 111.115 80.8861 113.684 83.4476C116.253 86.0092 120.419 86.0092 122.988 83.4476Z" fill="#E2F4FD"/>
<path d="M118.34 82.2112C120.225 82.2112 121.753 80.6878 121.753 78.8086C121.753 76.9294 120.225 75.406 118.34 75.406C116.456 75.406 114.928 76.9294 114.928 78.8086C114.928 80.6878 116.456 82.2112 118.34 82.2112Z" fill="#006DA2"/>
<path d="M117.97 75.1908C117.615 75.17 117.282 75.0154 117.038 74.7584C116.793 74.5014 116.656 74.1614 116.654 73.8072C116.745 69.9706 116.501 66.1333 115.924 62.3389C115.383 58.6844 113.883 55.2374 111.576 52.3463C109.658 50.1007 107.23 48.344 104.494 47.2219C101.347 45.9667 97.9838 45.3399 94.5948 45.3771C89.422 45.4228 84.291 46.3055 79.4019 47.9905C78.8674 48.1648 78.3739 48.3697 77.8086 48.544C77.6957 48.5847 77.572 48.5847 77.4591 48.544C77.3896 48.5187 77.3296 48.4726 77.2873 48.4121C77.245 48.3516 77.2224 48.2795 77.2227 48.2058C77.4082 47.5239 77.795 46.9133 78.3328 46.4532C79.9364 44.7417 82.3829 44.219 84.593 43.6963C87.6067 42.9953 90.6882 42.6241 93.7827 42.5894C97.3675 42.4771 100.943 43.0082 104.34 44.1575C107.958 45.4335 111.174 47.6396 113.663 50.5527C116.278 53.8133 117.99 57.7004 118.628 61.8264C119.235 65.7796 119.493 69.7783 119.399 73.7765C119.4 73.9591 119.365 74.1401 119.296 74.3091C119.227 74.4782 119.125 74.6319 118.996 74.7615C118.867 74.891 118.714 74.9939 118.545 75.064C118.376 75.1342 118.194 75.1703 118.011 75.1703L117.97 75.1908Z" fill="#E2F4FD"/>
<path d="M101.647 100.772C101.451 100.764 101.265 100.69 101.118 100.56C100.972 100.431 100.876 100.255 100.845 100.062C100.815 99.8699 100.853 99.6728 100.952 99.5049C101.051 99.337 101.206 99.2088 101.39 99.1421C105.121 97.9328 109.757 96.4262 112.543 93.0954C114.928 90.2462 115.771 86.3312 116.511 82.8466C116.535 82.7365 116.581 82.6323 116.646 82.5401C116.711 82.4479 116.794 82.3695 116.889 82.3094C116.985 82.2493 117.092 82.2088 117.203 82.1902C117.315 82.1715 117.429 82.1752 117.539 82.2009C117.65 82.2236 117.755 82.2687 117.847 82.3333C117.94 82.3979 118.019 82.4807 118.079 82.5766C118.138 82.6725 118.178 82.7795 118.194 82.8912C118.211 83.0028 118.205 83.1166 118.176 83.2258C117.395 86.8641 116.5 90.9944 113.859 94.1612C110.775 97.861 105.872 99.4496 101.935 100.731C101.841 100.757 101.744 100.771 101.647 100.772Z" fill="#E2F4FD"/>
<path d="M100.865 102.688L99.4363 103.088C99.1197 103.178 98.7883 103.205 98.4614 103.166C98.1344 103.128 97.8183 103.025 97.5315 102.864C97.2446 102.703 96.9927 102.487 96.7903 102.228C96.5879 101.969 96.4391 101.672 96.3525 101.356C96.2618 101.041 96.2346 100.711 96.2724 100.386C96.3103 100.06 96.4124 99.7454 96.573 99.4595C96.7336 99.1736 96.9494 98.9223 97.2079 98.72C97.4665 98.5178 97.7627 98.3686 98.0794 98.2812L99.5082 97.8815C99.8248 97.7912 100.156 97.7645 100.483 97.8029C100.81 97.8413 101.126 97.9441 101.413 98.1052C101.7 98.2663 101.952 98.4826 102.154 98.7415C102.357 99.0004 102.505 99.2968 102.592 99.6135C102.684 99.9284 102.712 100.258 102.675 100.584C102.638 100.91 102.536 101.226 102.375 101.512C102.214 101.798 101.998 102.05 101.739 102.251C101.48 102.453 101.183 102.602 100.865 102.688Z" fill="#006DA2"/>
<path d="M90.8017 95.3501C89.9365 95.3583 89.0767 95.2125 88.2627 94.9197C88.136 94.8694 88.0344 94.771 87.9804 94.646C87.9265 94.5211 87.9245 94.3799 87.9749 94.2535C88.0254 94.1271 88.1241 94.0259 88.2494 93.9721C88.3747 93.9182 88.5163 93.9163 88.6431 93.9665C90.1661 94.4902 91.8304 94.4281 93.3099 93.7923C94.5143 93.2079 95.5243 92.2899 96.219 91.1481C96.2861 91.0303 96.3965 90.943 96.5269 90.9048C96.6573 90.8665 96.7975 90.8803 96.918 90.9432C96.9775 90.9753 97.03 91.0189 97.0726 91.0714C97.1152 91.1239 97.1469 91.1843 97.166 91.249C97.1851 91.3138 97.1912 91.3817 97.1839 91.4488C97.1766 91.5159 97.1561 91.5809 97.1235 91.6401C96.3166 92.9719 95.1378 94.0403 93.7314 94.7147C92.8131 95.1375 91.8131 95.3544 90.8017 95.3501Z" fill="#263238"/>
<path d="M103.312 70.3944C103.233 70.3936 103.154 70.3747 103.083 70.3392C103.012 70.3037 102.95 70.2525 102.901 70.1894C102.809 70.0767 100.63 67.3095 95.6337 69.7999C95.573 69.8297 95.507 69.8472 95.4395 69.8514C95.372 69.8557 95.3043 69.8466 95.2403 69.8247C95.1763 69.8028 95.1173 69.7685 95.0666 69.7238C95.016 69.6791 94.9746 69.6249 94.945 69.5642C94.9134 69.5046 94.8942 69.4392 94.8885 69.372C94.8828 69.3048 94.8907 69.2371 94.9119 69.173C94.933 69.1089 94.9668 69.0497 95.0114 68.999C95.0559 68.9482 95.1103 68.9069 95.1712 68.8776C100.979 65.9874 103.703 69.5437 103.724 69.5847C103.764 69.6386 103.794 69.6998 103.81 69.765C103.827 69.8302 103.831 69.898 103.821 69.9647C103.812 70.0313 103.789 70.0954 103.755 70.1533C103.72 70.2112 103.675 70.2618 103.621 70.3021C103.529 70.362 103.422 70.3941 103.312 70.3944Z" fill="#263238"/>
<path d="M88.4584 70.3944C88.3918 70.3965 88.3254 70.3849 88.2635 70.3602C88.2015 70.3355 88.1454 70.2983 88.0986 70.2509C87.4362 69.5531 86.5559 69.1002 85.6017 68.9661C84.6475 68.8321 83.6759 69.0249 82.8459 69.513C82.7299 69.5652 82.5987 69.5727 82.4775 69.534C82.3563 69.4954 82.2538 69.4132 82.1899 69.3036C82.1259 69.1939 82.105 69.0645 82.1313 68.9403C82.1575 68.8162 82.229 68.7062 82.3319 68.6316C83.3567 68.0333 84.5535 67.796 85.7299 67.9577C86.9063 68.1194 87.994 68.6708 88.8182 69.5232C88.9124 69.619 88.9651 69.7478 88.9651 69.8819C88.9651 70.0161 88.9124 70.1448 88.8182 70.2406C88.7227 70.3363 88.5937 70.3914 88.4584 70.3944Z" fill="#263238"/>
<path d="M93.1763 87.2946C92.467 87.2331 91.9016 87.2229 91.4082 87.2126C90.5171 87.2627 89.6266 87.1048 88.8075 86.7514C87.7796 86.2185 88.5814 84.4865 89.7532 82.078C90.3857 80.9562 90.8694 79.7573 91.1923 78.5114C91.3023 77.7432 91.3023 76.9634 91.1923 76.1952C91.1565 76.0661 91.1716 75.9282 91.2348 75.81C91.2979 75.6917 91.4041 75.6022 91.5316 75.5598C91.5943 75.5389 91.6606 75.5305 91.7266 75.5352C91.7926 75.5399 91.8571 75.5574 91.9163 75.587C91.9754 75.6165 92.0282 75.6573 92.0716 75.7071C92.1149 75.757 92.148 75.8149 92.1689 75.8775C92.3314 76.779 92.3314 77.7021 92.1689 78.6036C91.8579 79.981 91.3416 81.3041 90.6373 82.5289C90.0409 83.5766 89.5913 84.7007 89.301 85.87C89.9559 86.1201 90.6567 86.2284 91.3568 86.1878C91.8605 86.1878 92.4464 86.1878 93.1763 86.28C93.3108 86.2905 93.4359 86.3533 93.5243 86.455C93.6128 86.5566 93.6576 86.6889 93.6491 86.8232C93.6418 86.9458 93.5896 87.0615 93.5025 87.1484C93.4153 87.2353 93.2993 87.2873 93.1763 87.2946Z" fill="#263238"/>
</g>
<g clip-path="url(#clip1_475_2204)">
<path d="M138.729 37.5601L151.367 24.2907V8.74838C151.367 6.62578 152.199 4.59012 153.68 3.08922C155.162 1.58832 157.171 0.745117 159.266 0.745117L235.093 0.745117C237.188 0.745117 239.197 1.58832 240.679 3.08922C242.16 4.59012 242.992 6.62578 242.992 8.74838V34.679C242.992 36.8016 242.16 38.8372 240.679 40.3381C239.197 41.839 237.188 42.6822 235.093 42.6822H140.783C140.202 42.6702 139.638 42.4862 139.16 42.1528C138.681 41.8193 138.31 41.3512 138.091 40.8062C137.873 40.2612 137.817 39.6633 137.93 39.0864C138.043 38.5095 138.321 37.9789 138.729 37.5601Z" fill="#FEC164"/>
<path d="M213.814 21.8098C213.814 23.2882 214.247 24.7334 215.058 25.9627C215.868 27.1919 217.02 28.15 218.368 28.7158C219.717 29.2816 221.2 29.4296 222.631 29.1412C224.062 28.8528 225.377 28.1408 226.408 27.0954C227.44 26.05 228.143 24.7181 228.427 23.2681C228.712 21.8181 228.566 20.3151 228.008 18.9492C227.449 17.5833 226.504 16.4159 225.29 15.5945C224.077 14.7731 222.651 14.3347 221.192 14.3347C219.235 14.3347 217.359 15.1223 215.975 16.5241C214.592 17.926 213.814 19.8273 213.814 21.8098Z" fill="white"/>
<path d="M189.771 21.5535C189.771 23.0305 190.202 24.4745 191.012 25.7031C191.821 26.9316 192.971 27.8897 194.317 28.4564C195.664 29.0231 197.145 29.173 198.576 28.8872C200.006 28.6013 201.32 27.8926 202.353 26.8504C203.386 25.8082 204.092 24.4792 204.38 23.0313C204.668 21.5834 204.526 20.0815 203.973 18.715C203.419 17.3486 202.479 16.1789 201.27 15.3537C200.061 14.5285 198.637 14.0848 197.18 14.0784C196.208 14.0742 195.245 14.2645 194.347 14.6382C193.448 15.012 192.631 15.5619 191.942 16.2565C191.254 16.951 190.708 17.7765 190.335 18.6855C189.962 19.5945 189.771 20.5691 189.771 21.5535Z" fill="white"/>
<path d="M165.727 21.5537C165.727 23.0321 166.159 24.4773 166.97 25.7066C167.781 26.9358 168.933 27.8939 170.281 28.4597C171.629 29.0255 173.112 29.1735 174.543 28.8851C175.975 28.5967 177.289 27.8847 178.321 26.8393C179.353 25.7939 180.055 24.462 180.34 23.012C180.624 21.562 180.478 20.059 179.92 18.6931C179.362 17.3272 178.416 16.1598 177.203 15.3384C175.99 14.517 174.563 14.0786 173.104 14.0786C172.135 14.0786 171.176 14.272 170.281 14.6476C169.386 15.0233 168.573 15.5739 167.888 16.268C167.202 16.9621 166.659 17.7862 166.288 18.6931C165.918 19.6 165.727 20.572 165.727 21.5537Z" fill="white"/>
</g>
<defs>
<clipPath id="clip0_475_2204">
<rect width="206.574" height="394.537" fill="white" transform="translate(0.12793 40.4165)"/>
</clipPath>
<clipPath id="clip1_475_2204">
<rect width="105.148" height="41.8731" fill="white" transform="matrix(-1 0 0 1 242.992 0.745117)"/>
</clipPath>
</defs>
</svg>
