<svg width="21" height="21" viewBox="0 0 21 21" fill="none" xmlns="http://www.w3.org/2000/svg">
<g clip-path="url(#clip0_github)">
<path d="M10.6992 0.647461C5.17922 0.647461 0.699219 5.12746 0.699219 10.6475C0.699219 15.0675 3.51922 18.8075 7.44922 20.1275C7.94922 20.2275 8.14922 19.9275 8.14922 19.6675C8.14922 19.4275 8.13922 18.7275 8.13922 17.8875C5.69922 18.4075 5.09922 16.5275 5.09922 16.5275C4.63922 15.3875 3.97922 15.0875 3.97922 15.0875C3.07922 14.4875 4.04922 14.4875 4.04922 14.4875C5.04922 14.5575 5.59922 15.4975 5.59922 15.4975C6.49922 16.9475 7.89922 16.5675 8.17922 16.3275C8.26922 15.6875 8.52922 15.2475 8.79922 14.9875C6.79922 14.7475 4.69922 13.9075 4.69922 10.1475C4.69922 9.08746 5.09922 8.20746 5.61922 7.52746C5.51922 7.28746 5.16922 6.24746 5.71922 4.92746C5.71922 4.92746 6.56922 4.66746 8.13922 5.76746C8.93922 5.54746 9.81922 5.44746 10.6992 5.44746C11.5792 5.44746 12.4592 5.55746 13.2592 5.76746C14.8292 4.66746 15.6792 4.92746 15.6792 4.92746C16.2292 6.24746 15.8792 7.28746 15.7792 7.52746C16.3092 8.20746 16.6992 9.08746 16.6992 10.1475C16.6992 13.9075 14.5992 14.7375 12.5892 14.9875C12.9392 15.3075 13.2592 15.9275 13.2592 16.8875C13.2592 18.2475 13.2492 19.3275 13.2492 19.6675C13.2492 19.9275 13.4492 20.2375 13.9492 20.1275C17.8792 18.8075 20.6992 15.0675 20.6992 10.6475C20.6992 5.12746 16.2192 0.647461 10.6992 0.647461Z" fill="#464444"/>
</g>
<defs>
<clipPath id="clip0_github">
<rect width="20" height="20" fill="white" transform="translate(0.699219 0.647461)"/>
</clipPath>
</defs>
</svg>