<svg width="20" height="21" viewBox="0 0 20 21" fill="none" xmlns="http://www.w3.org/2000/svg">
<g clip-path="url(#clip0_github_white)">
<path d="M10 0.454102C4.48 0.454102 0 4.93406 0 10.4541C0 14.8741 2.82 18.6141 6.75 19.9341C7.25 20.0341 7.45 19.7341 7.45 19.4741C7.45 19.2341 7.44 18.5341 7.44 17.6941C5 18.2141 4.4 16.3341 4.4 16.3341C3.94 15.1941 3.28 14.8941 3.28 14.8941C2.38 14.2941 3.35 14.2941 3.35 14.2941C4.35 14.3641 4.9 15.3041 4.9 15.3041C5.8 16.7541 7.2 16.3741 7.48 16.1341C7.57 15.4941 7.83 15.0541 8.1 14.7941C6.1 14.5541 4 13.7141 4 9.95406C4 8.89406 4.4 8.01406 4.92 7.33406C4.82 7.09406 4.47 6.05406 5.02 4.73406C5.02 4.73406 5.87 4.47406 7.44 5.57406C8.24 5.35406 9.12 5.25406 10 5.25406C10.88 5.25406 11.76 5.36406 12.56 5.57406C14.13 4.47406 14.98 4.73406 14.98 4.73406C15.53 6.05406 15.18 7.09406 15.08 7.33406C15.61 8.01406 16 8.89406 16 9.95406C16 13.7141 13.9 14.5441 11.89 14.7941C12.24 15.1141 12.56 15.7341 12.56 16.6941C12.56 18.0541 12.55 19.1341 12.55 19.4741C12.55 19.7341 12.75 20.0441 13.25 19.9341C17.18 18.6141 20 14.8741 20 10.4541C20 4.93406 15.52 0.454102 10 0.454102Z" fill="white"/>
</g>
<defs>
<clipPath id="clip0_github_white">
<rect width="20" height="20" fill="white" transform="translate(0 0.454102)"/>
</clipPath>
</defs>
</svg>