<svg width="25" height="25" viewBox="0 0 25 25" fill="none" xmlns="http://www.w3.org/2000/svg">
<path d="M13.7278 2.64746C14.8528 2.65046 15.4238 2.65646 15.9168 2.67046L16.1108 2.67746C16.3348 2.68546 16.5558 2.69546 16.8228 2.70746C17.8868 2.75746 18.6128 2.92546 19.2498 3.17246C19.9098 3.42646 20.4658 3.77046 21.0218 4.32546C21.5303 4.82536 21.9237 5.43005 22.1748 6.09746C22.4218 6.73446 22.5898 7.46046 22.6398 8.52546C22.6518 8.79146 22.6618 9.01246 22.6698 9.23746L22.6758 9.43146C22.6908 9.92346 22.6968 10.4945 22.6988 11.6195L22.6998 12.3655V13.6755C22.7023 14.4049 22.6946 15.1343 22.6768 15.8635L22.6708 16.0575C22.6628 16.2825 22.6528 16.5035 22.6408 16.7695C22.5908 17.8345 22.4208 18.5595 22.1748 19.1975C21.9245 19.8652 21.5309 20.4701 21.0218 20.9695C20.5218 21.4778 19.9171 21.8712 19.2498 22.1225C18.6128 22.3695 17.8868 22.5375 16.8228 22.5875C16.5855 22.5986 16.3482 22.6086 16.1108 22.6175L15.9168 22.6235C15.4238 22.6375 14.8528 22.6445 13.7278 22.6465L12.9818 22.6475H11.6728C10.9431 22.65 10.2133 22.6423 9.4838 22.6245L9.2898 22.6185C9.05241 22.6095 8.81507 22.5991 8.5778 22.5875C7.5138 22.5375 6.7878 22.3695 6.1498 22.1225C5.48246 21.8718 4.87801 21.4783 4.3788 20.9695C3.86984 20.4697 3.47602 19.865 3.2248 19.1975C2.9778 18.5605 2.8098 17.8345 2.7598 16.7695C2.74865 16.5322 2.73865 16.2948 2.7298 16.0575L2.7248 15.8635C2.70637 15.1343 2.69803 14.4049 2.6998 13.6755V11.6195C2.697 10.8901 2.70434 10.1607 2.7218 9.43146L2.7288 9.23746C2.7368 9.01246 2.7468 8.79146 2.7588 8.52546C2.8088 7.46046 2.9768 6.73546 3.2238 6.09746C3.47491 5.42937 3.86952 4.82448 4.3798 4.32546C4.87889 3.81693 5.48294 3.42345 6.1498 3.17246C6.7878 2.92546 7.5128 2.75746 8.5778 2.70746C8.8438 2.69546 9.0658 2.68546 9.2898 2.67746L9.4838 2.67146C10.213 2.65369 10.9424 2.64603 11.6718 2.64846L13.7278 2.64746ZM12.6998 7.64746C11.3737 7.64746 10.1019 8.17424 9.16426 9.11193C8.22658 10.0496 7.6998 11.3214 7.6998 12.6475C7.6998 13.9735 8.22658 15.2453 9.16426 16.183C10.1019 17.1207 11.3737 17.6475 12.6998 17.6475C14.0259 17.6475 15.2976 17.1207 16.2353 16.183C17.173 15.2453 17.6998 13.9735 17.6998 12.6475C17.6998 11.3214 17.173 10.0496 16.2353 9.11193C15.2976 8.17424 14.0259 7.64746 12.6998 7.64746ZM12.6998 9.64746C13.0938 9.6474 13.4839 9.72493 13.8479 9.87563C14.2119 10.0263 14.5426 10.2473 14.8213 10.5258C15.0999 10.8043 15.3209 11.135 15.4717 11.4989C15.6226 11.8629 15.7002 12.253 15.7003 12.647C15.7004 13.0409 15.6228 13.431 15.4721 13.795C15.3214 14.1591 15.1005 14.4898 14.822 14.7684C14.5434 15.0471 14.2128 15.2681 13.8488 15.4189C13.4849 15.5697 13.0948 15.6474 12.7008 15.6475C11.9051 15.6475 11.1421 15.3314 10.5795 14.7688C10.0169 14.2062 9.7008 13.4431 9.7008 12.6475C9.7008 11.8518 10.0169 11.0887 10.5795 10.5261C11.1421 9.96353 11.9051 9.64746 12.7008 9.64746M17.9508 6.14746C17.6193 6.14746 17.3013 6.27916 17.0669 6.51358C16.8325 6.748 16.7008 7.06594 16.7008 7.39746C16.7008 7.72898 16.8325 8.04692 17.0669 8.28134C17.3013 8.51576 17.6193 8.64746 17.9508 8.64746C18.2823 8.64746 18.6003 8.51576 18.8347 8.28134C19.0691 8.04692 19.2008 7.72898 19.2008 7.39746C19.2008 7.06594 19.0691 6.748 18.8347 6.51358C18.6003 6.27916 18.2823 6.14746 17.9508 6.14746Z" fill="#464444"/>
</svg>
