<svg width="225" height="47" viewBox="0 0 225 47" fill="none" xmlns="http://www.w3.org/2000/svg">
<g clip-path="url(#clip0_640_364)">
<path d="M41.2383 19.126C39.5287 19.2016 38.0202 20.336 37.3414 21.9179C37.0208 22.6552 36.9454 23.3611 37.0145 24.0228C37.0522 24.4072 36.9328 24.7854 36.6562 25.0627L33.6204 28.1067C33.3501 28.3777 32.9667 28.5037 32.5833 28.4659C31.9296 28.3966 31.2256 28.4722 30.4902 28.7873C28.9126 29.4616 27.7749 30.9742 27.6995 32.6947C27.5864 35.3479 29.7863 37.5159 32.445 37.3394C34.1672 37.226 35.6757 36.0412 36.2917 34.4215C36.5683 33.6904 36.6248 32.9972 36.5431 32.3418C36.4928 31.9447 36.6122 31.5477 36.8951 31.2704L39.8053 28.3524C40.0881 28.0688 40.4778 27.9491 40.8738 27.9995C41.5337 28.0878 42.2377 28.0247 42.9668 27.7411C44.5759 27.1109 45.7513 25.5984 45.8581 23.8716C46.0216 21.212 43.8656 19.0188 41.2258 19.1323L41.2383 19.126Z" fill="#FF8502"/>
<path d="M13.4447 9.9752C11.7225 10.0823 10.214 11.2609 9.58542 12.8742C9.30258 13.6116 9.23972 14.3111 9.32772 14.9729C9.378 15.3699 9.25858 15.767 8.97573 16.0443L6.06557 18.9622C5.78273 19.2458 5.38675 19.3655 4.99705 19.3151C4.34965 19.2269 3.65196 19.2899 2.92914 19.5672C1.30749 20.1911 0.132117 21.6974 0.0126938 23.4242C-0.169584 26.09 1.99261 28.3021 4.63878 28.1887C6.35471 28.113 7.86321 26.9786 8.53575 25.3968C8.85003 24.6594 8.93174 23.9536 8.8626 23.2981C8.82488 22.9137 8.94431 22.5356 9.22087 22.2583L12.2567 19.2143C12.527 18.9433 12.9104 18.8172 13.2938 18.855C13.9538 18.9244 14.6515 18.8487 15.3869 18.5273C16.9645 17.8467 18.0959 16.3405 18.1713 14.6199C18.2845 11.973 16.0971 9.80504 13.4447 9.9752Z" fill="#FF8502"/>
<path d="M28.777 23.2067L23.3859 17.8011C23.1404 17.555 22.7424 17.555 22.497 17.8011L17.1058 23.2067C16.8603 23.4528 16.8603 23.8518 17.1058 24.0979L22.497 29.5035C22.7424 29.7496 23.1404 29.7496 23.3859 29.5035L28.777 24.0979C29.0225 23.8518 29.0225 23.4528 28.777 23.2067Z" fill="#FF8502"/>
<path d="M74.4506 29.651C74.3626 29.3107 74.0107 29.0775 73.6712 29.1783C73.4198 29.2539 73.1118 29.2917 72.7473 29.2917C72.2382 29.2917 71.8359 29.1216 71.5468 28.775C71.2514 28.4283 71.1005 27.9746 71.1005 27.4074V20.6766H73.6084C74.1238 20.6766 74.4192 20.0905 74.1175 19.6745L71.1005 15.5466V11.1224C71.1005 10.7758 70.8177 10.4922 70.472 10.4922H65.8899C65.5442 10.4922 65.2613 10.7758 65.2613 11.1224V15.5466H62.8414C62.4957 15.5466 62.2129 15.8302 62.2129 16.1768V20.0464C62.2129 20.393 62.4957 20.6766 62.8414 20.6766H65.2613V29.0586C65.2613 30.8421 65.7516 32.2034 66.7384 33.1172C67.7189 34.0373 69.1457 34.4974 71.0251 34.4974C72.8101 34.4974 74.1364 34.1886 75.0226 33.5647C75.2426 33.4134 75.3432 33.1424 75.2803 32.884L74.4506 29.651Z" fill="#FF8502"/>
<path d="M95.8085 25.397C95.8085 22.2837 94.9286 19.7817 93.1686 17.9163C91.4087 16.0382 89.146 15.1055 86.3678 15.1055C83.5896 15.1055 81.1697 16.0319 79.3281 17.8974C77.4865 19.7628 76.5625 22.0631 76.5625 24.792C76.5625 27.7288 77.5179 30.0796 79.4287 31.8505C81.3332 33.6277 83.7405 34.51 86.6381 34.51C88.1151 34.51 89.5419 34.3021 90.9373 33.8798C91.3333 33.7601 91.7041 33.6277 92.0561 33.4765C92.4081 33.3252 92.5464 32.8526 92.3075 32.5248L90.0385 29.4178C89.9442 29.4494 89.8499 29.4872 89.7494 29.5187C88.8254 29.8086 87.9957 29.9535 87.2855 29.9535C86.0158 29.9535 84.9661 29.6321 84.1553 28.9956C83.3382 28.3591 82.8417 27.5776 82.6657 26.6638H95.8022V25.397H95.8085ZM82.5965 22.8257C82.7474 21.9812 83.1308 21.2438 83.7405 20.6073C84.3502 19.9708 85.2301 19.6494 86.3678 19.6494C87.5935 19.6494 88.5111 19.9708 89.1208 20.6199C89.7305 21.2691 90.0825 22.0064 90.1893 22.8194H82.5902L82.5965 22.8257Z" fill="#FF8502"/>
<path d="M107.834 29.2981C106.589 29.2981 105.552 28.8947 104.748 28.0691C103.93 27.2561 103.522 26.1595 103.522 24.7794C103.522 23.3992 103.924 22.3089 104.748 21.5085C105.558 20.7018 106.589 20.3048 107.834 20.3048C109.078 20.3048 110.153 20.7207 110.92 21.5589C111.159 21.8173 111.555 21.8425 111.812 21.603L114.716 18.8931C114.968 18.6599 114.98 18.2754 114.767 18.0108C114.151 17.2734 113.308 16.6369 112.252 16.0949C110.97 15.4268 109.405 15.0991 107.57 15.0991C104.672 15.0991 102.265 15.994 100.36 17.7965C98.4495 19.5926 97.4941 21.9244 97.4941 24.7794C97.4941 27.6343 98.4495 29.9976 100.36 31.8C102.265 33.6025 104.672 34.4974 107.57 34.4974C109.405 34.4974 110.964 34.1697 112.252 33.5016C112.592 33.3315 112.906 33.1487 113.195 32.9533C113.484 32.758 113.579 32.342 113.365 32.0458L110.995 28.8002C110.8 28.5292 110.43 28.4662 110.153 28.6489C109.499 29.0775 108.726 29.2917 107.846 29.2917L107.834 29.2981Z" fill="#FF8502"/>
<path d="M134.673 16.6494C133.655 15.6158 132.128 15.099 130.091 15.099C127.395 15.099 125.264 16.0065 123.711 17.8153V14.1411C123.711 14.0087 123.667 13.8764 123.592 13.7692L119.953 8.77158C119.833 8.60772 119.645 8.51318 119.443 8.51318H118.457C118.111 8.51318 117.828 8.79678 117.828 9.14341V33.4133C117.828 33.7599 118.111 34.0435 118.457 34.0435H123.083C123.428 34.0435 123.711 33.7599 123.711 33.4133V22.1008C124.686 20.9034 125.861 20.3047 127.269 20.3047C129.305 20.3047 130.317 21.3004 130.317 23.2856V33.4133C130.317 33.7599 130.6 34.0435 130.946 34.0435H135.572C135.918 34.0435 136.2 33.7599 136.2 33.4133V20.8782C136.2 19.0946 135.691 17.6829 134.673 16.6431V16.6494Z" fill="#FF8502"/>
<path d="M33.846 10.221C33.1043 9.90584 32.3941 9.83652 31.7278 9.91844C31.3381 9.96256 30.9547 9.84282 30.6782 9.56552L27.7868 6.66649C27.5103 6.38919 27.3846 5.99846 27.4349 5.60772C27.5103 4.94598 27.4411 4.23383 27.1332 3.49017C26.4669 1.8957 24.9647 0.742393 23.2425 0.654161C20.6089 0.521814 18.4404 2.70239 18.585 5.34302C18.6792 7.06353 19.8295 8.56977 21.4197 9.2252C22.1614 9.53401 22.8591 9.59703 23.519 9.5214C23.9087 9.47729 24.2984 9.59703 24.575 9.87433L27.4663 12.7734C27.7429 13.0507 27.8686 13.4414 27.8183 13.8258C27.7366 14.5002 27.812 15.2123 28.1325 15.9686C28.8051 17.5568 30.3136 18.6975 32.0295 18.7731C34.6506 18.8928 36.8002 16.7249 36.6682 14.0968C36.5802 12.3763 35.4362 10.8764 33.8523 10.2083L33.846 10.221Z" fill="#163152"/>
<path d="M24.4762 38.0834C23.7283 37.7683 23.0243 37.699 22.3581 37.7809C21.9684 37.825 21.5849 37.7053 21.3084 37.428L18.4171 34.529C18.1405 34.2517 18.0148 33.8609 18.0651 33.4765C18.1468 32.8084 18.0714 32.0963 17.7571 31.3526C17.0909 29.7645 15.5886 28.6175 13.879 28.5292C11.258 28.3969 9.10206 30.5522 9.2152 33.1803C9.29062 34.9008 10.4346 36.4133 12.0122 37.0877C12.7665 37.4091 13.483 37.4847 14.1493 37.4028C14.539 37.3587 14.9224 37.4784 15.1989 37.7557L18.0902 40.6547C18.3668 40.932 18.4925 41.3228 18.4422 41.7072C18.3605 42.3752 18.4359 43.0937 18.7565 43.85C19.429 45.4318 20.9375 46.5788 22.6535 46.6544C25.2745 46.7742 27.4241 44.6062 27.2921 41.9719C27.2041 40.2514 26.0602 38.7514 24.4762 38.0834Z" fill="#163152"/>
<path d="M155.772 15.5592H153.478C153.132 15.5592 152.849 15.8428 152.849 16.1895V17.7398C151.423 15.9815 149.6 15.1055 147.387 15.1055C144.993 15.1055 143.038 15.9122 141.523 17.5381C140.008 19.1578 139.254 21.4455 139.254 24.4076C139.254 27.3696 140.021 29.6951 141.548 31.3148C143.069 32.9408 145.018 33.7475 147.387 33.7475C149.499 33.7475 151.316 32.8589 152.849 31.069V32.4807C152.849 34.0437 152.365 35.1403 151.41 35.7768C150.461 36.4133 149.367 36.7347 148.148 36.7347C146.853 36.7347 145.722 36.5331 144.747 36.1171C144.471 35.9974 144.15 36.073 143.974 36.3188L141.85 39.2367C141.624 39.5455 141.718 39.9867 142.051 40.1631C143.842 41.0959 145.872 41.5622 148.148 41.5622C149.141 41.5622 150.096 41.4929 151.014 41.348C151.932 41.2093 152.874 40.9257 153.836 40.5035C154.81 40.0812 155.634 39.5518 156.319 38.9027C157.01 38.2536 157.576 37.3713 158.016 36.2558C158.462 35.1466 158.688 33.8609 158.688 32.4177V19.3343C158.688 19.2019 158.644 19.0696 158.569 18.9624L156.281 15.8302C156.162 15.6664 155.973 15.5718 155.772 15.5718V15.5592ZM152.849 26.8843C152.491 27.3759 151.976 27.7667 151.297 28.0755C150.624 28.3843 149.964 28.5355 149.329 28.5355C148.135 28.5355 147.155 28.1826 146.407 27.4641C145.659 26.752 145.282 25.731 145.282 24.4076C145.282 23.0841 145.659 22.1009 146.407 21.3888C147.155 20.6703 148.135 20.3174 149.329 20.3174C149.964 20.3174 150.624 20.4687 151.297 20.7775C151.976 21.0863 152.491 21.477 152.849 21.956V26.8906V26.8843Z" fill="#163152"/>
<path d="M179.053 18.9246C178.582 17.9288 177.935 17.16 177.105 16.6243C176.282 16.0949 175.376 15.7041 174.396 15.4583C173.415 15.2189 172.341 15.0991 171.172 15.0991C168.739 15.0991 166.602 15.6033 164.748 16.6243C164.427 16.8007 164.339 17.223 164.547 17.5255L166.325 20.1031C166.495 20.3552 166.822 20.4308 167.099 20.3174C168.041 19.9266 169.053 19.7313 170.134 19.7313C171.304 19.7313 172.221 19.977 172.887 20.4623C173.554 20.9476 173.881 21.7102 173.881 22.5042V24.6281C172.737 23.2038 170.82 22.479 168.155 22.479C166.47 22.479 164.999 22.9643 163.717 23.9222C162.447 24.8739 161.812 26.3738 161.812 28.4157C161.812 30.4577 162.472 31.8568 163.78 32.9155C165.087 33.9743 166.545 34.5037 168.155 34.5037C169.324 34.5037 170.424 34.2957 171.461 33.8735C172.485 33.4512 173.29 32.8903 173.881 32.2097L174.999 33.7789C175.119 33.9428 175.307 34.0436 175.508 34.0436H179.123C179.468 34.0436 179.751 33.76 179.751 33.4134V22.479C179.751 21.1052 179.519 19.9203 179.047 18.9246H179.053ZM173.887 29.2981C173.277 30.193 172.183 30.6404 170.6 30.6404C169.757 30.6404 169.06 30.4577 168.506 30.0795C167.941 29.714 167.664 29.1846 167.664 28.4914C167.664 27.7981 167.941 27.275 168.506 26.9032C169.066 26.5377 169.764 26.3486 170.6 26.3486C172.152 26.3486 173.246 26.7772 173.887 27.6469V29.2981Z" fill="#163152"/>
<path d="M198.714 15.5591H197.105C196.759 15.5591 196.476 15.8427 196.476 16.1893V27.4955C195.533 28.6992 194.364 29.298 192.969 29.298C190.932 29.298 189.908 28.3022 189.908 26.317V16.1893C189.908 15.8427 189.625 15.5591 189.279 15.5591H184.666C184.32 15.5591 184.037 15.8427 184.037 16.1893V28.7244C184.037 30.508 184.534 31.9197 185.546 32.9595C186.545 33.9931 188.066 34.5099 190.103 34.5099C192.78 34.5099 194.905 33.6213 196.482 31.8315V31.8756L197.878 33.7851C197.997 33.949 198.186 34.0435 198.387 34.0435H201.737C202.083 34.0435 202.365 33.7599 202.365 33.4133V20.3173C202.365 20.1849 202.321 20.0526 202.246 19.9454L199.229 15.8175C199.11 15.6536 198.921 15.5591 198.72 15.5591H198.714Z" fill="#163152"/>
<path d="M223.473 16.6873C222.455 15.6285 220.927 15.0991 218.891 15.0991C216.207 15.0991 214.083 15.994 212.536 17.7902H212.53C212.53 17.7902 212.524 17.7965 212.517 17.8028L211.072 15.8176C210.952 15.6537 210.764 15.5592 210.563 15.5592H207.269C206.923 15.5592 206.641 15.8428 206.641 16.1894V33.4134C206.641 33.76 206.923 34.0436 207.269 34.0436H211.895C212.241 34.0436 212.524 33.76 212.524 33.4134V22.1009C213.498 20.9035 214.686 20.3048 216.113 20.3048C218.124 20.3048 219.136 21.3257 219.136 23.3613V33.4134C219.136 33.76 219.419 34.0436 219.765 34.0436H224.391C224.736 34.0436 225.019 33.76 225.019 33.4134V20.9539C225.019 19.1704 224.51 17.7398 223.492 16.681L223.473 16.6873Z" fill="#163152"/>
<path d="M212.53 17.79V17.8286L212.518 17.8029C212.518 17.8029 212.524 17.7965 212.53 17.79Z" fill="#163152"/>
</g>
<defs>
<clipPath id="clip0_640_364">
<rect width="225" height="46" fill="white" transform="translate(0 0.654297)"/>
</clipPath>
</defs>
</svg>
