<svg width="53" height="25" viewBox="0 0 53 25" fill="none" xmlns="http://www.w3.org/2000/svg">
<g clip-path="url(#clip0_640_1094)">
<path d="M0.722656 4.07996C0.722656 3.28871 1.38016 2.64746 2.19141 2.64746H19.2539C20.0652 2.64746 20.7227 3.28871 20.7227 4.07996V21.215C20.7227 22.0062 20.0652 22.6475 19.2539 22.6475H2.19141C1.38016 22.6475 0.722656 22.0062 0.722656 21.215V4.07996ZM6.90141 19.39V10.3587H3.90016V19.39H6.90141ZM5.40141 9.12496C6.44766 9.12496 7.09891 8.43246 7.09891 7.56496C7.08016 6.67871 6.44891 6.00496 5.42141 6.00496C4.39391 6.00496 3.72266 6.67996 3.72266 7.56496C3.72266 8.43246 4.37391 9.12496 5.38141 9.12496H5.40141ZM11.5364 19.39V14.3462C11.5364 14.0762 11.5564 13.8062 11.6364 13.6137C11.8527 13.075 12.3464 12.5162 13.1764 12.5162C14.2627 12.5162 14.6964 13.3437 14.6964 14.5587V19.39H17.6977V14.21C17.6977 11.435 16.2177 10.145 14.2427 10.145C12.6502 10.145 11.9364 11.02 11.5364 11.6362V11.6675H11.5164L11.5364 11.6362V10.3587H8.53641C8.57391 11.2062 8.53641 19.39 8.53641 19.39H11.5364Z" fill="#464444"/>
</g>
<path d="M41.7512 2.64746C42.8762 2.65046 43.4472 2.65646 43.9402 2.67046L44.1342 2.67746C44.3582 2.68546 44.5792 2.69546 44.8462 2.70746C45.9102 2.75746 46.6362 2.92546 47.2732 3.17246C47.9332 3.42646 48.4892 3.77046 49.0452 4.32546C49.5537 4.82536 49.9472 5.43005 50.1982 6.09746C50.4452 6.73446 50.6132 7.46046 50.6632 8.52546C50.6752 8.79146 50.6852 9.01246 50.6932 9.23746L50.6992 9.43146C50.7142 9.92346 50.7202 10.4945 50.7222 11.6195L50.7232 12.3655V13.6755C50.7257 14.4049 50.718 15.1343 50.7002 15.8635L50.6942 16.0575C50.6862 16.2825 50.6762 16.5035 50.6642 16.7695C50.6142 17.8345 50.4442 18.5595 50.1982 19.1975C49.9479 19.8652 49.5544 20.4701 49.0452 20.9695C48.5452 21.4778 47.9405 21.8712 47.2732 22.1225C46.6362 22.3695 45.9102 22.5375 44.8462 22.5875C44.6089 22.5986 44.3716 22.6086 44.1342 22.6175L43.9402 22.6235C43.4472 22.6375 42.8762 22.6445 41.7512 22.6465L41.0052 22.6475H39.6962C38.9665 22.65 38.2368 22.6423 37.5072 22.6245L37.3132 22.6185C37.0758 22.6095 36.8385 22.5991 36.6012 22.5875C35.5372 22.5375 34.8112 22.3695 34.1732 22.1225C33.5059 21.8718 32.9015 21.4783 32.4022 20.9695C31.8933 20.4697 31.4995 19.865 31.2482 19.1975C31.0012 18.5605 30.8332 17.8345 30.7832 16.7695C30.7721 16.5322 30.7621 16.2948 30.7532 16.0575L30.7482 15.8635C30.7298 15.1343 30.7215 14.4049 30.7232 13.6755V11.6195C30.7204 10.8901 30.7278 10.1607 30.7452 9.43146L30.7522 9.23746C30.7602 9.01246 30.7702 8.79146 30.7822 8.52546C30.8322 7.46046 31.0002 6.73546 31.2472 6.09746C31.4983 5.42937 31.893 4.82448 32.4032 4.32546C32.9023 3.81693 33.5064 3.42345 34.1732 3.17246C34.8112 2.92546 35.5362 2.75746 36.6012 2.70746C36.8672 2.69546 37.0892 2.68546 37.3132 2.67746L37.5072 2.67146C38.2364 2.65369 38.9658 2.64603 39.6952 2.64846L41.7512 2.64746ZM40.7232 7.64746C39.3972 7.64746 38.1254 8.17424 37.1877 9.11193C36.25 10.0496 35.7232 11.3214 35.7232 12.6475C35.7232 13.9735 36.25 15.2453 37.1877 16.183C38.1254 17.1207 39.3972 17.6475 40.7232 17.6475C42.0493 17.6475 43.3211 17.1207 44.2588 16.183C45.1964 15.2453 45.7232 13.9735 45.7232 12.6475C45.7232 11.3214 45.1964 10.0496 44.2588 9.11193C43.3211 8.17424 42.0493 7.64746 40.7232 7.64746ZM40.7232 9.64746C41.1172 9.6474 41.5073 9.72493 41.8713 9.87563C42.2353 10.0263 42.5661 10.2473 42.8447 10.5258C43.1233 10.8043 43.3444 11.135 43.4952 11.4989C43.646 11.8629 43.7237 12.253 43.7237 12.647C43.7238 13.0409 43.6463 13.431 43.4956 13.795C43.3449 14.1591 43.1239 14.4898 42.8454 14.7684C42.5669 15.0471 42.2362 15.2681 41.8722 15.4189C41.5083 15.5697 41.1182 15.6474 40.7242 15.6475C39.9286 15.6475 39.1655 15.3314 38.6029 14.7688C38.0403 14.2062 37.7242 13.4431 37.7242 12.6475C37.7242 11.8518 38.0403 11.0887 38.6029 10.5261C39.1655 9.96353 39.9286 9.64746 40.7242 9.64746M45.9742 6.14746C45.6427 6.14746 45.3248 6.27916 45.0904 6.51358C44.8559 6.748 44.7242 7.06594 44.7242 7.39746C44.7242 7.72898 44.8559 8.04692 45.0904 8.28134C45.3248 8.51576 45.6427 8.64746 45.9742 8.64746C46.3058 8.64746 46.6237 8.51576 46.8581 8.28134C47.0925 8.04692 47.2242 7.72898 47.2242 7.39746C47.2242 7.06594 47.0925 6.748 46.8581 6.51358C46.6237 6.27916 46.3058 6.14746 45.9742 6.14746Z" fill="#464444"/>
<defs>
<clipPath id="clip0_640_1094">
<rect width="20" height="20" fill="white" transform="translate(0.722656 2.64746)"/>
</clipPath>
</defs>
</svg>
