<svg width="243" height="435" viewBox="0 0 243 435" fill="none" xmlns="http://www.w3.org/2000/svg">
<g clip-path="url(#clip0_640_983)">
<path d="M68.3928 281.191C68.3928 281.191 60.1694 326.071 59.1414 355.843C58.1135 385.616 57.8359 425.535 57.8359 425.535H75.3108C75.3108 425.535 88.3451 359.154 92.0251 345.964C95.7051 332.773 94.7902 269.989 94.7902 269.989L68.3928 281.191Z" fill="#FCD9C0"/>
<path d="M34.709 431.418H77.0188V422.809C77.0188 422.809 73.935 418.709 69.2476 420.759C69.2476 420.759 62.1651 425.771 55.8845 419.734L40.3729 426.601C40.3729 426.601 34.709 428.497 34.709 431.418Z" fill="#3AA1C9"/>
<path d="M77.4094 431.807H34.3184V431.418C34.3184 428.251 40.0337 426.294 40.2804 426.232L55.9975 419.273L56.1928 419.458C62.124 425.217 68.7439 420.667 69.0215 420.483C74.0069 418.238 77.2449 422.532 77.3272 422.594L77.4094 422.696V431.807ZM35.1407 431.029H76.6179V422.953C75.7948 421.891 74.6379 421.137 73.3331 420.81C72.0282 420.483 70.651 420.602 69.4224 421.149C69.4224 421.149 62.2268 426.14 55.8433 420.206L40.5682 426.96C39.1085 427.441 35.5724 429.04 35.1407 431.029Z" fill="#263238"/>
<path d="M75.0363 427.318L73.0488 428.65L73.2209 428.905L75.2084 427.573L75.0363 427.318Z" fill="#010101"/>
<path d="M73.6099 426.939L71.6328 428.269L71.8052 428.524L73.7823 427.194L73.6099 426.939Z" fill="#010101"/>
<path d="M33.5559 430.28H77.8805C77.9132 430.28 77.9446 430.293 77.9677 430.316C77.9908 430.339 78.0038 430.371 78.0038 430.403V434.308C78.0038 434.341 77.9908 434.372 77.9677 434.395C77.9446 434.418 77.9132 434.431 77.8805 434.431H33.5559C33.4655 434.431 33.3759 434.413 33.2923 434.379C33.2088 434.344 33.1329 434.294 33.0689 434.23C33.005 434.166 32.9542 434.091 32.9196 434.007C32.885 433.924 32.8672 433.835 32.8672 433.744V430.977C32.8672 430.887 32.885 430.798 32.9196 430.715C32.9542 430.631 33.005 430.556 33.0689 430.492C33.1329 430.428 33.2088 430.377 33.2923 430.343C33.3759 430.308 33.4655 430.291 33.5559 430.291V430.28Z" fill="#7FC6A6"/>
<path d="M77.8813 434.995H33.567C33.2434 434.992 32.9338 434.863 32.705 434.635C32.4762 434.407 32.3464 434.098 32.3438 433.775V431.029C32.3437 430.704 32.4723 430.393 32.7014 430.163C32.9305 429.932 33.2416 429.801 33.567 429.799H77.8813C78.0512 429.801 78.2133 429.871 78.3326 429.991C78.4518 430.112 78.5186 430.275 78.5186 430.444V434.349C78.5186 434.519 78.4518 434.681 78.3326 434.802C78.2133 434.923 78.0512 434.992 77.8813 434.995ZM33.567 430.895C33.5197 430.898 33.4753 430.919 33.4428 430.953C33.4102 430.987 33.3922 431.033 33.3922 431.08V433.826C33.3947 433.872 33.4139 433.915 33.4462 433.947C33.4784 433.979 33.5214 433.998 33.567 434.001H77.4804V430.926L33.567 430.895Z" fill="#263238"/>
<path d="M129.701 281.191C129.701 281.191 137.925 326.071 138.953 355.843C139.981 385.616 140.258 425.535 140.258 425.535H122.783C122.783 425.535 109.749 359.154 106.069 345.964C102.389 332.773 103.304 269.989 103.304 269.989L129.701 281.191Z" fill="#FCD9C0"/>
<path d="M163.386 431.418H121.076V422.809C121.076 422.809 124.16 418.709 128.847 420.759C128.847 420.759 135.93 425.771 142.211 419.734L157.722 426.601C157.722 426.601 163.386 428.497 163.386 431.418Z" fill="#3AA1C9"/>
<path d="M120.686 422.696L120.768 422.594C120.768 422.543 124.088 418.238 129.074 420.483C129.351 420.677 135.971 425.228 141.902 419.458L142.097 419.273L157.815 426.232C158.061 426.304 163.777 428.282 163.777 431.418V431.807H120.686V422.696ZM157.537 426.97L142.262 420.216C135.899 426.15 128.693 421.169 128.683 421.159C127.454 420.612 126.077 420.493 124.772 420.82C123.467 421.147 122.31 421.902 121.487 422.963V431.039H162.954C162.543 429.04 158.986 427.441 157.537 426.96V426.97Z" fill="#263238"/>
<path d="M123.057 427.284L122.885 427.539L124.872 428.872L125.044 428.616L123.057 427.284Z" fill="#010101"/>
<path d="M124.477 426.915L124.305 427.17L126.282 428.499L126.454 428.244L124.477 426.915Z" fill="#010101"/>
<path d="M164.536 434.431H120.211C120.195 434.431 120.179 434.428 120.164 434.422C120.149 434.416 120.136 434.407 120.124 434.395C120.113 434.384 120.104 434.37 120.097 434.355C120.091 434.34 120.088 434.324 120.088 434.308V430.403C120.088 430.387 120.091 430.371 120.097 430.356C120.104 430.341 120.113 430.328 120.124 430.316C120.136 430.305 120.149 430.296 120.164 430.29C120.179 430.284 120.195 430.28 120.211 430.28H164.536C164.719 430.28 164.894 430.353 165.023 430.482C165.152 430.61 165.225 430.785 165.225 430.967V433.734C165.225 433.824 165.207 433.914 165.172 433.997C165.138 434.08 165.087 434.156 165.023 434.22C164.959 434.284 164.883 434.334 164.799 434.369C164.716 434.403 164.626 434.421 164.536 434.421V434.431Z" fill="#7FC6A6"/>
<path d="M119.574 434.308V430.403C119.574 430.234 119.641 430.071 119.76 429.95C119.879 429.83 120.042 429.76 120.212 429.758H164.526C164.851 429.76 165.162 429.891 165.391 430.122C165.621 430.352 165.749 430.663 165.749 430.988V433.734C165.746 434.057 165.617 434.366 165.388 434.594C165.159 434.822 164.849 434.951 164.526 434.954H120.212C120.042 434.951 119.879 434.882 119.76 434.761C119.641 434.64 119.574 434.478 119.574 434.308ZM120.602 430.803V433.878H164.516C164.561 433.875 164.604 433.856 164.636 433.824C164.669 433.792 164.688 433.749 164.69 433.703V430.957C164.69 430.91 164.672 430.864 164.64 430.83C164.607 430.796 164.563 430.775 164.516 430.772L120.602 430.803Z" fill="#263238"/>
<path d="M63.8616 237.388L52.9141 411.423C52.9141 411.423 69.69 420.862 87.0518 411.146L105.596 212.596L65.2698 215.025L63.8616 237.388Z" fill="#28364C"/>
<path d="M134.972 236.865L145.878 410.91C145.878 410.91 129.103 420.36 111.751 410.644L93.5977 218.827H134.057L134.972 236.865Z" fill="#28364C"/>
<path d="M191.655 148.029C195.625 141.829 200.145 135.998 205.162 130.606C205.55 130.234 205.864 129.792 206.087 129.304C206.194 129.059 206.225 128.789 206.177 128.526C206.13 128.263 206.006 128.021 205.82 127.828C205.172 127.265 204.186 127.705 203.476 128.177C201.853 129.23 200.307 130.398 198.851 131.672C200.578 129.048 202.308 126.421 204.042 123.79C204.334 123.406 204.553 122.972 204.689 122.509C204.756 122.282 204.764 122.041 204.712 121.81C204.66 121.578 204.55 121.364 204.391 121.187C204.216 121.029 204.002 120.92 203.772 120.869C203.541 120.819 203.301 120.83 203.075 120.9C202.622 121.039 202.202 121.269 201.842 121.577C199.541 123.477 197.486 125.657 195.726 128.064C197.786 124.71 199.597 121.209 201.143 117.59C201.472 116.842 201.76 115.919 201.256 115.284C201.057 115.059 200.795 114.898 200.504 114.821C200.213 114.745 199.906 114.756 199.622 114.853C199.047 115.066 198.534 115.418 198.131 115.878C195.366 118.553 193.927 122.263 192.57 125.861C193.445 122.848 194.03 119.76 194.317 116.637C194.317 115.868 194.317 114.925 193.598 114.587C193.343 114.487 193.063 114.468 192.796 114.532C192.529 114.596 192.289 114.74 192.107 114.946C191.76 115.325 191.494 115.772 191.326 116.257C190.12 119.353 188.993 122.475 187.944 125.625C187.749 126.199 186.063 132.43 184.49 130.298C184.287 129.968 184.157 129.597 184.11 129.212C183.874 127.982 183.637 126.752 183.39 125.512C183.314 124.873 183.092 124.26 182.743 123.719C182.604 123.485 182.393 123.302 182.142 123.199C181.89 123.095 181.611 123.076 181.348 123.144C181.084 123.213 180.85 123.365 180.681 123.577C180.511 123.79 180.416 124.052 180.409 124.323C179.381 129.97 182.404 135.597 182.126 141.377C185.919 142.552 189.25 144.877 191.655 148.029Z" fill="#FCD9C0"/>
<path d="M191.685 148.931L191.243 148.346C188.897 145.299 185.667 143.045 181.992 141.89L181.601 141.777V141.377C181.608 138.823 181.29 136.278 180.656 133.803C179.988 130.729 179.309 127.459 179.895 124.252C179.942 123.885 180.096 123.541 180.337 123.26C180.578 122.98 180.896 122.776 181.252 122.673C181.601 122.608 181.961 122.645 182.289 122.78C182.618 122.914 182.9 123.141 183.102 123.432C183.516 124.044 183.777 124.747 183.863 125.481L184.572 129.181C184.604 129.49 184.706 129.788 184.87 130.052C184.952 130.175 185.055 130.309 185.158 130.288C185.261 130.268 186.073 129.929 187.327 125.789L187.409 125.522C188.437 122.386 189.609 119.219 190.801 116.134C190.988 115.544 191.296 115 191.706 114.536C191.965 114.265 192.298 114.077 192.665 113.997C193.031 113.916 193.413 113.947 193.762 114.085C194.512 114.443 194.852 115.294 194.79 116.626C194.712 117.847 194.565 119.061 194.348 120.265C195.208 118.504 196.354 116.897 197.74 115.509C198.21 115.007 198.795 114.627 199.446 114.402C199.831 114.278 200.243 114.268 200.633 114.376C201.022 114.483 201.371 114.703 201.636 115.007C202.386 115.97 201.811 117.323 201.584 117.826C200.748 119.786 199.834 121.713 198.84 123.606C199.663 122.738 200.553 121.936 201.502 121.208C201.917 120.827 202.408 120.538 202.941 120.357C203.254 120.252 203.589 120.236 203.91 120.311C204.231 120.385 204.524 120.548 204.757 120.781C204.99 121.013 205.154 121.306 205.229 121.625C205.304 121.945 205.288 122.28 205.182 122.591C205.03 123.103 204.79 123.585 204.473 124.016L201.081 129.14C201.749 128.648 202.438 128.167 203.137 127.675C204.35 126.855 205.408 126.742 206.107 127.357C206.371 127.62 206.551 127.955 206.624 128.32C206.697 128.684 206.66 129.063 206.519 129.407C206.271 129.955 205.922 130.452 205.491 130.872C200.493 136.268 195.989 142.099 192.035 148.295L191.685 148.931ZM182.64 141.029C186.145 142.209 189.252 144.338 191.614 147.178C195.509 141.176 199.915 135.518 204.781 130.268C205.123 129.945 205.401 129.563 205.604 129.14C205.67 128.99 205.694 128.824 205.672 128.662C205.651 128.499 205.584 128.345 205.48 128.218C205.038 127.839 204.134 128.372 203.764 128.617C202.158 129.654 200.629 130.805 199.189 132.061L196.249 134.705L203.661 123.493C203.905 123.155 204.096 122.782 204.226 122.386C204.271 122.244 204.281 122.093 204.254 121.947C204.227 121.8 204.165 121.663 204.072 121.546C203.957 121.454 203.82 121.391 203.675 121.364C203.53 121.338 203.38 121.347 203.239 121.392C202.864 121.527 202.516 121.729 202.212 121.987C199.946 123.862 197.923 126.01 196.188 128.382L195.345 127.798C197.391 124.462 199.192 120.981 200.731 117.385C200.978 116.831 201.256 116.032 200.916 115.591C200.778 115.45 200.601 115.351 200.408 115.308C200.215 115.264 200.013 115.277 199.827 115.345C199.341 115.526 198.905 115.817 198.552 116.196C195.818 118.85 194.379 122.642 193.114 125.994L192.086 125.686C192.956 122.674 193.534 119.585 193.813 116.462C193.813 115.868 193.813 115.11 193.382 114.915C193.222 114.866 193.052 114.864 192.891 114.909C192.731 114.955 192.587 115.046 192.477 115.171C192.174 115.538 191.943 115.959 191.799 116.411C190.606 119.486 189.475 122.632 188.427 125.758L188.355 125.994C187.327 129.427 186.392 131.026 185.364 131.21C185.109 131.242 184.852 131.197 184.623 131.082C184.394 130.967 184.205 130.787 184.079 130.565C183.827 130.178 183.665 129.741 183.606 129.284L182.886 125.584C182.829 125.021 182.638 124.481 182.331 124.006C182.249 123.866 182.127 123.755 181.98 123.685C181.833 123.616 181.669 123.592 181.509 123.616C181.347 123.675 181.205 123.779 181.1 123.915C180.994 124.051 180.929 124.214 180.913 124.385C180.368 127.398 180.995 130.38 181.663 133.537C182.28 135.988 182.608 138.502 182.64 141.029Z" fill="#263238"/>
<path d="M181.848 140.332L160.467 173.128C160.467 173.128 145.644 136.858 135.797 128.433C125.949 120.008 94.9362 118.809 78.2939 123.688C61.6517 128.566 58.4034 134.705 53.5824 146.348C48.7614 157.991 0.777344 192.929 0.777344 192.929L13.3079 218.827L65.27 169.1L64.2421 222.691L135.529 221.513L134.615 167.84C134.615 167.84 149.787 201.353 160.477 200.636C171.168 199.918 192.724 147.69 192.724 147.69C189.609 143.427 181.848 140.332 181.848 140.332Z" fill="#FFB532"/>
<path d="M63.7067 223.214L64.7346 170.33L13.1528 219.688L0.128906 192.765L0.478404 192.519C0.951254 192.17 48.3802 157.581 53.0984 146.153C57.9091 134.511 61.2088 128.207 78.1697 123.237C95.1307 118.266 126.359 119.701 136.145 128.085C145.201 135.843 158.164 166.282 160.569 172.062L181.642 139.696L182.073 139.83C182.402 139.953 190.009 143.027 193.165 147.393L193.329 147.629L193.227 147.885C192.342 150.037 171.424 200.451 160.538 201.179C151.163 201.753 138.818 177.76 135.2 170.228L136.084 222.015H135.57L63.7067 223.214ZM65.7626 167.87L64.7346 222.189L134.973 221.021L134.028 165.37L135.056 167.635C135.2 167.963 149.909 200.175 160.106 200.175H160.415C163.324 199.99 169.111 195.245 180.12 173.722C186.226 161.772 191.294 149.75 192.096 147.813C189.423 144.339 183.584 141.664 182.022 140.988L160.363 174.266L159.993 173.353C159.849 172.995 145.099 137.103 135.477 128.863C125.856 120.623 95.2437 119.332 78.4576 124.221C61.9181 129.068 58.8651 134.89 54.0544 146.543C49.3876 157.816 6.11149 189.67 1.4241 193.093L13.4921 217.966L65.7626 167.87Z" fill="#263238"/>
<g style="mix-blend-mode:darken">
<path d="M57.2624 144.37C58.2289 140.456 59.5146 136.627 61.1069 132.922C57.8586 136.427 55.8952 140.742 53.5824 146.348C48.7511 158.042 0.777344 192.929 0.777344 192.929L6.67769 205.114C6.71881 205.032 55.9877 149.32 57.2624 144.37Z" fill="#FF9C0A"/>
</g>
<g style="mix-blend-mode:darken">
<path d="M191.952 148.777C188.272 153.379 184.602 158.103 181.169 162.879C177.376 168.168 174.487 174.05 170.006 178.847C165.03 184.176 157.557 186.667 151.585 181.235C148.152 178.16 146.24 173.476 143.989 169.52C141.408 164.98 138.787 160.44 136.433 155.777C135.148 153.225 133.935 150.652 132.846 148.008C132.846 149.218 132.846 150.427 132.846 151.636C133.242 157.854 134.177 164.027 135.642 170.084C139.291 177.617 151.441 201.21 160.425 200.636C170.705 199.98 190.832 152.108 192.548 147.988C192.353 148.264 192.158 148.521 191.952 148.777Z" fill="#FF9C0A"/>
</g>
<path d="M125.403 122.068C122.491 120.702 119.527 119.479 116.512 118.399C114.168 117.559 111.958 116.35 109.491 116.032C103.447 115.413 97.341 115.974 91.5124 117.682C85.2106 119.63 79.0319 121.954 73.0095 124.641C71.3237 125.348 69.5145 126.178 68.6819 127.798C67.5101 130.063 68.6819 132.819 70.2958 134.828C71.9096 136.837 73.6982 138.538 75.1065 140.619C76.5148 142.699 77.4399 145.302 76.7718 147.721C75.9494 150.683 72.9479 152.702 72.2489 155.705C71.7452 157.878 72.5572 160.122 73.3487 162.213C74.9729 166.442 76.5936 170.682 78.2109 174.932C81.0583 182.383 84.2449 190.305 90.7517 194.917C93.5785 196.967 97.2174 198.207 100.517 197.151C103.364 196.229 105.4 193.769 107.147 191.35C111.934 184.414 116.028 177.027 119.369 169.295C120.839 166.026 122.453 162.879 123.985 159.723C124.676 158.321 124.914 156.74 124.665 155.198C124.416 153.656 123.694 152.229 122.597 151.114C121.497 150.089 120.038 149.371 119.431 148.039C118.619 146.184 119.75 144.103 120.798 142.361C123.557 137.741 125.896 132.884 127.788 127.849C128.336 126.775 128.464 125.537 128.148 124.374C127.56 123.286 126.579 122.462 125.403 122.068Z" fill="#FFD46D"/>
<path d="M89.1587 116.78C89.1587 116.78 79.9793 168.905 83.834 221.513H115.196C115.361 221.513 111.455 137.401 113.994 119.937L89.1587 116.78Z" fill="white"/>
<path d="M90.6582 202.481H90.9769C90.9769 201.907 90.9769 201.333 90.9049 200.769C90.8124 201.322 90.7302 201.907 90.6582 202.481Z" fill="#DCE2EC"/>
<path d="M112.74 96.7847L113.152 96.4977C113.563 98.0867 113.657 99.7407 113.429 101.366C113.224 104.277 112.997 107.167 112.895 110.077C112.919 112.696 113.265 115.301 113.923 117.836C114.055 118.34 114.097 118.864 114.046 119.383C113.92 119.968 113.648 120.511 113.254 120.962C110.51 124.354 105.607 125.061 101.238 124.918C97.5887 124.805 93.6209 124.262 90.5371 122.171C88.6868 120.921 88.8204 120.47 88.8718 118.512C88.9778 117.077 89.2082 115.654 89.5606 114.259C89.7661 113.234 91.4314 104.318 90.0128 104.338C94.0551 104.259 98.0618 103.568 101.896 102.288C103.756 101.673 105.648 100.946 107.447 100.239C109.33 99.2799 111.105 98.1219 112.74 96.7847Z" fill="#FCD9C0"/>
<path d="M102.172 125.42H101.144C98.0599 125.328 93.6295 124.928 90.1756 122.581C88.2945 121.32 88.2226 120.675 88.2739 118.84V118.492C88.327 117.483 88.489 116.483 88.7571 115.509C88.8702 115.069 88.9729 114.628 89.0655 114.167C89.97 109.544 90.3401 105.342 89.8878 104.81C89.9349 104.822 89.9846 104.822 90.0317 104.81V103.785C94.0197 103.699 97.9712 103.008 101.75 101.735C103.426 101.181 105.276 100.474 107.27 99.6851C108.696 99.0001 110.037 98.1542 111.269 97.1639C111.659 96.8769 112.04 96.59 112.42 96.3235L113.448 95.6471L113.664 96.2928C114.091 97.9034 114.192 99.5826 113.962 101.233L113.828 102.934C113.664 105.271 113.489 107.689 113.407 110.108C113.406 112.561 113.707 115.005 114.301 117.385L114.373 117.743C114.523 118.308 114.568 118.895 114.507 119.476C114.366 120.147 114.054 120.772 113.602 121.29C111.361 124.026 107.527 125.42 102.172 125.42ZM90.998 104.82C91.4605 106.87 90.556 111.994 90.1037 114.361C90.0112 114.833 89.8981 115.284 89.785 115.735C89.5304 116.637 89.3787 117.565 89.3327 118.502V118.861C89.3327 120.459 89.3327 120.716 90.7821 121.73C94.0201 123.913 98.286 124.292 101.205 124.385C106.756 124.559 110.652 123.288 112.811 120.613C113.153 120.237 113.391 119.777 113.499 119.281C113.539 118.823 113.497 118.361 113.376 117.918L113.304 117.559C112.693 115.098 112.386 112.572 112.389 110.036C112.472 107.638 112.646 105.209 112.811 102.862L112.934 101.181C113.08 99.896 113.056 98.5968 112.862 97.3176L111.916 98.0043C110.62 99.0518 109.201 99.9396 107.692 100.649C105.687 101.489 103.806 102.206 102.11 102.77C98.5193 103.964 94.7794 104.654 90.998 104.82Z" fill="#263238"/>
<g style="mix-blend-mode:multiply">
<path d="M113.871 117.815C113.213 115.28 112.868 112.675 112.843 110.057C112.946 107.146 113.172 104.256 113.378 101.345C113.64 99.727 113.58 98.073 113.203 96.4773L112.792 96.7643C111.168 98.0847 109.407 99.2288 107.539 100.177C105.74 100.936 103.849 101.663 101.988 102.227C98.1544 103.506 94.1477 104.197 90.1055 104.277C91.0203 104.277 90.6606 107.905 90.2288 110.805C94.9984 113.05 101.176 110.877 105.278 114.905C107.632 117.2 108.701 120.429 109.39 123.678C110.868 123.094 112.179 122.154 113.203 120.941C113.597 120.49 113.869 119.947 113.995 119.363C114.046 118.844 114.004 118.32 113.871 117.815Z" fill="#ECBE9D"/>
</g>
<path d="M122.452 56.0151C123.879 58.49 124.949 61.1537 125.628 63.9271C126.357 66.3935 126.731 68.9504 126.738 71.5215C126.893 74.1984 126.81 76.8838 126.492 79.5463C125.856 83.5085 124.327 87.2754 122.02 90.5637C119.646 93.9151 116.469 96.3133 113.797 99.3777C113.067 100.208 111.936 101.489 110.713 100.741C109.767 100.198 109.87 98.8345 110.055 97.7686C110.977 92.3283 110.848 86.7626 109.675 81.3706C108.544 76.1949 106.899 71.255 106.282 65.9359C105.892 62.6358 103.445 64.0399 101.307 64.7675C98.5215 65.7002 95.4686 66.3458 92.6006 65.3722C91.6447 65.0545 90.7504 64.5625 89.7738 64.3473C88.7341 64.149 87.6708 64.1041 86.6181 64.2141C80.7897 64.5216 75.7117 65.8232 70.0786 63.3429C68.3421 62.6699 66.8995 61.4078 66.0045 59.7787C65.1095 58.1496 64.8195 56.258 65.1856 54.4367C65.6595 52.4589 66.8332 50.7179 68.4912 49.5336C70.1492 48.3494 72.1801 47.8013 74.2109 47.9903C75.3939 48.2636 76.6045 48.4012 77.8189 48.4002C79.3917 48.2362 79.8748 47.0679 80.7485 46.043C81.8206 44.9254 83.0583 43.9783 84.4183 43.2348C87.1394 41.6911 90.1682 40.7638 93.2894 40.5189C100.403 39.9245 109.274 41.923 113.437 48.185C113.905 49.0767 114.52 49.8839 115.256 50.5729C116.023 51.0435 116.845 51.4186 117.703 51.6901C119.667 52.6502 121.315 54.151 122.452 56.0151Z" fill="#182023"/>
<path d="M90.5146 59.5919C86.1253 60.2478 82.8256 63.3737 78.5186 64.2448C78.4829 64.2459 78.4478 64.2548 78.4159 64.2707C78.3839 64.2866 78.3558 64.3093 78.3335 64.3371C78.3078 64.3994 78.3078 64.4694 78.3335 64.5318C78.8756 66.3002 79.271 68.1101 79.5157 69.9432C79.8895 73.5841 79.81 77.2571 79.2792 80.8786C78.7139 84.4554 77.8299 88.0528 78.1691 91.6808C78.3832 93.8611 79.0274 95.9777 80.0646 97.9089C81.1019 99.8401 82.5118 101.548 84.2133 102.934C88.9624 106.767 95.6028 107.32 101.4 106.009C111.145 103.959 116.891 94.0381 116.285 84.4862C116.26 84.3618 116.262 84.2336 116.29 84.11C116.319 83.9864 116.373 83.8701 116.449 83.7688C116.547 83.685 116.663 83.6253 116.789 83.5945C118.947 82.8771 120.828 81.9137 121.538 79.5565C121.7 79.0847 121.767 78.5856 121.735 78.0879C121.703 77.5903 121.573 77.1037 121.353 76.6561C119.811 73.9197 116.018 75.9284 114.907 77.927C114.527 78.6136 114.579 79.1261 113.736 79.372C112.276 79.7922 111.68 79.6795 111.094 78.2037C110.426 76.4204 111.094 74.8728 111.094 73.0793C111.094 71.2857 111.33 69.6664 110.323 68.0676C109.729 67.3049 109.186 66.5037 108.699 65.6694C108.324 64.7614 108.166 63.7791 108.236 62.7997C108.267 61.0558 108.569 59.3272 109.13 57.6754C107.928 58.7723 106.535 59.6406 105.019 60.2376C102.706 61.037 100.177 60.6885 97.8232 60.2376C95.4412 59.6116 92.9699 59.3933 90.5146 59.5919Z" fill="#FCD9C0"/>
<path d="M95.7981 107.208C91.5054 107.327 87.3024 105.97 83.8946 103.364C82.1267 101.937 80.663 100.172 79.5897 98.1728C78.5164 96.1733 77.8551 93.9799 77.6447 91.7218C77.5008 88.7806 77.7531 85.8334 78.3951 82.9591L78.7652 80.8068C79.2898 77.2227 79.3692 73.5877 79.0016 69.9841C78.8396 68.5707 78.5506 67.1747 78.1381 65.8129L77.8298 64.665C77.7725 64.4664 77.7946 64.2533 77.8914 64.0706C77.9499 63.9814 78.027 63.9059 78.1175 63.8493C78.208 63.7927 78.3097 63.7563 78.4157 63.7426C80.3662 63.2593 82.2409 62.5109 83.9871 61.5186C85.9881 60.3559 88.17 59.5349 90.4425 59.0897C92.6918 58.883 94.9601 59.0703 97.1447 59.6431L97.8642 59.7866C100.054 60.2068 102.582 60.5962 104.844 59.7866C106.293 59.2031 107.626 58.3667 108.781 57.3166L110.189 56.1483L109.603 57.8701C109.056 59.4613 108.761 61.128 108.729 62.81C108.666 63.7143 108.806 64.6214 109.141 65.4644C109.394 65.9523 109.697 66.4125 110.045 66.8377C110.282 67.1452 110.528 67.4629 110.734 67.7909C111.478 69.1294 111.781 70.668 111.597 72.1876C111.597 72.4746 111.597 72.7718 111.597 73.0793C111.588 73.6727 111.54 74.265 111.454 74.8523C111.242 75.9045 111.295 76.9924 111.608 78.0192C112.029 79.1568 112.296 79.2593 113.664 78.8801C114.044 78.7673 114.106 78.6341 114.26 78.2344C114.338 78.0449 114.427 77.8602 114.527 77.681C115.016 76.866 115.694 76.18 116.505 75.6807C117.315 75.1813 118.234 74.8832 119.184 74.8113C119.736 74.8005 120.281 74.9447 120.755 75.2274C121.229 75.51 121.614 75.9198 121.866 76.4101C122.121 76.916 122.273 77.4675 122.311 78.0324C122.35 78.5972 122.276 79.1641 122.093 79.7C121.301 82.3339 119.184 83.3588 117.015 84.0762C116.961 84.0913 116.91 84.1119 116.86 84.1377C116.848 84.2433 116.848 84.3499 116.86 84.4554C117.498 94.9707 110.919 104.461 101.554 106.531C99.6664 106.967 97.7359 107.193 95.7981 107.208ZM78.8988 64.6855C78.981 64.9827 79.053 65.2697 79.1352 65.5464C79.5594 66.9697 79.8586 68.4271 80.0295 69.9021C80.4005 73.5848 80.3142 77.299 79.7726 80.9606C79.6595 81.6882 79.5361 82.4159 79.4025 83.1333C78.7796 85.9307 78.5307 88.7979 78.6624 91.6603C79.0938 95.9376 81.2082 99.8699 84.5422 102.596C88.6539 105.937 94.8215 107.034 101.298 105.599C110.169 103.631 116.408 94.5915 115.791 84.5784C115.761 84.3803 115.773 84.178 115.828 83.9852C115.883 83.7924 115.98 83.6137 116.11 83.4613C116.267 83.3222 116.453 83.2205 116.655 83.1641C118.855 82.4364 120.448 81.5243 121.065 79.4643C121.345 78.6473 121.294 77.7532 120.921 76.9738C120.752 76.6528 120.495 76.3861 120.18 76.2047C119.866 76.0233 119.506 75.9346 119.142 75.9489C118.377 76.0164 117.638 76.2633 116.986 76.6693C116.334 77.0754 115.787 77.6292 115.39 78.2856C115.306 78.4332 115.234 78.5874 115.175 78.7468C115.09 79.0439 114.928 79.3136 114.706 79.5293C114.485 79.7451 114.21 79.8993 113.91 79.9767C112.327 80.4379 111.34 80.3354 110.641 78.4906C110.27 77.3103 110.2 76.0564 110.436 74.842C110.512 74.2951 110.557 73.7441 110.569 73.192C110.569 72.8743 110.569 72.5668 110.569 72.2799C110.749 70.9595 110.5 69.6165 109.86 68.4468C109.664 68.1417 109.451 67.8475 109.223 67.5654C108.825 67.0808 108.48 66.5551 108.195 65.9973C107.798 65.023 107.626 63.9723 107.691 62.9227C107.714 61.6794 107.873 60.4423 108.164 59.2331C107.254 59.9356 106.242 60.4955 105.163 60.8934C102.665 61.7543 100.023 61.3444 97.6586 60.8934L96.9288 60.75C94.867 60.1761 92.722 59.9578 90.5864 60.1043C88.414 60.5287 86.3289 61.3152 84.4188 62.4308C82.6796 63.4075 80.8254 64.1649 78.8988 64.6855Z" fill="#263238"/>
<g style="mix-blend-mode:multiply">
<path d="M121.424 76.6869C119.883 73.9504 116.089 75.9592 114.979 77.9577C114.599 78.6444 114.65 79.1568 113.807 79.4028C112.348 79.823 111.752 79.7103 111.166 78.2344C110.498 76.4512 111.166 74.9036 111.166 73.11C111.166 71.3165 111.402 69.6972 110.395 68.0984C109.801 67.3356 109.258 66.5345 108.771 65.7002C108.396 64.7922 108.237 63.8099 108.308 62.8305C108.339 61.0866 108.641 59.358 109.202 57.7061C108 58.803 106.606 59.6714 105.091 60.2683C102.778 61.0677 100.249 60.7193 97.895 60.2683C95.5324 59.6309 93.079 59.3953 90.6378 59.5714C86.2485 60.2273 82.9489 63.3532 78.6418 64.2243C78.6061 64.2254 78.5711 64.2343 78.5391 64.2502C78.5072 64.2661 78.4791 64.2888 78.4568 64.3166C78.4311 64.379 78.4311 64.4489 78.4568 64.5113C78.5287 64.8085 78.611 65.1057 78.6932 65.3927C80.6134 65.2382 82.5159 64.9124 84.3777 64.4191C86.2382 63.9066 87.9857 63.1072 89.8155 62.523C91.3428 61.9935 92.9475 61.7199 94.5645 61.7134C96.2343 61.8797 97.8815 62.2232 99.4781 62.7383C101.287 63.179 103.765 62.7383 104.618 64.788C105.471 66.8378 105.029 68.9798 105.163 71.0193C105.378 74.3092 106.478 77.5273 107.044 80.7761C107.593 83.7956 107.697 86.8789 107.352 89.9283C106.684 95.2269 104.618 100.741 100.393 104.215C99.2566 105.139 98.006 105.914 96.6718 106.521C98.3193 106.524 99.9626 106.356 101.575 106.019C111.145 103.959 116.891 94.0381 116.285 84.4862C116.26 84.3618 116.262 84.2336 116.29 84.11C116.319 83.9864 116.373 83.8701 116.449 83.7688C116.547 83.685 116.663 83.6253 116.788 83.5946C118.947 82.8771 120.828 81.9138 121.538 79.5565C121.879 78.6222 121.838 77.5917 121.424 76.6869Z" fill="#ECBE9D"/>
</g>
<path d="M87.2349 75.2623C87.2349 75.5951 87.1358 75.9205 86.9501 76.1971C86.7644 76.4737 86.5005 76.6892 86.1918 76.8161C85.8832 76.943 85.5437 76.9757 85.2164 76.91C84.8891 76.8443 84.5888 76.6832 84.3534 76.4471C84.1181 76.211 83.9583 75.9105 83.8944 75.5838C83.8306 75.2571 83.8654 74.9188 83.9946 74.6119C84.1237 74.305 84.3414 74.0432 84.62 73.8597C84.8986 73.6763 85.2255 73.5794 85.5594 73.5815C85.7803 73.5814 85.999 73.625 86.203 73.7096C86.4069 73.7942 86.5921 73.9182 86.7478 74.0744C86.9035 74.2306 87.0267 74.4159 87.1103 74.6198C87.1939 74.8237 87.2363 75.042 87.2349 75.2623Z" fill="#2E2C41"/>
<path d="M100.446 75.2623C100.452 75.5981 100.357 75.928 100.173 76.2095C99.9889 76.4909 99.7247 76.711 99.4142 76.8414C99.1037 76.9717 98.7612 77.0063 98.4308 76.9407C98.1004 76.8751 97.7973 76.7123 97.5606 76.4733C97.3238 76.2343 97.1644 75.9301 97.1027 75.5999C97.041 75.2697 97.08 74.9287 97.2146 74.6207C97.3492 74.3128 97.5732 74.0522 97.8578 73.8724C98.1424 73.6927 98.4744 73.602 98.8112 73.6122C99.2448 73.6228 99.6575 73.8007 99.9623 74.1084C100.267 74.4162 100.44 74.8298 100.446 75.2623Z" fill="#2E2C41"/>
<path d="M122.989 83.4474C125.558 80.8859 125.558 76.7328 122.989 74.1713C120.42 71.6097 116.254 71.6097 113.685 74.1713C111.116 76.7328 111.116 80.8859 113.685 83.4474C116.254 86.0089 120.42 86.0089 122.989 83.4474Z" fill="#E2F4FD"/>
<path d="M118.34 82.211C120.225 82.211 121.753 80.6876 121.753 78.8084C121.753 76.9292 120.225 75.4058 118.34 75.4058C116.456 75.4058 114.928 76.9292 114.928 78.8084C114.928 80.6876 116.456 82.211 118.34 82.211Z" fill="#006DA2"/>
<path d="M117.97 75.1905C117.615 75.1697 117.282 75.0151 117.038 74.7581C116.793 74.5011 116.656 74.1611 116.654 73.8069C116.745 69.9703 116.501 66.133 115.924 62.3385C115.383 58.6841 113.883 55.2371 111.576 52.346C109.658 50.1004 107.23 48.3437 104.494 47.2216C101.347 45.9664 97.9838 45.3396 94.5948 45.3768C89.422 45.4225 84.291 46.3052 79.4019 47.9902C78.8674 48.1645 78.3739 48.3694 77.8086 48.5437C77.6957 48.5844 77.572 48.5844 77.4591 48.5437C77.3896 48.5184 77.3296 48.4723 77.2873 48.4118C77.245 48.3513 77.2224 48.2792 77.2227 48.2055C77.4082 47.5236 77.795 46.913 78.3328 46.4529C79.9364 44.7414 82.3829 44.2187 84.593 43.696C87.6067 42.995 90.6882 42.6238 93.7827 42.5891C97.3675 42.4768 100.943 43.0079 104.34 44.1572C107.958 45.4332 111.174 47.6393 113.663 50.5524C116.278 53.813 117.99 57.7001 118.628 61.8261C119.235 65.7793 119.493 69.778 119.399 73.7762C119.4 73.9587 119.365 74.1398 119.296 74.3088C119.227 74.4779 119.125 74.6316 118.996 74.7612C118.867 74.8907 118.714 74.9936 118.545 75.0637C118.376 75.1339 118.194 75.17 118.011 75.17L117.97 75.1905Z" fill="#E2F4FD"/>
<path d="M101.648 100.772C101.452 100.764 101.265 100.69 101.119 100.56C100.973 100.431 100.877 100.255 100.846 100.062C100.816 99.8697 100.854 99.6726 100.953 99.5047C101.052 99.3369 101.207 99.2086 101.391 99.142C105.122 97.9326 109.758 96.426 112.544 93.0952C114.929 90.246 115.771 86.331 116.512 82.8464C116.536 82.7363 116.582 82.6321 116.647 82.5399C116.712 82.4477 116.794 82.3693 116.89 82.3092C116.986 82.2491 117.092 82.2086 117.204 82.19C117.315 82.1714 117.429 82.175 117.539 82.2007C117.65 82.2235 117.755 82.2685 117.848 82.3331C117.941 82.3977 118.02 82.4805 118.079 82.5764C118.139 82.6723 118.178 82.7794 118.195 82.891C118.212 83.0026 118.206 83.1165 118.177 83.2256C117.396 86.8639 116.501 90.9942 113.859 94.161C110.776 97.8609 105.872 99.4494 101.935 100.731C101.842 100.757 101.745 100.77 101.648 100.772Z" fill="#E2F4FD"/>
<path d="M100.867 102.688L99.4382 103.088C99.1217 103.178 98.7903 103.205 98.4633 103.166C98.1363 103.128 97.8203 103.025 97.5334 102.864C97.2466 102.703 96.9946 102.487 96.7922 102.228C96.5899 101.969 96.441 101.672 96.3544 101.356C96.2637 101.041 96.2365 100.711 96.2744 100.386C96.3122 100.06 96.4144 99.7453 96.575 99.4594C96.7355 99.1735 96.9513 98.9222 97.2099 98.7199C97.4684 98.5177 97.7646 98.3685 98.0813 98.281L99.5102 97.8813C99.8267 97.7911 100.158 97.7644 100.485 97.8028C100.812 97.8412 101.128 97.9439 101.415 98.1051C101.702 98.2662 101.954 98.4825 102.156 98.7414C102.359 99.0003 102.507 99.2967 102.594 99.6134C102.686 99.9283 102.714 100.258 102.677 100.584C102.64 100.91 102.538 101.226 102.377 101.512C102.216 101.798 102 102.049 101.741 102.251C101.482 102.453 101.184 102.602 100.867 102.688Z" fill="#006DA2"/>
<path d="M90.8027 95.3499C89.9374 95.358 89.0777 95.2123 88.2637 94.9194C88.1369 94.8692 88.0354 94.7707 87.9814 94.6458C87.9274 94.5209 87.9255 94.3797 87.9759 94.2533C88.0263 94.1269 88.1251 94.0256 88.2504 93.9718C88.3757 93.918 88.5173 93.916 88.6441 93.9663C90.1671 94.4899 91.8314 94.4278 93.3109 93.7921C94.5153 93.2077 95.5252 92.2897 96.2199 91.1479C96.2871 91.03 96.3975 90.9428 96.5279 90.9045C96.6583 90.8663 96.7985 90.8801 96.9189 90.9429C96.9784 90.9751 97.031 91.0187 97.0736 91.0712C97.1161 91.1237 97.1479 91.184 97.167 91.2488C97.1861 91.3135 97.1922 91.3814 97.1849 91.4485C97.1776 91.5156 97.1571 91.5806 97.1245 91.6398C96.3176 92.9716 95.1388 94.0401 93.7323 94.7145C92.8141 95.1372 91.8141 95.3541 90.8027 95.3499Z" fill="#263238"/>
<path d="M103.312 70.3941C103.233 70.3933 103.154 70.3744 103.083 70.3389C103.012 70.3034 102.95 70.2522 102.901 70.1891C102.809 70.0764 100.63 67.3092 95.6337 69.7996C95.573 69.8294 95.507 69.8469 95.4395 69.8511C95.372 69.8553 95.3043 69.8463 95.2403 69.8244C95.1763 69.8025 95.1173 69.7682 95.0666 69.7235C95.016 69.6788 94.9746 69.6246 94.945 69.5639C94.9134 69.5043 94.8942 69.4389 94.8885 69.3717C94.8828 69.3045 94.8907 69.2368 94.9119 69.1727C94.933 69.1086 94.9668 69.0494 95.0114 68.9987C95.0559 68.9479 95.1103 68.9066 95.1712 68.8773C100.979 65.9871 103.703 69.5434 103.724 69.5844C103.764 69.6383 103.794 69.6995 103.81 69.7647C103.827 69.8299 103.831 69.8977 103.821 69.9644C103.812 70.031 103.789 70.0951 103.755 70.153C103.72 70.2109 103.675 70.2615 103.621 70.3018C103.529 70.3617 103.422 70.3938 103.312 70.3941Z" fill="#263238"/>
<path d="M88.4593 70.3941C88.3926 70.3963 88.3262 70.3846 88.2643 70.3599C88.2024 70.3352 88.1463 70.298 88.0995 70.2506C87.4371 69.5529 86.5567 69.0999 85.6025 68.9659C84.6483 68.8318 83.6767 69.0246 82.8467 69.5127C82.7308 69.565 82.5995 69.5725 82.4783 69.5338C82.3572 69.4951 82.2547 69.413 82.1907 69.3033C82.1268 69.1936 82.1059 69.0642 82.1321 68.9401C82.1584 68.816 82.2299 68.7059 82.3328 68.6313C83.3576 68.0331 84.5543 67.7957 85.7307 67.9574C86.9072 68.1191 87.9949 68.6705 88.819 69.523C88.9132 69.6188 88.966 69.7475 88.966 69.8817C88.966 70.0158 88.9132 70.1446 88.819 70.2404C88.7235 70.336 88.5946 70.3911 88.4593 70.3941Z" fill="#263238"/>
<path d="M93.1772 87.2944C92.468 87.2329 91.9026 87.2226 91.4092 87.2124C90.5181 87.2625 89.6276 87.1046 88.8085 86.7512C87.7806 86.2183 88.5824 84.4862 89.7542 82.0777C90.3867 80.956 90.8704 79.7571 91.1933 78.5112C91.3033 77.743 91.3033 76.9631 91.1933 76.1949C91.1574 76.0659 91.1726 75.928 91.2357 75.8097C91.2989 75.6915 91.4051 75.6019 91.5325 75.5595C91.5953 75.5386 91.6616 75.5303 91.7276 75.5349C91.7936 75.5396 91.8581 75.5572 91.9172 75.5867C91.9764 75.6162 92.0292 75.6571 92.0725 75.7069C92.1159 75.7568 92.149 75.8146 92.1699 75.8772C92.3323 76.7787 92.3323 77.7019 92.1699 78.6034C91.8588 79.9808 91.3426 81.3039 90.6382 82.5287C90.0419 83.5763 89.5923 84.7005 89.3019 85.8698C89.9569 86.1199 90.6577 86.2282 91.3578 86.1875C91.8615 86.1875 92.4474 86.1875 93.1772 86.2797C93.3118 86.2902 93.4368 86.3531 93.5253 86.4547C93.6138 86.5564 93.6586 86.6886 93.6501 86.8229C93.6428 86.9456 93.5906 87.0613 93.5035 87.1482C93.4163 87.2351 93.3003 87.2871 93.1772 87.2944Z" fill="#263238"/>
</g>
<g clip-path="url(#clip1_640_983)">
<path d="M138.729 37.5601L151.367 24.2907V8.74838C151.367 6.62578 152.199 4.59012 153.68 3.08922C155.162 1.58832 157.171 0.745117 159.266 0.745117L235.093 0.745117C237.188 0.745117 239.197 1.58832 240.679 3.08922C242.16 4.59012 242.992 6.62578 242.992 8.74838V34.679C242.992 36.8016 242.16 38.8372 240.679 40.3381C239.197 41.839 237.188 42.6822 235.093 42.6822H140.783C140.202 42.6702 139.638 42.4862 139.16 42.1528C138.681 41.8193 138.31 41.3512 138.091 40.8062C137.873 40.2612 137.817 39.6633 137.93 39.0864C138.043 38.5095 138.321 37.9789 138.729 37.5601Z" fill="#FEC164"/>
<path d="M213.814 21.8097C213.814 23.2881 214.246 24.7334 215.057 25.9626C215.867 27.1919 217.02 28.15 218.368 28.7157C219.716 29.2815 221.199 29.4295 222.63 29.1411C224.061 28.8527 225.376 28.1408 226.408 27.0954C227.439 26.05 228.142 24.718 228.427 23.268C228.711 21.818 228.565 20.315 228.007 18.9491C227.448 17.5832 226.503 16.4158 225.29 15.5944C224.076 14.7731 222.65 14.3347 221.191 14.3347C219.234 14.3347 217.358 15.1222 215.974 16.524C214.591 17.9259 213.814 19.8272 213.814 21.8097Z" fill="white"/>
<path d="M189.771 21.5536C189.771 23.0307 190.202 24.4746 191.012 25.7032C191.821 26.9317 192.971 27.8898 194.318 28.4565C195.664 29.0232 197.145 29.1731 198.576 28.8873C200.006 28.6014 201.32 27.8927 202.353 26.8505C203.386 25.8083 204.092 24.4793 204.38 23.0314C204.668 21.5835 204.526 20.0816 203.973 18.7151C203.419 17.3487 202.479 16.1791 201.27 15.3539C200.061 14.5287 198.637 14.0849 197.18 14.0786C196.208 14.0743 195.245 14.2646 194.347 14.6383C193.448 15.0121 192.631 15.5621 191.943 16.2566C191.254 16.9511 190.708 17.7766 190.335 18.6856C189.962 19.5946 189.771 20.5693 189.771 21.5536Z" fill="white"/>
<path d="M165.728 21.5536C165.728 23.032 166.16 24.4772 166.971 25.7065C167.782 26.9358 168.934 27.8939 170.282 28.4596C171.63 29.0254 173.113 29.1734 174.544 28.885C175.975 28.5966 177.29 27.8847 178.322 26.8393C179.353 25.7939 180.056 24.4619 180.341 23.0119C180.625 21.5619 180.479 20.0589 179.921 18.693C179.362 17.3271 178.417 16.1597 177.204 15.3383C175.99 14.517 174.564 14.0786 173.105 14.0786C172.136 14.0786 171.177 14.2719 170.282 14.6476C169.387 15.0232 168.573 15.5738 167.888 16.2679C167.203 16.9621 166.66 17.7861 166.289 18.693C165.918 19.5999 165.728 20.572 165.728 21.5536Z" fill="white"/>
</g>
<defs>
<clipPath id="clip0_640_983">
<rect width="206.574" height="394.537" fill="white" transform="translate(0.128906 40.4164)"/>
</clipPath>
<clipPath id="clip1_640_983">
<rect width="105.148" height="41.8731" fill="white" transform="matrix(-1 0 0 1 242.992 0.745117)"/>
</clipPath>
</defs>
</svg>
