<svg width="234" height="132" viewBox="0 0 234 132" fill="none" xmlns="http://www.w3.org/2000/svg">
<path d="M1.4723 111.876C3.58387 113.117 5.77387 114.328 7.97894 115.486L8.58225 115.801L7.84622 116.832L7.24291 116.517C5.01973 115.357 2.80862 114.132 0.675937 112.882L0.09375 112.542L0.893117 111.546L1.4723 111.876ZM14.6967 118.778C16.9863 119.833 19.315 120.841 21.6166 121.751L22.2561 122.009L21.6528 123.102L21.0133 122.844C18.6876 121.916 16.3347 120.906 14.021 119.841L13.4026 119.555L14.0693 118.492L14.6967 118.778ZM86.9304 60.0407L87.5337 59.7107L88.3059 60.7188L87.7026 61.0488C86.5428 61.7029 85.4873 62.4829 84.5624 63.3692C83.8286 64.0717 83.1703 64.8294 82.5956 65.6329L82.2276 66.1486L81.021 65.5195L81.389 65.0038C82.0058 64.1383 82.7125 63.322 83.5006 62.5648C84.51 61.5991 85.6631 60.7505 86.9304 60.0407ZM79.9652 70.9544L79.8687 71.55C79.567 73.5121 80.0889 75.5205 81.4675 77.5213L81.8264 78.0369L80.6198 78.6479L80.2608 78.1323C78.7164 75.8944 78.1191 73.6229 78.4781 71.3876L78.5746 70.7894L79.9652 70.9544ZM94.4747 57.71C97.1345 57.4371 99.8292 57.5513 102.444 58.0477L103.135 58.174L102.833 59.3523L102.143 59.2285C99.6842 58.7606 97.1507 58.6516 94.6496 58.9063L93.9498 58.9836L93.7688 57.7873L94.4747 57.71ZM28.7145 124.363C31.1519 125.183 33.6043 125.923 36.0054 126.565L36.6781 126.745L36.2558 127.895L35.5831 127.715C33.1518 127.065 30.6662 126.315 28.1987 125.487L27.5411 125.265L28.0569 124.144L28.7145 124.363ZM86.4749 82.2601C88.4844 83.6003 90.6615 84.7461 92.9664 85.6763L93.6029 85.9341L92.9996 87.0221L92.3631 86.7643C89.9685 85.7972 87.7064 84.6065 85.6182 83.214L85.0661 82.8402L85.9409 81.8966L86.4749 82.2601ZM109.919 60.3037C112.292 61.3078 114.533 62.5256 116.604 63.9364L117.156 64.3103L116.278 65.2539L115.726 64.8801C113.736 63.5229 111.582 62.3509 109.301 61.384L108.667 61.1261L109.295 60.0459L109.919 60.3037ZM43.4713 128.3C46.0173 128.8 48.5693 129.205 51.0609 129.504L51.7577 129.589L51.5616 130.783L50.8648 130.698C48.334 130.396 45.7367 129.984 43.1546 129.476L42.4668 129.339L42.7685 128.166L43.4713 128.3ZM100.128 87.9967C102.589 88.6073 105.095 89.0751 107.63 89.3967L108.327 89.4869L108.118 90.6781L107.422 90.5878C104.824 90.2578 102.255 89.7788 99.7325 89.1543L99.0538 88.9842L99.4489 87.8265L100.128 87.9967ZM121.816 68.2112L122.266 68.6753C122.933 69.3611 123.563 70.0753 124.142 70.792C125.063 71.9263 125.871 73.1251 126.555 74.3758L126.857 74.9224L125.578 75.438L125.276 74.8914C124.624 73.7021 123.855 72.562 122.978 71.483C122.42 70.7946 121.813 70.1088 121.168 69.4487L120.718 68.9821L121.816 68.2112ZM58.735 130.115C61.3016 130.209 63.8721 130.187 66.4361 130.051L67.139 130.012L67.2265 131.216L66.5236 131.255C63.9124 131.394 61.2945 131.415 58.6806 131.319L57.9778 131.293L58.0381 130.089L58.735 130.115ZM115.292 89.9716C117.859 90.0303 120.428 89.9683 122.987 89.786L123.69 89.7344L123.804 90.9359L123.105 90.9875C120.496 91.1729 117.878 91.2358 115.262 91.1757L114.556 91.1576L114.595 89.9536L115.292 89.9716ZM74.0709 129.249C76.596 128.859 79.092 128.343 81.5459 127.702L82.2186 127.526L82.6288 128.679L81.9561 128.854C79.4485 129.505 76.8981 130.03 74.3183 130.424L73.6245 130.53L73.3771 129.344L74.0709 129.249ZM128.754 80.2619L128.863 80.8575C129.253 83.1038 129.302 85.3839 129.008 87.6409L128.932 88.2416L127.533 88.1101L127.608 87.512C127.888 85.3587 127.841 83.1836 127.469 81.0406L127.361 80.445L128.754 80.2619ZM88.7614 125.441C91.1113 124.567 93.434 123.584 95.6722 122.52L96.2906 122.228L96.9754 123.28L96.3721 123.574C94.0946 124.657 91.7266 125.657 89.3376 126.547L88.689 126.787L88.1279 125.68L88.7614 125.441ZM130.616 88.881C133.14 88.4736 135.639 87.9573 138.103 87.3341L138.778 87.1639L139.18 88.319L138.504 88.4917C135.985 89.1285 133.418 89.6623 130.881 90.0774L130.187 90.1882L129.925 89.0048L130.616 88.881ZM127.524 93.6869L127.3 94.2593C126.462 96.3942 125.413 98.4643 124.163 100.447L123.831 100.978L122.589 100.411L122.92 99.8773C124.131 97.9563 125.146 95.9499 125.955 93.8803L126.178 93.3079L127.524 93.6869ZM102.218 119.039C104.332 117.787 106.369 116.445 108.324 115.017L108.857 114.625L109.762 115.54L109.229 115.932C107.244 117.385 105.175 118.753 103.03 120.029L102.45 120.372L101.645 119.382L102.218 119.039ZM120.372 105.647L119.955 106.135C118.402 107.939 116.721 109.661 114.924 111.291L114.441 111.73L113.412 110.904L113.895 110.466C115.653 108.868 117.297 107.182 118.818 105.415L119.234 104.928L120.372 105.647ZM145.36 85.1323C147.723 84.2785 150.02 83.2986 152.238 82.1982L152.841 81.8966L153.547 82.9279L152.944 83.2295C150.674 84.3551 148.323 85.3583 145.906 86.2332L145.258 86.4678L144.709 85.3566L145.36 85.1323ZM193.405 42.5292L193.103 43.068C191.954 45.0559 190.726 47.0437 189.459 48.98L189.115 49.4956L187.884 48.9078L188.228 48.3921C189.486 46.4739 190.699 44.5041 191.848 42.5343L192.15 41.9929L193.405 42.5292ZM185.83 54.2216L185.453 54.7372C184.047 56.6451 182.581 58.5118 181.097 60.2882L180.687 60.7807L179.538 60.0794L179.948 59.5895C181.417 57.8286 182.868 55.9799 184.261 54.0952L184.636 53.5796L185.83 54.2216ZM158.681 78.5938C160.693 77.3253 162.702 75.9227 164.654 74.4248L165.179 74.0226L166.12 74.9198L165.595 75.322C163.61 76.8458 161.565 78.2715 159.517 79.5632L158.95 79.9216L158.111 78.9496L158.681 78.5938ZM176.805 65.1379L176.361 65.6046C174.687 67.3578 172.98 69.0285 171.203 70.6399L170.717 71.0782L169.692 70.2506L170.174 69.8123C171.93 68.2215 173.616 66.574 175.266 64.8414L175.713 64.3747L176.805 65.1379Z" fill="#49263E"/>
<path d="M205.236 38.4946L205.622 31.0176C205.622 31.0176 226.077 13.6634 226.264 13.3154L233.353 0.16626L218.216 9.31648L197.281 28.3595L205.236 38.4946Z" fill="#EF9D43"/>
<path d="M182.684 22.1199L233.352 0.160889L197.281 28.3567L182.684 22.1199Z" fill="#FEC786"/>
<path d="M205.621 31.0072L221.081 37.7055L233.352 0.161011L205.621 31.0072Z" fill="#FEC786"/>
</svg>
