<svg width="329" height="310" viewBox="0 0 329 310" fill="none" xmlns="http://www.w3.org/2000/svg">
<g clip-path="url(#clip0_640_1140)">
<path d="M304.709 95.8153C293.87 84.4735 278.825 78.1742 263.17 76.9981C232.117 74.7341 175.246 67.3836 157.735 44.1634C133.191 11.689 80.7824 -18.6612 27.4756 69.6549C-25.8312 157.971 9.16175 212.387 57.1961 217.973C105.23 223.56 152.131 239.892 185.172 265.325C220.901 292.823 390.682 185.807 304.709 95.8153Z" fill="#BFC998"/>
<path d="M134.156 32.5828C134.428 31.8493 134.893 31.1723 134.973 30.3917C135.053 29.6112 134.717 28.7691 134.933 27.9928C135.234 26.9216 136.428 26.401 137.231 25.6177C138.531 24.3207 138.724 22.3258 139.455 20.6457C140.656 17.8662 143.424 15.9716 146.321 15.1567C149.217 14.3418 152.337 14.4697 155.364 14.7891C158.129 15.0824 161.127 15.6741 162.906 17.8104C164.685 19.9467 164.227 19.3899 165.498 19.8516C168.929 21.0986 170.674 22.2958 172.608 24.2967C174.024 25.7576 174.102 28.1729 173.198 29.9975C172.293 31.8221 170.569 33.1547 168.775 34.1118C166.083 35.5427 163.06 36.3061 160.093 37.0767C156.097 38.0546 130.259 43.2049 134.156 32.5828Z" fill="#582731"/>
<path d="M136.932 36.0389C136.646 35.9343 136.401 35.7413 136.232 35.4879C136.064 35.2346 135.981 34.9341 135.996 34.6302C136.039 34.024 136.195 33.431 136.455 32.8811C136.716 32.3297 136.816 31.7159 136.743 31.1104C136.599 30.727 136.508 30.3255 136.474 29.9172C136.526 29.148 137.377 28.7099 137.847 28.1019C138.227 27.4967 138.438 26.8014 138.458 26.0879" stroke="#704652" stroke-miterlimit="10"/>
<path d="M142.139 33.9793C142.383 33.6554 142.54 33.2746 142.594 32.8733C142.649 32.4719 142.599 32.0634 142.451 31.6867C142.154 30.9512 141.469 30.3233 141.506 29.5323C141.565 28.4106 142.994 27.8216 143.25 26.7304C143.322 26.2152 143.262 25.6904 143.077 25.2046C142.842 24.3392 142.666 23.4587 142.552 22.5693C142.445 21.7656 142.43 20.8511 142.993 20.2725" stroke="#704652" stroke-miterlimit="10"/>
<path d="M147.168 18.7526C148.195 18.8515 149.341 18.984 150.058 19.7349C150.46 20.2502 150.774 20.8284 150.988 21.4461C151.308 22.2478 151.843 22.946 152.534 23.4644C153.477 24.0993 154.708 24.1873 155.691 24.7578C156.32 25.111 156.84 25.6291 157.195 26.2561C157.55 26.8832 157.727 27.5953 157.706 28.3156" stroke="#704652" stroke-miterlimit="10"/>
<path d="M153.561 17.7095C155.463 17.676 157.532 17.695 159.025 18.8728C159.55 19.2858 160.018 19.8423 160.67 19.9709C160.947 20.0186 161.259 19.9983 161.471 20.1811C161.602 20.3236 161.689 20.5006 161.722 20.6913C162.088 22.0002 162.336 23.3395 162.46 24.693" stroke="#704652" stroke-miterlimit="10"/>
<path d="M166.239 30.3857C166.297 30.4629 166.406 30.3479 166.449 30.2681C166.849 29.3953 167 28.4288 166.883 27.4761C166.816 27.0019 166.617 26.556 166.309 26.1886C166.002 25.8212 165.597 25.5469 165.142 25.3965" stroke="#603642" stroke-miterlimit="10"/>
<path d="M148.963 32.1873C148.665 31.4548 148.532 30.6655 148.574 29.8756C148.616 29.0858 148.832 28.3148 149.207 27.6175C149.557 26.9415 150.105 26.2759 150.077 25.5096C150.029 25.1594 149.911 24.8226 149.73 24.5188C149.549 24.215 149.309 23.9505 149.024 23.7409C148.456 23.3265 147.95 22.8326 147.522 22.2745" stroke="#704652" stroke-miterlimit="10"/>
<path d="M145.171 17.2323C145.908 16.7117 146.748 16.3544 147.634 16.1844C148.521 16.0144 149.433 16.0357 150.31 16.2467" stroke="#704652" stroke-miterlimit="10"/>
<path d="M166.236 23.2484C166.836 23.6082 167.469 23.9086 168.128 24.1454C168.665 24.2745 169.191 24.4495 169.698 24.6685C169.954 24.781 170.174 24.9619 170.334 25.1912C170.494 25.4205 170.588 25.6895 170.605 25.9685C170.595 26.1713 170.535 26.3706 170.515 26.5707C170.507 26.7364 170.516 26.9025 170.541 27.0664L170.7 28.4351" stroke="#704652" stroke-miterlimit="10"/>
<path d="M165.877 178.229C99.544 178.229 47.9456 210.454 44.168 308.891H296.394C287.911 207.66 231.209 178.229 165.877 178.229Z" fill="#582731"/>
<path d="M142.844 137.353H194.98V182.786C189.523 195.642 179.795 201.861 169.854 201.809C159.913 201.758 149.552 195.422 142.844 182.786V137.353Z" fill="white" stroke="#582731" stroke-width="1.73"/>
<path d="M210.723 309.457C210.723 303.562 209.56 297.725 207.3 292.279C205.04 286.833 201.727 281.884 197.551 277.716C193.376 273.547 188.418 270.241 182.962 267.985C177.506 265.729 171.658 264.568 165.752 264.568C159.847 264.568 153.999 265.729 148.543 267.985C143.086 270.241 138.129 273.547 133.953 277.716C129.777 281.884 126.464 286.833 124.204 292.279C121.944 297.725 120.781 303.562 120.781 309.457" stroke="white" stroke-width="2.59"/>
<path d="M217.839 309.472C217.839 302.594 216.482 295.784 213.845 289.43C211.208 283.076 207.344 277.303 202.472 272.439C197.6 267.576 191.816 263.718 185.45 261.086C179.084 258.455 172.262 257.1 165.372 257.1C158.482 257.1 151.659 258.455 145.293 261.086C138.928 263.718 133.144 267.576 128.272 272.439C123.4 277.303 119.535 283.076 116.898 289.43C114.261 295.784 112.904 302.594 112.904 309.472" stroke="white" stroke-width="2.59"/>
<path d="M224.951 309.494C224.951 293.62 218.633 278.395 207.388 267.17C196.143 255.945 180.891 249.639 164.987 249.639C149.084 249.639 133.832 255.945 122.586 267.17C111.341 278.395 105.023 293.62 105.023 309.494" stroke="white" stroke-width="2.59"/>
<path d="M180.975 230.565C184.097 230.565 189.811 231.939 192.219 234.306C194.09 236.173 194.09 232.432 197.838 230.565C200.842 229.094 205.334 228.69 205.334 228.69" stroke="#FAF7F0" stroke-width="1.73" stroke-linecap="round"/>
<path d="M203.463 241.083C204.936 241.083 207.557 241.921 208.654 243.369C209.516 244.508 209.516 242.222 211.246 241.083C212.311 240.472 213.488 240.082 214.707 239.936" stroke="#FAF7F0" stroke-width="1.29" stroke-linecap="round"/>
<path d="M217.368 101.255C217.368 121.057 211.859 138.963 202.986 151.9C194.113 164.836 181.918 172.76 168.509 172.76C155.099 172.76 142.904 164.836 134.009 151.914C125.113 138.992 119.635 121.042 119.635 101.269C119.635 91.3095 119.635 81.8568 120.371 73.2567C121.108 64.6566 122.676 56.9753 125.725 50.5437C128.686 44.0064 133.768 38.6564 140.15 35.3575C146.991 31.7632 156.159 29.7565 168.457 29.7565C180.755 29.7565 189.974 31.7485 196.822 35.3428C203.201 38.6444 208.28 43.9939 211.241 50.529C214.29 56.9606 215.829 64.6493 216.594 73.242C217.36 81.8347 217.368 91.2948 217.368 101.255Z" fill="white" stroke="#582731" stroke-width="1.55"/>
<path d="M115.959 65.0315C113.213 76.5938 114.811 87.671 115.959 91.7652C118.618 90.5597 124.251 87.0683 125.532 82.7315C127.16 77.3142 129.332 74.7856 129.693 62.1501C130.054 49.5146 138.765 43.5313 147.263 43.1711C155.761 42.8109 168.802 48.5884 180.923 45.8834C193.044 43.1785 203.015 45.3395 209.156 55.2774C215.297 65.2152 212.418 76.954 214.767 84.7234C216.652 90.9346 218.928 92.0078 219.834 91.7652C220.437 87.3108 221.306 76.0499 219.834 66.6559C218.029 54.8878 209.708 41.5467 203.015 37.2466C196.321 32.9466 191.372 25.2506 169.421 25.2506C150.046 25.2506 141.659 32.6967 134.42 37.2099C127.182 41.7231 119.398 50.5804 115.959 65.0315Z" fill="#582731"/>
<path d="M129.037 135.434C126.643 129.554 124.361 127.106 123.514 126.614C127.137 144.674 142.431 172.415 168.764 172.415C195.65 172.415 209.089 143.836 214.008 126.614C212.339 128.337 210.88 130.252 209.663 132.318C208.301 134.736 202.159 153.502 196.776 155.781C192.925 157.405 192.086 139.801 189.803 139.801C187.52 139.801 196.799 167.733 169.678 167.733C147.586 167.733 155.451 141.153 153.102 139.801C150.752 138.448 151.452 158.081 146.923 159.199C142.395 160.316 132.019 142.778 129.037 135.434Z" fill="#70454F"/>
<path d="M167.697 131.179C164.531 130.59 155.046 133.016 154.045 133.876C154.045 135.412 159.538 135.412 170.378 135.412C180.157 135.412 189.274 134.736 188.132 133.876C186.564 132.693 178.485 130.752 175.061 131.179C171.637 131.605 171.652 131.914 167.697 131.179Z" fill="#70454F"/>
<path d="M111.799 82.6211C115.09 82.4374 118.271 88.3251 119.545 91.9048L119.663 111.656C118.102 113.126 113.993 114.669 110.053 109.149C105.12 102.24 101.276 83.2018 111.799 82.6211Z" fill="white" stroke="#582731" stroke-width="1.55"/>
<path d="M167.625 104.643C166.388 110.046 164.282 121.373 165.77 123.394C167.257 125.416 172.066 124.24 174.29 123.394" stroke="#582731" stroke-width="1.55" stroke-linecap="round" stroke-linejoin="round"/>
<path d="M108.05 90.7876C107.895 89.6483 108.3 87.4137 111.135 87.5975" stroke="#582731" stroke-width="0.78" stroke-linecap="round" stroke-linejoin="round"/>
<path d="M170.893 139.984C166.784 140.293 160.834 139.815 157.079 139.984C156.899 139.99 156.724 140.044 156.573 140.141C156.422 140.238 156.299 140.374 156.219 140.534C156.139 140.695 156.104 140.874 156.118 141.053C156.132 141.232 156.194 141.404 156.298 141.55C159.111 145.799 163.949 150.246 171.622 149.636C179.605 148.989 184.877 145.034 186.122 139.088C186.156 138.934 186.153 138.775 186.114 138.623C186.075 138.471 186.002 138.33 185.899 138.212C185.796 138.093 185.666 138.001 185.521 137.941C185.376 137.881 185.218 137.856 185.061 137.868C180.871 138.154 175.245 139.668 170.893 139.984Z" fill="#582731"/>
<path d="M171.46 141.352C168.397 141.477 163.014 141.234 159.369 141.3C159.169 141.267 158.964 141.309 158.793 141.417C158.622 141.526 158.497 141.693 158.442 141.887C158.386 142.081 158.404 142.289 158.492 142.471C158.58 142.653 158.732 142.796 158.919 142.873C161.644 144.343 165.841 145.409 171.725 144.961C178.279 144.461 182.572 143.101 184.082 140.69C184.162 140.551 184.2 140.391 184.191 140.23C184.182 140.069 184.125 139.915 184.029 139.786C183.933 139.657 183.8 139.559 183.649 139.504C183.497 139.449 183.333 139.44 183.176 139.477C180.009 139.86 177.174 141.116 171.46 141.352Z" fill="white"/>
<path d="M151.521 97.278C153.778 97.278 155.607 95.5141 155.607 93.3382C155.607 91.1623 153.778 89.3983 151.521 89.3983C149.263 89.3983 147.434 91.1623 147.434 93.3382C147.434 95.5141 149.263 97.278 151.521 97.278Z" fill="#582731"/>
<path d="M190.577 95.7345C192.834 95.7345 194.664 93.9705 194.664 91.7946C194.664 89.6187 192.834 87.8547 190.577 87.8547C188.32 87.8547 186.49 89.6187 186.49 91.7946C186.49 93.9705 188.32 95.7345 190.577 95.7345Z" fill="#582731"/>
<path d="M173.287 35.6368C176.13 36.6733 179.281 36.0485 182.308 36.0191C187.553 35.986 192.645 37.7766 196.711 41.0836" stroke="#704652" stroke-miterlimit="10"/>
<path d="M121.783 64.6639C122.313 61.0916 122.976 57.5339 123.786 54.0131C123.966 52.8536 124.417 51.7529 125.104 50.8009C126.246 49.4411 128.131 49.0588 129.758 48.3458C132.308 47.2185 134.347 45.1856 135.48 42.6418" stroke="#704652" stroke-miterlimit="10"/>
<path d="M143.691 40.863C144.313 39.585 145.382 38.5784 146.696 38.0331C148.001 37.4998 149.378 37.1653 150.783 37.0408C155.619 36.4374 160.518 36.5563 165.319 37.3936" stroke="#704652" stroke-miterlimit="10"/>
<path d="M168.168 41.01C171.967 41.9052 175.889 42.166 179.773 41.7818" stroke="#704652" stroke-miterlimit="10"/>
<path d="M206.453 44.3031C208.206 46.817 211.512 48.0151 213 50.698C213.651 52.084 214.033 53.5804 214.126 55.1083L215.025 62.4588" stroke="#704652" stroke-miterlimit="10"/>
<path d="M144.693 31.1604C148.817 30.6458 152.875 29.6903 157.013 29.2786C161.152 28.867 165.481 29.1757 169.185 31.0722" stroke="#704652" stroke-miterlimit="10"/>
<path d="M171.379 30.7929C177.859 31.9102 184.484 31.8953 190.959 30.7488" stroke="#704652" stroke-miterlimit="10"/>
<path d="M122.668 78.9827C125.255 75.6167 126.792 71.5646 127.086 67.3322C127.263 64.8036 126.991 62.2457 127.381 59.7391" stroke="#704652" stroke-miterlimit="10"/>
<path d="M216.484 80.7688C216.319 76.8367 215.826 72.925 215.012 69.0742" stroke="#704652" stroke-miterlimit="10"/>
<path d="M197.485 78.3064H183.67C182.308 78.3064 181.203 79.4089 181.203 80.7688V80.7762C181.203 82.1361 182.308 83.2386 183.67 83.2386H197.485C198.847 83.2386 199.951 82.1361 199.951 80.7762V80.7688C199.951 79.4089 198.847 78.3064 197.485 78.3064Z" fill="#582731"/>
<path d="M158.426 78.3064H144.611C143.249 78.3064 142.145 79.4089 142.145 80.7688V80.7762C142.145 82.1361 143.249 83.2386 144.611 83.2386H158.426C159.788 83.2386 160.893 82.1361 160.893 80.7762V80.7688C160.893 79.4089 159.788 78.3064 158.426 78.3064Z" fill="#582731"/>
<path d="M225.232 82.6211C221.94 82.4374 218.759 88.3251 217.485 91.9048L217.367 111.656C218.928 113.126 223.037 114.669 226.977 109.149C231.948 102.24 235.755 83.2018 225.232 82.6211Z" fill="white" stroke="#582731" stroke-width="1.55"/>
<path d="M229.001 90.7876C229.149 89.6483 228.751 87.4137 225.916 87.5975" stroke="#582731" stroke-width="0.78" stroke-linecap="round" stroke-linejoin="round"/>
</g>
<defs>
<clipPath id="clip0_640_1140">
<rect width="328" height="309" fill="white" transform="translate(0.722656 0.494141)"/>
</clipPath>
</defs>
</svg>
