<svg width="308" height="285" viewBox="0 0 308 285" fill="none" xmlns="http://www.w3.org/2000/svg">
<path d="M142.76 284.298C132.037 283.708 121.82 279.541 113.743 272.463C105.666 265.384 100.195 255.803 98.2029 245.249C95.2288 229.92 90.8794 214.889 85.2073 200.34C70.8247 163.497 -25.7519 170.302 8.09929 84.5239C21.0068 51.3247 59.906 15.2193 93.7257 4.60867C122.042 -4.09191 154.378 -3.04167 187.587 40.994C192.561 47.7023 198.979 53.2065 206.367 57.0994C242.118 75.6685 346.447 138.275 292.172 212.74C275.077 236.039 252.497 254.76 226.434 267.242C200.37 279.724 171.63 285.583 142.76 284.298Z" fill="#F2FEC3"/>
</svg>
