<svg width="307" height="285" viewBox="0 0 307 285" fill="none" xmlns="http://www.w3.org/2000/svg">
<path d="M142.161 284.014C131.437 283.424 121.221 279.257 113.144 272.179C105.067 265.101 99.595 255.519 97.6033 244.966C94.6292 229.636 90.2798 214.605 84.6077 200.057C70.2251 163.213 -26.3515 170.018 7.49969 84.2402C20.4072 51.041 59.3064 14.9356 93.1261 4.32498C121.442 -4.3756 153.779 -3.32536 186.987 40.7103C191.961 47.4186 198.38 52.9228 205.768 56.8157C241.518 75.3848 345.847 137.991 291.573 212.456C274.478 235.755 251.897 254.476 225.834 266.958C199.771 279.441 171.03 285.299 142.161 284.014Z" fill="#F2FEC3"/>
</svg>
