<svg width="21" height="20" viewBox="0 0 21 20" fill="none" xmlns="http://www.w3.org/2000/svg">
<path d="M18.8327 18.3333H2.16602" stroke="#97959D" stroke-width="1.3" stroke-linecap="round"/>
<path d="M17.9999 18.3333V4.99996C17.9999 3.42829 17.9999 2.64329 17.5116 2.15496C17.0233 1.66663 16.2383 1.66663 14.6666 1.66663H12.9999C11.4283 1.66663 10.6433 1.66663 10.1549 2.15496C9.76159 2.54746 9.68492 3.13329 9.66992 4.16663" stroke="#97959D" stroke-width="1.3"/>
<path d="M13 18.3333V7.49996C13 5.92829 13 5.14329 12.5117 4.65496C12.0233 4.16663 11.2383 4.16663 9.66667 4.16663H6.33333C4.76167 4.16663 3.97667 4.16663 3.48833 4.65496C3 5.14329 3 5.92829 3 7.49996V18.3333" stroke="#97959D" stroke-width="1.3"/>
<path d="M8 18.3333V15.8333M5.5 6.66663H10.5M5.5 9.16663H10.5M5.5 11.6666H10.5" stroke="#97959D" stroke-width="1.3" stroke-linecap="round"/>
</svg>
