<svg width="73" height="73" viewBox="0 0 73 73" fill="none" xmlns="http://www.w3.org/2000/svg">
<rect x="0.335938" y="0.5" width="72" height="72" rx="8" fill="url(#paint0_linear_4209_15663)"/>
<rect x="0.335938" y="0.5" width="72" height="72" rx="8" fill="white" fill-opacity="0.2"/>
<path d="M29.6632 21.0125C30.4218 20.8681 31.0859 21.4771 31.0859 22.2489V33.8776C31.0866 34.5734 31.3635 35.2404 31.8557 35.7321C32.3479 36.2238 33.0152 36.5 33.7109 36.5H45.3397C46.1088 36.5 46.7178 37.1641 46.5734 37.9228C45.8861 41.4425 43.9135 44.5806 41.0398 46.7261C38.1661 48.8716 34.5969 49.871 31.0269 49.5297C27.4569 49.1884 24.1416 47.5309 21.7264 44.8798C19.3112 42.2287 17.969 38.7738 17.9609 35.1875C17.9612 31.8333 19.1293 28.5838 21.2648 25.9971C23.4002 23.4104 26.3697 21.648 29.6632 21.0125Z" fill="url(#paint1_linear_4209_15663)"/>
<path d="M29.6632 21.0125C30.4218 20.8681 31.0859 21.4771 31.0859 22.2489V33.8776C31.0866 34.5734 31.3635 35.2404 31.8557 35.7321C32.3479 36.2238 33.0152 36.5 33.7109 36.5H45.3397C46.1088 36.5 46.7178 37.1641 46.5734 37.9228C45.8861 41.4425 43.9135 44.5806 41.0398 46.7261C38.1661 48.8716 34.5969 49.871 31.0269 49.5297C27.4569 49.1884 24.1416 47.5309 21.7264 44.8798C19.3112 42.2287 17.969 38.7738 17.9609 35.1875C17.9612 31.8333 19.1293 28.5838 21.2648 25.9971C23.4002 23.4104 26.3697 21.648 29.6632 21.0125Z" fill="url(#paint2_radial_4209_15663)" fill-opacity="0.4"/>
<path d="M29.6632 21.0125C30.4218 20.8681 31.0859 21.4771 31.0859 22.2489V33.8776C31.0866 34.5734 31.3635 35.2404 31.8557 35.7321C32.3479 36.2238 33.0152 36.5 33.7109 36.5H45.3397C46.1088 36.5 46.7178 37.1641 46.5734 37.9228C45.8861 41.4425 43.9135 44.5806 41.0398 46.7261C38.1661 48.8716 34.5969 49.871 31.0269 49.5297C27.4569 49.1884 24.1416 47.5309 21.7264 44.8798C19.3112 42.2287 17.969 38.7738 17.9609 35.1875C17.9612 31.8333 19.1293 28.5838 21.2648 25.9971C23.4002 23.4104 26.3697 21.648 29.6632 21.0125Z" fill="url(#paint3_radial_4209_15663)" fill-opacity="0.4"/>
<path d="M49.4612 32.7568V32.7436C49.4608 30.8235 49.0823 28.9223 48.3472 27.1485C47.6121 25.3747 46.5348 23.7631 45.1769 22.4056C43.8189 21.0481 42.2069 19.9714 40.4328 19.237C38.6588 18.5025 36.7574 18.1247 34.8373 18.125C34.6866 18.1274 34.5378 18.1595 34.3995 18.2196C34.2612 18.2797 34.1361 18.3665 34.0315 18.475C33.9268 18.5836 33.8447 18.7117 33.7897 18.8521C33.7347 18.9925 33.7081 19.1424 33.7112 19.2931V32.5625C33.7112 32.9106 33.8495 33.2444 34.0956 33.4906C34.3417 33.7367 34.6756 33.875 35.0237 33.875H48.2983C48.9283 33.875 49.4612 33.3867 49.4612 32.7568Z" fill="url(#paint4_linear_4209_15663)"/>
<path d="M49.4609 33.875C49.4609 33.1788 49.7375 32.5111 50.2298 32.0188C50.7221 31.5266 51.3897 31.25 52.0859 31.25C52.7821 31.25 53.4498 31.5266 53.9421 32.0188C54.4344 32.5111 54.7109 33.1788 54.7109 33.875V52.25C54.7109 52.9462 54.4344 53.6139 53.9421 54.1062C53.4498 54.5984 52.7821 54.875 52.0859 54.875C51.3897 54.875 50.7221 54.5984 50.2298 54.1062C49.7375 53.6139 49.4609 52.9462 49.4609 52.25V33.875Z" fill="url(#paint5_linear_4209_15663)"/>
<path d="M41.5859 39.125C41.5859 38.4288 41.8625 37.7611 42.3548 37.2688C42.8471 36.7766 43.5147 36.5 44.2109 36.5C44.9071 36.5 45.5748 36.7766 46.0671 37.2688C46.5594 37.7611 46.8359 38.4288 46.8359 39.125V52.25C46.8359 52.9462 46.5594 53.6139 46.0671 54.1062C45.5748 54.5984 44.9071 54.875 44.2109 54.875C43.5147 54.875 42.8471 54.5984 42.3548 54.1062C41.8625 53.6139 41.5859 52.9462 41.5859 52.25V39.125Z" fill="url(#paint6_linear_4209_15663)"/>
<path d="M33.7109 44.375C33.7109 43.6788 33.9875 43.0111 34.4798 42.5188C34.9721 42.0266 35.6397 41.75 36.3359 41.75C37.0321 41.75 37.6998 42.0266 38.1921 42.5188C38.6844 43.0111 38.9609 43.6788 38.9609 44.375V52.25C38.9609 52.9462 38.6844 53.6139 38.1921 54.1062C37.6998 54.5984 37.0321 54.875 36.3359 54.875C35.6397 54.875 34.9721 54.5984 34.4798 54.1062C33.9875 53.6139 33.7109 52.9462 33.7109 52.25V44.375Z" fill="url(#paint7_linear_4209_15663)"/>
<defs>
<linearGradient id="paint0_linear_4209_15663" x1="0.335938" y1="0.5" x2="66.7913" y2="73.2993" gradientUnits="userSpaceOnUse">
<stop stop-color="#E5E5E5"/>
<stop offset="0.206731" stop-color="#FF8502" stop-opacity="0.2"/>
</linearGradient>
<linearGradient id="paint1_linear_4209_15663" x1="46.7992" y1="54.245" x2="11.9864" y2="19.7499" gradientUnits="userSpaceOnUse">
<stop stop-color="#6D37CD"/>
<stop offset="1" stop-color="#EA71EF"/>
</linearGradient>
<radialGradient id="paint2_radial_4209_15663" cx="0" cy="0" r="1" gradientUnits="userSpaceOnUse" gradientTransform="translate(37.2389 49.625) rotate(90) scale(7.21563 7.11616)">
<stop stop-color="#30116E"/>
<stop offset="0.75" stop-color="#30116E" stop-opacity="0"/>
</radialGradient>
<radialGradient id="paint3_radial_4209_15663" cx="0" cy="0" r="1" gradientUnits="userSpaceOnUse" gradientTransform="translate(44.4603 46.0209) rotate(90) scale(7.21563 6.4008)">
<stop stop-color="#30116E"/>
<stop offset="1" stop-color="#30116E" stop-opacity="0"/>
</radialGradient>
<linearGradient id="paint4_linear_4209_15663" x1="50.1174" y1="29.0188" x2="49.4087" y2="15.5866" gradientUnits="userSpaceOnUse">
<stop stop-color="#E23CB4"/>
<stop offset="1" stop-color="#EA71EF"/>
</linearGradient>
<linearGradient id="paint5_linear_4209_15663" x1="54.0206" y1="23.9919" x2="68.6707" y2="30.0714" gradientUnits="userSpaceOnUse">
<stop stop-color="#16BBDA"/>
<stop offset="1" stop-color="#0067BF"/>
</linearGradient>
<linearGradient id="paint6_linear_4209_15663" x1="42.8984" y1="37.8125" x2="53.3144" y2="43.2016" gradientUnits="userSpaceOnUse">
<stop stop-color="#16BBDA"/>
<stop offset="1" stop-color="#0067BF"/>
</linearGradient>
<linearGradient id="paint7_linear_4209_15663" x1="35.0234" y1="41.75" x2="41.6043" y2="46.6036" gradientUnits="userSpaceOnUse">
<stop stop-color="#16BBDA"/>
<stop offset="1" stop-color="#0067BF"/>
</linearGradient>
</defs>
</svg>
