<svg width="73" height="73" viewBox="0 0 73 73" fill="none" xmlns="http://www.w3.org/2000/svg">
<rect x="0.335938" y="0.5" width="72" height="72" rx="8" fill="url(#paint0_linear_4209_14110)"/>
<rect x="0.335938" y="0.5" width="72" height="72" rx="8" fill="white" fill-opacity="0.2"/>
<path d="M35.0234 44.375C41.5473 44.375 46.8359 39.0864 46.8359 32.5625C46.8359 26.0386 41.5473 20.75 35.0234 20.75C28.4996 20.75 23.2109 26.0386 23.2109 32.5625C23.2109 39.0864 28.4996 44.375 35.0234 44.375Z" fill="url(#paint1_radial_4209_14110)"/>
<path d="M35.0234 44.375C41.5473 44.375 46.8359 39.0864 46.8359 32.5625C46.8359 26.0386 41.5473 20.75 35.0234 20.75C28.4996 20.75 23.2109 26.0386 23.2109 32.5625C23.2109 39.0864 28.4996 44.375 35.0234 44.375Z" fill="url(#paint2_radial_4209_14110)" fill-opacity="0.6"/>
<path d="M35.0234 44.375C41.5473 44.375 46.8359 39.0864 46.8359 32.5625C46.8359 26.0386 41.5473 20.75 35.0234 20.75C28.4996 20.75 23.2109 26.0386 23.2109 32.5625C23.2109 39.0864 28.4996 44.375 35.0234 44.375Z" fill="url(#paint3_radial_4209_14110)" fill-opacity="0.6"/>
<path d="M49.4609 31.25H38.9609C36.0614 31.25 33.7109 33.6005 33.7109 36.5V47C33.7109 49.8995 36.0614 52.25 38.9609 52.25H49.4609C52.3604 52.25 54.7109 49.8995 54.7109 47V36.5C54.7109 33.6005 52.3604 31.25 49.4609 31.25Z" fill="url(#paint4_radial_4209_14110)"/>
<path fill-rule="evenodd" clip-rule="evenodd" d="M35.0234 44.375C36.6856 44.3753 38.3291 44.0248 39.8466 43.3465C41.364 42.6681 42.7212 41.6772 43.8295 40.4383C44.9377 39.1995 45.772 37.7408 46.2779 36.1575C46.7837 34.5741 46.9497 32.9019 46.7651 31.25H38.9609C37.5686 31.25 36.2332 31.8031 35.2486 32.7877C34.2641 33.7723 33.7109 35.1076 33.7109 36.5V44.3041C34.1414 44.3514 34.5789 44.375 35.0234 44.375Z" fill="url(#paint5_linear_4209_14110)"/>
<path fill-rule="evenodd" clip-rule="evenodd" d="M35.0234 44.375C36.6856 44.3753 38.3291 44.0248 39.8466 43.3465C41.364 42.6681 42.7212 41.6772 43.8295 40.4383C44.9377 39.1995 45.772 37.7408 46.2779 36.1575C46.7837 34.5741 46.9497 32.9019 46.7651 31.25H38.9609C37.5686 31.25 36.2332 31.8031 35.2486 32.7877C34.2641 33.7723 33.7109 35.1076 33.7109 36.5V44.3041C34.1414 44.3514 34.5789 44.375 35.0234 44.375Z" fill="url(#paint6_linear_4209_14110)"/>
<path d="M28.4609 41.0098C28.4609 50.066 25.6732 54.791 23.2109 54.791C21.0794 54.791 17.9609 50.8693 17.9609 41.0098C17.9609 32.5888 20.3103 31.25 23.2109 31.25C25.7939 31.25 28.4609 31.9535 28.4609 41.0098Z" fill="url(#paint7_linear_4209_14110)"/>
<path d="M28.4609 41.0098C28.4609 50.066 25.6732 54.791 23.2109 54.791C21.0794 54.791 17.9609 50.8693 17.9609 41.0098C17.9609 32.5888 20.3103 31.25 23.2109 31.25C25.7939 31.25 28.4609 31.9535 28.4609 41.0098Z" fill="url(#paint8_radial_4209_14110)" fill-opacity="0.5"/>
<path d="M28.4609 41.0098C28.4609 50.066 25.6732 54.791 23.2109 54.791C21.0794 54.791 17.9609 50.8693 17.9609 41.0098C17.9609 32.5888 20.3103 31.25 23.2109 31.25C25.7939 31.25 28.4609 31.9535 28.4609 41.0098Z" fill="url(#paint9_linear_4209_14110)"/>
<path d="M28.4609 41.0098C28.4609 50.066 25.6732 54.791 23.2109 54.791C21.0794 54.791 17.9609 50.8693 17.9609 41.0098C17.9609 32.5888 20.3103 31.25 23.2109 31.25C25.7939 31.25 28.4609 31.9535 28.4609 41.0098Z" fill="url(#paint10_radial_4209_14110)" fill-opacity="0.7"/>
<path d="M18.082 38.0146C18.5965 32.258 20.6965 31.25 23.2113 31.25C25.4767 31.25 27.805 31.7907 28.3432 38.0146C26.7763 38.8905 25.0089 39.3445 23.2139 39.3324C21.418 39.345 19.6497 38.8909 18.082 38.0146Z" fill="white" fill-opacity="0.15"/>
<path d="M24.7334 18.453C24.9459 18.6397 25.0924 18.8901 25.1511 19.1668C25.2097 19.4435 25.1774 19.7318 25.0589 19.9886C25.0284 20.0755 25.0133 20.167 25.0143 20.259C25.0143 20.4244 25.0563 20.7394 25.4527 21.1331C25.7992 21.4823 26.0013 21.645 26.3977 22.0309C26.7389 22.3564 27.0986 22.7396 27.4214 23.22C28.0908 24.2254 28.4609 25.4828 28.4609 27.3124C28.4609 31.1711 25.8963 33.8749 23.2109 33.8749C20.5256 33.8749 17.9609 31.1711 17.9609 27.3124C17.9609 25.4224 18.7537 23.3565 19.7696 21.7841C20.3759 20.7604 21.2291 19.902 21.8906 19.3245C22.2878 18.9728 22.7043 18.6464 23.1401 18.3454C23.3808 18.1849 23.6677 18.1085 23.9564 18.128C24.245 18.1474 24.5191 18.2617 24.7361 18.453" fill="url(#paint11_radial_4209_14110)"/>
<defs>
<linearGradient id="paint0_linear_4209_14110" x1="0.335938" y1="0.5" x2="66.7913" y2="73.2993" gradientUnits="userSpaceOnUse">
<stop stop-color="#E5E5E5"/>
<stop offset="0.206731" stop-color="#FF8502" stop-opacity="0.2"/>
</linearGradient>
<radialGradient id="paint1_radial_4209_14110" cx="0" cy="0" r="1" gradientUnits="userSpaceOnUse" gradientTransform="translate(25.4054 50.1526) rotate(-78.382) scale(31.9599 31.9596)">
<stop offset="0.222" stop-color="#4E46E2"/>
<stop offset="0.578" stop-color="#625DF6"/>
<stop offset="0.955" stop-color="#E37DFF"/>
</radialGradient>
<radialGradient id="paint2_radial_4209_14110" cx="0" cy="0" r="1" gradientUnits="userSpaceOnUse" gradientTransform="translate(20.1082 38.7654) rotate(-17.281) scale(12.9019 16.8884)">
<stop offset="0.566" stop-color="#251FBA"/>
<stop offset="1" stop-color="#5E51E4" stop-opacity="0"/>
</radialGradient>
<radialGradient id="paint3_radial_4209_14110" cx="0" cy="0" r="1" gradientUnits="userSpaceOnUse" gradientTransform="translate(19.2236 30.0031) rotate(8.25943) scale(11.8681 12.1315)">
<stop offset="0.566" stop-color="#251FBA"/>
<stop offset="1" stop-color="#5E51E4" stop-opacity="0"/>
</radialGradient>
<radialGradient id="paint4_radial_4209_14110" cx="0" cy="0" r="1" gradientUnits="userSpaceOnUse" gradientTransform="translate(36.3938 32.749) rotate(42.462) scale(24.83 33.7257)">
<stop stop-color="#C354FF"/>
<stop offset="0.158" stop-color="#B339F0"/>
<stop offset="0.429" stop-color="#F24A9D"/>
<stop offset="0.749" stop-color="#FF835C"/>
<stop offset="1" stop-color="#FFC470"/>
</radialGradient>
<linearGradient id="paint5_linear_4209_14110" x1="45.7649" y1="44.4564" x2="35.0838" y2="28.7589" gradientUnits="userSpaceOnUse">
<stop offset="0.195" stop-color="#6D37CD"/>
<stop offset="0.765" stop-color="#EA71EF"/>
</linearGradient>
<linearGradient id="paint6_linear_4209_14110" x1="48.0251" y1="48.1498" x2="30.9914" y2="24.3384" gradientUnits="userSpaceOnUse">
<stop offset="0.195" stop-color="#7631FF"/>
<stop offset="0.886" stop-color="#E63080"/>
</linearGradient>
<linearGradient id="paint7_linear_4209_14110" x1="15.5013" y1="41.2434" x2="25.9672" y2="53.5599" gradientUnits="userSpaceOnUse">
<stop stop-color="#0FAFFF"/>
<stop offset="1" stop-color="#2764E7"/>
</linearGradient>
<radialGradient id="paint8_radial_4209_14110" cx="0" cy="0" r="1" gradientUnits="userSpaceOnUse" gradientTransform="translate(22.7726 29.78) rotate(80.269) scale(23.4561 64.2629)">
<stop offset="0.5" stop-color="#DD3CE2" stop-opacity="0"/>
<stop offset="1" stop-color="#DD3CE2"/>
</radialGradient>
<linearGradient id="paint9_linear_4209_14110" x1="32.3984" y1="42.0335" x2="14.0234" y2="42.0335" gradientUnits="userSpaceOnUse">
<stop offset="0.307" stop-color="#0D91E1"/>
<stop offset="0.761" stop-color="#52B471"/>
</linearGradient>
<radialGradient id="paint10_radial_4209_14110" cx="0" cy="0" r="1" gradientUnits="userSpaceOnUse" gradientTransform="translate(20.1607 31.25) rotate(-73.0638) scale(12.1264 21.417)">
<stop offset="0.169" stop-color="#02888D"/>
<stop offset="0.26" stop-color="#02888D" stop-opacity="0"/>
</radialGradient>
<radialGradient id="paint11_radial_4209_14110" cx="0" cy="0" r="1" gradientUnits="userSpaceOnUse" gradientTransform="translate(25.439 23.2719) rotate(106.553) scale(11.9851 11.9922)">
<stop stop-color="#FF9532"/>
<stop offset="0.251" stop-color="#FF835C"/>
<stop offset="1" stop-color="#F24A9D"/>
</radialGradient>
</defs>
</svg>
