<svg width="72" height="72" viewBox="0 0 72 72" fill="none" xmlns="http://www.w3.org/2000/svg">
<rect width="72" height="72" rx="8" fill="url(#paint0_linear_4209_7380)"/>
<rect width="72" height="72" rx="8" fill="white" fill-opacity="0.2"/>
<path d="M49.5039 29.118V33C49.5039 33.3978 49.6619 33.7794 49.9432 34.0607C50.2245 34.342 50.606 34.5 51.0039 34.5C51.4017 34.5 51.7832 34.342 52.0645 34.0607C52.3458 33.7794 52.5039 33.3978 52.5039 33V25.5C52.5039 25.1022 52.3458 24.7206 52.0645 24.4393C51.7832 24.158 51.4017 24 51.0039 24H43.5039C43.106 24 42.7245 24.158 42.4432 24.4393C42.1619 24.7206 42.0039 25.1022 42.0039 25.5C42.0039 25.8978 42.1619 26.2794 42.4432 26.5607C42.7245 26.842 43.106 27 43.5039 27H47.3799L39.7509 34.629L36.3114 31.1895C36.0301 30.9083 35.6486 30.7503 35.2509 30.7503C34.8531 30.7503 34.4716 30.9083 34.1904 31.1895L25.9404 39.4395C25.7971 39.5779 25.6828 39.7434 25.6042 39.9264C25.5256 40.1094 25.4842 40.3062 25.4825 40.5054C25.4807 40.7046 25.5187 40.9021 25.5941 41.0864C25.6695 41.2708 25.7809 41.4383 25.9218 41.5791C26.0626 41.7199 26.2301 41.8313 26.4144 41.9067C26.5988 41.9822 26.7963 42.0201 26.9955 42.0184C27.1946 42.0166 27.3915 41.9753 27.5745 41.8967C27.7575 41.818 27.923 41.7038 28.0614 41.5605L35.2509 34.371L38.6904 37.8105C38.9716 38.0917 39.3531 38.2497 39.7509 38.2497C40.1486 38.2497 40.5301 38.0917 40.8114 37.8105L49.5039 29.118Z" fill="url(#paint1_linear_4209_7380)"/>
<path d="M21 19.5C21.3978 19.5 21.7794 19.658 22.0607 19.9393C22.342 20.2206 22.5 20.6022 22.5 21V46.5C22.5 47.2956 22.8161 48.0587 23.3787 48.6213C23.9413 49.1839 24.7044 49.5 25.5 49.5H51C51.3978 49.5 51.7794 49.658 52.0607 49.9393C52.342 50.2206 52.5 50.6022 52.5 51C52.5 51.3978 52.342 51.7794 52.0607 52.0607C51.7794 52.342 51.3978 52.5 51 52.5H25.5C23.9087 52.5 22.3826 51.8679 21.2574 50.7426C20.1321 49.6174 19.5 48.0913 19.5 46.5V21C19.5 20.6022 19.658 20.2206 19.9393 19.9393C20.2206 19.658 20.6022 19.5 21 19.5Z" fill="url(#paint2_linear_4209_7380)"/>
<defs>
<linearGradient id="paint0_linear_4209_7380" x1="0" y1="0" x2="66.4553" y2="72.7993" gradientUnits="userSpaceOnUse">
<stop stop-color="#E5E5E5"/>
<stop offset="0.206731" stop-color="#FF8502" stop-opacity="0.2"/>
</linearGradient>
<linearGradient id="paint1_linear_4209_7380" x1="23.4234" y1="40.9995" x2="60.4764" y2="27.1035" gradientUnits="userSpaceOnUse">
<stop stop-color="#0FAFFF"/>
<stop offset="0.445" stop-color="#9C6CFE"/>
<stop offset="0.957" stop-color="#E656EB"/>
</linearGradient>
<linearGradient id="paint2_linear_4209_7380" x1="49.407" y1="21.5625" x2="20.5275" y2="64.5645" gradientUnits="userSpaceOnUse">
<stop stop-color="#70777D"/>
<stop offset="1" stop-color="#B9C0C7"/>
</linearGradient>
</defs>
</svg>
