<svg width="151" height="358" viewBox="0 0 151 358" fill="none" xmlns="http://www.w3.org/2000/svg">
<rect y="147.566" width="4" height="4" transform="rotate(-35 0 147.566)" fill="#822E0C"/>
<rect x="22.9355" y="131.506" width="4" height="4" transform="rotate(-35 22.9355 131.506)" fill="#822E0C"/>
<rect x="45.873" y="115.446" width="4" height="4" transform="rotate(-35 45.873 115.446)" fill="#822E0C"/>
<rect x="68.8086" y="99.386" width="4" height="4" transform="rotate(-35 68.8086 99.386)" fill="#822E0C"/>
<rect x="91.7441" y="83.3259" width="4" height="4" transform="rotate(-35 91.7441 83.3259)" fill="#822E0C"/>
<rect x="114.682" y="67.2656" width="4" height="4" transform="rotate(-35 114.682 67.2656)" fill="#822E0C"/>
<rect x="137.617" y="51.2056" width="4" height="4" transform="rotate(-35 137.617 51.2056)" fill="#822E0C"/>
<rect x="16.0605" y="170.503" width="4" height="4" transform="rotate(-35 16.0605 170.503)" fill="#822E0C"/>
<rect x="38.9961" y="154.443" width="4" height="4" transform="rotate(-35 38.9961 154.443)" fill="#822E0C"/>
<rect x="61.9336" y="138.382" width="4" height="4" transform="rotate(-35 61.9336 138.382)" fill="#822E0C"/>
<rect x="84.8691" y="122.322" width="4" height="4" transform="rotate(-35 84.8691 122.322)" fill="#822E0C"/>
<rect x="107.805" y="106.262" width="4" height="4" transform="rotate(-35 107.805 106.262)" fill="#822E0C"/>
<rect x="130.742" y="90.2019" width="4" height="4" transform="rotate(-35 130.742 90.2019)" fill="#822E0C"/>
<rect x="32.1211" y="193.439" width="4" height="4" transform="rotate(-35 32.1211 193.439)" fill="#822E0C"/>
<rect x="55.0566" y="177.379" width="4" height="4" transform="rotate(-35 55.0566 177.379)" fill="#822E0C"/>
<rect x="77.9941" y="161.319" width="4" height="4" transform="rotate(-35 77.9941 161.319)" fill="#822E0C"/>
<rect x="100.93" y="145.259" width="4" height="4" transform="rotate(-35 100.93 145.259)" fill="#822E0C"/>
<rect x="123.865" y="129.198" width="4" height="4" transform="rotate(-35 123.865 129.198)" fill="#822E0C"/>
<rect x="146.803" y="113.138" width="4" height="4" transform="rotate(-35 146.803 113.138)" fill="#822E0C"/>
<rect x="48.1797" y="216.375" width="4" height="4" transform="rotate(-35 48.1797 216.375)" fill="#822E0C"/>
<rect x="71.1152" y="200.315" width="4" height="4" transform="rotate(-35 71.1152 200.315)" fill="#822E0C"/>
<rect x="94.0527" y="184.255" width="4" height="4" transform="rotate(-35 94.0527 184.255)" fill="#822E0C"/>
<rect x="116.988" y="168.195" width="4" height="4" transform="rotate(-35 116.988 168.195)" fill="#822E0C"/>
<rect x="139.924" y="152.135" width="4" height="4" transform="rotate(-35 139.924 152.135)" fill="#822E0C"/>
<rect x="64.2402" y="239.312" width="4" height="4" transform="rotate(-35 64.2402 239.312)" fill="#822E0C"/>
<rect x="87.1758" y="223.251" width="4" height="4" transform="rotate(-35 87.1758 223.251)" fill="#822E0C"/>
<rect x="110.113" y="207.191" width="4" height="4" transform="rotate(-35 110.113 207.191)" fill="#822E0C"/>
<rect x="133.049" y="191.131" width="4" height="4" transform="rotate(-35 133.049 191.131)" fill="#822E0C"/>
<rect x="80.3008" y="262.248" width="4" height="4" transform="rotate(-35 80.3008 262.248)" fill="#822E0C"/>
<rect x="103.236" y="246.188" width="4" height="4" transform="rotate(-35 103.236 246.188)" fill="#822E0C"/>
<rect x="126.174" y="230.127" width="4" height="4" transform="rotate(-35 126.174 230.127)" fill="#822E0C"/>
<rect x="149.109" y="214.067" width="4" height="4" transform="rotate(-35 149.109 214.067)" fill="#822E0C"/>
<rect x="96.3613" y="285.184" width="4" height="4" transform="rotate(-35 96.3613 285.184)" fill="#822E0C"/>
<rect x="119.297" y="269.124" width="4" height="4" transform="rotate(-35 119.297 269.124)" fill="#822E0C"/>
<rect x="142.234" y="253.064" width="4" height="4" transform="rotate(-35 142.234 253.064)" fill="#822E0C"/>
<rect x="112.422" y="308.12" width="4" height="4" transform="rotate(-35 112.422 308.12)" fill="#822E0C"/>
<rect x="135.357" y="292.06" width="4" height="4" transform="rotate(-35 135.357 292.06)" fill="#822E0C"/>
<rect x="128.48" y="331.056" width="4" height="4" transform="rotate(-35 128.48 331.056)" fill="#822E0C"/>
<rect x="144.541" y="353.993" width="4" height="4" transform="rotate(-35 144.541 353.993)" fill="#822E0C"/>
</svg>
