<svg width="120" height="256" viewBox="0 0 120 256" fill="none" xmlns="http://www.w3.org/2000/svg">
<rect x="4" width="4" height="4" fill="#822E0C"/>
<rect x="32" width="4" height="4" fill="#822E0C"/>
<rect x="60" width="4" height="4" fill="#822E0C"/>
<rect x="88" width="4" height="4" fill="#822E0C"/>
<rect x="116" width="4" height="4" fill="#822E0C"/>
<rect x="4" y="28" width="4" height="4" fill="#822E0C"/>
<rect x="32" y="28" width="4" height="4" fill="#822E0C"/>
<rect x="60" y="28" width="4" height="4" fill="#822E0C"/>
<rect x="88" y="28" width="4" height="4" fill="#822E0C"/>
<rect x="116" y="28" width="4" height="4" fill="#822E0C"/>
<rect x="4" y="56" width="4" height="4" fill="#822E0C"/>
<rect x="32" y="56" width="4" height="4" fill="#822E0C"/>
<rect x="60" y="56" width="4" height="4" fill="#822E0C"/>
<rect x="88" y="56" width="4" height="4" fill="#822E0C"/>
<rect x="116" y="56" width="4" height="4" fill="#822E0C"/>
<rect x="4" y="84" width="4" height="4" fill="#822E0C"/>
<rect x="32" y="84" width="4" height="4" fill="#822E0C"/>
<rect x="60" y="84" width="4" height="4" fill="#822E0C"/>
<rect x="88" y="84" width="4" height="4" fill="#822E0C"/>
<rect x="116" y="84" width="4" height="4" fill="#822E0C"/>
<rect x="4" y="112" width="4" height="4" fill="#822E0C"/>
<rect x="32" y="112" width="4" height="4" fill="#822E0C"/>
<rect x="60" y="112" width="4" height="4" fill="#822E0C"/>
<rect x="88" y="112" width="4" height="4" fill="#822E0C"/>
<rect x="116" y="112" width="4" height="4" fill="#822E0C"/>
<rect x="4" y="140" width="4" height="4" fill="#822E0C"/>
<rect x="32" y="140" width="4" height="4" fill="#822E0C"/>
<rect x="60" y="140" width="4" height="4" fill="#822E0C"/>
<rect x="88" y="140" width="4" height="4" fill="#822E0C"/>
<rect x="116" y="140" width="4" height="4" fill="#822E0C"/>
<rect x="4" y="168" width="4" height="4" fill="#822E0C"/>
<rect x="32" y="168" width="4" height="4" fill="#822E0C"/>
<rect x="60" y="168" width="4" height="4" fill="#822E0C"/>
<rect x="88" y="168" width="4" height="4" fill="#822E0C"/>
<rect x="116" y="168" width="4" height="4" fill="#822E0C"/>
<rect x="4" y="196" width="4" height="4" fill="#822E0C"/>
<rect x="32" y="196" width="4" height="4" fill="#822E0C"/>
<rect x="60" y="196" width="4" height="4" fill="#822E0C"/>
<rect x="88" y="196" width="4" height="4" fill="#822E0C"/>
<rect x="116" y="196" width="4" height="4" fill="#822E0C"/>
<rect x="4" y="224" width="4" height="4" fill="#822E0C"/>
<rect x="32" y="224" width="4" height="4" fill="#822E0C"/>
<rect x="60" y="224" width="4" height="4" fill="#822E0C"/>
<rect x="88" y="224" width="4" height="4" fill="#822E0C"/>
<rect x="116" y="224" width="4" height="4" fill="#822E0C"/>
<rect x="4" y="252" width="4" height="4" fill="#822E0C"/>
<rect x="32" y="252" width="4" height="4" fill="#822E0C"/>
<rect x="60" y="252" width="4" height="4" fill="#822E0C"/>
<rect x="88" y="252" width="4" height="4" fill="#822E0C"/>
<rect x="116" y="252" width="4" height="4" fill="#822E0C"/>
</svg>
