<svg xmlns="http://www.w3.org/2000/svg" width="20" height="20" viewBox="0 0 20 20" fill="none">
  <path d="M14.3757 5.83337C14.3757 5.66761 14.3098 5.50864 14.1926 5.39143C14.0754 5.27422 13.9164 5.20837 13.7507 5.20837C13.5849 5.20837 13.4259 5.27422 13.3087 5.39143C13.1915 5.50864 13.1257 5.66761 13.1257 5.83337V6.87504H12.084C11.9182 6.87504 11.7593 6.94089 11.642 7.0581C11.5248 7.17531 11.459 7.33428 11.459 7.50004C11.459 7.6658 11.5248 7.82477 11.642 7.94198C11.7593 8.05919 11.9182 8.12504 12.084 8.12504H13.1257V9.16671C13.1257 9.33247 13.1915 9.49144 13.3087 9.60865C13.4259 9.72586 13.5849 9.79171 13.7507 9.79171C13.9164 9.79171 14.0754 9.72586 14.1926 9.60865C14.3098 9.49144 14.3757 9.33247 14.3757 9.16671V8.12504H15.4173C15.5831 8.12504 15.742 8.05919 15.8593 7.94198C15.9765 7.82477 16.0423 7.6658 16.0423 7.50004C16.0423 7.33428 15.9765 7.17531 15.8593 7.0581C15.742 6.94089 15.5831 6.87504 15.4173 6.87504H14.3757V5.83337Z" fill="white"/>
  <path fill-rule="evenodd" clip-rule="evenodd" d="M18.9577 7.76502C18.9577 4.99335 17.7227 2.92502 15.7993 2.17252C14.0202 1.47502 11.8843 1.99669 9.99935 3.76085C8.11435 1.99669 5.97852 1.47502 4.19935 2.17252C2.27602 2.92502 1.04102 4.99336 1.04102 7.76419C1.04102 9.53002 1.98268 11.2667 3.15518 12.7617C4.34018 14.2725 5.83018 15.625 7.07352 16.6342L7.18518 16.7259C8.18518 17.5384 8.90852 18.1259 9.99935 18.1259C11.091 18.1259 11.8127 17.5384 12.8135 16.7259L12.9252 16.6342C14.1685 15.6259 15.6585 14.2725 16.8435 12.7617C18.016 11.2667 18.9577 9.53002 18.9577 7.76502ZM10.456 5.07252C12.216 3.19002 14.0402 2.82585 15.3443 3.33585C16.651 3.84752 17.7077 5.34419 17.7077 7.76502C17.7077 9.10752 16.9743 10.5684 15.8593 11.99C14.756 13.3984 13.346 14.6834 12.1377 15.6642C10.9768 16.6059 10.6018 16.875 9.99935 16.875C9.39685 16.875 9.02185 16.6059 7.86102 15.6634C6.65268 14.6834 5.24268 13.3975 4.13935 11.9909C3.02352 10.5684 2.29102 9.10752 2.29102 7.76502C2.29102 5.34419 3.34768 3.84835 4.65435 3.33585C5.95852 2.82585 7.78268 3.19002 9.54268 5.07252C9.60115 5.1351 9.67186 5.18499 9.75042 5.2191C9.82898 5.25321 9.91371 5.27081 9.99935 5.27081C10.085 5.27081 10.1697 5.25321 10.2483 5.2191C10.3268 5.18499 10.3975 5.1351 10.456 5.07252Z" fill="white"/>
</svg>