<svg width="72" height="72" viewBox="0 0 72 72" fill="none" xmlns="http://www.w3.org/2000/svg">
<rect width="72" height="72" rx="8" fill="url(#paint0_linear_4209_7395)"/>
<rect width="72" height="72" rx="8" fill="white" fill-opacity="0.2"/>
<path fill-rule="evenodd" clip-rule="evenodd" d="M41.6822 50.4515C41.4933 51.268 41.0487 52.0029 40.4132 52.5493C39.7778 53.0957 38.9846 53.425 38.149 53.4895L37.8462 53.5H34.152C33.3137 53.5001 32.4972 53.2327 31.8214 52.7366C31.1457 52.2406 30.6458 51.5418 30.3947 50.742L30.3142 50.448L29.6055 47.375H42.3945L41.6822 50.4515Z" fill="url(#paint1_radial_4209_7395)"/>
<path fill-rule="evenodd" clip-rule="evenodd" d="M41.6822 50.4515C41.4933 51.268 41.0487 52.0029 40.4132 52.5493C39.7778 53.0957 38.9846 53.425 38.149 53.4895L37.8462 53.5H34.152C33.3137 53.5001 32.4972 53.2327 31.8214 52.7366C31.1457 52.2406 30.6458 51.5418 30.3947 50.742L30.3142 50.448L29.6055 47.375H42.3945L41.6822 50.4515Z" fill="url(#paint2_linear_4209_7395)"/>
<path fill-rule="evenodd" clip-rule="evenodd" d="M29.4025 46.5H42.5975L43.7245 41.6298C43.7431 41.5465 43.7857 41.4704 43.847 41.411C47.0495 38.3538 48.6875 34.929 48.6875 31.191C48.6875 29.5249 48.3593 27.875 47.7217 26.3357C47.0841 24.7964 46.1496 23.3977 44.9714 22.2196C43.7933 21.0414 42.3946 20.1069 40.8553 19.4693C39.316 18.8317 37.6661 18.5035 36 18.5035C34.3339 18.5035 32.684 18.8317 31.1447 19.4693C29.6054 20.1069 28.2067 21.0414 27.0286 22.2196C25.8504 23.3977 24.9159 24.7964 24.2783 26.3357C23.6407 27.875 23.3125 29.5249 23.3125 31.191C23.3125 34.929 24.9505 38.3538 28.1548 41.411C28.2167 41.4702 28.2599 41.5463 28.279 41.6298L29.4025 46.5Z" fill="url(#paint3_radial_4209_7395)"/>
<path fill-rule="evenodd" clip-rule="evenodd" d="M29.4025 46.5H42.5975L43.7245 41.6298C43.7431 41.5465 43.7857 41.4704 43.847 41.411C47.0495 38.3538 48.6875 34.929 48.6875 31.191C48.6875 29.5249 48.3593 27.875 47.7217 26.3357C47.0841 24.7964 46.1496 23.3977 44.9714 22.2196C43.7933 21.0414 42.3946 20.1069 40.8553 19.4693C39.316 18.8317 37.6661 18.5035 36 18.5035C34.3339 18.5035 32.684 18.8317 31.1447 19.4693C29.6054 20.1069 28.2067 21.0414 27.0286 22.2196C25.8504 23.3977 24.9159 24.7964 24.2783 26.3357C23.6407 27.875 23.3125 29.5249 23.3125 31.191C23.3125 34.929 24.9505 38.3538 28.1548 41.411C28.2167 41.4702 28.2599 41.5463 28.279 41.6298L29.4025 46.5Z" fill="url(#paint4_radial_4209_7395)" fill-opacity="0.2"/>
<path d="M29.8065 48.25L29.1992 45.625H42.8002L42.1912 48.25H29.8065Z" fill="url(#paint5_linear_4209_7395)"/>
<path fill-rule="evenodd" clip-rule="evenodd" d="M45.625 36C46.889 36 48.1406 35.751 49.3083 35.2673C50.4761 34.7836 51.5371 34.0747 52.4309 33.1809C53.3247 32.2871 54.0336 31.2261 54.5173 30.0583C55.001 28.8906 55.25 27.639 55.25 26.375C55.25 25.111 55.001 23.8594 54.5173 22.6917C54.0336 21.5239 53.3247 20.4629 52.4309 19.5691C51.5371 18.6753 50.4761 17.9664 49.3083 17.4827C48.1406 16.999 46.889 16.75 45.625 16.75C43.0723 16.75 40.6241 17.7641 38.8191 19.5691C37.0141 21.3741 36 23.8223 36 26.375C36 28.9277 37.0141 31.3759 38.8191 33.1809C40.6241 34.9859 43.0723 36 45.625 36Z" fill="url(#paint6_linear_4209_7395)"/>
<path fill-rule="evenodd" clip-rule="evenodd" d="M51.4937 23.4945C51.658 23.3302 51.7503 23.1074 51.7503 22.875C51.7503 22.6426 51.658 22.4198 51.4937 22.2555C51.3294 22.0912 51.1065 21.9989 50.8742 21.9989C50.6418 21.9989 50.419 22.0912 50.2547 22.2555L43.8742 28.6378L40.9937 25.7555C40.8294 25.5912 40.6065 25.4989 40.3742 25.4989C40.1418 25.4989 39.919 25.5912 39.7547 25.7555C39.5903 25.9198 39.498 26.1426 39.498 26.375C39.498 26.6074 39.5903 26.8302 39.7547 26.9945L43.2547 30.4945C43.3359 30.576 43.4325 30.6406 43.5388 30.6848C43.6451 30.7289 43.7591 30.7516 43.8742 30.7516C43.9892 30.7516 44.1032 30.7289 44.2095 30.6848C44.3158 30.6406 44.4124 30.576 44.4937 30.4945L51.4937 23.4945Z" fill="url(#paint7_linear_4209_7395)"/>
<defs>
<linearGradient id="paint0_linear_4209_7395" x1="0" y1="0" x2="66.4553" y2="72.7993" gradientUnits="userSpaceOnUse">
<stop stop-color="#E5E5E5"/>
<stop offset="0.206731" stop-color="#FF8502" stop-opacity="0.2"/>
</linearGradient>
<radialGradient id="paint1_radial_4209_7395" cx="0" cy="0" r="1" gradientUnits="userSpaceOnUse" gradientTransform="translate(27.9832 28.2475) rotate(71.8063) scale(25.319 43.1074)">
<stop stop-color="#FFE06B"/>
<stop offset="0.376" stop-color="#FFA43D"/>
<stop offset="1" stop-color="#E67505"/>
</radialGradient>
<linearGradient id="paint2_linear_4209_7395" x1="35.9982" y1="47.375" x2="35.9982" y2="53.5" gradientUnits="userSpaceOnUse">
<stop stop-color="#D34719"/>
<stop offset="1" stop-color="#D34719" stop-opacity="0"/>
</linearGradient>
<radialGradient id="paint3_radial_4209_7395" cx="0" cy="0" r="1" gradientUnits="userSpaceOnUse" gradientTransform="translate(27.5422 22.0228) rotate(74.837) scale(31.8955 46.2191)">
<stop stop-color="#FFE06B"/>
<stop offset="0.376" stop-color="#FFA43D"/>
<stop offset="1" stop-color="#E67505"/>
</radialGradient>
<radialGradient id="paint4_radial_4209_7395" cx="0" cy="0" r="1" gradientUnits="userSpaceOnUse" gradientTransform="translate(45.625 29) rotate(180) scale(12.25)">
<stop offset="0.165" stop-color="#741C06"/>
<stop offset="1" stop-color="#741C06" stop-opacity="0"/>
</radialGradient>
<linearGradient id="paint5_linear_4209_7395" x1="34.9252" y1="46.6662" x2="37.2702" y2="51.5295" gradientUnits="userSpaceOnUse">
<stop stop-color="#FFC7A3"/>
<stop offset="1" stop-color="#FF9C70"/>
</linearGradient>
<linearGradient id="paint6_linear_4209_7395" x1="36.6877" y1="20.3603" x2="49.972" y2="34.1625" gradientUnits="userSpaceOnUse">
<stop stop-color="#52D17C"/>
<stop offset="1" stop-color="#22918B"/>
</linearGradient>
<linearGradient id="paint7_linear_4209_7395" x1="41.7969" y1="22.8925" x2="43.7867" y2="32.7275" gradientUnits="userSpaceOnUse">
<stop stop-color="white"/>
<stop offset="1" stop-color="#E3FFD9"/>
</linearGradient>
</defs>
</svg>
