<svg width="72" height="73" viewBox="0 0 72 73" fill="none" xmlns="http://www.w3.org/2000/svg">
<rect y="0.5" width="72" height="72" rx="8" fill="url(#paint0_linear_4209_15649)"/>
<rect y="0.5" width="72" height="72" rx="8" fill="white" fill-opacity="0.2"/>
<g clip-path="url(#clip0_4209_15649)">
<path d="M25.9375 20.75C24.4291 20.75 22.9824 21.3492 21.9158 22.4158C20.8492 23.4824 20.25 24.9291 20.25 26.4375V46.5625C20.25 48.0709 20.8492 49.5176 21.9158 50.5842C22.9824 51.6508 24.4291 52.25 25.9375 52.25H46.0625C47.5709 52.25 49.0176 51.6508 50.0842 50.5842C51.1508 49.5176 51.75 48.0709 51.75 46.5625V26.4375C51.75 24.9291 51.1508 23.4824 50.0842 22.4158C49.0176 21.3492 47.5709 20.75 46.0625 20.75H25.9375Z" fill="url(#paint1_linear_4209_15649)"/>
<path d="M28.5625 31.6875C29.0266 31.6875 29.4717 31.5031 29.7999 31.1749C30.1281 30.8467 30.3125 30.4016 30.3125 29.9375C30.3125 29.4734 30.1281 29.0283 29.7999 28.7001C29.4717 28.3719 29.0266 28.1875 28.5625 28.1875C28.0984 28.1875 27.6533 28.3719 27.3251 28.7001C26.9969 29.0283 26.8125 29.4734 26.8125 29.9375C26.8125 30.4016 26.9969 30.8467 27.3251 31.1749C27.6533 31.5031 28.0984 31.6875 28.5625 31.6875ZM34.6875 28.625C34.3394 28.625 34.0056 28.7633 33.7594 29.0094C33.5133 29.2556 33.375 29.5894 33.375 29.9375C33.375 30.2856 33.5133 30.6194 33.7594 30.8656C34.0056 31.1117 34.3394 31.25 34.6875 31.25H44.3125C44.6606 31.25 44.9944 31.1117 45.2406 30.8656C45.4867 30.6194 45.625 30.2856 45.625 29.9375C45.625 29.5894 45.4867 29.2556 45.2406 29.0094C44.9944 28.7633 44.6606 28.625 44.3125 28.625H34.6875ZM34.6875 35.1875C34.3394 35.1875 34.0056 35.3258 33.7594 35.5719C33.5133 35.8181 33.375 36.1519 33.375 36.5C33.375 36.8481 33.5133 37.1819 33.7594 37.4281C34.0056 37.6742 34.3394 37.8125 34.6875 37.8125H44.3125C44.6606 37.8125 44.9944 37.6742 45.2406 37.4281C45.4867 37.1819 45.625 36.8481 45.625 36.5C45.625 36.1519 45.4867 35.8181 45.2406 35.5719C44.9944 35.3258 44.6606 35.1875 44.3125 35.1875H34.6875ZM33.375 43.0625C33.375 43.787 33.963 44.375 34.6875 44.375H44.3125C44.6606 44.375 44.9944 44.2367 45.2406 43.9906C45.4867 43.7444 45.625 43.4106 45.625 43.0625C45.625 42.7144 45.4867 42.3806 45.2406 42.1344C44.9944 41.8883 44.6606 41.75 44.3125 41.75H34.6875C34.3394 41.75 34.0056 41.8883 33.7594 42.1344C33.5133 42.3806 33.375 42.7144 33.375 43.0625ZM30.3125 36.5C30.3125 36.0359 30.1281 35.5908 29.7999 35.2626C29.4717 34.9344 29.0266 34.75 28.5625 34.75C28.0984 34.75 27.6533 34.9344 27.3251 35.2626C26.9969 35.5908 26.8125 36.0359 26.8125 36.5C26.8125 36.9641 26.9969 37.4092 27.3251 37.7374C27.6533 38.0656 28.0984 38.25 28.5625 38.25C29.0266 38.25 29.4717 38.0656 29.7999 37.7374C30.1281 37.4092 30.3125 36.9641 30.3125 36.5ZM28.5625 44.8125C29.0266 44.8125 29.4717 44.6281 29.7999 44.2999C30.1281 43.9717 30.3125 43.5266 30.3125 43.0625C30.3125 42.5984 30.1281 42.1533 29.7999 41.8251C29.4717 41.4969 29.0266 41.3125 28.5625 41.3125C28.0984 41.3125 27.6533 41.4969 27.3251 41.8251C26.9969 42.1533 26.8125 42.5984 26.8125 43.0625C26.8125 43.5266 26.9969 43.9717 27.3251 44.2999C27.6533 44.6281 28.0984 44.8125 28.5625 44.8125Z" fill="url(#paint2_linear_4209_15649)"/>
<path d="M25.9375 20.75C24.4291 20.75 22.9824 21.3492 21.9158 22.4158C20.8492 23.4824 20.25 24.9291 20.25 26.4375V46.5625C20.25 48.0709 20.8492 49.5176 21.9158 50.5842C22.9824 51.6508 24.4291 52.25 25.9375 52.25H46.0625C47.5709 52.25 49.0176 51.6508 50.0842 50.5842C51.1508 49.5176 51.75 48.0709 51.75 46.5625V26.4375C51.75 24.9291 51.1508 23.4824 50.0842 22.4158C49.0176 21.3492 47.5709 20.75 46.0625 20.75H25.9375Z" fill="url(#paint3_radial_4209_15649)"/>
<path d="M25.9375 20.75C24.4291 20.75 22.9824 21.3492 21.9158 22.4158C20.8492 23.4824 20.25 24.9291 20.25 26.4375V46.5625C20.25 48.0709 20.8492 49.5176 21.9158 50.5842C22.9824 51.6508 24.4291 52.25 25.9375 52.25H46.0625C47.5709 52.25 49.0176 51.6508 50.0842 50.5842C51.1508 49.5176 51.75 48.0709 51.75 46.5625V26.4375C51.75 24.9291 51.1508 23.4824 50.0842 22.4158C49.0176 21.3492 47.5709 20.75 46.0625 20.75H25.9375Z" fill="url(#paint4_radial_4209_15649)"/>
<path d="M25.9375 20.75C24.4291 20.75 22.9824 21.3492 21.9158 22.4158C20.8492 23.4824 20.25 24.9291 20.25 26.4375V46.5625C20.25 48.0709 20.8492 49.5176 21.9158 50.5842C22.9824 51.6508 24.4291 52.25 25.9375 52.25H46.0625C47.5709 52.25 49.0176 51.6508 50.0842 50.5842C51.1508 49.5176 51.75 48.0709 51.75 46.5625V26.4375C51.75 24.9291 51.1508 23.4824 50.0842 22.4158C49.0176 21.3492 47.5709 20.75 46.0625 20.75H25.9375Z" fill="url(#paint5_radial_4209_15649)"/>
<path d="M25.9375 20.75C24.4291 20.75 22.9824 21.3492 21.9158 22.4158C20.8492 23.4824 20.25 24.9291 20.25 26.4375V46.5625C20.25 48.0709 20.8492 49.5176 21.9158 50.5842C22.9824 51.6508 24.4291 52.25 25.9375 52.25H46.0625C47.5709 52.25 49.0176 51.6508 50.0842 50.5842C51.1508 49.5176 51.75 48.0709 51.75 46.5625V26.4375C51.75 24.9291 51.1508 23.4824 50.0842 22.4158C49.0176 21.3492 47.5709 20.75 46.0625 20.75H25.9375Z" fill="url(#paint6_radial_4209_15649)"/>
<path d="M54.8704 33.3729L53.5299 32.9389C53.1232 32.8029 52.7536 32.5742 52.4505 32.2708C52.1474 31.9674 51.919 31.5976 51.7834 31.1907L51.3459 29.8537C51.3097 29.7503 51.2422 29.6608 51.1529 29.5974C51.0635 29.534 50.9567 29.5 50.8472 29.5C50.7376 29.5 50.6308 29.534 50.5415 29.5974C50.4521 29.6608 50.3847 29.7503 50.3484 29.8537L49.9144 31.1907C49.7813 31.595 49.5567 31.9631 49.258 32.2663C48.9593 32.5695 48.5947 32.7997 48.1924 32.9389L46.8537 33.3729C46.7503 33.4092 46.6608 33.4766 46.5974 33.566C46.534 33.6553 46.5 33.7621 46.5 33.8717C46.5 33.9812 46.534 34.088 46.5974 34.1774C46.6608 34.2667 46.7503 34.3342 46.8537 34.3704L48.1924 34.8062C48.6004 34.9422 48.971 35.1716 49.2748 35.476C49.5786 35.7804 49.8072 36.1514 49.9424 36.5597L50.3764 37.8967C50.4127 38.0001 50.4801 38.0896 50.5695 38.153C50.6588 38.2163 50.7656 38.2504 50.8752 38.2504C50.9847 38.2504 51.0915 38.2163 51.1809 38.153C51.2702 38.0896 51.3377 38.0001 51.3739 37.8967L51.8097 36.5597C51.9454 36.1526 52.1741 35.7827 52.4775 35.4793C52.781 35.1758 53.1509 34.9472 53.5579 34.8114L54.8967 34.3774C55.0001 34.3412 55.0896 34.2737 55.153 34.1844C55.2163 34.095 55.2504 33.9882 55.2504 33.8787C55.2504 33.7691 55.2163 33.6623 55.153 33.573C55.0896 33.4836 55.0001 33.4162 54.8967 33.3799L54.8704 33.3729Z" fill="url(#paint7_radial_4209_15649)"/>
<path d="M41.4054 26.721C40.8025 25.9428 39.9821 25.3611 39.0482 25.0498L36.6367 24.2658C36.4515 24.1999 36.2913 24.0783 36.178 23.9177C36.0647 23.7571 36.0039 23.5654 36.0039 23.3689C36.0039 23.1724 36.0647 22.9807 36.178 22.8201C36.2913 22.6595 36.4515 22.5379 36.6367 22.472L39.0482 21.688C39.7617 21.4416 40.4098 21.0358 40.9432 20.5016C41.4766 19.9673 41.8812 19.3185 42.1264 18.6045L42.1457 18.545L42.9297 16.1353C42.9948 15.9489 43.1163 15.7874 43.2773 15.6732C43.4383 15.5589 43.6309 15.4976 43.8283 15.4976C44.0257 15.4976 44.2182 15.5589 44.3792 15.6732C44.5402 15.7874 44.6617 15.9489 44.7269 16.1353L45.5092 18.545C45.7537 19.2775 46.1655 19.9429 46.712 20.4884C47.2585 21.034 47.9246 21.4447 48.6574 21.688L51.0672 22.472L51.1162 22.4843C51.3013 22.5502 51.4615 22.6718 51.5748 22.8323C51.6881 22.9929 51.7489 23.1846 51.7489 23.3811C51.7489 23.5777 51.6881 23.7694 51.5748 23.93C51.4615 24.0905 51.3013 24.2121 51.1162 24.278L48.7047 25.062C47.9721 25.3056 47.3064 25.7164 46.7602 26.2619C46.2141 26.8075 45.8025 27.4728 45.5582 28.205L44.7742 30.6148L44.7514 30.6743C44.6758 30.8504 44.5488 30.9995 44.387 31.1023C44.2253 31.205 44.0362 31.2565 43.8447 31.2501C43.6532 31.2437 43.468 31.1796 43.3135 31.0662C43.159 30.9529 43.0423 30.7955 42.9787 30.6148L42.1947 28.205C42.0195 27.6687 41.7514 27.1667 41.4054 26.721Z" fill="url(#paint8_radial_4209_15649)"/>
</g>
<defs>
<linearGradient id="paint0_linear_4209_15649" x1="0" y1="0.5" x2="66.4553" y2="73.2993" gradientUnits="userSpaceOnUse">
<stop stop-color="#E5E5E5"/>
<stop offset="0.206731" stop-color="#FF8502" stop-opacity="0.2"/>
</linearGradient>
<linearGradient id="paint1_linear_4209_15649" x1="21.3753" y1="26.6563" x2="43.1138" y2="49.2418" gradientUnits="userSpaceOnUse">
<stop stop-color="#0FAFFF"/>
<stop offset="1" stop-color="#2764E7"/>
</linearGradient>
<linearGradient id="paint2_linear_4209_15649" x1="30.4297" y1="29.4668" x2="41.5807" y2="60.0357" gradientUnits="userSpaceOnUse">
<stop stop-color="white"/>
<stop offset="1" stop-color="#B3E0FF"/>
</linearGradient>
<radialGradient id="paint3_radial_4209_15649" cx="0" cy="0" r="1" gradientUnits="userSpaceOnUse" gradientTransform="translate(50.7665 34.5312) rotate(180) scale(7.17187 3.58171)">
<stop stop-color="#4A43CB"/>
<stop offset="1" stop-color="#4A43CB" stop-opacity="0"/>
</radialGradient>
<radialGradient id="paint4_radial_4209_15649" cx="0" cy="0" r="1" gradientUnits="userSpaceOnUse" gradientTransform="translate(43.945 23.2805) rotate(180) scale(9.91406 4.95119)">
<stop stop-color="#4A43CB"/>
<stop offset="1" stop-color="#4A43CB" stop-opacity="0"/>
</radialGradient>
<radialGradient id="paint5_radial_4209_15649" cx="0" cy="0" r="1" gradientUnits="userSpaceOnUse" gradientTransform="translate(43.945 23.2805) rotate(90.769) scale(10.4775 5.23257)">
<stop stop-color="#4A43CB"/>
<stop offset="1" stop-color="#4A43CB" stop-opacity="0"/>
</radialGradient>
<radialGradient id="paint6_radial_4209_15649" cx="0" cy="0" r="1" gradientUnits="userSpaceOnUse" gradientTransform="translate(50.5548 35.2347) rotate(86.1549) scale(4.77639 2.38537)">
<stop stop-color="#4A43CB"/>
<stop offset="1" stop-color="#4A43CB" stop-opacity="0"/>
</radialGradient>
<radialGradient id="paint7_radial_4209_15649" cx="0" cy="0" r="1" gradientUnits="userSpaceOnUse" gradientTransform="translate(31.4064 -3.42256) rotate(63.379) scale(50.074 38.9914)">
<stop offset="0.718" stop-color="#FFCD0F"/>
<stop offset="0.991" stop-color="#E67505"/>
</radialGradient>
<radialGradient id="paint8_radial_4209_15649" cx="0" cy="0" r="1" gradientUnits="userSpaceOnUse" gradientTransform="translate(16.4552 -24.1563) rotate(61.2) scale(67.7204 52.7324)">
<stop offset="0.698" stop-color="#FFCD0F"/>
<stop offset="0.991" stop-color="#E67505"/>
</radialGradient>
<clipPath id="clip0_4209_15649">
<rect width="42" height="42" fill="white" transform="translate(15 15.5)"/>
</clipPath>
</defs>
</svg>
