<svg width="20" height="20" viewBox="0 0 20 20" fill="none" xmlns="http://www.w3.org/2000/svg">
<path d="M7.67574 8.47835L9.3549 7.14085C10.4407 6.27669 10.9832 5.84419 11.3249 6.05752C11.6666 6.27085 11.4882 6.93252 11.1341 8.25419L11.1007 8.37919C10.9732 8.85585 10.9091 9.09419 11.0216 9.28419L11.0274 9.29419C11.1441 9.48252 11.3924 9.54919 11.8882 9.68169C12.7816 9.92085 13.2282 10.04 13.3066 10.3517L13.3099 10.3675C13.3782 10.6809 13.0266 10.9609 12.3216 11.5225L10.6424 12.8592C9.5574 13.7242 9.0149 14.1559 8.67324 13.9425C8.33157 13.7292 8.50907 13.0675 8.86324 11.7459L8.89657 11.6209C9.0249 11.145 9.08823 10.9067 8.97657 10.7159L8.97074 10.7059C8.85407 10.5184 8.60574 10.4517 8.1099 10.3184C7.21657 10.0792 6.7699 9.96002 6.69157 9.64835L6.68824 9.63252C6.61907 9.32002 6.97157 9.03919 7.67574 8.47835Z" stroke="#97959D" stroke-width="1.3"/>
<path d="M1.66602 9.99996C1.66602 5.39746 5.39685 1.66663 9.99935 1.66663C14.6018 1.66663 18.3327 5.39746 18.3327 9.99996C18.3327 14.6025 14.6018 18.3333 9.99935 18.3333C5.39685 18.3333 1.66602 14.6025 1.66602 9.99996Z" stroke="#97959D" stroke-width="1.3"/>
</svg>
