<svg width="73" height="73" viewBox="0 0 73 73" fill="none" xmlns="http://www.w3.org/2000/svg">
<rect x="0.667969" y="0.5" width="72" height="72" rx="8" fill="url(#paint0_linear_4209_13011)"/>
<rect x="0.667969" y="0.5" width="72" height="72" rx="8" fill="white" fill-opacity="0.2"/>
<path d="M50.1667 21.5C50.1667 21.1022 50.0087 20.7206 49.7274 20.4393C49.4461 20.158 49.0645 20 48.6667 20C48.2689 20 47.8874 20.158 47.6061 20.4393C47.3247 20.7206 47.1667 21.1022 47.1667 21.5V23.7695C45.044 22.0152 42.5146 20.8222 39.8107 20.3C38.9362 20.1305 38.1667 20.8355 38.1667 21.725C38.1667 22.4975 38.7517 23.138 39.5062 23.3C41.6122 23.75 43.5367 24.692 45.1537 26H42.6667C42.2689 26 41.8874 26.158 41.6061 26.4393C41.3247 26.7206 41.1667 27.1022 41.1667 27.5C41.1667 27.8978 41.3247 28.2794 41.6061 28.5607C41.8874 28.842 42.2689 29 42.6667 29H48.6667C49.0645 29 49.4461 28.842 49.7274 28.5607C50.0087 28.2794 50.1667 27.8978 50.1667 27.5V21.5ZM33.5272 20.3C34.4017 20.1305 35.1682 20.8355 35.1682 21.725C35.1682 22.4975 34.5847 23.138 33.8302 23.3C32.2353 23.6429 30.7157 24.2721 29.3452 25.157C28.6972 25.577 27.8332 25.5365 27.2872 24.992C26.6572 24.362 26.7022 23.3195 27.4402 22.82C29.2772 21.5757 31.3482 20.7183 33.5272 20.3ZM29.3437 47.8415C28.6957 47.4215 27.8317 47.462 27.2857 48.0065C26.6557 48.6365 26.7007 49.679 27.4387 50.177C29.2764 51.4227 31.3485 52.2812 33.5287 52.7C34.4017 52.8695 35.1682 52.1645 35.1682 51.2735C35.1682 50.501 34.5847 49.862 33.8302 49.6985C32.2353 49.3556 30.7157 48.7264 29.3452 47.8415M23.4697 39.3365C23.3077 38.5805 22.6672 37.997 21.8947 37.997C21.0052 37.997 20.3002 38.7635 20.4697 39.638C20.8885 41.8211 21.748 43.8958 22.9957 45.7355C23.4952 46.472 24.5347 46.5155 25.1647 45.887C25.7107 45.341 25.7497 44.477 25.3312 43.8275C24.4441 42.4555 23.8133 40.9338 23.4697 39.3365ZM25.3327 29.168C25.7527 28.52 25.7122 27.656 25.1662 27.11C24.5362 26.48 23.4952 26.525 22.9972 27.26C21.7477 29.0997 20.8866 31.1751 20.4667 33.359C20.2972 34.2335 21.0022 35 21.8917 35C22.6657 35 23.3047 34.415 23.4667 33.6605C23.811 32.0636 24.4422 30.5425 25.3297 29.171" fill="url(#paint1_linear_4209_13011)"/>
<path d="M50.1667 21.5C50.1667 21.1022 50.0087 20.7206 49.7274 20.4393C49.4461 20.158 49.0645 20 48.6667 20C48.2689 20 47.8874 20.158 47.6061 20.4393C47.3247 20.7206 47.1667 21.1022 47.1667 21.5V23.7695C45.044 22.0152 42.5146 20.8222 39.8107 20.3C38.9362 20.1305 38.1667 20.8355 38.1667 21.725C38.1667 22.4975 38.7517 23.138 39.5062 23.3C41.6122 23.75 43.5367 24.692 45.1537 26H42.6667C42.2689 26 41.8874 26.158 41.6061 26.4393C41.3247 26.7206 41.1667 27.1022 41.1667 27.5C41.1667 27.8978 41.3247 28.2794 41.6061 28.5607C41.8874 28.842 42.2689 29 42.6667 29H48.6667C49.0645 29 49.4461 28.842 49.7274 28.5607C50.0087 28.2794 50.1667 27.8978 50.1667 27.5V21.5ZM33.5272 20.3C34.4017 20.1305 35.1682 20.8355 35.1682 21.725C35.1682 22.4975 34.5847 23.138 33.8302 23.3C32.2353 23.6429 30.7157 24.2721 29.3452 25.157C28.6972 25.577 27.8332 25.5365 27.2872 24.992C26.6572 24.362 26.7022 23.3195 27.4402 22.82C29.2772 21.5757 31.3482 20.7183 33.5272 20.3ZM29.3437 47.8415C28.6957 47.4215 27.8317 47.462 27.2857 48.0065C26.6557 48.6365 26.7007 49.679 27.4387 50.177C29.2764 51.4227 31.3485 52.2812 33.5287 52.7C34.4017 52.8695 35.1682 52.1645 35.1682 51.2735C35.1682 50.501 34.5847 49.862 33.8302 49.6985C32.2353 49.3556 30.7157 48.7264 29.3452 47.8415M23.4697 39.3365C23.3077 38.5805 22.6672 37.997 21.8947 37.997C21.0052 37.997 20.3002 38.7635 20.4697 39.638C20.8885 41.8211 21.748 43.8958 22.9957 45.7355C23.4952 46.472 24.5347 46.5155 25.1647 45.887C25.7107 45.341 25.7497 44.477 25.3312 43.8275C24.4441 42.4555 23.8133 40.9338 23.4697 39.3365ZM25.3327 29.168C25.7527 28.52 25.7122 27.656 25.1662 27.11C24.5362 26.48 23.4952 26.525 22.9972 27.26C21.7477 29.0997 20.8866 31.1751 20.4667 33.359C20.2972 34.2335 21.0022 35 21.8917 35C22.6657 35 23.3047 34.415 23.4667 33.6605C23.811 32.0636 24.4422 30.5425 25.3297 29.171" fill="url(#paint2_linear_4209_13011)"/>
<path d="M40.8591 40.5483C40.9711 40.9362 41.0036 41.3426 40.9547 41.7432C40.9059 42.1439 40.7767 42.5306 40.5749 42.8802C40.3731 43.2297 40.1028 43.535 39.7802 43.7776C39.4577 44.0203 39.0895 44.1954 38.6976 44.2923L37.1616 44.6718C36.9943 45.7417 36.9983 46.8313 37.1736 47.8998L38.6376 48.2523C39.033 48.3476 39.4049 48.5222 39.7307 48.7656C40.0565 49.009 40.3294 49.3161 40.5328 49.6683C40.7362 50.0204 40.8659 50.4102 40.914 50.8141C40.9622 51.2179 40.9276 51.6273 40.8126 52.0173L40.3266 53.6643C41.1036 54.3543 41.9916 54.9168 42.9561 55.3143L44.2206 53.9853C44.5009 53.6906 44.8381 53.4559 45.2119 53.2955C45.5857 53.1351 45.9882 53.0524 46.3949 53.0524C46.8016 53.0524 47.2041 53.1351 47.5779 53.2955C47.9516 53.4559 48.2889 53.6906 48.5691 53.9853L49.8441 55.3278C50.8048 54.9333 51.6926 54.3807 52.4706 53.6928L51.9681 51.9528C51.8564 51.5651 51.8241 51.1589 51.8731 50.7584C51.922 50.3579 52.0513 49.9713 52.2531 49.6219C52.4548 49.2726 52.725 48.9675 53.0475 48.7249C53.3699 48.4824 53.738 48.3073 54.1296 48.2103L55.6686 47.8293C55.836 46.7595 55.832 45.6699 55.6566 44.6013L54.1911 44.2488C53.7958 44.1536 53.4239 43.979 53.0981 43.7356C52.7723 43.4922 52.4994 43.1851 52.296 42.8329C52.0925 42.4808 51.9628 42.0909 51.9147 41.6871C51.8666 41.2833 51.9011 40.8739 52.0161 40.4838L52.5021 38.8338C51.7243 38.1404 50.8354 37.5826 49.8726 37.1838L48.6081 38.5158C48.3279 38.8109 47.9905 39.0458 47.6166 39.2063C47.2427 39.3668 46.84 39.4496 46.4331 39.4496C46.0262 39.4496 45.6236 39.3668 45.2497 39.2063C44.8757 39.0458 44.5384 38.8109 44.2581 38.5158L42.9846 37.1733C42.024 37.5679 41.1362 38.1205 40.3581 38.8083L40.8591 40.5483ZM46.4151 48.4998C45.8184 48.4998 45.2461 48.2628 44.8242 47.8408C44.4022 47.4189 44.1651 46.8466 44.1651 46.2498C44.1651 45.6531 44.4022 45.0808 44.8242 44.6589C45.2461 44.2369 45.8184 43.9998 46.4151 43.9998C47.0119 43.9998 47.5842 44.2369 48.0061 44.6589C48.4281 45.0808 48.6651 45.6531 48.6651 46.2498C48.6651 46.8466 48.4281 47.4189 48.0061 47.8408C47.5842 48.2628 47.0119 48.4998 46.4151 48.4998Z" fill="url(#paint3_linear_4209_13011)"/>
<defs>
<linearGradient id="paint0_linear_4209_13011" x1="0.667969" y1="0.5" x2="67.1233" y2="73.2993" gradientUnits="userSpaceOnUse">
<stop stop-color="#E5E5E5"/>
<stop offset="0.206731" stop-color="#FF8502" stop-opacity="0.2"/>
</linearGradient>
<linearGradient id="paint1_linear_4209_13011" x1="24.7567" y1="20" x2="23.2912" y2="61.982" gradientUnits="userSpaceOnUse">
<stop stop-color="#0FAFFF"/>
<stop offset="0.923" stop-color="#0067BF"/>
</linearGradient>
<linearGradient id="paint2_linear_4209_13011" x1="35.3047" y1="16.1045" x2="43.3912" y2="71.228" gradientUnits="userSpaceOnUse">
<stop stop-color="#885EDB" stop-opacity="0"/>
<stop offset="1" stop-color="#E362F8"/>
</linearGradient>
<linearGradient id="paint3_linear_4209_13011" x1="51.1011" y1="54.6258" x2="41.2821" y2="38.1483" gradientUnits="userSpaceOnUse">
<stop stop-color="#70777D"/>
<stop offset="1" stop-color="#B9C0C7"/>
</linearGradient>
</defs>
</svg>
