<svg width="73" height="73" viewBox="0 0 73 73" fill="none" xmlns="http://www.w3.org/2000/svg">
<rect x="0.667969" y="0.5" width="72" height="72" rx="8" fill="url(#paint0_linear_4209_15639)"/>
<rect x="0.667969" y="0.5" width="72" height="72" rx="8" fill="white" fill-opacity="0.2"/>
<g clip-path="url(#clip0_4209_15639)">
<path d="M47.168 33.2188C47.168 40.8299 40.9979 47 33.3867 47C25.7755 47 19.6055 40.8299 19.6055 33.2188C19.6055 25.6076 25.7742 19.4375 33.3867 19.4375C40.9992 19.4375 47.168 25.6076 47.168 33.2188Z" fill="url(#paint1_linear_4209_15639)"/>
<path d="M42.8367 44.9879C40.1597 47.1443 36.8242 48.3177 33.3867 48.3125C25.051 48.3125 18.293 41.5544 18.293 33.2187C18.293 24.8831 25.051 18.125 33.3867 18.125C41.7224 18.125 48.4805 24.8831 48.4805 33.2187C48.4805 36.7953 47.2362 40.0818 45.1572 42.6687L53.2514 50.7616C53.5591 51.0693 53.732 51.4867 53.732 51.9219C53.732 52.3571 53.5591 52.7744 53.2514 53.0821C52.9437 53.3898 52.5263 53.5627 52.0912 53.5627C51.656 53.5627 51.2386 53.3898 50.9309 53.0821L42.8367 44.9879ZM45.1992 33.2187C45.1992 30.0859 43.9547 27.0813 41.7394 24.8661C39.5241 22.6508 36.5196 21.4062 33.3867 21.4062C30.2538 21.4062 27.2493 22.6508 25.034 24.8661C22.8187 27.0813 21.5742 30.0859 21.5742 33.2187C21.5742 36.3516 22.8187 39.3562 25.034 41.5714C27.2493 43.7867 30.2538 45.0312 33.3867 45.0312C36.5196 45.0312 39.5241 43.7867 41.7394 41.5714C43.9547 39.3562 45.1992 36.3516 45.1992 33.2187Z" fill="url(#paint2_linear_4209_15639)"/>
<path d="M53.3883 32.1111L52.1821 31.7187C51.8162 31.5964 51.4836 31.3909 51.2105 31.1182C50.9374 30.8456 50.7313 30.5134 50.6085 30.1476L50.2173 28.9427C50.1844 28.85 50.1235 28.7698 50.0431 28.7131C49.9628 28.6564 49.8668 28.626 49.7685 28.626C49.6701 28.626 49.5741 28.6564 49.4938 28.7131C49.4134 28.7698 49.3526 28.85 49.3196 28.9427L48.9271 30.1476C48.8077 30.5112 48.6057 30.8422 48.337 31.1148C48.0683 31.3873 47.7402 31.594 47.3784 31.7187L46.1722 32.1111C46.0795 32.1441 45.9993 32.2049 45.9426 32.2853C45.8859 32.3656 45.8555 32.4616 45.8555 32.56C45.8555 32.6583 45.8859 32.7543 45.9426 32.8347C45.9993 32.915 46.0795 32.9759 46.1722 33.0088L47.3784 33.4C47.7448 33.5231 48.0776 33.7297 48.3505 34.0035C48.6234 34.2773 48.8289 34.6107 48.9508 34.9776L49.3432 36.1825C49.3762 36.2751 49.437 36.3553 49.5174 36.412C49.5978 36.4688 49.6937 36.4992 49.7921 36.4992C49.8904 36.4992 49.9864 36.4688 50.0668 36.412C50.1471 36.3553 50.208 36.2751 50.241 36.1825L50.6334 34.9776C50.7552 34.6115 50.9608 34.2788 51.2338 34.0061C51.5067 33.7334 51.8395 33.5281 52.2058 33.4065L53.412 33.0141C53.5046 32.9811 53.5848 32.9203 53.6415 32.8399C53.6982 32.7595 53.7287 32.6636 53.7287 32.5652C53.7287 32.4668 53.6982 32.3709 53.6415 32.2905C53.5848 32.2102 53.5046 32.1493 53.412 32.1163L53.3883 32.1111Z" fill="url(#paint3_radial_4209_15639)"/>
<path d="M40.3094 25.7862C39.7551 25.0739 39.0032 24.5407 38.1477 24.2532L35.9375 23.5366C35.7673 23.4764 35.6199 23.365 35.5157 23.2176C35.4114 23.0702 35.3555 22.8941 35.3555 22.7136C35.3555 22.5331 35.4114 22.357 35.5157 22.2097C35.6199 22.0623 35.7673 21.9508 35.9375 21.8907L38.1477 21.1728C38.802 20.9469 39.3962 20.5749 39.8851 20.0851C40.3741 19.5952 40.745 19.0003 40.9696 18.3456L40.988 18.2905L41.7059 16.0829C41.7658 15.9122 41.8772 15.7644 42.0247 15.6598C42.1723 15.5552 42.3486 15.499 42.5295 15.499C42.7103 15.499 42.8867 15.5552 43.0343 15.6598C43.1818 15.7644 43.2932 15.9122 43.3531 16.0829L44.071 18.2905C44.2948 18.9621 44.6721 19.5722 45.1728 20.0726C45.6736 20.5729 46.2841 20.9496 46.9559 21.1728L49.1648 21.8907L49.2095 21.9012C49.3797 21.9613 49.527 22.0728 49.6313 22.2202C49.7355 22.3675 49.7915 22.5436 49.7915 22.7241C49.7915 22.9046 49.7355 23.0807 49.6313 23.2281C49.527 23.3755 49.3797 23.4869 49.2095 23.5471L46.9992 24.265C46.3277 24.4884 45.7174 24.8651 45.2169 25.3654C44.7164 25.8658 44.3393 26.4758 44.1156 27.1473L43.3964 29.3549L43.3754 29.41C43.3065 29.5719 43.1901 29.709 43.0418 29.8035C42.8934 29.898 42.7199 29.9454 42.5441 29.9395C42.3682 29.9335 42.1984 29.8745 42.0567 29.7701C41.9151 29.6658 41.8083 29.521 41.7505 29.3549L41.0313 27.1473C40.869 26.6562 40.6249 26.196 40.3094 25.7862Z" fill="url(#paint4_radial_4209_15639)"/>
</g>
<defs>
<linearGradient id="paint0_linear_4209_15639" x1="0.667969" y1="0.5" x2="67.1233" y2="73.2993" gradientUnits="userSpaceOnUse">
<stop stop-color="#E5E5E5"/>
<stop offset="0.206731" stop-color="#FF8502" stop-opacity="0.2"/>
</linearGradient>
<linearGradient id="paint1_linear_4209_15639" x1="40.2773" y1="24.0312" x2="19.6055" y2="47" gradientUnits="userSpaceOnUse">
<stop stop-color="#FDFDFD"/>
<stop offset="1" stop-color="#B3E0FF"/>
</linearGradient>
<linearGradient id="paint2_linear_4209_15639" x1="20.158" y1="49.8324" x2="50.0003" y2="25.5839" gradientUnits="userSpaceOnUse">
<stop stop-color="#0094F0"/>
<stop offset="1" stop-color="#29C3FF"/>
</linearGradient>
<radialGradient id="paint3_radial_4209_15639" cx="0" cy="0" r="1" gradientUnits="userSpaceOnUse" gradientTransform="translate(32.2709 -1.005) rotate(63.379) scale(45.0665 35.0923)">
<stop offset="0.718" stop-color="#FFCD0F"/>
<stop offset="0.991" stop-color="#E67505"/>
</radialGradient>
<radialGradient id="paint4_radial_4209_15639" cx="0" cy="0" r="1" gradientUnits="userSpaceOnUse" gradientTransform="translate(17.4365 -20.8509) rotate(61.1996) scale(62.077 48.3381)">
<stop offset="0.698" stop-color="#FFCD0F"/>
<stop offset="0.991" stop-color="#E67505"/>
</radialGradient>
<clipPath id="clip0_4209_15639">
<rect width="42" height="42" fill="white" transform="translate(15.668 15.5)"/>
</clipPath>
</defs>
</svg>
