<svg width="72" height="73" viewBox="0 0 72 73" fill="none" xmlns="http://www.w3.org/2000/svg">
<rect y="0.5" width="72" height="72" rx="8" fill="url(#paint0_linear_4397_1932)"/>
<rect y="0.5" width="72" height="72" rx="8" fill="white" fill-opacity="0.2"/>
<path d="M44.3113 19C44.0678 19.0003 43.8291 19.0684 43.622 19.1967C43.4149 19.325 43.2476 19.5083 43.1388 19.7262L41.3888 23.2262C41.2922 23.4193 41.2447 23.6332 41.2505 23.849C41.2563 24.0649 41.3152 24.2759 41.4221 24.4635L42.9988 27.225V37.375H48.2488V27.225L49.8256 24.4635C49.9327 24.2761 49.992 24.0651 49.9981 23.8493C50.0042 23.6334 49.957 23.4194 49.8606 23.2262L48.1106 19.7262C48.0017 19.5081 47.8341 19.3245 47.6267 19.1962C47.4193 19.068 47.1802 19 46.9363 19H44.3113Z" fill="url(#paint1_linear_4397_1932)"/>
<path d="M39.5 40.875V47.875C39.5 49.4995 40.1453 51.0574 41.294 52.206C42.4426 53.3547 44.0005 54 45.625 54C47.2495 54 48.8074 53.3547 49.956 52.206C51.1047 51.0574 51.75 49.4995 51.75 47.875V40.875H39.5Z" fill="url(#paint2_linear_4397_1932)"/>
<path d="M50.4375 36.5C50.7856 36.5 51.1194 36.6383 51.3656 36.8844C51.6117 37.1306 51.75 37.4644 51.75 37.8125V41.75H39.5V37.8125C39.5 37.4644 39.6383 37.1306 39.8844 36.8844C40.1306 36.6383 40.4644 36.5 40.8125 36.5H50.4375Z" fill="url(#paint3_linear_4397_1932)"/>
<path d="M30.4485 19.371C30.6256 19.2506 30.8296 19.1753 31.0425 19.1518C31.2554 19.1283 31.4709 19.1573 31.67 19.2363C33.3861 19.9164 34.8705 21.0755 35.9464 22.5755C37.0223 24.0756 37.6444 25.8532 37.7384 27.6968C37.8325 29.5404 37.3946 31.3721 36.4769 32.9739C35.5592 34.5756 34.2005 35.8798 32.5625 36.731V49.562C32.5625 50.739 32.0949 51.8679 31.2626 52.7001C30.4304 53.5324 29.3015 54 28.1245 54C26.9475 54 25.8186 53.5324 24.9864 52.7001C24.1541 51.8679 23.6865 50.739 23.6865 49.562V36.731C22.049 35.8796 20.6908 34.5754 19.7735 32.9739C18.8562 31.3724 18.4185 29.541 18.5125 27.6978C18.6066 25.8545 19.2284 24.0772 20.3039 22.5773C21.3794 21.0775 22.8634 19.9184 24.579 19.238C24.778 19.1592 24.9933 19.1303 25.206 19.1538C25.4187 19.1773 25.6225 19.2525 25.7995 19.3727C25.9766 19.493 26.1215 19.6547 26.2217 19.8439C26.3219 20.033 26.3744 20.2437 26.3745 20.4578V26.875C26.3745 27.3391 26.5589 27.7843 26.8871 28.1124C27.2153 28.4406 27.6604 28.625 28.1245 28.625C28.5886 28.625 29.0337 28.4406 29.3619 28.1124C29.6901 27.7843 29.8745 27.3391 29.8745 26.875V20.4578C29.8745 20.2438 29.9268 20.0331 30.0268 19.844C30.1269 19.6549 30.2716 19.4931 30.4485 19.3728" fill="url(#paint4_linear_4397_1932)"/>
<defs>
<linearGradient id="paint0_linear_4397_1932" x1="0" y1="0.5" x2="66.4553" y2="73.2993" gradientUnits="userSpaceOnUse">
<stop stop-color="#E5E5E5"/>
<stop offset="0.206731" stop-color="#FF8502" stop-opacity="0.2"/>
</linearGradient>
<linearGradient id="paint1_linear_4397_1932" x1="48.5411" y1="15.4982" x2="42.0784" y2="51.3785" gradientUnits="userSpaceOnUse">
<stop stop-color="#2BDABE"/>
<stop offset="0.853" stop-color="#0067BF"/>
</linearGradient>
<linearGradient id="paint2_linear_4397_1932" x1="51.7482" y1="54.2922" x2="37.8323" y2="42.5602" gradientUnits="userSpaceOnUse">
<stop stop-color="#FF6F47"/>
<stop offset="1" stop-color="#FFCD0F"/>
</linearGradient>
<linearGradient id="paint3_linear_4397_1932" x1="42.8723" y1="37.7705" x2="44.708" y2="42.0598" gradientUnits="userSpaceOnUse">
<stop stop-color="#FFA43D"/>
<stop offset="1" stop-color="#FB5937"/>
</linearGradient>
<linearGradient id="paint4_linear_4397_1932" x1="34.5417" y1="12.5023" x2="22.9742" y2="54.931" gradientUnits="userSpaceOnUse">
<stop stop-color="#2BDABE"/>
<stop offset="1" stop-color="#0067BF"/>
</linearGradient>
</defs>
</svg>
