<svg width="73" height="73" viewBox="0 0 73 73" fill="none" xmlns="http://www.w3.org/2000/svg">
<rect x="0.335938" y="0.5" width="72" height="72" rx="8" fill="url(#paint0_linear_4209_16194)"/>
<rect x="0.335938" y="0.5" width="72" height="72" rx="8" fill="white" fill-opacity="0.2"/>
<path d="M35.6759 18.7129C35.8676 18.5745 36.098 18.5 36.3344 18.5C36.5709 18.5 36.8013 18.5745 36.9929 18.7129C37.9574 19.4089 40.1249 20.6809 42.8384 21.7744C45.5534 22.8694 48.7214 23.7499 51.7079 23.7499C52.0063 23.7499 52.2925 23.8684 52.5034 24.0794C52.7144 24.2903 52.8329 24.5765 52.8329 24.8749V36.5029C52.8329 41.0434 50.2784 45.2644 47.0759 48.4279C43.8764 51.5884 39.8354 53.8879 36.5264 54.4639L36.3344 54.4969L36.1409 54.4639C32.8334 53.8864 28.7909 51.5884 25.5914 48.4279C22.3904 45.2644 19.8359 41.0434 19.8359 36.5029V24.8749C19.8359 24.5765 19.9545 24.2903 20.1654 24.0794C20.3764 23.8684 20.6626 23.7499 20.9609 23.7499C23.9474 23.7499 27.1154 22.8694 29.8319 21.7744C32.5439 20.6794 34.7114 19.4074 35.6759 18.7129Z" fill="url(#paint1_radial_4209_16194)"/>
<path d="M35.6759 18.7129C35.8676 18.5745 36.098 18.5 36.3344 18.5C36.5709 18.5 36.8013 18.5745 36.9929 18.7129C37.9574 19.4089 40.1249 20.6809 42.8384 21.7744C45.5534 22.8694 48.7214 23.7499 51.7079 23.7499C52.0063 23.7499 52.2925 23.8684 52.5034 24.0794C52.7144 24.2903 52.8329 24.5765 52.8329 24.8749V36.5029C52.8329 41.0434 50.2784 45.2644 47.0759 48.4279C43.8764 51.5884 39.8354 53.8879 36.5264 54.4639L36.3344 54.4969L36.1409 54.4639C32.8334 53.8864 28.7909 51.5884 25.5914 48.4279C22.3904 45.2644 19.8359 41.0434 19.8359 36.5029V24.8749C19.8359 24.5765 19.9545 24.2903 20.1654 24.0794C20.3764 23.8684 20.6626 23.7499 20.9609 23.7499C23.9474 23.7499 27.1154 22.8694 29.8319 21.7744C32.5439 20.6794 34.7114 19.4074 35.6759 18.7129Z" fill="url(#paint2_radial_4209_16194)" fill-opacity="0.5"/>
<path d="M55.8359 46.25C55.8359 48.8359 54.8087 51.3158 52.9802 53.1443C51.1517 54.9728 48.6718 56 46.0859 56C43.5001 56 41.0201 54.9728 39.1916 53.1443C37.3632 51.3158 36.3359 48.8359 36.3359 46.25C36.3359 43.6641 37.3632 41.1842 39.1916 39.3557C41.0201 37.5272 43.5001 36.5 46.0859 36.5C48.6718 36.5 51.1517 37.5272 52.9802 39.3557C54.8087 41.1842 55.8359 43.6641 55.8359 46.25Z" fill="#404040"/>
<path d="M55.8359 46.25C55.8359 48.8359 54.8087 51.3158 52.9802 53.1443C51.1517 54.9728 48.6718 56 46.0859 56C43.5001 56 41.0201 54.9728 39.1916 53.1443C37.3632 51.3158 36.3359 48.8359 36.3359 46.25C36.3359 43.6641 37.3632 41.1842 39.1916 39.3557C41.0201 37.5272 43.5001 36.5 46.0859 36.5C48.6718 36.5 51.1517 37.5272 52.9802 39.3557C54.8087 41.1842 55.8359 43.6641 55.8359 46.25Z" fill="url(#paint3_linear_4209_16194)"/>
<path fill-rule="evenodd" clip-rule="evenodd" d="M51.8679 41.9689C51.9377 42.0385 51.9931 42.1213 52.031 42.2124C52.0688 42.3035 52.0882 42.4012 52.0882 42.4999C52.0882 42.5985 52.0688 42.6962 52.031 42.7873C51.9931 42.8784 51.9377 42.9612 51.8679 43.0309L44.3679 50.5309C44.2982 50.6007 44.2155 50.6561 44.1243 50.6939C44.0332 50.7318 43.9355 50.7512 43.8369 50.7512C43.7382 50.7512 43.6406 50.7318 43.5494 50.6939C43.4583 50.6561 43.3756 50.6007 43.3059 50.5309L40.3059 47.5309C40.2362 47.4611 40.1808 47.3784 40.1431 47.2873C40.1054 47.1961 40.0859 47.0985 40.0859 46.9999C40.0859 46.9013 40.1054 46.8036 40.1431 46.7125C40.1808 46.6214 40.2362 46.5386 40.3059 46.4689C40.3756 46.3991 40.4584 46.3438 40.5495 46.3061C40.6406 46.2684 40.7383 46.2489 40.8369 46.2489C40.9355 46.2489 41.0332 46.2684 41.1243 46.3061C41.2154 46.3438 41.2982 46.3991 41.3679 46.4689L43.8369 48.9394L50.8059 41.9689C50.8756 41.899 50.9583 41.8436 51.0494 41.8058C51.1406 41.768 51.2382 41.7485 51.3369 41.7485C51.4355 41.7485 51.5332 41.768 51.6243 41.8058C51.7155 41.8436 51.7982 41.899 51.8679 41.9689Z" fill="black"/>
<path fill-rule="evenodd" clip-rule="evenodd" d="M51.8679 41.9689C51.9377 42.0385 51.9931 42.1213 52.031 42.2124C52.0688 42.3035 52.0882 42.4012 52.0882 42.4999C52.0882 42.5985 52.0688 42.6962 52.031 42.7873C51.9931 42.8784 51.9377 42.9612 51.8679 43.0309L44.3679 50.5309C44.2982 50.6007 44.2155 50.6561 44.1243 50.6939C44.0332 50.7318 43.9355 50.7512 43.8369 50.7512C43.7382 50.7512 43.6406 50.7318 43.5494 50.6939C43.4583 50.6561 43.3756 50.6007 43.3059 50.5309L40.3059 47.5309C40.2362 47.4611 40.1808 47.3784 40.1431 47.2873C40.1054 47.1961 40.0859 47.0985 40.0859 46.9999C40.0859 46.9013 40.1054 46.8036 40.1431 46.7125C40.1808 46.6214 40.2362 46.5386 40.3059 46.4689C40.3756 46.3991 40.4584 46.3438 40.5495 46.3061C40.6406 46.2684 40.7383 46.2489 40.8369 46.2489C40.9355 46.2489 41.0332 46.2684 41.1243 46.3061C41.2154 46.3438 41.2982 46.3991 41.3679 46.4689L43.8369 48.9394L50.8059 41.9689C50.8756 41.899 50.9583 41.8436 51.0494 41.8058C51.1406 41.768 51.2382 41.7485 51.3369 41.7485C51.4355 41.7485 51.5332 41.768 51.6243 41.8058C51.7155 41.8436 51.7982 41.899 51.8679 41.9689Z" fill="url(#paint4_linear_4209_16194)"/>
<defs>
<linearGradient id="paint0_linear_4209_16194" x1="0.335938" y1="0.5" x2="66.7913" y2="73.2993" gradientUnits="userSpaceOnUse">
<stop stop-color="#E5E5E5"/>
<stop offset="0.206731" stop-color="#FF8502" stop-opacity="0.2"/>
</linearGradient>
<radialGradient id="paint1_radial_4209_16194" cx="0" cy="0" r="1" gradientUnits="userSpaceOnUse" gradientTransform="translate(6.87295 -1.74859) rotate(54) scale(86.2092 76.5987)">
<stop offset="0.338" stop-color="#0FAFFF"/>
<stop offset="0.529" stop-color="#367AF2"/>
<stop offset="0.682" stop-color="#5750E2"/>
<stop offset="0.861" stop-color="#CC23D1"/>
</radialGradient>
<radialGradient id="paint2_radial_4209_16194" cx="0" cy="0" r="1" gradientUnits="userSpaceOnUse" gradientTransform="translate(46.0859 49.2499) rotate(90) scale(12 12.5711)">
<stop offset="0.5" stop-color="#1E1868"/>
<stop offset="1" stop-color="#1E1868" stop-opacity="0"/>
</radialGradient>
<linearGradient id="paint3_linear_4209_16194" x1="37.0319" y1="40.157" x2="50.4899" y2="54.1385" gradientUnits="userSpaceOnUse">
<stop stop-color="#52D17C"/>
<stop offset="1" stop-color="#22918B"/>
</linearGradient>
<linearGradient id="paint4_linear_4209_16194" x1="42.3369" y1="42.6679" x2="44.4774" y2="52.7434" gradientUnits="userSpaceOnUse">
<stop stop-color="white"/>
<stop offset="1" stop-color="#E3FFD9"/>
</linearGradient>
</defs>
</svg>
