<svg width="73" height="73" viewBox="0 0 73 73" fill="none" xmlns="http://www.w3.org/2000/svg">
<rect x="0.332031" y="0.5" width="72" height="72" rx="8" fill="url(#paint0_linear_4397_1943)"/>
<rect x="0.332031" y="0.5" width="72" height="72" rx="8" fill="white" fill-opacity="0.2"/>
<path d="M38.4486 20.9303C37.5824 19.1733 35.0781 19.1733 34.2119 20.9303L30.0854 29.29L20.8576 30.6305C18.9204 30.9123 18.1451 33.294 19.5486 34.6608L26.2249 41.1708L24.6499 50.3583C24.3174 52.2885 26.3439 53.7603 28.0781 52.8503L35.4036 48.9985L42.6066 45.1136C42.8608 44.2711 43.423 43.5553 44.1812 43.1087C44.9394 42.6621 45.8381 42.5176 46.6981 42.7038L46.4356 41.169L53.1119 34.6608C54.5119 33.2958 53.7401 30.9123 51.8029 30.6323L42.5751 29.29L38.4486 20.9303Z" fill="url(#paint1_linear_4397_1943)"/>
<path d="M38.4486 20.9303C37.5824 19.1733 35.0781 19.1733 34.2119 20.9303L30.0854 29.29L20.8576 30.6305C18.9204 30.9123 18.1451 33.294 19.5486 34.6608L26.2249 41.1708L24.6499 50.3583C24.3174 52.2885 26.3439 53.7603 28.0781 52.8503L35.4036 48.9985L42.6066 45.1136C42.8608 44.2711 43.423 43.5553 44.1812 43.1087C44.9394 42.6621 45.8381 42.5176 46.6981 42.7038L46.4356 41.169L53.1119 34.6608C54.5119 33.2958 53.7401 30.9123 51.8029 30.6323L42.5751 29.29L38.4486 20.9303Z" fill="url(#paint2_radial_4397_1943)"/>
<path d="M38.4486 20.9303C37.5824 19.1733 35.0781 19.1733 34.2119 20.9303L30.0854 29.29L20.8576 30.6305C18.9204 30.9123 18.1451 33.294 19.5486 34.6608L26.2249 41.1708L24.6499 50.3583C24.3174 52.2885 26.3439 53.7603 28.0781 52.8503L35.4036 48.9985L42.6066 45.1136C42.8608 44.2711 43.423 43.5553 44.1812 43.1087C44.9394 42.6621 45.8381 42.5176 46.6981 42.7038L46.4356 41.169L53.1119 34.6608C54.5119 33.2958 53.7401 30.9123 51.8029 30.6323L42.5751 29.29L38.4486 20.9303Z" fill="url(#paint3_radial_4397_1943)" fill-opacity="0.4"/>
<path d="M38.4486 20.9303C37.5824 19.1733 35.0781 19.1733 34.2119 20.9303L30.0854 29.29L20.8576 30.6305C18.9204 30.9123 18.1451 33.294 19.5486 34.6608L26.2249 41.1708L24.6499 50.3583C24.3174 52.2885 26.3439 53.7603 28.0781 52.8503L35.4036 48.9985L42.6066 45.1136C42.8608 44.2711 43.423 43.5553 44.1812 43.1087C44.9394 42.6621 45.8381 42.5176 46.6981 42.7038L46.4356 41.169L53.1119 34.6608C54.5119 33.2958 53.7401 30.9123 51.8029 30.6323L42.5751 29.29L38.4486 20.9303Z" fill="url(#paint4_radial_4397_1943)" fill-opacity="0.4"/>
<path d="M38.4486 20.9303C37.5824 19.1733 35.0781 19.1733 34.2119 20.9303L30.0854 29.29L20.8576 30.6305C18.9204 30.9123 18.1451 33.294 19.5486 34.6608L26.2249 41.1708L24.6499 50.3583C24.3174 52.2885 26.3439 53.7603 28.0781 52.8503L35.4036 48.9985L42.6066 45.1136C42.8608 44.2711 43.423 43.5553 44.1812 43.1087C44.9394 42.6621 45.8381 42.5176 46.6981 42.7038L46.4356 41.169L53.1119 34.6608C54.5119 33.2958 53.7401 30.9123 51.8029 30.6323L42.5751 29.29L38.4486 20.9303Z" fill="url(#paint5_radial_4397_1943)" fill-opacity="0.4"/>
<path d="M40.317 39.958C40.4476 40.4105 40.4855 40.8846 40.4285 41.3521C40.3716 41.8195 40.2208 42.2707 39.9854 42.6785C39.7499 43.0863 39.4346 43.4425 39.0583 43.7256C38.682 44.0086 38.2524 44.2129 37.7953 44.326L36.7733 44.5798C36.6086 45.6277 36.6121 46.6952 36.7838 47.742L37.7288 47.9695C38.19 48.0806 38.6239 48.2844 39.004 48.5684C39.3841 48.8523 39.7024 49.2106 39.9398 49.6214C40.1771 50.0323 40.3284 50.4871 40.3846 50.9582C40.4407 51.4293 40.4004 51.9069 40.2663 52.362L39.939 53.4663C40.709 54.1418 41.584 54.6913 42.5378 55.0798L43.4005 54.1715C43.7275 53.8276 44.1209 53.5538 44.557 53.3667C44.9931 53.1796 45.4626 53.0831 45.9371 53.0831C46.4117 53.0831 46.8812 53.1796 47.3173 53.3667C47.7533 53.5538 48.1468 53.8276 48.4738 54.1715L49.347 55.092C50.2937 54.706 51.17 54.1662 51.9405 53.4943L51.594 52.2938C51.4635 51.8412 51.4256 51.367 51.4827 50.8994C51.5398 50.4319 51.6906 49.9807 51.9263 49.5728C52.1619 49.165 52.4774 48.8089 52.8539 48.5259C53.2305 48.2428 53.6602 48.0387 54.1175 47.9258L55.1378 47.672C55.3024 46.6241 55.2989 45.5566 55.1273 44.5098L54.1823 44.2823C53.7212 44.171 53.2875 43.9671 52.9076 43.6831C52.5277 43.399 52.2095 43.0407 51.9723 42.6299C51.7352 42.2191 51.584 41.7643 51.528 41.2933C51.472 40.8223 51.5123 40.3448 51.6465 39.8898L51.972 38.7855C51.2016 38.1077 50.324 37.5625 49.375 37.172L48.5123 38.0785C48.1853 38.4227 47.7917 38.6968 47.3555 38.8841C46.9193 39.0713 46.4495 39.1679 45.9748 39.1679C45.5 39.1679 45.0303 39.0713 44.594 38.8841C44.1578 38.6968 43.7642 38.4227 43.4373 38.0785L42.5658 37.1598C41.6138 37.5448 40.7388 38.0873 39.9705 38.7575L40.317 39.958ZM45.9573 48.75C44.5573 48.75 43.4198 47.5758 43.4198 46.125C43.4198 44.676 44.5573 43.5 45.9573 43.5C47.3573 43.5 48.4948 44.676 48.4948 46.125C48.4948 47.5758 47.3573 48.75 45.9573 48.75Z" fill="url(#paint6_linear_4397_1943)"/>
<defs>
<linearGradient id="paint0_linear_4397_1943" x1="0.332031" y1="0.5" x2="66.7874" y2="73.2993" gradientUnits="userSpaceOnUse">
<stop stop-color="#E5E5E5"/>
<stop offset="0.206731" stop-color="#FF8502" stop-opacity="0.2"/>
</linearGradient>
<linearGradient id="paint1_linear_4397_1943" x1="53.8224" y1="53.874" x2="17.8301" y2="19.9276" gradientUnits="userSpaceOnUse">
<stop stop-color="#FF6F47"/>
<stop offset="1" stop-color="#FFCD0F"/>
</linearGradient>
<radialGradient id="paint2_radial_4397_1943" cx="0" cy="0" r="1" gradientUnits="userSpaceOnUse" gradientTransform="translate(46.1687 49.4979) rotate(-174.286) scale(21.9779 26.316)">
<stop offset="0.198" stop-color="#EB4824" stop-opacity="0.6"/>
<stop offset="0.701" stop-color="#EB4824" stop-opacity="0"/>
</radialGradient>
<radialGradient id="paint3_radial_4397_1943" cx="0" cy="0" r="1" gradientUnits="userSpaceOnUse" gradientTransform="translate(46.1679 46.216) rotate(179.999) scale(13.1212 5.74334)">
<stop offset="0.589" stop-color="#B03111"/>
<stop offset="1" stop-color="#B03111" stop-opacity="0"/>
</radialGradient>
<radialGradient id="paint4_radial_4397_1943" cx="0" cy="0" r="1" gradientUnits="userSpaceOnUse" gradientTransform="translate(46.1679 46.2161) rotate(-120.951) scale(12.7562 6.07883)">
<stop offset="0.628" stop-color="#B03111"/>
<stop offset="1" stop-color="#B03111" stop-opacity="0"/>
</radialGradient>
<radialGradient id="paint5_radial_4397_1943" cx="0" cy="0" r="1" gradientUnits="userSpaceOnUse" gradientTransform="translate(46.1679 46.2161) rotate(-59.368) scale(13.3246 6.34944)">
<stop offset="0.671" stop-color="#B03111"/>
<stop offset="0.972" stop-color="#B03111" stop-opacity="0"/>
</radialGradient>
<linearGradient id="paint6_linear_4397_1943" x1="50.6053" y1="54.3973" x2="40.9278" y2="38.0838" gradientUnits="userSpaceOnUse">
<stop stop-color="#70777D"/>
<stop offset="1" stop-color="#B9C0C7"/>
</linearGradient>
</defs>
</svg>
