<svg width="72" height="72" viewBox="0 0 72 72" fill="none" xmlns="http://www.w3.org/2000/svg">
<rect width="72" height="72" rx="8" fill="url(#paint0_linear_4209_7388)"/>
<rect width="72" height="72" rx="8" fill="white" fill-opacity="0.2"/>
<path d="M29.1503 47.5675L39.6433 23.0605C39.819 22.65 40.145 22.3221 40.5546 22.1441C40.9642 21.9662 41.4263 21.9515 41.8463 22.1031C42.2664 22.2548 42.6125 22.5613 42.814 22.9598C43.0154 23.3584 43.0568 23.8189 42.9298 24.247L42.8598 24.4395L32.3668 48.9465C32.1904 49.3558 31.8645 49.6825 31.4555 49.8597C31.0466 50.037 30.5854 50.0515 30.1661 49.9003C29.7468 49.7492 29.401 49.4437 29.1992 49.0463C28.9974 48.6489 28.9549 48.1895 29.0803 47.7618L29.1503 47.5675ZM19.0125 34.7628L26.0125 27.7628C26.3274 27.4489 26.75 27.2667 27.1944 27.2531C27.6388 27.2395 28.0718 27.3956 28.4052 27.6897C28.7387 27.9838 28.9478 28.3937 28.99 28.8363C29.0321 29.279 28.9042 29.721 28.6323 30.0728L28.487 30.2373L22.7243 36L28.487 41.7628C28.8009 42.0777 28.9831 42.5003 28.9967 42.9447C29.0102 43.3891 28.8541 43.822 28.5601 44.1555C28.266 44.489 27.856 44.698 27.4134 44.7402C26.9708 44.7824 26.5287 44.6545 26.177 44.3825L26.0125 44.2373L19.0125 37.2373C18.7112 36.9359 18.5302 36.535 18.5035 36.1097C18.4767 35.6844 18.6061 35.264 18.8673 34.9273L19.0125 34.7628ZM43.5125 27.761C43.8138 27.4597 44.2148 27.2787 44.6401 27.252C45.0654 27.2252 45.4858 27.3546 45.8225 27.6158L45.9853 27.761L52.987 34.761C53.2888 35.0624 53.4701 35.4637 53.4968 35.8894C53.5236 36.3151 53.3939 36.7359 53.1323 37.0728L52.987 37.239L45.9853 44.2303C45.6703 44.5441 45.2478 44.7263 44.8033 44.7399C44.3589 44.7535 43.926 44.5974 43.5925 44.3033C43.259 44.0093 43.05 43.5993 43.0078 43.1567C42.9656 42.7141 43.0935 42.272 43.3655 41.9203L43.5125 41.754L49.2735 35.9983L43.5108 30.2355C43.1827 29.9073 42.9984 29.4623 42.9984 28.9983C42.9984 28.5342 43.1844 28.0892 43.5125 27.761Z" fill="url(#paint1_linear_4209_7388)"/>
<defs>
<linearGradient id="paint0_linear_4209_7388" x1="0" y1="0" x2="66.4553" y2="72.7993" gradientUnits="userSpaceOnUse">
<stop stop-color="#E5E5E5"/>
<stop offset="0.206731" stop-color="#FF8502" stop-opacity="0.2"/>
</linearGradient>
<linearGradient id="paint1_linear_4209_7388" x1="19.5288" y1="20.1328" x2="51.2125" y2="54.0408" gradientUnits="userSpaceOnUse">
<stop stop-color="#C76EFB"/>
<stop offset="1" stop-color="#8B52F4"/>
</linearGradient>
</defs>
</svg>
