<svg width="20" height="20" viewBox="0 0 20 20" fill="none" xmlns="http://www.w3.org/2000/svg">
<path d="M5 8.33325H8.33333" stroke="#97959D" stroke-width="1.3" stroke-linecap="round" stroke-linejoin="round"/>
<path d="M17.3608 9.16663H15.1925C13.705 9.16663 12.5 10.2858 12.5 11.6666C12.5 13.0475 13.7058 14.1666 15.1917 14.1666H17.3608C17.4308 14.1666 17.465 14.1666 17.4942 14.165C17.9442 14.1375 18.3025 13.805 18.3317 13.3875C18.3333 13.3608 18.3333 13.3283 18.3333 13.2641V10.0691C18.3333 10.005 18.3333 9.97246 18.3317 9.94579C18.3017 9.52829 17.9442 9.19579 17.4942 9.16829C17.465 9.16663 17.4308 9.16663 17.3608 9.16663Z" stroke="#97959D" stroke-width="1.3"/>
<path d="M17.4702 9.16667C17.4052 7.60667 17.1968 6.65 16.5227 5.97667C15.5468 5 13.9752 5 10.8327 5H8.33268C5.19018 5 3.61852 5 2.64268 5.97667C1.66685 6.95333 1.66602 8.52417 1.66602 11.6667C1.66602 14.8092 1.66602 16.3808 2.64268 17.3567C3.61935 18.3325 5.19018 18.3333 8.33268 18.3333H10.8327C13.9752 18.3333 15.5468 18.3333 16.5227 17.3567C17.1968 16.6833 17.406 15.7267 17.4702 14.1667" stroke="#97959D" stroke-width="1.3"/>
<path d="M5 4.99996L8.1125 2.93579C8.55033 2.65137 9.06123 2.5 9.58333 2.5C10.1054 2.5 10.6163 2.65137 11.0542 2.93579L14.1667 4.99996" stroke="#97959D" stroke-width="1.3" stroke-linecap="round"/>
<path d="M14.9922 11.6666H15.0005" stroke="#97959D" stroke-width="1.3" stroke-linecap="round" stroke-linejoin="round"/>
</svg>
