<svg width="73" height="73" viewBox="0 0 73 73" fill="none" xmlns="http://www.w3.org/2000/svg">
<rect x="0.667969" y="0.5" width="72" height="72" rx="8" fill="url(#paint0_linear_4209_14087)"/>
<rect x="0.667969" y="0.5" width="72" height="72" rx="8" fill="white" fill-opacity="0.2"/>
<path fill-rule="evenodd" clip-rule="evenodd" d="M35.093 34.9252H29.843C28.8683 34.9252 27.9335 35.3124 27.2444 36.0016C26.5552 36.6908 26.168 37.6255 26.168 38.6002V43.8502H29.318V38.6002C29.318 38.461 29.3733 38.3274 29.4717 38.229C29.5702 38.1305 29.7037 38.0752 29.843 38.0752H43.493C43.6322 38.0752 43.7657 38.1305 43.8642 38.229C43.9627 38.3274 44.018 38.461 44.018 38.6002V43.8502H47.168V38.6002C47.168 37.6255 46.7808 36.6908 46.0916 36.0016C45.4024 35.3124 44.4676 34.9252 43.493 34.9252H38.243V30.2002H35.093V34.9252Z" fill="url(#paint1_linear_4209_14087)"/>
<path fill-rule="evenodd" clip-rule="evenodd" d="M35.093 34.9252H29.843C28.8683 34.9252 27.9335 35.3124 27.2444 36.0016C26.5552 36.6908 26.168 37.6255 26.168 38.6002V43.8502H29.318V38.6002C29.318 38.461 29.3733 38.3274 29.4717 38.229C29.5702 38.1305 29.7037 38.0752 29.843 38.0752H43.493C43.6322 38.0752 43.7657 38.1305 43.8642 38.229C43.9627 38.3274 44.018 38.461 44.018 38.6002V43.8502H47.168V38.6002C47.168 37.6255 46.7808 36.6908 46.0916 36.0016C45.4024 35.3124 44.4676 34.9252 43.493 34.9252H38.243V30.2002H35.093V34.9252Z" fill="url(#paint2_radial_4209_14087)"/>
<path fill-rule="evenodd" clip-rule="evenodd" d="M35.093 34.9252H29.843C28.8683 34.9252 27.9335 35.3124 27.2444 36.0016C26.5552 36.6908 26.168 37.6255 26.168 38.6002V43.8502H29.318V38.6002C29.318 38.461 29.3733 38.3274 29.4717 38.229C29.5702 38.1305 29.7037 38.0752 29.843 38.0752H43.493C43.6322 38.0752 43.7657 38.1305 43.8642 38.229C43.9627 38.3274 44.018 38.461 44.018 38.6002V43.8502H47.168V38.6002C47.168 37.6255 46.7808 36.6908 46.0916 36.0016C45.4024 35.3124 44.4676 34.9252 43.493 34.9252H38.243V30.2002H35.093V34.9252Z" fill="url(#paint3_radial_4209_14087)"/>
<path fill-rule="evenodd" clip-rule="evenodd" d="M35.093 34.9252H29.843C28.8683 34.9252 27.9335 35.3124 27.2444 36.0016C26.5552 36.6908 26.168 37.6255 26.168 38.6002V43.8502H29.318V38.6002C29.318 38.461 29.3733 38.3274 29.4717 38.229C29.5702 38.1305 29.7037 38.0752 29.843 38.0752H43.493C43.6322 38.0752 43.7657 38.1305 43.8642 38.229C43.9627 38.3274 44.018 38.461 44.018 38.6002V43.8502H47.168V38.6002C47.168 37.6255 46.7808 36.6908 46.0916 36.0016C45.4024 35.3124 44.4676 34.9252 43.493 34.9252H38.243V30.2002H35.093V34.9252Z" fill="url(#paint4_radial_4209_14087)"/>
<path d="M34.0414 47.0002C34.0414 48.6711 33.3777 50.2735 32.1962 51.455C31.0147 52.6364 29.4123 53.3002 27.7414 53.3002C26.0705 53.3002 24.4681 52.6364 23.2866 51.455C22.1052 50.2735 21.4414 48.6711 21.4414 47.0002C21.4414 45.3293 22.1052 43.7269 23.2866 42.5454C24.4681 41.3639 26.0705 40.7002 27.7414 40.7002C29.4123 40.7002 31.0147 41.3639 32.1962 42.5454C33.3777 43.7269 34.0414 45.3293 34.0414 47.0002Z" fill="url(#paint5_radial_4209_14087)"/>
<path d="M51.893 47.0002C51.893 48.6711 51.2292 50.2735 50.0477 51.455C48.8663 52.6364 47.2638 53.3002 45.593 53.3002C43.9221 53.3002 42.3197 52.6364 41.1382 51.455C39.9567 50.2735 39.293 48.6711 39.293 47.0002C39.293 45.3293 39.9567 43.7269 41.1382 42.5454C42.3197 41.3639 43.9221 40.7002 45.593 40.7002C47.2638 40.7002 48.8663 41.3639 50.0477 42.5454C51.2292 43.7269 51.893 45.3293 51.893 47.0002Z" fill="url(#paint6_radial_4209_14087)"/>
<path d="M42.9672 26.0002C42.9672 27.6711 42.3034 29.2735 41.122 30.455C39.9405 31.6364 38.3381 32.3002 36.6672 32.3002C34.9963 32.3002 33.3939 31.6364 32.2124 30.455C31.0309 29.2735 30.3672 27.6711 30.3672 26.0002C30.3672 24.3293 31.0309 22.7269 32.2124 21.5454C33.3939 20.3639 34.9963 19.7002 36.6672 19.7002C38.3381 19.7002 39.9405 20.3639 41.122 21.5454C42.3034 22.7269 42.9672 24.3293 42.9672 26.0002Z" fill="url(#paint7_radial_4209_14087)"/>
<defs>
<linearGradient id="paint0_linear_4209_14087" x1="0.667969" y1="0.5" x2="67.1233" y2="73.2993" gradientUnits="userSpaceOnUse">
<stop stop-color="#E5E5E5"/>
<stop offset="0.206731" stop-color="#FF8502" stop-opacity="0.2"/>
</linearGradient>
<linearGradient id="paint1_linear_4209_14087" x1="26.168" y1="30.2002" x2="29.5658" y2="45.1333" gradientUnits="userSpaceOnUse">
<stop stop-color="#B9C0C7"/>
<stop offset="1" stop-color="#70777D"/>
</linearGradient>
<radialGradient id="paint2_radial_4209_14087" cx="0" cy="0" r="1" gradientUnits="userSpaceOnUse" gradientTransform="translate(36.668 26.0989) rotate(90) scale(8.30155 12.7716)">
<stop offset="0.553" stop-color="#70777D"/>
<stop offset="1" stop-color="#70777D" stop-opacity="0"/>
</radialGradient>
<radialGradient id="paint3_radial_4209_14087" cx="0" cy="0" r="1" gradientUnits="userSpaceOnUse" gradientTransform="translate(27.218 47.0338) rotate(-90.2211) scale(8.49851 13.0746)">
<stop offset="0.549" stop-color="#70777D"/>
<stop offset="1" stop-color="#70777D" stop-opacity="0"/>
</radialGradient>
<radialGradient id="paint4_radial_4209_14087" cx="0" cy="0" r="1" gradientUnits="userSpaceOnUse" gradientTransform="translate(46.0844 47.0002) rotate(-89.5524) scale(8.40026 12.9235)">
<stop offset="0.549" stop-color="#70777D"/>
<stop offset="1" stop-color="#70777D" stop-opacity="0"/>
</radialGradient>
<radialGradient id="paint5_radial_4209_14087" cx="0" cy="0" r="1" gradientUnits="userSpaceOnUse" gradientTransform="translate(13.8289 26.6554) rotate(53.616) scale(34.0738 29.1826)">
<stop offset="0.529" stop-color="#1EC8B0"/>
<stop offset="1" stop-color="#1A7F7C"/>
</radialGradient>
<radialGradient id="paint6_radial_4209_14087" cx="0" cy="0" r="1" gradientUnits="userSpaceOnUse" gradientTransform="translate(31.6805 26.6554) rotate(53.616) scale(34.0738 29.1826)">
<stop offset="0.529" stop-color="#7B7BFF"/>
<stop offset="1" stop-color="#4A43CB"/>
</radialGradient>
<radialGradient id="paint7_radial_4209_14087" cx="0" cy="0" r="1" gradientUnits="userSpaceOnUse" gradientTransform="translate(22.7547 5.65539) rotate(53.616) scale(34.0738 29.1826)">
<stop offset="0.529" stop-color="#0FAFFF"/>
<stop offset="1" stop-color="#0067BF"/>
</radialGradient>
</defs>
</svg>
