<svg width="150" height="31" viewBox="0 0 150 31" fill="none" xmlns="http://www.w3.org/2000/svg">
<path d="M39.5345 7.06111H45.6297C46.8794 7.06111 47.9533 7.24051 48.8513 7.59931C49.7568 7.9581 50.4527 8.48912 50.9392 9.19236C51.4256 9.8956 51.6688 10.7603 51.6688 11.7865C51.6688 12.626 51.5191 13.3472 51.2198 13.95C50.9279 14.5456 50.5126 15.0443 49.9738 15.4462C49.4425 15.8409 48.8176 16.1566 48.0992 16.3934L47.0329 16.9316H41.7346L41.7122 14.4128H45.6522C46.2434 14.4128 46.7335 14.3124 47.1227 14.1115C47.5118 13.9105 47.8036 13.6307 47.9982 13.2719C48.2003 12.9131 48.3013 12.4969 48.3013 12.0233C48.3013 11.521 48.204 11.0868 48.0094 10.7208C47.8149 10.3549 47.5193 10.075 47.1227 9.88125C46.726 9.6875 46.2284 9.59063 45.6297 9.59063H42.902V22.7333H39.5345V7.06111ZM48.6717 22.7333L44.945 15.7476L48.5033 15.726L52.2749 22.5826V22.7333H48.6717Z" fill="#28C6B9"/>
<path d="M60.6151 20.1069V14.9188C60.6151 14.5456 60.5515 14.2263 60.4243 13.9608C60.2971 13.6881 60.0988 13.4764 59.8294 13.3257C59.5675 13.175 59.227 13.0997 58.8079 13.0997C58.4487 13.0997 58.1381 13.1606 57.8762 13.2826C57.6143 13.3975 57.4123 13.5661 57.2701 13.7885C57.1279 14.0038 57.0568 14.2586 57.0568 14.5528H53.824C53.824 14.0576 53.9437 13.5876 54.1832 13.1427C54.4227 12.6978 54.7706 12.3067 55.2271 11.9694C55.6836 11.625 56.2261 11.3559 56.8547 11.1622C57.4908 10.9684 58.2017 10.8715 58.9875 10.8715C59.9304 10.8715 60.7685 11.0222 61.5019 11.3236C62.2353 11.625 62.8115 12.0771 63.2306 12.6799C63.6571 13.2826 63.8704 14.0361 63.8704 14.9403V19.924C63.8704 20.5626 63.9115 21.0865 63.9939 21.4955C64.0762 21.8973 64.1959 22.249 64.3531 22.5504V22.7333H61.0866C60.9294 22.4176 60.8097 22.0229 60.7274 21.5493C60.6525 21.0685 60.6151 20.5877 60.6151 20.1069ZM61.0417 15.6399L61.0641 17.3944H59.2569C58.8304 17.3944 58.4599 17.4411 58.1456 17.5344C57.8313 17.6277 57.5732 17.7604 57.3711 17.9326C57.169 18.0977 57.0194 18.2914 56.9221 18.5139C56.8323 18.7363 56.7874 18.9803 56.7874 19.2458C56.7874 19.5113 56.851 19.7517 56.9782 19.967C57.1054 20.1751 57.2888 20.3402 57.5282 20.4622C57.7677 20.577 58.0483 20.6344 58.3701 20.6344C58.8565 20.6344 59.2794 20.5411 59.6385 20.3545C59.9978 20.1679 60.2746 19.9383 60.4692 19.6656C60.6713 19.3929 60.776 19.1346 60.7835 18.8906L61.6366 20.2038C61.5169 20.498 61.3522 20.803 61.1427 21.1188C60.9407 21.4345 60.6825 21.7323 60.3682 22.0122C60.0539 22.2848 59.676 22.5109 59.2345 22.6903C58.7929 22.8625 58.2691 22.9486 57.6629 22.9486C56.8922 22.9486 56.1925 22.8015 55.5639 22.5073C54.9428 22.2059 54.4488 21.7933 54.0822 21.2694C53.723 20.7384 53.5434 20.1357 53.5434 19.4611C53.5434 18.8512 53.6631 18.3094 53.9026 17.8358C54.142 17.3622 54.4938 16.9639 54.9577 16.641C55.4292 16.3109 56.0166 16.0633 56.72 15.8983C57.4235 15.726 58.2392 15.6399 59.1671 15.6399H61.0417Z" fill="#28C6B9"/>
<path d="M69.5951 13.4979V22.7333H66.3511V11.0868H69.3931L69.5951 13.4979ZM69.1461 16.501H68.2481C68.2481 15.6902 68.3492 14.9439 68.5512 14.2622C68.7608 13.5733 69.0638 12.9777 69.4604 12.4753C69.8645 11.9659 70.3622 11.5712 70.9534 11.2913C71.5446 11.0115 72.2293 10.8715 73.0076 10.8715C73.5464 10.8715 74.0403 10.9505 74.4893 11.1083C74.9383 11.259 75.3237 11.4994 75.6454 11.8295C75.9747 12.1524 76.2291 12.5758 76.4087 13.0997C76.5883 13.6163 76.6781 14.237 76.6781 14.9618V22.7333H73.4453V15.3063C73.4453 14.7752 73.3705 14.3662 73.2208 14.0792C73.0712 13.7921 72.8579 13.5912 72.581 13.4764C72.3116 13.3616 71.9861 13.3042 71.6044 13.3042C71.1854 13.3042 70.8187 13.3867 70.5044 13.5517C70.1976 13.7168 69.9431 13.9464 69.7411 14.2406C69.539 14.5277 69.3894 14.8649 69.2921 15.2524C69.1948 15.6399 69.1461 16.0561 69.1461 16.501ZM76.3751 16.1458L75.2189 16.2858C75.2189 15.5251 75.3162 14.8183 75.5107 14.1653C75.7128 13.5123 76.0084 12.9382 76.3975 12.4431C76.7941 11.9479 77.2843 11.564 77.868 11.2913C78.4517 11.0115 79.1252 10.8715 79.8885 10.8715C80.4722 10.8715 81.0035 10.9541 81.4824 11.1191C81.9614 11.277 82.3692 11.5317 82.706 11.8833C83.0502 12.2278 83.3121 12.6799 83.4917 13.2396C83.6788 13.7993 83.7723 14.4846 83.7723 15.2955V22.7333H80.5283V15.2955C80.5283 14.7573 80.4535 14.3483 80.3038 14.0684C80.1616 13.7814 79.9521 13.584 79.6752 13.4764C79.4058 13.3616 79.084 13.3042 78.7099 13.3042C78.3207 13.3042 77.9802 13.3795 77.6884 13.5302C77.3965 13.6737 77.1533 13.8747 76.9588 14.133C76.7642 14.3913 76.6183 14.6927 76.521 15.0372C76.4237 15.3744 76.3751 15.744 76.3751 16.1458Z" fill="#28C6B9"/>
<path d="M89.5083 13.6271V22.7333H86.2755V11.0868H89.3175L89.5083 13.6271ZM93.1677 11.0115L93.1116 13.8854C92.9544 13.8639 92.7636 13.846 92.5391 13.8316C92.3221 13.8101 92.1238 13.7993 91.9442 13.7993C91.4877 13.7993 91.0911 13.8567 90.7543 13.9715C90.425 14.0792 90.1482 14.2406 89.9237 14.4559C89.7066 14.6712 89.542 14.9331 89.4298 15.2417C89.325 15.5502 89.2651 15.9019 89.2502 16.2965L88.5991 16.1028C88.5991 15.3493 88.6777 14.6568 88.8348 14.0253C88.992 13.3867 89.2202 12.8306 89.5196 12.3569C89.8264 11.8833 90.2006 11.5174 90.6421 11.259C91.0836 11.0007 91.5887 10.8715 92.1574 10.8715C92.337 10.8715 92.5204 10.8859 92.7075 10.9146C92.8946 10.9361 93.048 10.9684 93.1677 11.0115Z" fill="#28C6B9"/>
<path d="M93.8412 17.0285V16.8024C93.8412 15.9485 93.9684 15.1627 94.2229 14.4451C94.4773 13.7204 94.8477 13.0925 95.3341 12.5615C95.8205 12.0304 96.4192 11.6178 97.1301 11.3236C97.841 11.0222 98.6567 10.8715 99.5772 10.8715C100.498 10.8715 101.317 11.0222 102.035 11.3236C102.754 11.6178 103.356 12.0304 103.843 12.5615C104.337 13.0925 104.711 13.7204 104.965 14.4451C105.22 15.1627 105.347 15.9485 105.347 16.8024V17.0285C105.347 17.8752 105.22 18.661 104.965 19.3858C104.711 20.1034 104.337 20.7313 103.843 21.2694C103.356 21.8005 102.758 22.2131 102.047 22.5073C101.336 22.8015 100.52 22.9486 99.5996 22.9486C98.6792 22.9486 97.8598 22.8015 97.1414 22.5073C96.4304 22.2131 95.828 21.8005 95.3341 21.2694C94.8477 20.7313 94.4773 20.1034 94.2229 19.3858C93.9684 18.661 93.8412 17.8752 93.8412 17.0285ZM97.074 16.8024V17.0285C97.074 17.5164 97.1189 17.9721 97.2087 18.3955C97.2985 18.8189 97.4407 19.192 97.6353 19.5149C97.8373 19.8307 98.0992 20.0782 98.421 20.2576C98.7428 20.437 99.1357 20.5267 99.5996 20.5267C100.049 20.5267 100.434 20.437 100.756 20.2576C101.078 20.0782 101.336 19.8307 101.53 19.5149C101.725 19.192 101.867 18.8189 101.957 18.3955C102.054 17.9721 102.103 17.5164 102.103 17.0285V16.8024C102.103 16.3288 102.054 15.8839 101.957 15.4677C101.867 15.0443 101.721 14.6712 101.519 14.3483C101.325 14.0182 101.066 13.7598 100.745 13.5733C100.423 13.3867 100.034 13.2934 99.5772 13.2934C99.1207 13.2934 98.7316 13.3867 98.4098 13.5733C98.0955 13.7598 97.8373 14.0182 97.6353 14.3483C97.4407 14.6712 97.2985 15.0443 97.2087 15.4677C97.1189 15.8839 97.074 16.3288 97.074 16.8024Z" fill="#28C6B9"/>
<path d="M118.042 20.2146V22.7333H109.814V20.2146H118.042ZM110.903 7.06111V22.7333H107.536V7.06111H110.903Z" fill="#28C6B9"/>
<path d="M123.183 11.0868V22.7333H119.939V11.0868H123.183ZM119.737 8.05139C119.737 7.59931 119.902 7.22616 120.231 6.93195C120.56 6.63773 121.002 6.49063 121.556 6.49063C122.102 6.49063 122.54 6.63773 122.869 6.93195C123.206 7.22616 123.374 7.59931 123.374 8.05139C123.374 8.50347 123.206 8.87662 122.869 9.17083C122.54 9.46505 122.102 9.61215 121.556 9.61215C121.002 9.61215 120.56 9.46505 120.231 9.17083C119.902 8.87662 119.737 8.50347 119.737 8.05139Z" fill="#28C6B9"/>
<path d="M129.02 13.5733V22.7333H125.788V11.0868H128.818L129.02 13.5733ZM128.549 16.501H127.673C127.673 15.6399 127.789 14.8649 128.021 14.176C128.253 13.48 128.579 12.888 128.998 12.4C129.417 11.9049 129.915 11.5281 130.491 11.2698C131.075 11.0043 131.726 10.8715 132.444 10.8715C133.013 10.8715 133.533 10.9505 134.004 11.1083C134.476 11.2662 134.88 11.5174 135.217 11.8618C135.561 12.2063 135.823 12.6619 136.002 13.2288C136.189 13.7957 136.283 14.4882 136.283 15.3063V22.7333H133.028V15.2955C133.028 14.7788 132.953 14.377 132.803 14.0899C132.654 13.8029 132.433 13.602 132.141 13.4872C131.857 13.3652 131.505 13.3042 131.086 13.3042C130.652 13.3042 130.274 13.3867 129.952 13.5517C129.638 13.7168 129.376 13.9464 129.166 14.2406C128.964 14.5277 128.811 14.8649 128.706 15.2524C128.601 15.6399 128.549 16.0561 128.549 16.501Z" fill="#28C6B9"/>
<path d="M141.974 6.18924V22.7333H138.741V6.18924H141.974ZM149.63 11.0868L144.354 16.8563L141.525 19.601L140.346 17.3622L142.591 14.6281L145.746 11.0868H149.63ZM146.273 22.7333L142.681 17.3514L144.915 15.4785L150 22.7333H146.273Z" fill="#28C6B9"/>
<path d="M24.2461 15.5C24.2461 19.7802 20.6276 23.25 16.164 23.25C11.7005 23.25 8.08202 19.7802 8.08202 15.5C8.08202 11.2198 11.7005 7.75 16.164 7.75C20.6276 7.75 24.2461 11.2198 24.2461 15.5Z" fill="#864F7F"/>
<path d="M16.164 7.75C16.164 12.0302 12.5456 15.5 8.08202 15.5C3.61844 15.5 0 12.0302 0 7.75C0 3.46979 3.61844 0 8.08202 0C12.5456 0 16.164 3.46979 16.164 7.75Z" fill="#28C6B9"/>
<path d="M32.3281 7.75C32.3281 12.0302 28.7096 15.5 24.2461 15.5C19.7825 15.5 16.164 12.0302 16.164 7.75C16.164 3.46979 19.7825 0 24.2461 0C28.7096 0 32.3281 3.46979 32.3281 7.75Z" fill="#F2AD3D"/>
<path d="M32.3281 23.25C32.3281 27.5302 28.7096 31 24.2461 31C19.7825 31 16.164 27.5302 16.164 23.25C16.164 18.9698 19.7825 15.5 24.2461 15.5C28.7096 15.5 32.3281 18.9698 32.3281 23.25Z" fill="#28C6B9"/>
<path d="M16.164 23.25C16.164 27.5302 12.5456 31 8.08202 31C3.61844 31 0 27.5302 0 23.25C0 18.9698 3.61844 15.5 8.08202 15.5C12.5456 15.5 16.164 18.9698 16.164 23.25Z" fill="#F2AD3D"/>
</svg>
