<svg width="329" height="308" viewBox="0 0 329 308" fill="none" xmlns="http://www.w3.org/2000/svg">
<g clip-path="url(#clip0_475_2527)">
<path d="M322.309 152.759C316.6 168.17 304.762 180.479 290.207 188.071C261.329 203.136 209.762 233.732 202.528 263.34C192.396 304.824 154.651 355.727 66.8725 292.675C-20.9064 229.622 -9.79496 162.72 34.0312 137.448C77.8573 112.176 116.141 77.0435 137.331 38.8689C160.28 -2.40793 367.64 30.4695 322.309 152.759Z" fill="#F6D27C"/>
<path d="M145.809 175.691C138.874 175.891 107.885 175.271 103.988 176.879C96.7465 157.071 102.655 114.466 112.721 104.532C125.284 92.1099 128.435 70.4207 171.156 73.9833C205.329 76.8321 202.052 137.363 201.219 174.123L145.809 175.691Z" fill="#542934"/>
<path d="M134.664 136.909C134.344 125.001 125.851 115.56 115.699 115.847C105.547 116.134 97.586 126.001 97.9058 137.91C98.2255 149.819 106.719 159.259 116.871 158.972" stroke="white" stroke-width="1.58"/>
<path d="M129.848 127.082H182.52V195.345H129.848V127.082Z" fill="white" stroke="#582731" stroke-width="2" stroke-miterlimit="10"/>
<path d="M111.016 97.6205C111.489 115.04 116.938 130.651 125.338 141.8C133.738 152.948 145.043 159.619 157.253 159.286C169.464 158.952 180.402 151.687 188.183 140.078C195.963 128.47 200.553 112.605 200.08 95.1854C199.607 77.766 194.158 62.1613 185.765 51.0064C177.371 39.8516 166.06 33.1934 153.843 33.527C141.625 33.8606 130.7 41.1192 122.92 52.7144C115.139 64.3095 110.543 80.2011 111.016 97.6205Z" fill="white" stroke="#582731" stroke-width="2"/>
<path d="M156.854 105.026C157.846 109.95 159.199 120.137 157.413 121.585C156.686 122.126 155.848 122.496 154.959 122.669C154.07 122.843 153.154 122.814 152.277 122.586" stroke="#582731" stroke-width="1.58" stroke-linecap="round" stroke-linejoin="round"/>
<path d="M172.142 104.005C171.652 104.02 171.169 103.888 170.753 103.627C170.338 103.366 170.009 102.988 169.809 102.54C169.608 102.092 169.545 101.594 169.627 101.11C169.709 100.626 169.932 100.177 170.269 99.8198C170.606 99.4629 171.041 99.2141 171.519 99.1048C171.997 98.9956 172.496 99.0308 172.954 99.206C173.412 99.3813 173.808 99.6887 174.092 100.089C174.375 100.49 174.534 100.966 174.547 101.457C174.557 101.782 174.502 102.107 174.387 102.411C174.271 102.716 174.096 102.994 173.873 103.231C173.65 103.468 173.382 103.658 173.085 103.791C172.788 103.924 172.467 103.997 172.142 104.005Z" fill="#582731"/>
<path d="M135.996 104.005C135.506 104.018 135.023 103.886 134.609 103.624C134.194 103.362 133.866 102.983 133.667 102.535C133.467 102.087 133.405 101.589 133.488 101.105C133.57 100.622 133.794 100.173 134.132 99.8172C134.469 99.4609 134.904 99.2128 135.381 99.1041C135.859 98.9954 136.359 99.0311 136.816 99.2065C137.274 99.382 137.669 99.6894 137.953 100.09C138.236 100.49 138.394 100.966 138.407 101.457C138.416 101.783 138.361 102.107 138.245 102.412C138.128 102.716 137.953 102.995 137.729 103.231C137.505 103.468 137.237 103.658 136.939 103.791C136.642 103.924 136.321 103.997 135.996 104.005Z" fill="#582731"/>
<path d="M140.992 87.2864L130.72 87.5666C130.436 87.5735 130.155 87.6367 129.895 87.7526C129.635 87.8685 129.4 88.0348 129.205 88.242C129.009 88.4491 128.856 88.6929 128.755 88.9594C128.654 89.226 128.606 89.5099 128.615 89.7949C128.622 90.0799 128.685 90.3608 128.801 90.6213C128.917 90.8818 129.083 91.1168 129.29 91.3127C129.496 91.5087 129.74 91.6618 130.006 91.7631C130.272 91.8644 130.556 91.912 130.84 91.9031L141.112 91.6229C141.397 91.616 141.677 91.5528 141.937 91.4368C142.198 91.3209 142.432 91.1546 142.628 90.9475C142.824 90.7404 142.976 90.4965 143.077 90.23C143.179 89.9635 143.226 89.6796 143.217 89.3946C143.21 89.1098 143.146 88.8294 143.03 88.5693C142.914 88.3092 142.748 88.0745 142.541 87.8787C142.334 87.683 142.091 87.5299 141.826 87.4282C141.56 87.3266 141.277 87.2784 140.992 87.2864Z" fill="#582731"/>
<path d="M177.151 86.2989L166.873 86.5791C166.299 86.5965 165.755 86.8407 165.361 87.2583C164.967 87.6758 164.753 88.2328 164.768 88.8074C164.783 89.3831 165.026 89.9291 165.443 90.3255C165.86 90.722 166.418 90.9366 166.992 90.9223L177.298 90.6421C177.873 90.6263 178.418 90.3829 178.814 89.9652C179.21 89.5474 179.424 88.9895 179.41 88.4138C179.402 88.1258 179.337 87.8422 179.219 87.5795C179.101 87.3168 178.932 87.0802 178.722 86.8835C178.512 86.6867 178.265 86.5337 177.995 86.4333C177.726 86.333 177.439 86.2873 177.151 86.2989Z" fill="#582731"/>
<path d="M165.974 131.912L144.657 133.08C144.436 133.066 144.216 133.108 144.015 133.202C143.815 133.295 143.641 133.436 143.509 133.614C143.377 133.791 143.291 133.999 143.258 134.217C143.226 134.436 143.249 134.66 143.324 134.868C144.337 137.37 147.321 141.433 154.722 141.433C163.995 141.433 166.746 137.43 167.805 134.094C167.884 133.823 167.894 133.537 167.836 133.262C167.778 132.986 167.653 132.729 167.471 132.513C167.29 132.297 167.059 132.13 166.798 132.025C166.536 131.92 166.253 131.881 165.974 131.912Z" stroke="#582731" stroke-width="1.18"/>
<path fill-rule="evenodd" clip-rule="evenodd" d="M182.52 174.183C255.744 190.916 274.949 258.118 276.075 302.023C276.098 302.737 275.977 303.448 275.719 304.113C275.462 304.779 275.072 305.385 274.574 305.896C274.077 306.407 273.481 306.812 272.823 307.087C272.165 307.361 271.458 307.5 270.746 307.494H40.8166C40.1835 307.496 39.5571 307.364 38.9783 307.107C38.3994 306.85 37.881 306.474 37.4569 306.003C37.0327 305.533 36.7123 304.978 36.5164 304.375C36.3205 303.772 36.2536 303.134 36.32 302.504C41.1363 261.334 63.8921 192.357 121.867 175.471C122.187 175.391 130.287 172.135 128.955 172.135" fill="white"/>
<path d="M182.52 174.183C255.744 190.916 274.949 258.118 276.075 302.023C276.098 302.737 275.977 303.448 275.72 304.113C275.462 304.779 275.072 305.385 274.574 305.896C274.077 306.407 273.481 306.812 272.823 307.087C272.165 307.361 271.458 307.5 270.746 307.494H40.8166C40.1835 307.496 39.5571 307.364 38.9783 307.107C38.3994 306.85 37.881 306.474 37.4569 306.003C37.0327 305.533 36.7123 304.978 36.5164 304.375C36.3205 303.772 36.2536 303.134 36.32 302.504C41.1363 261.334 63.8921 192.357 121.867 175.471C122.187 175.391 130.287 172.135 128.955 172.135" stroke="#582731" stroke-width="2" stroke-miterlimit="10" stroke-linecap="round"/>
<path d="M99.2313 244.255C93.1434 263.588 91.4835 284.047 94.3751 304.112" stroke="#582731" stroke-width="2" stroke-linecap="round" stroke-linejoin="round"/>
<path d="M228.665 259.239C231.868 273.846 234.03 288.663 235.133 303.578" stroke="#582731" stroke-width="2" stroke-linecap="round" stroke-linejoin="round"/>
<path d="M122.773 223.012L158.239 244.255L189.828 223.012L185.984 307.494H125.818L122.773 223.012Z" fill="#582731"/>
<path fill-rule="evenodd" clip-rule="evenodd" d="M182.52 174.183L189.135 218.596C189.716 224.295 189.801 230.034 189.389 235.748L186.531 270.907C186.531 270.907 188.003 261.567 193.525 260.867C199.048 260.166 203.631 254.442 201.699 251.053C199.767 247.664 202.971 241.946 206.002 242.84C209.033 243.734 220.265 234.834 217.234 229.63C214.203 224.427 213.27 215.527 217.747 214.813C222.223 214.099 226.5 207.314 223.829 203.745C221.157 200.176 226.84 195.812 226.84 195.812" fill="white"/>
<path d="M182.52 174.183L189.135 218.596C189.716 224.295 189.801 230.034 189.389 235.748L186.531 270.907C186.531 270.907 188.003 261.567 193.525 260.867C199.048 260.166 203.631 254.442 201.699 251.053C199.767 247.664 202.971 241.946 206.002 242.84C209.033 243.734 220.265 234.834 217.234 229.63C214.203 224.427 213.27 215.527 217.747 214.813C222.223 214.099 226.5 207.314 223.829 203.745C221.157 200.176 226.84 195.812 226.84 195.812" stroke="#582731" stroke-width="2" stroke-miterlimit="10" stroke-linecap="round"/>
<path fill-rule="evenodd" clip-rule="evenodd" d="M129.848 172.362L123.227 216.314C122.646 222.016 122.561 227.757 122.973 233.473L125.831 268.632C125.831 268.632 124.366 259.292 118.843 258.592C113.321 257.891 108.731 252.16 110.683 248.771C112.635 245.382 109.404 239.671 106.38 240.565C103.355 241.459 92.1173 232.526 95.1483 227.356C98.1792 222.185 99.1452 213.252 94.6353 212.538C90.1255 211.824 85.8754 205.039 88.5533 201.47C91.2313 197.901 86.6748 196.373 86.6748 196.373" fill="white"/>
<path d="M129.848 172.362L123.227 216.314C122.646 222.016 122.561 227.757 122.973 233.473L125.831 268.632C125.831 268.632 124.366 259.292 118.843 258.592C113.321 257.891 108.731 252.16 110.683 248.771C112.635 245.382 109.404 239.671 106.38 240.565C103.355 241.459 92.1173 232.526 95.1483 227.356C98.1792 222.185 99.1452 213.252 94.6353 212.538C90.1255 211.824 85.8754 205.039 88.5533 201.47C91.2313 197.901 86.6748 196.373 86.6748 196.373" stroke="#582731" stroke-width="2" stroke-miterlimit="10" stroke-linecap="round"/>
<path d="M117.344 119.697C116.505 81.5622 151.225 92.5903 164.601 58.3185C164.646 58.1993 164.723 58.0942 164.822 58.0142C164.921 57.9341 165.04 57.8819 165.166 57.8629C165.292 57.8439 165.421 57.8588 165.539 57.906C165.658 57.9532 165.762 58.0311 165.84 58.1317C170.803 64.5564 173.774 67.612 184.412 79.8543C195.051 92.0966 196.59 94.0113 200.02 99.3619C200.116 99.5158 200.178 99.6888 200.2 99.8689C200.4 101.503 198.868 110.637 198.968 113.993C199.501 133.647 182.82 176.445 187.11 179.307C191.4 182.169 229.904 169.867 238.331 160.7C246.758 151.533 210.785 73.8366 201.493 57.5513C195.251 46.6033 183.506 39.9184 171.516 35.4751C162.989 32.5597 146.868 29.0571 135.877 36.3024C134.884 36.9696 133.811 37.4633 132.792 38.0637C110.603 51.1199 61.1076 145.916 72.9318 161.16C85.0025 176.712 124.665 188.187 127.59 186.372C130.514 184.558 118.43 168.319 117.344 119.697Z" fill="#582731"/>
<path d="M200.22 105.233C199.707 111.591 199.234 112.405 202.098 112.758C204.963 113.112 207.727 109.83 208.267 105.42C208.806 101.01 206.934 97.1736 204.057 96.82C201.179 96.4664 200.712 99.0616 200.22 105.233Z" fill="white"/>
<path d="M201.945 100.363C202.111 99.9069 202.431 99.5236 202.85 99.279C203.268 99.0343 203.759 98.9437 204.237 99.0229C204.715 99.102 205.15 99.3458 205.467 99.7123C205.785 100.079 205.965 100.545 205.976 101.03" stroke="#582731" stroke-width="0.79" stroke-linecap="round" stroke-linejoin="round"/>
<path d="M200.526 99.0082C200.227 103.325 200.307 108.128 199.367 112.785" stroke="#582731"/>
<path d="M260.7 107.201C260.7 107.201 261.073 109.089 260.7 110.07" stroke="#582731" stroke-width="0.5" stroke-miterlimit="10" stroke-linecap="round"/>
<path d="M124.547 88.5748C135.434 81.8117 157.67 66.2729 159.517 58.2231" stroke="#704652"/>
<path d="M113.403 101.346C109.956 118.718 105.469 157.176 115.091 172.031" stroke="#704652"/>
<path d="M203.239 120.78C203.551 135.337 202.305 166.039 194.832 172.391" stroke="#704652"/>
</g>
<defs>
<clipPath id="clip0_475_2527">
<rect width="328" height="307" fill="white" transform="translate(0.72168 0.837402)"/>
</clipPath>
</defs>
</svg>
