<svg width="1440" height="205" viewBox="0 0 1440 205" fill="none" xmlns="http://www.w3.org/2000/svg">
<path d="M1502.49 13.5827C1502.49 13.5827 1468.87 -25.0573 1431.06 31.863C1431.06 31.863 1384.33 -14.2262 1347.76 41.7801C1347.76 41.7801 1263.42 -34.7002 1200.51 68.058C1200.51 68.058 1122.83 37.6556 1115.1 87.5837C1115.1 87.5837 1064.83 83.7448 1063.08 116.067H1502.49V13.5827Z" fill="white"/>
<path d="M-0.763672 37.6889C-0.763672 37.6889 8.46971 31.3789 28.5161 47.1583C28.5161 47.1583 52.1637 19.8804 72.3982 44.2815C72.3982 44.2815 98.3025 26.1904 119.91 60.2321C119.91 60.2321 141.536 47.5264 162.005 71.1056C163.717 70.7203 170.289 68.6313 176.015 75.943H-0.763672V37.6889Z" fill="white"/>
<path d="M-0.763672 144.572C-0.763672 144.572 13.6036 134.752 44.8109 159.307C44.8109 159.307 81.6034 116.857 113.102 154.82C113.102 154.82 153.402 126.678 187.035 179.65C187.035 179.65 220.725 159.872 252.543 196.568C255.214 195.96 265.434 192.715 274.339 204.094H-0.763672V144.572Z" fill="white"/>
</svg>
