<svg xmlns="http://www.w3.org/2000/svg" fill="none" viewBox="67.6103896103896 0 133.1873840445269 240.284" style="max-height: 500px" width="133.1873840445269" height="240.284">
<path fill="#49263E" d="M198.974 237.022C196.535 236.802 194.049 236.512 191.582 236.17L190.909 236.075L190.907 237.342L191.581 237.437C194.064 237.788 196.574 238.079 199.036 238.304L199.708 238.366L199.637 237.091L198.974 237.022ZM184.203 234.937C181.728 234.462 179.247 233.926 176.846 233.327L176.176 233.164L176.03 234.404L176.7 234.567C179.132 235.166 181.633 235.714 184.135 236.194L184.804 236.322L184.88 235.07L184.203 234.937ZM159.656 145.131L159.357 144.511L158.143 144.881L158.441 145.501C159.003 146.708 159.408 147.956 159.644 149.215C159.832 150.214 159.926 151.213 159.925 152.201L159.925 152.835L161.272 153.025L161.273 152.392C161.275 151.329 161.176 150.254 160.975 149.179C160.717 147.807 160.273 146.445 159.656 145.131ZM158.967 158.059L158.699 158.6C157.802 160.371 156.209 161.7 153.923 162.525L153.331 162.735L153.957 163.934L154.549 163.724C157.107 162.803 158.915 161.304 159.924 159.277L160.194 158.734L158.967 158.059ZM154.878 138.844C152.874 137.074 150.616 135.598 148.201 134.48L147.565 134.181L147.125 135.314L147.759 135.616C150.03 136.666 152.154 138.052 154.039 139.715L154.563 140.185L155.407 139.318L154.878 138.844ZM169.554 231.319C167.095 230.567 164.67 229.741 162.344 228.866L161.692 228.621L161.366 229.802L162.018 230.047C164.373 230.933 166.831 231.77 169.32 232.533L169.983 232.736L170.217 231.524L169.554 231.319ZM147.093 163.463C144.679 163.384 142.242 163.048 139.826 162.463L139.158 162.302L139.016 163.538L139.683 163.699C142.194 164.306 144.726 164.655 147.234 164.738L147.901 164.755L147.739 163.479L147.093 163.463ZM140.809 131.964C138.295 131.399 135.764 131.085 133.259 131.027L132.593 131.009L132.757 132.288L133.424 132.305C135.832 132.36 138.266 132.66 140.683 133.202L141.349 133.361L141.467 132.117L140.809 131.964ZM155.263 225.931C152.902 224.856 150.591 223.7 148.391 222.493L147.775 222.156L147.24 223.241L147.856 223.577C150.089 224.805 152.441 225.982 154.837 227.072L155.475 227.361L155.913 226.231L155.263 225.931ZM132.652 160.181C130.296 159.245 127.986 158.167 125.737 156.953L125.118 156.621L124.594 157.711L125.213 158.043C127.518 159.286 129.885 160.392 132.3 161.353L132.951 161.609L133.303 160.438L132.652 160.181ZM126.533 131.469L125.897 131.584C124.956 131.754 124.027 131.968 123.139 132.214C121.73 132.6 120.376 133.105 119.091 133.723L118.527 133.992L119.267 135.156L119.831 134.887C121.054 134.3 122.343 133.82 123.684 133.453C124.538 133.218 125.43 133.013 126.34 132.852L126.977 132.735L126.533 131.469ZM141.795 218.523C139.654 217.105 137.576 215.591 135.571 213.988L135.022 213.547L134.25 214.475L134.799 214.916C136.841 216.549 138.957 218.09 141.139 219.533L141.725 219.922L142.377 218.907L141.795 218.523ZM119.172 152.961C117.051 151.514 114.998 149.969 113.023 148.331L112.481 147.88L111.689 148.79L112.228 149.239C114.241 150.908 116.333 152.483 118.496 153.958L119.08 154.354L119.749 153.352L119.172 152.961ZM129.829 208.892C128.003 207.105 126.274 205.232 124.651 203.283L124.206 202.749L123.202 203.447L123.647 203.981C125.307 205.971 127.076 207.881 128.944 209.704L129.446 210.194L130.338 209.373L129.829 208.892ZM113.877 137.229L113.442 137.65C111.817 139.25 110.45 141.076 109.376 143.082L109.087 143.614L110.302 144.322L110.589 143.792C111.615 141.878 112.919 140.137 114.468 138.61L114.903 138.189L113.877 137.229ZM120.1 197.245C118.698 195.166 117.381 193.015 116.181 190.847L115.848 190.25L114.679 190.707L114.998 191.297C116.22 193.503 117.563 195.695 118.988 197.809L119.376 198.381L120.476 197.808L120.1 197.245ZM107.346 143.155C105.531 141.354 103.799 139.48 102.159 137.539L101.708 137.007L100.71 137.713L101.159 138.247C102.836 140.231 104.613 142.159 106.434 143.973L106.934 144.467L107.836 143.657L107.346 143.155ZM107.063 148.862L106.912 149.458C106.351 151.682 105.999 153.976 105.861 156.315L105.822 156.94L107.162 157.202L107.203 156.575C107.337 154.308 107.679 152.086 108.226 149.932L108.378 149.337L107.063 148.862ZM112.884 184.206C111.894 181.959 111.018 179.681 110.261 177.382L110.055 176.753L108.786 176.97L108.992 177.6C109.76 179.937 110.646 182.253 111.648 184.539L111.919 185.155L113.151 184.819L112.884 184.206ZM105.917 162.751L105.972 163.389C106.185 165.761 106.549 168.139 107.062 170.511L107.2 171.148L108.516 171.076L108.379 170.439C107.879 168.116 107.524 165.788 107.316 163.466L107.261 162.828L105.917 162.751ZM97.5388 131.524C96.1148 129.455 94.8173 127.321 93.654 125.135L93.339 124.539L92.1648 124.966L92.4798 125.563C93.6707 127.799 94.998 129.983 96.454 132.101L96.8448 132.67L97.938 132.086L97.5388 131.524ZM83.2693 68.9169L83.201 69.5307C82.9785 71.816 82.8198 74.147 82.723 76.4589L82.7025 77.0784L84.0454 77.3168L84.0659 76.6973C84.1596 74.4054 84.3201 72.0978 84.5321 69.8271L84.6019 69.2113L83.2693 68.9169ZM82.6229 82.8334L82.6293 83.4721C82.6619 85.8417 82.7674 88.2129 82.9403 90.5212L82.9872 91.1605L84.33 91.2592L84.2815 90.6221C84.1119 88.3351 84.0081 85.9873 83.9719 83.6436L83.9679 83.0066L82.6229 82.8334ZM90.5126 118.454C89.6149 116.251 88.7977 113.941 88.0826 111.587L87.8899 110.955L86.6023 111.136L86.795 111.769C87.5221 114.163 88.3553 116.513 89.2689 118.756L89.5215 119.377L90.7692 119.075L90.5126 118.454ZM83.6079 96.9633L83.6969 97.6008C84.0377 100.001 84.4536 102.353 84.9604 104.698L85.1002 105.337L86.4159 105.261L86.2786 104.623C85.7769 102.308 85.3647 99.9869 85.0315 97.6176L84.9401 96.9783L83.6079 96.9633Z"/>
<path fill="#EF9D43" d="M89.4265 61.6741L90.4887 54.2629C90.4887 54.2629 112.432 38.834 112.65 38.5043L120.902 26.0518L104.998 33.7925L82.4233 50.8597L89.4265 61.6741Z"/>
<path fill="#FEC786" d="M68.4531 43.3228L120.903 26.0465L82.4247 50.8569L68.4531 43.3228Z"/>
<path fill="#FEC786" d="M90.4895 54.2526L105.278 62.3245L120.902 26.0467L90.4895 54.2526Z"/>
</svg>