<svg width="24" height="25" viewBox="0 0 24 25" fill="none" xmlns="http://www.w3.org/2000/svg">
<path d="M4 20.4541C3.45 20.4541 2.97933 20.2584 2.588 19.8671C2.19667 19.4758 2.00067 19.0048 2 18.4541V6.4541C2 5.9041 2.196 5.43343 2.588 5.0421C2.98 4.65077 3.45067 4.45477 4 4.4541H20C20.55 4.4541 21.021 4.6501 21.413 5.0421C21.805 5.4341 22.0007 5.90477 22 6.4541V18.4541C22 19.0041 21.8043 19.4751 21.413 19.8671C21.0217 20.2591 20.5507 20.4548 20 20.4541H4ZM12 13.4541L20 8.4541V6.4541L12 11.4541L4 6.4541V8.4541L12 13.4541Z" fill="white"/>
</svg>
