<svg width="294" height="61" viewBox="0 0 294 61" fill="none" xmlns="http://www.w3.org/2000/svg">
    <g clip-path="url(#clip0_475_2281)">
        <path d="M53.8857 24.5479C51.6517 24.6465 49.6806 26.1262 48.7936 28.1894C48.3748 29.1512 48.2762 30.0719 48.3665 30.935C48.4158 31.4365 48.2598 31.9297 47.8984 32.2914L43.9315 36.2618C43.5784 36.6153 43.0774 36.7797 42.5764 36.7303C41.7222 36.6399 40.8024 36.7386 39.8415 37.1496C37.78 38.0292 36.2935 40.002 36.1949 42.2462C36.0471 45.7069 38.9216 48.5347 42.3957 48.3045C44.6461 48.1566 46.6172 46.6112 47.4221 44.4985C47.7834 43.545 47.8573 42.6407 47.7506 41.7858C47.6849 41.268 47.8409 40.7501 48.2105 40.3884L52.0131 36.5824C52.3827 36.2125 52.8919 36.0563 53.4093 36.122C54.2717 36.2371 55.1915 36.1549 56.1442 35.785C58.2468 34.963 59.7826 32.9901 59.9222 30.7377C60.1357 27.2688 57.3187 24.4081 53.8692 24.5561L53.8857 24.5479Z" fill="#FF8502"/>
        <path d="M17.5671 12.612C15.3168 12.7517 13.3457 14.2889 12.5244 16.3933C12.1548 17.3551 12.0726 18.2675 12.1876 19.1307C12.2533 19.6485 12.0973 20.1664 11.7277 20.5281L7.92509 24.3341C7.5555 24.704 7.03808 24.8602 6.52888 24.7945C5.68294 24.6794 4.7713 24.7616 3.82681 25.1233C1.70786 25.9371 0.172034 27.9017 0.0159876 30.1541C-0.222189 33.6313 2.60308 36.5166 6.06074 36.3686C8.30288 36.27 10.274 34.7903 11.1528 32.7271C11.5634 31.7653 11.6702 30.8446 11.5799 29.9897C11.5306 29.4883 11.6866 28.995 12.048 28.6333L16.0149 24.6629C16.368 24.3095 16.869 24.1451 17.37 24.1944C18.2324 24.2848 19.144 24.1862 20.1049 23.7669C22.1664 22.8791 23.6447 20.9145 23.7433 18.6703C23.8911 15.2178 21.033 12.39 17.5671 12.612Z" fill="#FF8502"/>
        <path d="M37.6017 29.8701L30.5573 22.8194C30.2366 22.4984 29.7166 22.4984 29.3958 22.8194L22.3514 29.8701C22.0306 30.1912 22.0306 30.7117 22.3514 31.0327L29.3958 38.0834C29.7166 38.4044 30.2366 38.4044 30.5573 38.0834L37.6017 31.0327C37.9225 30.7117 37.9225 30.1912 37.6017 29.8701Z" fill="#FF8502"/>
        <path d="M97.2836 38.2757C97.1687 37.8318 96.7087 37.5277 96.2652 37.6592C95.9367 37.7578 95.5343 37.8072 95.0579 37.8072C94.3927 37.8072 93.867 37.5852 93.4892 37.1331C93.1032 36.681 92.9061 36.0891 92.9061 35.3493V26.57H96.1831C96.8566 26.57 97.2426 25.8055 96.8483 25.263L92.9061 19.8787V14.108C92.9061 13.6559 92.5365 13.286 92.0848 13.286H86.0976C85.6458 13.286 85.2763 13.6559 85.2763 14.108V19.8787H82.1143C81.6626 19.8787 81.293 20.2486 81.293 20.7007V25.748C81.293 26.2001 81.6626 26.57 82.1143 26.57H85.2763V37.503C85.2763 39.8294 85.9169 41.6049 87.2063 42.7969C88.4875 43.9971 90.3519 44.5971 92.8076 44.5971C95.14 44.5971 96.873 44.1943 98.031 43.3805C98.3185 43.1832 98.4499 42.8298 98.3677 42.4927L97.2836 38.2757Z" fill="#FF8502"/>
        <path d="M125.191 32.727C125.191 28.6661 124.041 25.4027 121.742 22.9695C119.442 20.5198 116.485 19.3032 112.855 19.3032C109.225 19.3032 106.063 20.5116 103.657 22.9448C101.25 25.378 100.043 28.3784 100.043 31.9378C100.043 35.7685 101.291 38.8347 103.788 41.1446C106.277 43.4627 109.422 44.6135 113.208 44.6135C115.138 44.6135 117.003 44.3423 118.826 43.7915C119.343 43.6353 119.828 43.4627 120.288 43.2654C120.748 43.0681 120.929 42.4516 120.616 42.0241L117.652 37.9715C117.528 38.0126 117.405 38.062 117.274 38.1031C116.066 38.4812 114.982 38.6703 114.054 38.6703C112.395 38.6703 111.024 38.251 109.964 37.4208C108.897 36.5905 108.248 35.5712 108.018 34.3793H125.183V32.727H125.191ZM107.927 29.3731C108.125 28.2716 108.626 27.3098 109.422 26.4795C110.219 25.6493 111.369 25.2301 112.855 25.2301C114.457 25.2301 115.656 25.6493 116.452 26.496C117.249 27.3427 117.709 28.3045 117.849 29.3649H107.919L107.927 29.3731Z" fill="#FF8502"/>
        <path d="M140.901 37.8154C139.275 37.8154 137.92 37.2893 136.868 36.2124C135.801 35.152 135.267 33.7217 135.267 31.9214C135.267 30.1212 135.792 28.6991 136.868 27.6551C137.928 26.6029 139.275 26.085 140.901 26.085C142.527 26.085 143.932 26.6275 144.934 27.7208C145.246 28.0579 145.763 28.0908 146.1 27.7784L149.894 24.2437C150.223 23.9395 150.239 23.4381 149.96 23.0928C149.155 22.131 148.054 21.3008 146.675 20.5938C144.999 19.7225 142.954 19.295 140.556 19.295C136.77 19.295 133.624 20.4623 131.136 22.8133C128.639 25.1561 127.391 28.1976 127.391 31.9214C127.391 35.6452 128.639 38.7278 131.136 41.0788C133.624 43.4298 136.77 44.5971 140.556 44.5971C142.954 44.5971 144.991 44.1697 146.675 43.2983C147.118 43.0764 147.529 42.838 147.907 42.5832C148.284 42.3283 148.408 41.7858 148.128 41.3994L145.032 37.166C144.777 36.8125 144.293 36.7303 143.932 36.9687C143.077 37.5277 142.067 37.8072 140.917 37.8072L140.901 37.8154Z" fill="#FF8502"/>
        <path d="M175.972 21.3172C174.641 19.9691 172.645 19.2951 169.984 19.2951C166.461 19.2951 163.677 20.4788 161.648 22.838V18.0456C161.648 17.8729 161.591 17.7003 161.492 17.5606L156.737 11.0419C156.581 10.8281 156.334 10.7048 156.072 10.7048H154.782C154.331 10.7048 153.961 11.0747 153.961 11.5269V43.1833C153.961 43.6354 154.331 44.0053 154.782 44.0053H160.827C161.279 44.0053 161.648 43.6354 161.648 43.1833V28.4278C162.921 26.866 164.457 26.085 166.297 26.085C168.958 26.085 170.28 27.3838 170.28 29.9732V43.1833C170.28 43.6354 170.65 44.0053 171.101 44.0053H177.146C177.598 44.0053 177.967 43.6354 177.967 43.1833V26.8331C177.967 24.5067 177.302 22.6654 175.972 21.309V21.3172Z" fill="#FF8502"/>
        <path d="M44.2274 12.9325C43.2583 12.5215 42.3302 12.4311 41.4596 12.538C40.9504 12.5955 40.4494 12.4393 40.088 12.0776L36.3101 8.29629C35.9487 7.9346 35.7844 7.42494 35.8501 6.91528C35.9487 6.05215 35.8584 5.12325 35.4559 4.15326C34.5853 2.07352 32.6224 0.569205 30.3721 0.454121C26.9309 0.281495 24.0974 3.12572 24.2863 6.57003C24.4095 8.81417 25.9124 10.7788 27.9903 11.6337C28.9595 12.0365 29.8711 12.1187 30.7335 12.0201C31.2427 11.9625 31.7519 12.1187 32.1132 12.4804L35.8912 16.2618C36.2526 16.6235 36.4168 17.1331 36.3511 17.6346C36.2444 18.5141 36.3429 19.443 36.7618 20.4295C37.6406 22.501 39.6117 23.9889 41.8538 24.0875C45.2786 24.2437 48.0875 21.4159 47.915 17.988C47.8 15.7439 46.3053 13.7875 44.2356 12.9161L44.2274 12.9325Z" fill="white"/>
        <path d="M31.9818 49.2745C31.0045 48.8634 30.0846 48.773 29.2141 48.8799C28.7049 48.9374 28.2039 48.7812 27.8425 48.4195L24.0645 44.6382C23.7032 44.2765 23.5389 43.7669 23.6046 43.2654C23.7114 42.3941 23.6128 41.4652 23.2022 40.4952C22.3316 38.4237 20.3687 36.9276 18.1348 36.8125C14.7099 36.6399 11.8929 39.4512 12.0407 42.8791C12.1393 45.1232 13.634 47.0961 15.6955 47.9757C16.6811 48.3949 17.6173 48.4935 18.4879 48.3867C18.9971 48.3291 19.4981 48.4853 19.8595 48.847L23.6374 52.6283C23.9988 52.99 24.1631 53.4997 24.0974 54.0011C23.9906 54.8725 24.0892 55.8096 24.508 56.796C25.3868 58.8593 27.3579 60.3554 29.6001 60.4541C33.0249 60.6103 35.8337 57.7825 35.6612 54.3464C35.5463 52.1022 34.0515 50.1458 31.9818 49.2745Z" fill="white"/>
        <path d="M203.543 19.8951H200.545C200.093 19.8951 199.724 20.265 199.724 20.7171V22.7393C197.859 20.4458 195.478 19.3032 192.587 19.3032C189.457 19.3032 186.903 20.3554 184.924 22.4763C182.945 24.5889 181.959 27.5728 181.959 31.4364C181.959 35.2999 182.961 38.3332 184.957 40.4458C186.944 42.5667 189.49 43.6189 192.587 43.6189C195.346 43.6189 197.72 42.4598 199.724 40.1253V41.9666C199.724 44.0052 199.091 45.4356 197.843 46.2658C196.603 47.0961 195.174 47.5153 193.58 47.5153C191.888 47.5153 190.41 47.2523 189.137 46.7097C188.776 46.5535 188.357 46.6522 188.127 46.9728L185.351 50.7788C185.055 51.1816 185.178 51.757 185.614 51.9872C187.954 53.2038 190.607 53.8121 193.58 53.8121C194.878 53.8121 196.126 53.7216 197.325 53.5326C198.525 53.3517 199.757 52.9818 201.013 52.431C202.286 51.8803 203.362 51.1898 204.257 50.3431C205.161 49.4964 205.9 48.3456 206.475 46.8906C207.058 45.4438 207.354 43.7669 207.354 41.8844V24.819C207.354 24.6464 207.296 24.4738 207.197 24.334L204.208 20.2486C204.052 20.0348 203.806 19.9115 203.543 19.9115V19.8951ZM199.724 34.667C199.256 35.3082 198.582 35.8178 197.695 36.2206C196.816 36.6234 195.954 36.8207 195.124 36.8207C193.564 36.8207 192.283 36.3604 191.305 35.4232C190.328 34.4943 189.835 33.1627 189.835 31.4364C189.835 29.7101 190.328 28.4278 191.305 27.4989C192.283 26.5618 193.564 26.1014 195.124 26.1014C195.954 26.1014 196.816 26.2987 197.695 26.7015C198.582 27.1043 199.256 27.6139 199.724 28.2387V34.6752V34.667Z" fill="white"/>
        <path d="M233.964 24.2849C233.348 22.9861 232.502 21.9832 231.418 21.2845C230.342 20.594 229.159 20.0843 227.878 19.7637C226.597 19.4514 225.192 19.2952 223.665 19.2952C220.486 19.2952 217.694 19.9528 215.271 21.2845C214.852 21.5146 214.737 22.0654 215.008 22.46L217.332 25.8221C217.554 26.1509 217.981 26.2495 218.343 26.1016C219.575 25.5919 220.897 25.3371 222.31 25.3371C223.837 25.3371 225.036 25.6577 225.907 26.2906C226.777 26.9236 227.204 27.9183 227.204 28.954V31.7243C225.71 29.8665 223.205 28.9211 219.722 28.9211C217.521 28.9211 215.6 29.5541 213.924 30.8036C212.265 32.0449 211.436 34.0013 211.436 36.6647C211.436 39.328 212.298 41.153 214.006 42.534C215.715 43.915 217.62 44.6055 219.722 44.6055C221.25 44.6055 222.687 44.3342 224.042 43.7835C225.381 43.2327 226.432 42.5011 227.204 41.6133L228.666 43.6601C228.822 43.8739 229.069 44.0054 229.332 44.0054H234.054C234.506 44.0054 234.875 43.6355 234.875 43.1834V28.9211C234.875 27.1291 234.571 25.5837 233.956 24.2849H233.964ZM227.213 37.8155C226.416 38.9828 224.987 39.5664 222.917 39.5664C221.817 39.5664 220.905 39.328 220.182 38.8348C219.443 38.3581 219.082 37.6675 219.082 36.7633C219.082 35.8591 219.443 35.1768 220.182 34.6918C220.913 34.215 221.825 33.9684 222.917 33.9684C224.946 33.9684 226.375 34.5274 227.213 35.6618V37.8155Z" fill="white"/>
        <path d="M259.654 19.8951H257.551C257.1 19.8951 256.73 20.265 256.73 20.7171V35.4644C255.498 37.0344 253.971 37.8154 252.147 37.8154C249.486 37.8154 248.148 36.5166 248.148 33.9272V20.7171C248.148 20.265 247.778 19.8951 247.326 19.8951H241.298C240.846 19.8951 240.477 20.265 240.477 20.7171V37.0673C240.477 39.3937 241.125 41.235 242.448 42.5914C243.754 43.9395 245.741 44.6136 248.402 44.6136C251.901 44.6136 254.677 43.4545 256.738 41.1199V41.1775L258.562 43.6682C258.718 43.882 258.964 44.0053 259.227 44.0053H263.604C264.056 44.0053 264.426 43.6354 264.426 43.1832V26.1014C264.426 25.9288 264.368 25.7562 264.27 25.6164L260.327 20.2321C260.171 20.0184 259.925 19.8951 259.662 19.8951H259.654Z" fill="white"/>
        <path d="M292.004 21.3666C290.674 19.9855 288.678 19.295 286.017 19.295C282.51 19.295 279.734 20.4623 277.714 22.8051H277.705C277.705 22.8051 277.697 22.8133 277.689 22.8215L275.8 20.2322C275.644 20.0184 275.397 19.8951 275.135 19.8951H270.831C270.379 19.8951 270.01 20.265 270.01 20.7171V43.1832C270.01 43.6354 270.379 44.0053 270.831 44.0053H276.876C277.328 44.0053 277.697 43.6354 277.697 43.1832V28.4278C278.97 26.8659 280.522 26.085 282.387 26.085C285.015 26.085 286.337 27.4167 286.337 30.0719V43.1832C286.337 43.6354 286.707 44.0053 287.158 44.0053H293.203C293.655 44.0053 294.025 43.6354 294.025 43.1832V26.9317C294.025 24.6054 293.359 22.7393 292.029 21.3583L292.004 21.3666Z" fill="white"/>
        <path d="M277.706 22.8051V22.8544L277.689 22.8215C277.689 22.8215 277.698 22.8133 277.706 22.8051Z" fill="white"/>
    </g>
    <defs>
        <clipPath id="clip0_475_2281">
            <rect width="294" height="60" fill="white" transform="translate(0 0.454102)"/>
        </clipPath>
    </defs>
</svg>
