<svg width="24" height="25" viewBox="0 0 24 25" fill="none" xmlns="http://www.w3.org/2000/svg">
    <path d="M13.0286 2.4541C14.1536 2.4571 14.7246 2.4631 15.2176 2.4771L15.4116 2.4841C15.6356 2.4921 15.8566 2.5021 16.1236 2.5141C17.1876 2.5641 17.9136 2.7321 18.5506 2.9791C19.2106 3.2331 19.7666 3.5771 20.3226 4.1321C20.8311 4.632 21.2245 5.23669 21.4756 5.9041C21.7226 6.5411 21.8906 7.2671 21.9406 8.3321C21.9526 8.5981 21.9626 8.8191 21.9706 9.0441L21.9766 9.2381C21.9916 9.7301 21.9976 10.3011 21.9996 11.4261L22.0006 12.1721V13.4821C22.003 14.2115 21.9954 14.9409 21.9776 15.6701L21.9716 15.8641C21.9636 16.0891 21.9536 16.3101 21.9416 16.5761C21.8916 17.6411 21.7216 18.3661 21.4756 19.0041C21.2253 19.6719 20.8317 20.2767 20.3226 20.7761C19.8225 21.2844 19.2179 21.6779 18.5506 21.9291C17.9136 22.1761 17.1876 22.3441 16.1236 22.3941C15.8863 22.4053 15.649 22.4153 15.4116 22.4241L15.2176 22.4301C14.7246 22.4441 14.1536 22.4511 13.0286 22.4531L12.2826 22.4541H10.9736C10.2438 22.4566 9.5141 22.449 8.78458 22.4311L8.59058 22.4251C8.35319 22.4161 8.11585 22.4058 7.87858 22.3941C6.81458 22.3441 6.08858 22.1761 5.45058 21.9291C4.78325 21.6785 4.17879 21.285 3.67958 20.7761C3.17062 20.2764 2.7768 19.6717 2.52558 19.0041C2.27858 18.3671 2.11058 17.6411 2.06058 16.5761C2.04944 16.3388 2.03944 16.1015 2.03058 15.8641L2.02558 15.6701C2.00715 14.9409 1.99881 14.2115 2.00058 13.4821V11.4261C1.99779 10.6967 2.00512 9.9673 2.02258 9.2381L2.02958 9.0441C2.03758 8.8191 2.04758 8.5981 2.05958 8.3321C2.10958 7.2671 2.27758 6.5421 2.52458 5.9041C2.77569 5.23601 3.1703 4.63112 3.68058 4.1321C4.17967 3.62358 4.78372 3.23009 5.45058 2.9791C6.08858 2.7321 6.81358 2.5641 7.87858 2.5141C8.14458 2.5021 8.36658 2.4921 8.59058 2.4841L8.78458 2.4781C9.51377 2.46033 10.2432 2.45267 10.9726 2.4551L13.0286 2.4541ZM12.0006 7.4541C10.6745 7.4541 9.40273 7.98089 8.46504 8.91857C7.52736 9.85625 7.00058 11.128 7.00058 12.4541C7.00058 13.7802 7.52736 15.052 8.46504 15.9896C9.40273 16.9273 10.6745 17.4541 12.0006 17.4541C13.3267 17.4541 14.5984 16.9273 15.5361 15.9896C16.4738 15.052 17.0006 13.7802 17.0006 12.4541C17.0006 11.128 16.4738 9.85625 15.5361 8.91857C14.5984 7.98089 13.3267 7.4541 12.0006 7.4541ZM12.0006 9.4541C12.3945 9.45404 12.7847 9.53157 13.1487 9.68227C13.5127 9.83298 13.8434 10.0539 14.122 10.3324C14.4007 10.611 14.6217 10.9416 14.7725 11.3056C14.9233 11.6695 15.001 12.0596 15.0011 12.4536C15.0011 12.8476 14.9236 13.2377 14.7729 13.6017C14.6222 13.9657 14.4013 14.2964 14.1228 14.5751C13.8442 14.8537 13.5135 15.0747 13.1496 15.2255C12.7856 15.3764 12.3955 15.454 12.0016 15.4541C11.2059 15.4541 10.4429 15.138 9.88026 14.5754C9.31765 14.0128 9.00158 13.2498 9.00158 12.4541C9.00158 11.6585 9.31765 10.8954 9.88026 10.3328C10.4429 9.77017 11.2059 9.4541 12.0016 9.4541M17.2516 5.9541C16.9201 5.9541 16.6021 6.0858 16.3677 6.32022C16.1333 6.55464 16.0016 6.87258 16.0016 7.2041C16.0016 7.53562 16.1333 7.85356 16.3677 8.08799C16.6021 8.32241 16.9201 8.4541 17.2516 8.4541C17.5831 8.4541 17.901 8.32241 18.1355 8.08799C18.3699 7.85356 18.5016 7.53562 18.5016 7.2041C18.5016 6.87258 18.3699 6.55464 18.1355 6.32022C17.901 6.0858 17.5831 5.9541 17.2516 5.9541Z" fill="white"/>
</svg>
