<svg width="21" height="21" viewBox="0 0 21 21" fill="none" xmlns="http://www.w3.org/2000/svg">
<g clip-path="url(#clip0_475_2523)">
<path d="M0.699219 2.07996C0.699219 1.28871 1.35672 0.647461 2.16797 0.647461H19.2305C20.0417 0.647461 20.6992 1.28871 20.6992 2.07996V19.215C20.6992 20.0062 20.0417 20.6475 19.2305 20.6475H2.16797C1.35672 20.6475 0.699219 20.0062 0.699219 19.215V2.07996ZM6.87797 17.39V8.35871H3.87672V17.39H6.87797ZM5.37797 7.12496C6.42422 7.12496 7.07547 6.43246 7.07547 5.56496C7.05672 4.67871 6.42547 4.00496 5.39797 4.00496C4.37047 4.00496 3.69922 4.67996 3.69922 5.56496C3.69922 6.43246 4.35047 7.12496 5.35797 7.12496H5.37797ZM11.513 17.39V12.3462C11.513 12.0762 11.533 11.8062 11.613 11.6137C11.8292 11.075 12.323 10.5162 13.153 10.5162C14.2392 10.5162 14.673 11.3437 14.673 12.5587V17.39H17.6742V12.21C17.6742 9.43496 16.1942 8.14496 14.2192 8.14496C12.6267 8.14496 11.913 9.01996 11.513 9.63621V9.66746H11.493L11.513 9.63621V8.35871H8.51297C8.55047 9.20621 8.51297 17.39 8.51297 17.39H11.513Z" fill="#464444"/>
</g>
<defs>
<clipPath id="clip0_475_2523">
<rect width="20" height="20" fill="white" transform="translate(0.699219 0.647461)"/>
</clipPath>
</defs>
</svg>
