<svg width="20" height="21" viewBox="0 0 20 21" fill="none" xmlns="http://www.w3.org/2000/svg">
    <g clip-path="url(#clip0_475_2301)">
        <path d="M0 1.8866C0 1.09535 0.6575 0.454102 1.46875 0.454102H18.5312C19.3425 0.454102 20 1.09535 20 1.8866V19.0216C20 19.8129 19.3425 20.4541 18.5312 20.4541H1.46875C0.6575 20.4541 0 19.8129 0 19.0216V1.8866ZM6.17875 17.1966V8.16535H3.1775V17.1966H6.17875ZM4.67875 6.9316C5.725 6.9316 6.37625 6.2391 6.37625 5.3716C6.3575 4.48535 5.72625 3.8116 4.69875 3.8116C3.67125 3.8116 3 4.4866 3 5.3716C3 6.2391 3.65125 6.9316 4.65875 6.9316H4.67875ZM10.8138 17.1966V12.1529C10.8138 11.8829 10.8337 11.6129 10.9137 11.4204C11.13 10.8816 11.6238 10.3229 12.4538 10.3229C13.54 10.3229 13.9738 11.1504 13.9738 12.3654V17.1966H16.975V12.0166C16.975 9.2416 15.495 7.9516 13.52 7.9516C11.9275 7.9516 11.2137 8.8266 10.8138 9.44285V9.4741H10.7938L10.8138 9.44285V8.16535H7.81375C7.85125 9.01285 7.81375 17.1966 7.81375 17.1966H10.8138Z" fill="white"/>
    </g>
    <defs>
        <clipPath id="clip0_475_2301">
            <rect width="20" height="20" fill="white" transform="translate(0 0.454102)"/>
        </clipPath>
    </defs>
</svg>
