<svg xmlns="http://www.w3.org/2000/svg" width="52" height="49" viewBox="0 0 52 49" fill="none">
  <path d="M-7.5188e-05 28.6108C-7.5188e-05 35.942 2.79004 43.2713 8.37027 48.8515L8.64829 48.5735C-2.35836 37.5668 -2.35836 19.6569 8.64829 8.64823C19.6549 -2.35843 37.5669 -2.35843 48.5735 8.64823L48.8516 8.3702C37.6911 -2.79025 19.5307 -2.79025 8.3683 8.3702C2.79004 13.9504 -7.5188e-05 21.2816 -7.5188e-05 28.6108Z" fill="#28C6B9"/>
  <path d="M2.10239 28.6105C2.10239 35.6913 4.86095 42.3482 9.86738 47.3566L10.1454 47.0785C5.21193 42.1451 2.49675 35.5868 2.49675 28.6125C2.49675 21.6363 5.21391 15.078 10.1454 10.1465C15.0789 5.21304 21.6371 2.49785 28.6114 2.49785C35.5877 2.49785 42.1459 5.21501 47.0774 10.1465L47.3555 9.86848C42.349 4.86205 35.6902 2.10349 28.6095 2.10349C21.5287 2.10349 14.8718 4.86205 9.86344 9.86848C4.86095 14.8729 2.10239 21.5298 2.10239 28.6105Z" fill="#F2AD3D"/>
  <path d="M4.23045 28.6108C4.23045 34.8575 6.60845 41.1042 11.3645 45.8602L11.6425 45.5821C2.28427 36.2239 2.28427 20.9976 11.6425 11.6394C21.0007 2.28115 36.227 2.28115 45.5853 11.6394L45.8633 11.3614C36.3513 1.84933 20.8745 1.84933 11.3645 11.3614C6.60845 16.1174 4.23045 22.3641 4.23045 28.6108Z" fill="#864F7F"/>
  <path d="M6.34281 28.6111C6.34281 34.3155 8.51377 40.0219 12.8577 44.3658L13.1357 44.0878C4.6017 35.5538 4.6017 21.6703 13.1357 13.1383C21.6697 4.60426 35.5532 4.60426 44.0853 13.1383L44.3633 12.8602C35.6775 4.1744 21.5415 4.1744 12.8557 12.8602C8.51377 17.2002 6.34281 22.9066 6.34281 28.6111Z" fill="#F2AD3D"/>
  <path d="M8.45708 28.6108C8.45708 33.775 10.423 38.9391 14.3528 42.869L14.6308 42.5909C6.92301 34.8831 6.92301 22.3404 14.6308 14.6326C18.3654 10.898 23.3305 8.8414 28.611 8.8414C33.8915 8.8414 38.8565 10.898 42.5911 14.6326L42.8691 14.3546C39.0616 10.545 33.996 8.44901 28.611 8.44901C23.2259 8.44901 18.1604 10.547 14.3528 14.3546C10.423 18.2844 8.45708 23.4466 8.45708 28.6108Z" fill="#28C6B9"/>
  <path d="M51.7598 16.3458L50.624 17.4836H51.7598V16.3458Z" fill="#28C6B9"/>
  <path d="M51.7598 14.2399L48.5161 17.4836H49.6519L51.7598 15.3757V14.2399Z" fill="#28C6B9"/>
  <path d="M51.7598 7.9341L42.2123 17.4836H43.3303L51.7598 9.05409V7.9341Z" fill="#28C6B9"/>
  <path d="M51.7598 10.0242L44.3024 17.4836H45.4381L51.7598 11.16V10.0242Z" fill="#28C6B9"/>
  <path d="M51.7598 12.1321L46.4083 17.4836H47.546L51.7598 13.2678V12.1321Z" fill="#28C6B9"/>
</svg>