<svg width="53" height="52" viewBox="0 0 53 52" fill="none" xmlns="http://www.w3.org/2000/svg">
<rect x="0.666504" width="52" height="52" rx="8" fill="#FFF5D3"/>
<path d="M28.6663 19.3334C29.0345 19.3334 29.333 19.0349 29.333 18.6667C29.333 18.2985 29.0345 18 28.6663 18C28.2982 18 27.9997 18.2985 27.9997 18.6667C27.9997 19.0349 28.2982 19.3334 28.6663 19.3334Z" fill="black"/>
<path d="M33.9997 24.6667C34.3679 24.6667 34.6663 24.3682 34.6663 24C34.6663 23.6318 34.3679 23.3334 33.9997 23.3334C33.6315 23.3334 33.333 23.6318 33.333 24C33.333 24.3682 33.6315 24.6667 33.9997 24.6667Z" fill="black"/>
<path d="M19.333 27.3334C19.7012 27.3334 19.9997 27.0349 19.9997 26.6667C19.9997 26.2985 19.7012 26 19.333 26C18.9648 26 18.6663 26.2985 18.6663 26.6667C18.6663 27.0349 18.9648 27.3334 19.333 27.3334Z" fill="black"/>
<path d="M21.9997 20.6667C22.3679 20.6667 22.6663 20.3682 22.6663 20C22.6663 19.6318 22.3679 19.3334 21.9997 19.3334C21.6315 19.3334 21.333 19.6318 21.333 20C21.333 20.3682 21.6315 20.6667 21.9997 20.6667Z" fill="black"/>
<path d="M26.6663 39.3334C23.1301 39.3334 19.7387 37.9286 17.2383 35.4281C14.7378 32.9276 13.333 29.5362 13.333 26C13.333 22.4638 14.7378 19.0724 17.2383 16.5719C19.7387 14.0714 23.1301 12.6667 26.6663 12.6667C30.2026 12.6667 33.5939 13.931 36.0944 16.1814C38.5949 18.4318 39.9997 21.4841 39.9997 24.6667C39.9997 26.4348 39.2973 28.1305 38.0471 29.3807C36.7968 30.631 35.1011 31.3334 33.333 31.3334H30.333C29.8997 31.3334 29.4749 31.454 29.1063 31.6818C28.7377 31.9096 28.4398 32.2356 28.246 32.6232C28.0522 33.0108 27.9702 33.4447 28.0091 33.8762C28.048 34.3078 28.2063 34.72 28.4663 35.0667L28.8663 35.6C29.1263 35.9467 29.2847 36.3589 29.3236 36.7905C29.3625 37.2221 29.2805 37.6559 29.0867 38.0435C28.8929 38.4311 28.595 38.7571 28.2264 38.9849C27.8578 39.2127 27.433 39.3334 26.9997 39.3334H26.6663Z" stroke="black" stroke-width="2" stroke-linecap="round" stroke-linejoin="round"/>
<path d="M28.6663 19.3334C29.0345 19.3334 29.333 19.0349 29.333 18.6667C29.333 18.2985 29.0345 18 28.6663 18C28.2982 18 27.9997 18.2985 27.9997 18.6667C27.9997 19.0349 28.2982 19.3334 28.6663 19.3334Z" stroke="black" stroke-width="2" stroke-linecap="round" stroke-linejoin="round"/>
<path d="M33.9997 24.6667C34.3679 24.6667 34.6663 24.3682 34.6663 24C34.6663 23.6318 34.3679 23.3334 33.9997 23.3334C33.6315 23.3334 33.333 23.6318 33.333 24C33.333 24.3682 33.6315 24.6667 33.9997 24.6667Z" stroke="black" stroke-width="2" stroke-linecap="round" stroke-linejoin="round"/>
<path d="M19.333 27.3334C19.7012 27.3334 19.9997 27.0349 19.9997 26.6667C19.9997 26.2985 19.7012 26 19.333 26C18.9648 26 18.6663 26.2985 18.6663 26.6667C18.6663 27.0349 18.9648 27.3334 19.333 27.3334Z" stroke="black" stroke-width="2" stroke-linecap="round" stroke-linejoin="round"/>
<path d="M21.9997 20.6667C22.3679 20.6667 22.6663 20.3682 22.6663 20C22.6663 19.6318 22.3679 19.3334 21.9997 19.3334C21.6315 19.3334 21.333 19.6318 21.333 20C21.333 20.3682 21.6315 20.6667 21.9997 20.6667Z" stroke="black" stroke-width="2" stroke-linecap="round" stroke-linejoin="round"/>
</svg>
