<svg width="72" height="72" viewBox="0 0 72 72" fill="none" xmlns="http://www.w3.org/2000/svg">
<rect width="72" height="72" rx="8" fill="url(#paint0_linear_4126_2099)"/>
<rect width="72" height="72" rx="8" fill="white" fill-opacity="0.2"/>
<path d="M25.5 40.5C24.3065 40.5 23.1619 40.9741 22.318 41.818C21.4741 42.6619 21 43.8065 21 45V46.05C21 49.965 22.8 52.8 25.662 54.579C28.437 56.304 32.13 57 36 57C39.891 57 43.584 56.307 46.356 54.579C49.218 52.8 51 49.959 51 46.05V45C51 43.8065 50.5259 42.6619 49.682 41.818C48.8381 40.9741 47.6935 40.5 46.5 40.5H25.5Z" fill="url(#paint1_radial_4126_2099)"/>
<path d="M25.5 40.5C24.3065 40.5 23.1619 40.9741 22.318 41.818C21.4741 42.6619 21 43.8065 21 45V46.05C21 49.965 22.8 52.8 25.662 54.579C28.437 56.304 32.13 57 36 57C39.891 57 43.584 56.307 46.356 54.579C49.218 52.8 51 49.959 51 46.05V45C51 43.8065 50.5259 42.6619 49.682 41.818C48.8381 40.9741 47.6935 40.5 46.5 40.5H25.5Z" fill="url(#paint2_linear_4126_2099)"/>
<path d="M37.5 16.5C37.5 16.1022 37.342 15.7206 37.0607 15.4393C36.7794 15.158 36.3978 15 36 15C35.6022 15 35.2206 15.158 34.9393 15.4393C34.658 15.7206 34.5 16.1022 34.5 16.5V19.5H37.5V16.5Z" fill="url(#paint3_linear_4126_2099)"/>
<path d="M43.5 18C44.6935 18 45.8381 18.4741 46.682 19.318C47.5259 20.1619 48 21.3065 48 22.5V31.5C48 32.6935 47.5259 33.8381 46.682 34.682C45.8381 35.5259 44.6935 36 43.5 36H28.5C27.3065 36 26.1619 35.5259 25.318 34.682C24.4741 33.8381 24 32.6935 24 31.5V22.5C24 21.3065 24.4741 20.1619 25.318 19.318C26.1619 18.4741 27.3065 18 28.5 18H43.5Z" fill="url(#paint4_radial_4126_2099)"/>
<path d="M40.5 24.75C39.9033 24.75 39.331 24.9871 38.909 25.409C38.4871 25.831 38.25 26.4033 38.25 27C38.25 27.5967 38.4871 28.169 38.909 28.591C39.331 29.0129 39.9033 29.25 40.5 29.25C41.0967 29.25 41.669 29.0129 42.091 28.591C42.5129 28.169 42.75 27.5967 42.75 27C42.75 26.4033 42.5129 25.831 42.091 25.409C41.669 24.9871 41.0967 24.75 40.5 24.75Z" fill="url(#paint5_linear_4126_2099)"/>
<path d="M29.25 27C29.25 26.4033 29.4871 25.831 29.909 25.409C30.331 24.9871 30.9033 24.75 31.5 24.75C32.0967 24.75 32.669 24.9871 33.091 25.409C33.5129 25.831 33.75 26.4033 33.75 27C33.75 27.5967 33.5129 28.169 33.091 28.591C32.669 29.0129 32.0967 29.25 31.5 29.25C30.9033 29.25 30.331 29.0129 29.909 28.591C29.4871 28.169 29.25 27.5967 29.25 27Z" fill="url(#paint6_linear_4126_2099)"/>
<defs>
<linearGradient id="paint0_linear_4126_2099" x1="0" y1="0" x2="66.4553" y2="72.7993" gradientUnits="userSpaceOnUse">
<stop stop-color="#E5E5E5"/>
<stop offset="1" stop-color="#FF8502" stop-opacity="0.4"/>
</linearGradient>
<radialGradient id="paint1_radial_4126_2099" cx="0" cy="0" r="1" gradientUnits="userSpaceOnUse" gradientTransform="translate(14.076 35.421) rotate(32.84) scale(42.8304 71.208)">
<stop stop-color="#F08AF4"/>
<stop offset="0.535" stop-color="#9C6CFE"/>
<stop offset="1" stop-color="#4E44DB"/>
</radialGradient>
<linearGradient id="paint2_linear_4126_2099" x1="36" y1="38.535" x2="44.097" y2="66.042" gradientUnits="userSpaceOnUse">
<stop stop-color="#885EDB" stop-opacity="0"/>
<stop offset="1" stop-color="#E362F8"/>
</linearGradient>
<linearGradient id="paint3_linear_4126_2099" x1="34.431" y1="15" x2="37.596" y2="18.687" gradientUnits="userSpaceOnUse">
<stop stop-color="#8B52F4"/>
<stop offset="1" stop-color="#3D35B1"/>
</linearGradient>
<radialGradient id="paint4_radial_4126_2099" cx="0" cy="0" r="1" gradientUnits="userSpaceOnUse" gradientTransform="translate(18.6606 9.50998) rotate(45) scale(40.4316 78.924)">
<stop stop-color="#F08AF4"/>
<stop offset="0.535" stop-color="#9C6CFE"/>
<stop offset="1" stop-color="#4E44DB"/>
</radialGradient>
<linearGradient id="paint5_linear_4126_2099" x1="39.318" y1="24.924" x2="42.729" y2="30.81" gradientUnits="userSpaceOnUse">
<stop stop-color="#FDFDFD"/>
<stop offset="1" stop-color="#F9DCFA"/>
</linearGradient>
<linearGradient id="paint6_linear_4126_2099" x1="30.318" y1="24.924" x2="33.729" y2="30.81" gradientUnits="userSpaceOnUse">
<stop stop-color="#FDFDFD"/>
<stop offset="1" stop-color="#F9DCFA"/>
</linearGradient>
</defs>
</svg>
