<svg width="72" height="72" viewBox="0 0 72 72" fill="none" xmlns="http://www.w3.org/2000/svg">
<rect width="72" height="72" rx="8" fill="url(#paint0_linear_4126_2107)"/>
<rect width="72" height="72" rx="8" fill="white" fill-opacity="0.2"/>
<path d="M55.2475 39.6973C55.6204 39.971 55.8985 40.3544 56.0429 40.7938C56.1873 41.2332 56.1908 41.7068 56.053 42.1483C55.1007 45.1875 53.4836 47.9765 51.319 50.3128C51.0061 50.6477 50.5972 50.8775 50.1484 50.9707C49.6996 51.0639 49.233 51.0159 48.8125 50.8333L45.88 49.5463C45.5596 49.4037 45.2104 49.3379 44.86 49.3543C44.5112 49.3761 44.1723 49.4788 43.87 49.6543C43.5678 49.829 43.3113 50.0729 43.1217 50.366C42.9322 50.6591 42.8149 50.993 42.7795 51.3403L42.427 54.5353C42.3763 54.9901 42.1861 55.4182 41.8827 55.7608C41.5793 56.1034 41.1774 56.3439 40.732 56.4493C37.618 57.1918 34.372 57.1918 31.258 56.4493C30.8154 56.3431 30.4161 56.1034 30.1142 55.7626C29.8124 55.4219 29.6226 54.9965 29.5705 54.5443L29.218 51.3553C29.1575 50.8117 28.8984 50.3096 28.4905 49.9453C28.1719 49.6643 27.7802 49.4793 27.3608 49.4116C26.9414 49.3439 26.5114 49.3963 26.1205 49.5628L23.188 50.8513C22.7688 51.0336 22.3034 51.082 21.8556 50.9899C21.4078 50.8979 20.9993 50.6698 20.686 50.3368C18.518 47.998 16.8987 45.2053 15.946 42.1618C15.8088 41.7208 15.8124 41.248 15.9565 40.8092C16.1007 40.3704 16.378 39.9875 16.75 39.7138L19.3375 37.8013C19.6203 37.594 19.8502 37.323 20.0087 37.0103C20.1672 36.6976 20.2498 36.3519 20.2498 36.0013C20.2498 35.6507 20.1672 35.3051 20.0087 34.9923C19.8502 34.6796 19.6203 34.4086 19.3375 34.2013L16.75 32.2918C16.3807 32.019 16.1051 31.6384 15.9611 31.2024C15.8171 30.7663 15.8118 30.2964 15.946 29.8573C16.8969 26.8156 18.5159 24.025 20.6845 21.6898C20.8945 21.4633 21.1495 21.2833 21.4345 21.1633C21.7121 21.0457 22.0106 20.9851 22.312 20.9851C22.6135 20.9851 22.9119 21.0457 23.1895 21.1633L26.11 22.4503C26.4313 22.5883 26.7805 22.6492 27.1295 22.628C27.4786 22.6068 27.8178 22.5042 28.12 22.3283C28.4223 22.1525 28.6792 21.9083 28.8701 21.6154C29.061 21.3224 29.1807 20.9888 29.2195 20.6413L29.5735 17.4583C29.6246 16.9985 29.818 16.5662 30.1267 16.2217C30.4355 15.8772 30.8441 15.6378 31.2955 15.5368C32.8459 15.1952 34.4271 15.0132 36.0145 14.9938C37.5925 15.0118 39.1645 15.1933 40.705 15.5368C41.1569 15.6383 41.5657 15.8785 41.8742 16.2239C42.1827 16.5692 42.3755 17.0024 42.4255 17.4628L42.7795 20.6428C42.8171 20.9898 42.9357 21.3231 43.1259 21.6157C43.3161 21.9084 43.5724 22.1522 43.8743 22.3274C44.1761 22.5027 44.5149 22.6044 44.8634 22.6245C45.2118 22.6445 45.5601 22.5823 45.88 22.4428L48.799 21.1573C49.2199 20.9735 49.6873 20.9247 50.137 21.0176C50.5868 21.1106 50.9966 21.3407 51.31 21.6763C53.4787 24.0081 55.0969 26.7965 56.0455 29.8363C56.182 30.277 56.1777 30.7493 56.0334 31.1875C55.889 31.6257 55.6117 32.008 55.24 32.2813L52.66 34.1908C52.3762 34.3962 52.145 34.666 51.9853 34.9779C51.8257 35.2898 51.7422 35.6351 51.7416 35.9855C51.741 36.3359 51.8234 36.6815 51.982 36.994C52.1406 37.3064 52.3709 37.5769 52.654 37.7833L55.2475 39.6973ZM35.9995 41.9893C37.5908 41.9893 39.117 41.3572 40.2422 40.2319C41.3674 39.1067 41.9995 37.5806 41.9995 35.9893C41.9995 34.398 41.3674 32.8719 40.2422 31.7467C39.117 30.6214 37.5908 29.9893 35.9995 29.9893C34.4082 29.9893 32.8821 30.6214 31.7569 31.7467C30.6317 32.8719 29.9995 34.398 29.9995 35.9893C29.9995 37.5806 30.6317 39.1067 31.7569 40.2319C32.8821 41.3572 34.4082 41.9893 35.9995 41.9893Z" fill="url(#paint1_linear_4126_2107)"/>
<defs>
<linearGradient id="paint0_linear_4126_2107" x1="0" y1="0" x2="66.4553" y2="72.7993" gradientUnits="userSpaceOnUse">
<stop stop-color="#E5E5E5"/>
<stop offset="1" stop-color="#FF8502" stop-opacity="0.4"/>
</linearGradient>
<linearGradient id="paint1_linear_4126_2107" x1="46.075" y1="55.3798" x2="22.588" y2="18.7738" gradientUnits="userSpaceOnUse">
<stop stop-color="#70777D"/>
<stop offset="1" stop-color="#B9C0C7"/>
</linearGradient>
</defs>
</svg>
