<svg width="53" height="52" viewBox="0 0 53 52" fill="none" xmlns="http://www.w3.org/2000/svg">
<rect x="0.333496" width="52" height="52" rx="8" fill="#FFF5D3"/>
<path d="M21.7868 28.0134L30.8935 33.32M30.8802 18.68L21.7868 23.9867M38.3335 16.6667C38.3335 18.8758 36.5426 20.6667 34.3335 20.6667C32.1244 20.6667 30.3335 18.8758 30.3335 16.6667C30.3335 14.4575 32.1244 12.6667 34.3335 12.6667C36.5426 12.6667 38.3335 14.4575 38.3335 16.6667ZM22.3335 26C22.3335 28.2092 20.5426 30 18.3335 30C16.1244 30 14.3335 28.2092 14.3335 26C14.3335 23.7909 16.1244 22 18.3335 22C20.5426 22 22.3335 23.7909 22.3335 26ZM38.3335 35.3334C38.3335 37.5425 36.5426 39.3334 34.3335 39.3334C32.1244 39.3334 30.3335 37.5425 30.3335 35.3334C30.3335 33.1242 32.1244 31.3334 34.3335 31.3334C36.5426 31.3334 38.3335 33.1242 38.3335 35.3334Z" stroke="black" stroke-width="2" stroke-linecap="round" stroke-linejoin="round"/>
</svg>
