<svg width="72" height="72" viewBox="0 0 72 72" fill="none" xmlns="http://www.w3.org/2000/svg">
<rect width="72" height="72" rx="8" fill="url(#paint0_linear_4126_2092)"/>
<rect width="72" height="72" rx="8" fill="white" fill-opacity="0.2"/>
<path fill-rule="evenodd" clip-rule="evenodd" d="M25.5 47.9998C25.5 45.6128 26.4482 43.3236 28.136 41.6358C29.8239 39.948 32.1131 38.9998 34.5 38.9998C36.8869 38.9998 39.1761 39.948 40.864 41.6358C42.5518 43.3236 43.5 45.6128 43.5 47.9998C43.5 50.3867 42.5518 52.6759 40.864 54.3637C39.1761 56.0515 36.8869 56.9998 34.5 56.9998C32.1131 56.9998 29.8239 56.0515 28.136 54.3637C26.4482 52.6759 25.5 50.3867 25.5 47.9998ZM34.5 41.9998C32.9087 41.9998 31.3826 42.6319 30.2574 43.7571C29.1321 44.8823 28.5 46.4085 28.5 47.9998C28.5 49.5911 29.1321 51.1172 30.2574 52.2424C31.3826 53.3676 32.9087 53.9998 34.5 53.9998C36.0913 53.9998 37.6174 53.3676 38.7426 52.2424C39.8679 51.1172 40.5 49.5911 40.5 47.9998C40.5 46.4085 39.8679 44.8823 38.7426 43.7571C37.6174 42.6319 36.0913 41.9998 34.5 41.9998Z" fill="url(#paint1_linear_4126_2092)"/>
<path fill-rule="evenodd" clip-rule="evenodd" d="M25.5 47.9998C25.5 45.6128 26.4482 43.3236 28.136 41.6358C29.8239 39.948 32.1131 38.9998 34.5 38.9998C36.8869 38.9998 39.1761 39.948 40.864 41.6358C42.5518 43.3236 43.5 45.6128 43.5 47.9998C43.5 50.3867 42.5518 52.6759 40.864 54.3637C39.1761 56.0515 36.8869 56.9998 34.5 56.9998C32.1131 56.9998 29.8239 56.0515 28.136 54.3637C26.4482 52.6759 25.5 50.3867 25.5 47.9998ZM34.5 41.9998C32.9087 41.9998 31.3826 42.6319 30.2574 43.7571C29.1321 44.8823 28.5 46.4085 28.5 47.9998C28.5 49.5911 29.1321 51.1172 30.2574 52.2424C31.3826 53.3676 32.9087 53.9998 34.5 53.9998C36.0913 53.9998 37.6174 53.3676 38.7426 52.2424C39.8679 51.1172 40.5 49.5911 40.5 47.9998C40.5 46.4085 39.8679 44.8823 38.7426 43.7571C37.6174 42.6319 36.0913 41.9998 34.5 41.9998Z" fill="url(#paint2_linear_4126_2092)" fill-opacity="0.8"/>
<path d="M18.9302 52.7757C19.5303 53.3738 20.2973 53.7763 21.1304 53.9305C21.9635 54.0847 22.8238 53.9834 23.5982 53.6397L50.0042 41.9668C50.6269 41.692 51.1732 41.2695 51.5957 40.736C52.0182 40.2024 52.3043 39.5738 52.429 38.9047C52.5537 38.2356 52.5133 37.5462 52.3114 36.8963C52.1095 36.2463 51.7521 35.6554 51.2702 35.1747L35.2742 19.2268C34.7912 18.7454 34.1983 18.3888 33.5467 18.1879C32.8951 17.987 32.2044 17.9478 31.5342 18.0736C30.864 18.1994 30.2346 18.4865 29.7002 18.9101C29.1658 19.3337 28.7427 19.881 28.4672 20.5048L16.8542 46.9317C16.5132 47.7036 16.4144 48.5607 16.5708 49.3898C16.7272 50.219 17.1315 50.9812 17.7302 51.5757L18.9302 52.7757Z" fill="url(#paint3_linear_4126_2092)"/>
<path d="M18.9302 52.7757C19.5303 53.3738 20.2973 53.7763 21.1304 53.9305C21.9635 54.0847 22.8238 53.9834 23.5982 53.6397L50.0042 41.9668C50.6269 41.692 51.1732 41.2695 51.5957 40.736C52.0182 40.2024 52.3043 39.5738 52.429 38.9047C52.5537 38.2356 52.5133 37.5462 52.3114 36.8963C52.1095 36.2463 51.7521 35.6554 51.2702 35.1747L35.2742 19.2268C34.7912 18.7454 34.1983 18.3888 33.5467 18.1879C32.8951 17.987 32.2044 17.9478 31.5342 18.0736C30.864 18.1994 30.2346 18.4865 29.7002 18.9101C29.1658 19.3337 28.7427 19.881 28.4672 20.5048L16.8542 46.9317C16.5132 47.7036 16.4144 48.5607 16.5708 49.3898C16.7272 50.219 17.1315 50.9812 17.7302 51.5757L18.9302 52.7757Z" fill="url(#paint4_linear_4126_2092)" fill-opacity="0.8"/>
<path d="M43.1131 15.0448C43.4989 15.1411 43.8307 15.3868 44.0355 15.7277C44.2403 16.0686 44.3013 16.4769 44.2051 16.8628L43.4551 19.8628C43.4112 20.0578 43.3288 20.2421 43.2127 20.4048C43.0965 20.5675 42.9491 20.7054 42.7789 20.8103C42.6087 20.9152 42.4193 20.985 42.2218 21.0157C42.0242 21.0464 41.8226 21.0372 41.6286 20.9888C41.4346 20.9405 41.2523 20.8538 41.0923 20.7339C40.9323 20.6141 40.7979 20.4634 40.697 20.2909C40.596 20.1183 40.5306 19.9274 40.5045 19.7292C40.4784 19.531 40.4922 19.3295 40.5451 19.1368L41.2951 16.1368C41.3915 15.7509 41.6371 15.4192 41.978 15.2144C42.3189 15.0096 42.7272 14.9486 43.1131 15.0448ZM52.0621 18.4378C52.3433 18.7191 52.5013 19.1005 52.5013 19.4983C52.5013 19.896 52.3433 20.2775 52.0621 20.5588L49.0621 23.5588C48.7808 23.8404 48.3992 23.9988 48.0012 23.9991C47.6031 23.9994 47.2213 23.8415 46.9396 23.5603C46.6579 23.279 46.4996 22.8974 46.4993 22.4993C46.499 22.1013 46.6568 21.7194 46.9381 21.4378L49.9381 18.4378C50.0774 18.2981 50.243 18.1872 50.4252 18.1116C50.6074 18.036 50.8028 17.9971 51.0001 17.9971C51.1974 17.9971 51.3928 18.036 51.575 18.1116C51.7572 18.1872 51.9228 18.2981 52.0621 18.4378ZM54.0001 26.9998H51.0001C50.6023 26.9998 50.2207 27.1578 49.9394 27.4391C49.6581 27.7204 49.5001 28.1019 49.5001 28.4998C49.5001 28.8976 49.6581 29.2791 49.9394 29.5604C50.2207 29.8417 50.6023 29.9998 51.0001 29.9998H54.0001C54.3979 29.9998 54.7795 29.8417 55.0608 29.5604C55.3421 29.2791 55.5001 28.8976 55.5001 28.4998C55.5001 28.1019 55.3421 27.7204 55.0608 27.4391C54.7795 27.1578 54.3979 26.9998 54.0001 26.9998Z" fill="url(#paint5_radial_4126_2092)"/>
<defs>
<linearGradient id="paint0_linear_4126_2092" x1="0" y1="0" x2="66.4553" y2="72.7993" gradientUnits="userSpaceOnUse">
<stop stop-color="#E5E5E5"/>
<stop offset="1" stop-color="#FF8502" stop-opacity="0.4"/>
</linearGradient>
<linearGradient id="paint1_linear_4126_2092" x1="47.358" y1="68.5708" x2="39.609" y2="49.5388" gradientUnits="userSpaceOnUse">
<stop stop-color="#43E5CA"/>
<stop offset="1" stop-color="#0C74A1"/>
</linearGradient>
<linearGradient id="paint2_linear_4126_2092" x1="30.642" y1="41.5708" x2="38.364" y2="60.8548" gradientUnits="userSpaceOnUse">
<stop offset="0.08" stop-color="#E362F8"/>
<stop offset="0.656" stop-color="#9966FF" stop-opacity="0"/>
</linearGradient>
<linearGradient id="paint3_linear_4126_2092" x1="17.7872" y1="24.7498" x2="42.6302" y2="50.5617" gradientUnits="userSpaceOnUse">
<stop stop-color="#43E5CA"/>
<stop offset="1" stop-color="#1384B1"/>
</linearGradient>
<linearGradient id="paint4_linear_4126_2092" x1="34.5032" y1="38.2467" x2="50.2592" y2="64.1217" gradientUnits="userSpaceOnUse">
<stop stop-color="#9966FF" stop-opacity="0"/>
<stop offset="0.63" stop-color="#E362F8"/>
</linearGradient>
<radialGradient id="paint5_radial_4126_2092" cx="0" cy="0" r="1" gradientUnits="userSpaceOnUse" gradientTransform="translate(24.9231 45.5772) rotate(-45.001) scale(45.6891 45.7209)">
<stop offset="0.623" stop-color="#FB5937"/>
<stop offset="0.935" stop-color="#FFA43D"/>
</radialGradient>
</defs>
</svg>
