<svg width="53" height="52" viewBox="0 0 53 52" fill="none" xmlns="http://www.w3.org/2000/svg">
<rect x="0.666504" width="52" height="52" rx="8" fill="#FFF5D3"/>
<path d="M17.333 31.3333V27.3333C17.333 26.9797 17.4735 26.6405 17.7235 26.3905C17.9736 26.1404 18.3127 26 18.6663 26H34.6663C35.02 26 35.3591 26.1404 35.6091 26.3905C35.8592 26.6405 35.9997 26.9797 35.9997 27.3333V31.3333M26.6663 26V20.6666M33.333 31.3333H38.6663C39.4027 31.3333 39.9997 31.9302 39.9997 32.6666V38C39.9997 38.7363 39.4027 39.3333 38.6663 39.3333H33.333C32.5966 39.3333 31.9997 38.7363 31.9997 38V32.6666C31.9997 31.9302 32.5966 31.3333 33.333 31.3333ZM14.6663 31.3333H19.9997C20.7361 31.3333 21.333 31.9302 21.333 32.6666V38C21.333 38.7363 20.7361 39.3333 19.9997 39.3333H14.6663C13.93 39.3333 13.333 38.7363 13.333 38V32.6666C13.333 31.9302 13.93 31.3333 14.6663 31.3333ZM23.9997 12.6666H29.333C30.0694 12.6666 30.6663 13.2636 30.6663 14V19.3333C30.6663 20.0697 30.0694 20.6666 29.333 20.6666H23.9997C23.2633 20.6666 22.6663 20.0697 22.6663 19.3333V14C22.6663 13.2636 23.2633 12.6666 23.9997 12.6666Z" stroke="black" stroke-width="2" stroke-linecap="round" stroke-linejoin="round"/>
</svg>
