<svg width="67" height="55" viewBox="0 0 67 55" fill="none" xmlns="http://www.w3.org/2000/svg">
<path d="M18.9609 16.3047C19.5702 16.3047 20.1544 16.5465 20.5859 16.9766H20.5869L36.3193 32.6484L37.7314 31.2324L31.2549 24.7559L32.9287 23.0938L32.9346 23.0869C33.1146 22.9049 33.3293 22.7607 33.5654 22.6621C33.8015 22.5636 34.0548 22.5127 34.3105 22.5127C34.5665 22.5127 34.8204 22.5635 35.0566 22.6621C35.2926 22.7606 35.5066 22.9051 35.6865 23.0869L41.8066 29.207L42.5137 28.499L43.2207 27.792L37.5215 22.0928L39.5781 20.0371C39.9463 19.6726 40.4438 19.4678 40.9619 19.4678C41.4151 19.4678 41.8524 19.624 42.2012 19.9072L42.3447 20.0371L42.5859 20.2783L47.6318 25.3232L49.0459 23.9092L44.707 19.5703L45.6025 18.6758C45.9706 18.3115 46.4675 18.1075 46.9854 18.1074C47.4386 18.1074 47.8758 18.2636 48.2246 18.5469L48.3691 18.6758L61.0908 31.4121V31.4131C61.6216 31.9594 62.0876 32.5656 62.4795 33.2188V33.2178L64.6035 36.7627V36.7637C65.2873 37.9074 65.6779 39.1997 65.748 40.5264L53.4053 52.8096L48.0537 53.1104C46.5612 53.1908 45.0727 52.9112 43.7129 52.2979L43.4424 52.1709L30.0186 45.5566C29.9403 45.4558 29.8312 45.3086 29.71 45.127C29.4588 44.7507 29.1776 44.2576 29.0029 43.7422C28.8257 43.2192 28.7886 42.7652 28.8984 42.4043C28.9952 42.0866 29.249 41.6968 29.9746 41.3525C30.5616 41.1097 31.1957 41.0022 31.8301 41.0381C32.4729 41.0745 33.0996 41.2571 33.6611 41.5723L33.6748 41.5801L38.7354 44.3164L39.918 42.7295L17.3486 20.1602C16.9346 19.731 16.7031 19.1578 16.7031 18.5615C16.7032 17.9679 16.9323 17.3972 17.3428 16.9688C17.7736 16.5432 18.3551 16.3047 18.9609 16.3047Z" stroke="#864F7F" stroke-width="2"/>
<path d="M11.7647 12.7975C11.5624 12.7967 11.3623 12.7557 11.176 12.677C10.9897 12.5982 10.8208 12.4833 10.6792 12.3388L6.01608 7.6757C5.7656 7.38323 5.63472 7.007 5.64958 6.62221C5.66444 6.23743 5.82395 5.87243 6.09624 5.60014C6.36852 5.32785 6.73354 5.16835 7.11833 5.15348C7.50311 5.13862 7.87934 5.26949 8.17182 5.51996L12.8502 10.1831C13.135 10.4695 13.2948 10.857 13.2948 11.261C13.2948 11.6649 13.135 12.0524 12.8502 12.3388C12.7086 12.4833 12.5398 12.5982 12.3534 12.677C12.1671 12.7557 11.967 12.7967 11.7647 12.7975Z" fill="#864F7F"/>
<path d="M8.61841 20.3644H2.02889C1.6234 20.3644 1.23452 20.2033 0.947801 19.9166C0.661078 19.6299 0.5 19.241 0.5 18.8355C0.5 18.43 0.661078 18.0412 0.947801 17.7544C1.23452 17.4677 1.6234 17.3066 2.02889 17.3066H8.61841C9.0239 17.3066 9.41278 17.4677 9.69951 17.7544C9.98623 18.0412 10.1473 18.43 10.1473 18.8355C10.1473 19.241 9.98623 19.6299 9.69951 19.9166C9.41278 20.2033 9.0239 20.3644 8.61841 20.3644Z" fill="#864F7F"/>
<path d="M26.8898 12.7962C26.5892 12.7949 26.2957 12.7052 26.0459 12.538C25.7961 12.3709 25.6011 12.1338 25.4853 11.8565C25.3695 11.5792 25.3379 11.2739 25.3947 10.9787C25.4514 10.6836 25.5939 10.4117 25.8043 10.1971L30.4827 5.51864C30.6248 5.37534 30.7939 5.2616 30.9802 5.18398C31.1665 5.10636 31.3663 5.06641 31.5682 5.06641C31.77 5.06641 31.9698 5.10636 32.1561 5.18398C32.3425 5.2616 32.5116 5.37534 32.6537 5.51864C32.9384 5.8051 33.0983 6.1926 33.0983 6.59651C33.0983 7.00042 32.9384 7.38793 32.6537 7.67438L27.9753 12.3528C27.8324 12.4945 27.663 12.6066 27.4767 12.6827C27.2904 12.7588 27.091 12.7973 26.8898 12.7962Z" fill="#864F7F"/>
<path d="M7.10417 32.5968C6.8005 32.5986 6.50318 32.5099 6.25012 32.342C5.99706 32.1742 5.79972 31.9347 5.68327 31.6543C5.56682 31.3738 5.53655 31.065 5.59628 30.7672C5.65601 30.4695 5.80306 30.1963 6.01867 29.9824L10.6054 25.3958C10.8918 25.111 11.2793 24.9512 11.6832 24.9512C12.0871 24.9512 12.4746 25.111 12.7611 25.3958C13.0459 25.6822 13.2057 26.0697 13.2057 26.4736C13.2057 26.8775 13.0459 27.265 12.7611 27.5515L8.17442 32.2146C7.88004 32.4748 7.49678 32.6117 7.10417 32.5968Z" fill="#864F7F"/>
<path d="M19.318 9.66261C18.9125 9.66261 18.5236 9.50154 18.2369 9.21481C17.9501 8.92809 17.7891 8.53921 17.7891 8.13372V1.52889C17.7891 1.12341 17.9501 0.734548 18.2369 0.447825C18.5236 0.161101 18.9125 0 19.318 0C19.7234 0 20.1123 0.161101 20.399 0.447825C20.6858 0.734548 20.8468 1.12341 20.8468 1.52889V8.13372C20.8468 8.53921 20.6858 8.92809 20.399 9.21481C20.1123 9.50154 19.7234 9.66261 19.318 9.66261Z" fill="#864F7F"/>
</svg>
