<svg width="851" height="187" viewBox="0 0 851 187" fill="none" xmlns="http://www.w3.org/2000/svg">
<path d="M590.983 0.0356938C405.605 -2.76431 157.563 159.869 56.7148 241.536H898.498V105.035C873.235 71.202 776.362 2.83569 590.983 0.0356938Z" fill="#AAEEE8" fill-opacity="0.8"/>
<path d="M404.613 88.0353C264.957 92.8353 98.34 174.035 32.4883 214.035H871.166V44.0352C865.367 85.0352 830.164 168.935 735.735 176.535C617.699 186.035 579.182 82.0353 404.613 88.0353Z" fill="#55DDD2"/>
<path d="M536.317 129.533C485.127 122.733 294.654 182.7 205.816 213.533L643.792 196.033C629.297 176.7 587.508 136.333 536.317 129.533Z" fill="#21A69B"/>
<path d="M157.358 158.035C99.7064 150.435 16.5428 65.2018 -17.8327 23.5352L-31.5 201.035C116.77 202.868 405.979 201.935 376.656 183.535C340.003 160.535 229.422 167.535 157.358 158.035Z" fill="#F2AD3D"/>
</svg>
