<svg width="251" height="360" viewBox="0 0 251 360" fill="none" xmlns="http://www.w3.org/2000/svg">
<rect x="143.5" y="82" width="60" height="60" rx="30" fill="black"/>
<mask id="mask0_0_1" style="mask-type:luminance" maskUnits="userSpaceOnUse" x="155" y="94" width="37" height="36">
<path d="M155.5 94H191.5V130H155.5V94Z" fill="white"/>
</mask>
<g mask="url(#mask0_0_1)">
<path d="M183.85 95.6875H189.371L177.311 109.506L191.5 128.314H180.391L171.685 116.91L161.733 128.314H156.207L169.105 113.528L155.5 95.6901H166.891L174.75 106.112L183.85 95.6875ZM181.909 125.002H184.969L165.22 98.8272H161.939L181.909 125.002Z" fill="white"/>
</g>
<rect x="192.5" y="144" width="55.5" height="55.5" rx="27.75" fill="url(#paint0_linear_0_1)"/>
<path d="M231.125 154.95C231.125 154.687 231.021 154.436 230.835 154.25C230.65 154.065 230.399 153.961 230.136 153.961H225.193C222.704 153.837 220.267 154.703 218.415 156.37C216.562 158.038 215.445 160.37 215.307 162.859V168.197H210.364C210.101 168.197 209.85 168.301 209.665 168.487C209.479 168.672 209.375 168.924 209.375 169.186V174.327C209.375 174.589 209.479 174.84 209.665 175.026C209.85 175.211 210.101 175.315 210.364 175.315H215.307V188.563C215.307 188.825 215.411 189.077 215.596 189.262C215.782 189.448 216.033 189.552 216.295 189.552H222.227C222.489 189.552 222.741 189.448 222.926 189.262C223.112 189.077 223.216 188.825 223.216 188.563V175.315H228.396C228.616 175.319 228.831 175.248 229.006 175.116C229.182 174.983 229.308 174.796 229.365 174.584L230.789 169.443C230.828 169.297 230.833 169.144 230.804 168.995C230.775 168.847 230.712 168.707 230.621 168.587C230.529 168.466 230.411 168.369 230.275 168.301C230.14 168.234 229.991 168.198 229.84 168.197H223.216V162.859C223.265 162.369 223.495 161.916 223.861 161.587C224.226 161.258 224.701 161.077 225.193 161.079H230.136C230.399 161.079 230.65 160.975 230.835 160.79C231.021 160.604 231.125 160.353 231.125 160.09V154.95Z" fill="white"/>
<rect x="199.5" y="226" width="51" height="51" rx="25.5" fill="black"/>
<path d="M231.902 242.23C230.877 241.059 230.312 239.556 230.312 238H225.677V256.6C225.642 257.607 225.217 258.561 224.493 259.26C223.768 259.96 222.8 260.351 221.792 260.35C219.662 260.35 217.892 258.61 217.892 256.45C217.892 253.87 220.382 251.935 222.947 252.73V247.99C217.772 247.3 213.242 251.32 213.242 256.45C213.242 261.445 217.382 265 221.777 265C226.487 265 230.312 261.175 230.312 256.45V247.015C232.192 248.365 234.448 249.089 236.762 249.085V244.45C236.762 244.45 233.942 244.585 231.902 242.23Z" fill="white"/>
<rect x="120.5" y="11" width="54" height="54" rx="27" fill="url(#paint1_linear_0_1)"/>
<path d="M141.2 23H153.8C158.6 23 162.5 26.9 162.5 31.7V44.3C162.5 46.6074 161.583 48.8203 159.952 50.4518C158.32 52.0834 156.107 53 153.8 53H141.2C136.4 53 132.5 49.1 132.5 44.3V31.7C132.5 29.3926 133.417 27.1797 135.048 25.5482C136.68 23.9166 138.893 23 141.2 23ZM140.9 26C139.468 26 138.094 26.5689 137.082 27.5816C136.069 28.5943 135.5 29.9678 135.5 31.4V44.6C135.5 47.585 137.915 50 140.9 50H154.1C155.532 50 156.906 49.4311 157.918 48.4184C158.931 47.4057 159.5 46.0322 159.5 44.6V31.4C159.5 28.415 157.085 26 154.1 26H140.9ZM155.375 28.25C155.872 28.25 156.349 28.4475 156.701 28.7992C157.052 29.1508 157.25 29.6277 157.25 30.125C157.25 30.6223 157.052 31.0992 156.701 31.4508C156.349 31.8025 155.872 32 155.375 32C154.878 32 154.401 31.8025 154.049 31.4508C153.698 31.0992 153.5 30.6223 153.5 30.125C153.5 29.6277 153.698 29.1508 154.049 28.7992C154.401 28.4475 154.878 28.25 155.375 28.25ZM147.5 30.5C149.489 30.5 151.397 31.2902 152.803 32.6967C154.21 34.1032 155 36.0109 155 38C155 39.9891 154.21 41.8968 152.803 43.3033C151.397 44.7098 149.489 45.5 147.5 45.5C145.511 45.5 143.603 44.7098 142.197 43.3033C140.79 41.8968 140 39.9891 140 38C140 36.0109 140.79 34.1032 142.197 32.6967C143.603 31.2902 145.511 30.5 147.5 30.5ZM147.5 33.5C146.307 33.5 145.162 33.9741 144.318 34.818C143.474 35.6619 143 36.8065 143 38C143 39.1935 143.474 40.3381 144.318 41.182C145.162 42.0259 146.307 42.5 147.5 42.5C148.693 42.5 149.838 42.0259 150.682 41.182C151.526 40.3381 152 39.1935 152 38C152 36.8065 151.526 35.6619 150.682 34.818C149.838 33.9741 148.693 33.5 147.5 33.5Z" fill="white"/>
<rect x="76.5" y="74" width="55.5" height="55.5" rx="27.75" fill="url(#paint2_linear_0_1)"/>
<path d="M115.152 91.7411C113.157 90.8111 110.997 90.1361 108.747 89.7461C108.708 89.7467 108.67 89.7628 108.642 89.7911C108.372 90.2861 108.057 90.9311 107.847 91.4261C105.461 91.0663 103.034 91.0663 100.647 91.4261C100.437 90.9161 100.122 90.2861 99.8372 89.7911C99.8222 89.7611 99.7772 89.7461 99.7322 89.7461C97.4822 90.1361 95.3372 90.8111 93.3272 91.7411C93.3122 91.7411 93.2972 91.7561 93.2822 91.7711C89.2022 97.8761 88.0772 103.816 88.6322 109.696C88.6322 109.726 88.6472 109.756 88.6772 109.771C91.3772 111.751 93.9722 112.951 96.5372 113.746C96.5822 113.761 96.6272 113.746 96.6422 113.716C97.2422 112.891 97.7822 112.021 98.2472 111.106C98.2772 111.046 98.2472 110.986 98.1872 110.971C97.3322 110.641 96.5222 110.251 95.7272 109.801C95.6672 109.771 95.6672 109.681 95.7122 109.636C95.8772 109.516 96.0422 109.381 96.2072 109.261C96.2372 109.231 96.2822 109.231 96.3122 109.246C101.472 111.601 107.037 111.601 112.137 109.246C112.167 109.231 112.212 109.231 112.242 109.261C112.407 109.396 112.572 109.516 112.737 109.651C112.797 109.696 112.797 109.786 112.722 109.816C111.942 110.281 111.117 110.656 110.262 110.986C110.202 111.001 110.187 111.076 110.202 111.121C110.682 112.036 111.222 112.906 111.807 113.731C111.852 113.746 111.897 113.761 111.942 113.746C114.522 112.951 117.117 111.751 119.817 109.771C119.847 109.756 119.862 109.726 119.862 109.696C120.522 102.901 118.767 97.0061 115.212 91.7711C115.197 91.7561 115.182 91.7411 115.152 91.7411ZM99.0272 106.111C97.4822 106.111 96.1922 104.686 96.1922 102.931C96.1922 101.176 97.4522 99.7511 99.0272 99.7511C100.617 99.7511 101.877 101.191 101.862 102.931C101.862 104.686 100.602 106.111 99.0272 106.111ZM109.482 106.111C107.937 106.111 106.647 104.686 106.647 102.931C106.647 101.176 107.907 99.7511 109.482 99.7511C111.072 99.7511 112.332 101.191 112.317 102.931C112.317 104.686 111.072 106.111 109.482 106.111Z" fill="white"/>
<rect x="195.5" y="27" width="55.5" height="55.5" rx="27.75" fill="url(#paint3_linear_0_1)"/>
<path d="M216.301 44.25C217.26 44.25 218.146 44.325 218.956 44.547C219.768 44.6955 220.432 44.9925 221.022 45.363C221.613 45.734 222.055 46.2535 222.349 46.9215C222.645 47.589 222.793 48.4065 222.793 49.296C222.793 50.3355 222.571 51.225 222.055 51.8925C221.613 52.5615 220.875 53.154 219.99 53.5995C221.244 53.9715 222.202 54.639 222.793 55.5285C223.384 56.418 223.752 57.5325 223.752 58.794C223.752 59.8335 223.53 60.723 223.161 61.4655C222.793 62.208 222.202 62.8755 221.538 63.321C220.816 63.798 220.018 64.149 219.178 64.359C218.293 64.5825 217.408 64.731 216.523 64.731H206.637V44.25H216.301ZM215.71 52.56C216.522 52.56 217.186 52.338 217.702 51.9675C218.218 51.597 218.44 50.928 218.44 50.112C218.44 49.6665 218.365 49.221 218.218 48.9255C218.071 48.63 217.849 48.405 217.555 48.183C217.255 48.0142 216.931 47.8894 216.595 47.8125C216.226 47.7375 215.859 47.7375 215.415 47.7375H211.137V52.5615L215.71 52.56ZM215.932 61.317C216.375 61.317 216.817 61.242 217.186 61.1685C217.555 61.0935 217.924 60.9465 218.218 60.723C218.518 60.5045 218.769 60.2268 218.956 59.907C219.103 59.5365 219.252 59.091 219.252 58.572C219.252 57.5325 218.956 56.79 218.367 56.271C217.776 55.8255 216.964 55.6035 216.006 55.6035H211.137V61.3185L215.932 61.317ZM230.17 61.242C230.76 61.836 231.645 62.133 232.825 62.133C233.637 62.133 234.375 61.911 234.964 61.5405C235.555 61.0945 235.924 60.649 236.071 60.204H239.686C239.095 61.9845 238.21 63.246 237.031 64.062C235.849 64.8045 234.448 65.25 232.752 65.25C231.666 65.2516 230.59 65.0501 229.579 64.656C228.669 64.3165 227.857 63.7556 227.218 63.024C226.532 62.342 226.025 61.5004 225.744 60.5745C225.375 59.61 225.226 58.572 225.226 57.384C225.226 56.271 225.375 55.233 225.744 54.267C226.098 53.3364 226.623 52.4806 227.293 51.744C227.956 51.0765 228.768 50.484 229.653 50.112C230.638 49.7165 231.69 49.5148 232.752 49.518C234.006 49.518 235.113 49.7415 236.071 50.2605C237.031 50.7795 237.768 51.3735 238.357 52.2645C238.948 53.0805 239.392 54.045 239.686 55.0845C239.833 56.1225 239.907 57.162 239.833 58.3485H229.137C229.137 59.5365 229.579 60.6495 230.17 61.2435M234.817 53.4525C234.301 52.9335 233.49 52.6365 232.53 52.6365C231.967 52.6281 231.41 52.7551 230.907 53.007C230.464 53.2305 230.17 53.5275 229.875 53.8245C229.601 54.1102 229.422 54.4722 229.359 54.8625C229.284 55.2345 229.21 55.53 229.21 55.827H235.849C235.702 54.714 235.333 53.973 234.817 53.4525ZM228.325 45.66H236.587V47.664H228.327L228.325 45.66Z" fill="white"/>
<rect x="186.5" y="304" width="55.5" height="55.5" rx="27.75" fill="url(#paint4_linear_0_1)"/>
<path d="M205.953 321.252C205.953 322.047 205.636 322.81 205.073 323.372C204.51 323.935 203.747 324.25 202.952 324.25C202.156 324.25 201.393 323.933 200.831 323.37C200.268 322.807 199.953 322.044 199.953 321.249C199.954 320.453 200.27 319.69 200.833 319.128C201.396 318.565 202.159 318.25 202.955 318.25C203.75 318.25 204.513 318.567 205.076 319.13C205.638 319.693 205.954 320.456 205.953 321.252ZM206.043 326.472H200.043V345.251H206.043V326.472ZM215.523 326.472H209.553V345.251H215.463V335.397C215.463 329.907 222.618 329.397 222.618 335.397V345.251H228.543V333.357C228.543 324.102 217.953 324.447 215.463 328.992L215.523 326.472Z" fill="white"/>
<rect x="131.5" y="249" width="55.5" height="55.5" rx="27.75" fill="url(#paint5_linear_0_1)"/>
<path d="M156.25 281.25L164.035 276.75L156.25 272.25V281.25ZM173.59 269.505C173.785 270.21 173.92 271.155 174.01 272.355C174.115 273.555 174.16 274.59 174.16 275.49L174.25 276.75C174.25 280.035 174.01 282.45 173.59 283.995C173.215 285.345 172.345 286.215 170.995 286.59C170.29 286.785 169 286.92 167.02 287.01C165.07 287.115 163.285 287.16 161.635 287.16L159.25 287.25C152.965 287.25 149.05 287.01 147.505 286.59C146.155 286.215 145.285 285.345 144.91 283.995C144.715 283.29 144.58 282.345 144.49 281.145C144.385 279.945 144.34 278.91 144.34 278.01L144.25 276.75C144.25 273.465 144.49 271.05 144.91 269.505C145.285 268.155 146.155 267.285 147.505 266.91C148.21 266.715 149.5 266.58 151.48 266.49C153.43 266.385 155.215 266.34 156.865 266.34L159.25 266.25C165.535 266.25 169.45 266.49 170.995 266.91C172.345 267.285 173.215 268.155 173.59 269.505Z" fill="white"/>
<rect x="131.5" y="175" width="55.5" height="55.5" rx="27.75" fill="url(#paint6_linear_0_1)"/>
<path d="M174.25 202.75C174.252 204.726 173.863 206.682 173.105 208.507C172.347 210.331 171.235 211.988 169.833 213.38C168.443 214.768 166.792 215.868 164.976 216.618C163.161 217.368 161.215 217.752 159.25 217.75C150.966 217.75 144.25 211.035 144.25 202.75C144.245 198.904 145.722 195.204 148.375 192.419C149.775 190.942 151.461 189.766 153.331 188.963C155.201 188.16 157.215 187.747 159.25 187.75C161.215 187.748 163.161 188.132 164.976 188.882C166.792 189.632 168.443 190.732 169.833 192.12C171.235 193.512 172.347 195.169 173.105 196.993C173.863 198.818 174.252 200.774 174.25 202.75Z" stroke="white" stroke-width="2.25" stroke-linecap="round" stroke-linejoin="round"/>
<path d="M174.251 202.75C172.063 202.75 166.025 201.925 160.621 204.297C154.751 206.875 150.501 210.874 148.648 213.36" stroke="white" stroke-width="2.25" stroke-linecap="round" stroke-linejoin="round"/>
<path d="M153.625 188.84C155.973 191.007 161.095 196.523 163 201.999C164.905 207.476 165.61 214.209 166.045 216.126" stroke="white" stroke-width="2.25" stroke-linecap="round" stroke-linejoin="round"/>
<path d="M144.367 200.876C147.201 201.047 154.701 201.201 159.501 199.151C164.301 197.101 168.432 193.331 169.848 192.135M145.377 208.461C146.699 211.66 149.082 214.306 152.127 215.954" stroke="white" stroke-width="2.25" stroke-linecap="round" stroke-linejoin="round"/>
<path d="M144.25 202.75C144.245 198.904 145.722 195.204 148.375 192.419C149.775 190.942 151.461 189.766 153.331 188.963C155.201 188.16 157.215 187.747 159.25 187.75M165.25 188.998C166.959 189.745 168.513 190.804 169.833 192.12C171.235 193.512 172.347 195.169 173.105 196.993C173.863 198.818 174.252 200.774 174.25 202.75C174.25 204.597 173.916 206.366 173.305 208M159.25 217.75C161.215 217.752 163.161 217.368 164.976 216.618C166.792 215.868 168.443 214.768 169.833 213.38" stroke="white" stroke-width="2.25" stroke-linecap="round" stroke-linejoin="round"/>
<rect x="0.5" y="60" width="55.5" height="55.5" rx="27.75" fill="url(#paint7_linear_0_1)"/>
<path d="M28.6108 73.3496C20.6908 73.3496 16.5508 78.3896 16.5508 83.9696C16.5508 86.6696 17.9908 89.3696 20.3308 90.8096C21.0508 91.1696 20.8708 90.8096 21.4108 88.6496C21.4108 88.4696 21.4108 88.2896 21.2308 88.1096C17.9908 84.1496 20.6908 76.4096 28.2508 76.4096C39.2308 76.4096 37.0708 91.5296 30.2308 91.5296C28.7908 91.7096 27.5308 90.6296 27.5308 89.1896V88.4696C28.2508 86.4896 28.7908 84.6896 28.9708 82.7096C28.9708 78.9296 23.3908 79.4696 23.3908 84.5096C23.3908 85.4096 23.5708 86.3096 23.9308 87.0296C23.9308 87.0296 22.1308 94.4096 21.7708 95.6696C21.4108 97.8296 21.5908 99.9896 21.9508 101.97C21.7708 102.15 21.9508 102.15 21.9508 102.15H22.1308C23.3908 100.35 24.4708 98.5496 25.1908 96.5696C25.3708 95.6696 26.2708 92.4296 26.2708 92.4296C27.1708 93.6896 28.7908 94.4096 30.4108 94.4096C35.9908 94.4096 39.9508 89.5496 39.9508 83.6096C39.9508 77.6696 34.9108 73.3496 28.6108 73.3496Z" fill="white"/>
<rect x="48.5" width="55.5" height="55.5" rx="27.75" fill="url(#paint8_linear_0_1)"/>
<path fill-rule="evenodd" clip-rule="evenodd" d="M88.2011 13.2992C88.5718 13.1432 88.9775 13.0894 89.376 13.1434C89.7746 13.1974 90.1513 13.3572 90.4671 13.6063C90.7829 13.8553 91.0262 14.1844 91.1717 14.5594C91.3171 14.9343 91.3594 15.3414 91.2941 15.7382L87.8921 36.3737C87.5621 38.3642 85.3781 39.5057 83.5526 38.5142C82.0256 37.6847 79.7576 36.4067 77.7176 35.0732C76.6976 34.4057 73.5731 32.2682 73.9571 30.7472C74.2871 29.4467 79.5371 24.5597 82.5371 21.6542C83.7146 20.5127 83.1776 19.8542 81.7871 20.9042C78.3341 23.5112 72.7901 27.4757 70.9571 28.5917C69.3401 29.5757 68.4971 29.7437 67.4891 29.5757C65.6501 29.2697 63.9446 28.7957 62.5526 28.2182C60.6716 27.4382 60.7631 24.8522 62.5511 24.0992L88.2011 13.2992Z" fill="white"/>
<defs>
<linearGradient id="paint0_linear_0_1" x1="205.142" y1="144" x2="234.433" y2="199.5" gradientUnits="userSpaceOnUse">
<stop stop-color="#1A66E0"/>
<stop offset="1" stop-color="#2924A6"/>
</linearGradient>
<linearGradient id="paint1_linear_0_1" x1="120.5" y1="20.5114" x2="174.5" y2="49.3523" gradientUnits="userSpaceOnUse">
<stop stop-color="#FDC652"/>
<stop offset="0.5" stop-color="#FB4185"/>
<stop offset="1" stop-color="#8043E1"/>
</linearGradient>
<linearGradient id="paint2_linear_0_1" x1="76.5" y1="83.7756" x2="132" y2="113.418" gradientUnits="userSpaceOnUse">
<stop stop-color="#555EF1"/>
<stop offset="1" stop-color="#6807D9"/>
</linearGradient>
<linearGradient id="paint3_linear_0_1" x1="195.5" y1="36.7756" x2="251" y2="66.4176" gradientUnits="userSpaceOnUse">
<stop stop-color="#0868F2"/>
<stop offset="1" stop-color="#2621A7"/>
</linearGradient>
<linearGradient id="paint4_linear_0_1" x1="186.5" y1="313.776" x2="242" y2="343.418" gradientUnits="userSpaceOnUse">
<stop stop-color="#0868F2"/>
<stop offset="1" stop-color="#2621A7"/>
</linearGradient>
<linearGradient id="paint5_linear_0_1" x1="131.5" y1="258.776" x2="187" y2="288.418" gradientUnits="userSpaceOnUse">
<stop stop-color="#F00202"/>
<stop offset="1" stop-color="#A40409"/>
</linearGradient>
<linearGradient id="paint6_linear_0_1" x1="131.5" y1="184.776" x2="187" y2="214.418" gradientUnits="userSpaceOnUse">
<stop stop-color="#FD5E98"/>
<stop offset="1" stop-color="#EA2299"/>
</linearGradient>
<linearGradient id="paint7_linear_0_1" x1="0.5" y1="69.7756" x2="56" y2="99.4176" gradientUnits="userSpaceOnUse">
<stop stop-color="#FE433D"/>
<stop offset="1" stop-color="#F50840"/>
</linearGradient>
<linearGradient id="paint8_linear_0_1" x1="48.5" y1="9.77557" x2="104" y2="39.4176" gradientUnits="userSpaceOnUse">
<stop stop-color="#38ACE8"/>
<stop offset="1" stop-color="#8B50FC"/>
</linearGradient>
</defs>
</svg>
