<svg width="151" height="31" viewBox="0 0 151 31" fill="none" xmlns="http://www.w3.org/2000/svg">
<path d="M40.0345 7.06111H46.1297C47.3794 7.06111 48.4533 7.24051 49.3513 7.59931C50.2568 7.9581 50.9527 8.48912 51.4392 9.19236C51.9256 9.8956 52.1688 10.7603 52.1688 11.7865C52.1688 12.626 52.0191 13.3472 51.7198 13.95C51.4279 14.5456 51.0126 15.0443 50.4738 15.4462C49.9425 15.8409 49.3176 16.1566 48.5992 16.3934L47.5329 16.9316H42.2346L42.2122 14.4128H46.1522C46.7434 14.4128 47.2335 14.3124 47.6227 14.1115C48.0118 13.9105 48.3036 13.6307 48.4982 13.2719C48.7003 12.9131 48.8013 12.4969 48.8013 12.0233C48.8013 11.521 48.704 11.0868 48.5094 10.7208C48.3149 10.3549 48.0193 10.075 47.6227 9.88125C47.226 9.6875 46.7284 9.59063 46.1297 9.59063H43.402V22.7333H40.0345V7.06111ZM49.1717 22.7333L45.445 15.7476L49.0033 15.726L52.7749 22.5826V22.7333H49.1717Z" fill="#28C6B9"/>
<path d="M61.1151 20.1069V14.9188C61.1151 14.5456 61.0515 14.2263 60.9243 13.9608C60.7971 13.6881 60.5988 13.4764 60.3294 13.3257C60.0675 13.175 59.727 13.0997 59.3079 13.0997C58.9487 13.0997 58.6381 13.1606 58.3762 13.2826C58.1143 13.3975 57.9123 13.5661 57.7701 13.7885C57.6279 14.0038 57.5568 14.2586 57.5568 14.5528H54.324C54.324 14.0576 54.4437 13.5876 54.6832 13.1427C54.9227 12.6978 55.2706 12.3067 55.7271 11.9694C56.1836 11.625 56.7261 11.3559 57.3547 11.1622C57.9908 10.9684 58.7017 10.8715 59.4875 10.8715C60.4304 10.8715 61.2685 11.0222 62.0019 11.3236C62.7353 11.625 63.3115 12.0771 63.7306 12.6799C64.1571 13.2826 64.3704 14.0361 64.3704 14.9403V19.924C64.3704 20.5626 64.4115 21.0865 64.4939 21.4955C64.5762 21.8973 64.6959 22.249 64.8531 22.5504V22.7333H61.5866C61.4294 22.4176 61.3097 22.0229 61.2274 21.5493C61.1525 21.0685 61.1151 20.5877 61.1151 20.1069ZM61.5417 15.6399L61.5641 17.3944H59.7569C59.3304 17.3944 58.9599 17.4411 58.6456 17.5344C58.3313 17.6277 58.0732 17.7604 57.8711 17.9326C57.669 18.0977 57.5194 18.2914 57.4221 18.5139C57.3323 18.7363 57.2874 18.9803 57.2874 19.2458C57.2874 19.5113 57.351 19.7517 57.4782 19.967C57.6054 20.1751 57.7888 20.3402 58.0282 20.4622C58.2677 20.577 58.5483 20.6344 58.8701 20.6344C59.3565 20.6344 59.7794 20.5411 60.1385 20.3545C60.4978 20.1679 60.7746 19.9383 60.9692 19.6656C61.1713 19.3929 61.276 19.1346 61.2835 18.8906L62.1366 20.2038C62.0169 20.498 61.8522 20.803 61.6427 21.1188C61.4407 21.4345 61.1825 21.7323 60.8682 22.0122C60.5539 22.2848 60.176 22.5109 59.7345 22.6903C59.2929 22.8625 58.7691 22.9486 58.1629 22.9486C57.3922 22.9486 56.6925 22.8015 56.0639 22.5073C55.4428 22.2059 54.9488 21.7933 54.5822 21.2694C54.223 20.7384 54.0434 20.1357 54.0434 19.4611C54.0434 18.8512 54.1631 18.3094 54.4026 17.8358C54.642 17.3622 54.9938 16.9639 55.4577 16.641C55.9292 16.3109 56.5166 16.0633 57.22 15.8983C57.9235 15.726 58.7392 15.6399 59.6671 15.6399H61.5417Z" fill="#28C6B9"/>
<path d="M70.0951 13.4979V22.7333H66.8511V11.0868H69.8931L70.0951 13.4979ZM69.6461 16.501H68.7481C68.7481 15.6902 68.8492 14.9439 69.0512 14.2622C69.2608 13.5733 69.5638 12.9777 69.9604 12.4753C70.3645 11.9659 70.8622 11.5712 71.4534 11.2913C72.0446 11.0115 72.7293 10.8715 73.5076 10.8715C74.0464 10.8715 74.5403 10.9505 74.9893 11.1083C75.4383 11.259 75.8237 11.4994 76.1454 11.8295C76.4747 12.1524 76.7291 12.5758 76.9087 13.0997C77.0883 13.6163 77.1781 14.237 77.1781 14.9618V22.7333H73.9453V15.3063C73.9453 14.7752 73.8705 14.3662 73.7208 14.0792C73.5712 13.7921 73.3579 13.5912 73.081 13.4764C72.8116 13.3616 72.4861 13.3042 72.1044 13.3042C71.6854 13.3042 71.3187 13.3867 71.0044 13.5517C70.6976 13.7168 70.4431 13.9464 70.2411 14.2406C70.039 14.5277 69.8894 14.8649 69.7921 15.2524C69.6948 15.6399 69.6461 16.0561 69.6461 16.501ZM76.8751 16.1458L75.7189 16.2858C75.7189 15.5251 75.8162 14.8183 76.0107 14.1653C76.2128 13.5123 76.5084 12.9382 76.8975 12.4431C77.2941 11.9479 77.7843 11.564 78.368 11.2913C78.9517 11.0115 79.6252 10.8715 80.3885 10.8715C80.9722 10.8715 81.5035 10.9541 81.9824 11.1191C82.4614 11.277 82.8692 11.5317 83.206 11.8833C83.5502 12.2278 83.8121 12.6799 83.9917 13.2396C84.1788 13.7993 84.2723 14.4846 84.2723 15.2955V22.7333H81.0283V15.2955C81.0283 14.7573 80.9535 14.3483 80.8038 14.0684C80.6616 13.7814 80.4521 13.584 80.1752 13.4764C79.9058 13.3616 79.584 13.3042 79.2099 13.3042C78.8207 13.3042 78.4802 13.3795 78.1884 13.5302C77.8965 13.6737 77.6533 13.8747 77.4588 14.133C77.2642 14.3913 77.1183 14.6927 77.021 15.0372C76.9237 15.3744 76.8751 15.744 76.8751 16.1458Z" fill="#28C6B9"/>
<path d="M90.0083 13.6271V22.7333H86.7755V11.0868H89.8175L90.0083 13.6271ZM93.6677 11.0115L93.6116 13.8854C93.4544 13.8639 93.2636 13.846 93.0391 13.8316C92.8221 13.8101 92.6238 13.7993 92.4442 13.7993C91.9877 13.7993 91.5911 13.8567 91.2543 13.9715C90.925 14.0792 90.6482 14.2406 90.4237 14.4559C90.2066 14.6712 90.042 14.9331 89.9298 15.2417C89.825 15.5502 89.7651 15.9019 89.7502 16.2965L89.0991 16.1028C89.0991 15.3493 89.1777 14.6568 89.3348 14.0253C89.492 13.3867 89.7202 12.8306 90.0196 12.3569C90.3264 11.8833 90.7006 11.5174 91.1421 11.259C91.5836 11.0007 92.0887 10.8715 92.6574 10.8715C92.837 10.8715 93.0204 10.8859 93.2075 10.9146C93.3946 10.9361 93.548 10.9684 93.6677 11.0115Z" fill="#28C6B9"/>
<path d="M94.3412 17.0285V16.8024C94.3412 15.9485 94.4684 15.1627 94.7229 14.4451C94.9773 13.7204 95.3477 13.0925 95.8341 12.5615C96.3205 12.0304 96.9192 11.6178 97.6301 11.3236C98.341 11.0222 99.1567 10.8715 100.077 10.8715C100.998 10.8715 101.817 11.0222 102.535 11.3236C103.254 11.6178 103.856 12.0304 104.343 12.5615C104.837 13.0925 105.211 13.7204 105.465 14.4451C105.72 15.1627 105.847 15.9485 105.847 16.8024V17.0285C105.847 17.8752 105.72 18.661 105.465 19.3858C105.211 20.1034 104.837 20.7313 104.343 21.2694C103.856 21.8005 103.258 22.2131 102.547 22.5073C101.836 22.8015 101.02 22.9486 100.1 22.9486C99.1792 22.9486 98.3598 22.8015 97.6414 22.5073C96.9304 22.2131 96.328 21.8005 95.8341 21.2694C95.3477 20.7313 94.9773 20.1034 94.7229 19.3858C94.4684 18.661 94.3412 17.8752 94.3412 17.0285ZM97.574 16.8024V17.0285C97.574 17.5164 97.6189 17.9721 97.7087 18.3955C97.7985 18.8189 97.9407 19.192 98.1353 19.5149C98.3373 19.8307 98.5992 20.0782 98.921 20.2576C99.2428 20.437 99.6357 20.5267 100.1 20.5267C100.549 20.5267 100.934 20.437 101.256 20.2576C101.578 20.0782 101.836 19.8307 102.03 19.5149C102.225 19.192 102.367 18.8189 102.457 18.3955C102.554 17.9721 102.603 17.5164 102.603 17.0285V16.8024C102.603 16.3288 102.554 15.8839 102.457 15.4677C102.367 15.0443 102.221 14.6712 102.019 14.3483C101.825 14.0182 101.566 13.7598 101.245 13.5733C100.923 13.3867 100.534 13.2934 100.077 13.2934C99.6207 13.2934 99.2316 13.3867 98.9098 13.5733C98.5955 13.7598 98.3373 14.0182 98.1353 14.3483C97.9407 14.6712 97.7985 15.0443 97.7087 15.4677C97.6189 15.8839 97.574 16.3288 97.574 16.8024Z" fill="#28C6B9"/>
<path d="M118.542 20.2146V22.7333H110.314V20.2146H118.542ZM111.403 7.06111V22.7333H108.036V7.06111H111.403Z" fill="#28C6B9"/>
<path d="M123.683 11.0868V22.7333H120.439V11.0868H123.683ZM120.237 8.05139C120.237 7.59931 120.402 7.22616 120.731 6.93195C121.06 6.63773 121.502 6.49063 122.056 6.49063C122.602 6.49063 123.04 6.63773 123.369 6.93195C123.706 7.22616 123.874 7.59931 123.874 8.05139C123.874 8.50347 123.706 8.87662 123.369 9.17083C123.04 9.46505 122.602 9.61215 122.056 9.61215C121.502 9.61215 121.06 9.46505 120.731 9.17083C120.402 8.87662 120.237 8.50347 120.237 8.05139Z" fill="#28C6B9"/>
<path d="M129.52 13.5733V22.7333H126.288V11.0868H129.318L129.52 13.5733ZM129.049 16.501H128.173C128.173 15.6399 128.289 14.8649 128.521 14.176C128.753 13.48 129.079 12.888 129.498 12.4C129.917 11.9049 130.415 11.5281 130.991 11.2698C131.575 11.0043 132.226 10.8715 132.944 10.8715C133.513 10.8715 134.033 10.9505 134.504 11.1083C134.976 11.2662 135.38 11.5174 135.717 11.8618C136.061 12.2063 136.323 12.6619 136.502 13.2288C136.689 13.7957 136.783 14.4882 136.783 15.3063V22.7333H133.528V15.2955C133.528 14.7788 133.453 14.377 133.303 14.0899C133.154 13.8029 132.933 13.602 132.641 13.4872C132.357 13.3652 132.005 13.3042 131.586 13.3042C131.152 13.3042 130.774 13.3867 130.452 13.5517C130.138 13.7168 129.876 13.9464 129.666 14.2406C129.464 14.5277 129.311 14.8649 129.206 15.2524C129.101 15.6399 129.049 16.0561 129.049 16.501Z" fill="#28C6B9"/>
<path d="M142.474 6.18924V22.7333H139.241V6.18924H142.474ZM150.13 11.0868L144.854 16.8563L142.025 19.601L140.846 17.3622L143.091 14.6281L146.246 11.0868H150.13ZM146.773 22.7333L143.181 17.3514L145.415 15.4785L150.5 22.7333H146.773Z" fill="#28C6B9"/>
<path d="M24.7461 15.5C24.7461 19.7802 21.1276 23.25 16.664 23.25C12.2005 23.25 8.58202 19.7802 8.58202 15.5C8.58202 11.2198 12.2005 7.75 16.664 7.75C21.1276 7.75 24.7461 11.2198 24.7461 15.5Z" fill="#864F7F"/>
<path d="M16.664 7.75C16.664 12.0302 13.0456 15.5 8.58202 15.5C4.11844 15.5 0.5 12.0302 0.5 7.75C0.5 3.46979 4.11844 0 8.58202 0C13.0456 0 16.664 3.46979 16.664 7.75Z" fill="#28C6B9"/>
<path d="M32.8281 7.75C32.8281 12.0302 29.2096 15.5 24.7461 15.5C20.2825 15.5 16.664 12.0302 16.664 7.75C16.664 3.46979 20.2825 0 24.7461 0C29.2096 0 32.8281 3.46979 32.8281 7.75Z" fill="#F2AD3D"/>
<path d="M32.8281 23.25C32.8281 27.5302 29.2096 31 24.7461 31C20.2825 31 16.664 27.5302 16.664 23.25C16.664 18.9698 20.2825 15.5 24.7461 15.5C29.2096 15.5 32.8281 18.9698 32.8281 23.25Z" fill="#28C6B9"/>
<path d="M16.664 23.25C16.664 27.5302 13.0456 31 8.58202 31C4.11844 31 0.5 27.5302 0.5 23.25C0.5 18.9698 4.11844 15.5 8.58202 15.5C13.0456 15.5 16.664 18.9698 16.664 23.25Z" fill="#F2AD3D"/>
</svg>
