<svg width="126" height="36" viewBox="0 0 126 36" fill="none" xmlns="http://www.w3.org/2000/svg">
<g opacity="0.5">
<path d="M65.9861 17.7L51.4842 4.02002L55.752 0L74.543 17.7L55.752 35.4L51.4842 31.36L65.9861 17.7Z" fill="#FF9D00"/>
<path d="M40.6541 17.7L26.1522 4.02002L30.42 0L49.2109 17.7L30.42 35.4L26.1522 31.36L40.6541 17.7Z" fill="#FF9D00"/>
<path d="M15.0269 17.7L0.503752 4.02002L4.79277 0L23.5625 17.7L4.79277 35.4L0.503752 31.36L15.0269 17.7Z" fill="#FF9D00"/>
<path d="M116.943 17.7L102.441 4.02002L106.709 0L125.5 17.7L106.709 35.4L102.441 31.36L116.943 17.7Z" fill="#FF9D00"/>
<path d="M91.6151 17.7L77.1131 4.02002L81.3809 0L100.172 17.7L81.3809 35.4L77.1131 31.36L91.6151 17.7Z" fill="#FF9D00"/>
</g>
</svg>
