<svg width="274" height="254" viewBox="0 0 274 254" fill="none" xmlns="http://www.w3.org/2000/svg">
<path d="M198.973 237.022C196.535 236.802 194.049 236.512 191.582 236.17L190.908 236.075L190.906 237.342L191.58 237.437C194.063 237.788 196.574 238.079 199.036 238.304L199.707 238.366L199.637 237.091L198.973 237.022ZM184.203 234.937C181.727 234.462 179.247 233.926 176.846 233.327L176.175 233.164L176.03 234.404L176.7 234.567C179.131 235.166 181.633 235.714 184.134 236.194L184.803 236.322L184.879 235.07L184.203 234.937ZM159.655 145.131L159.357 144.511L158.142 144.881L158.44 145.501C159.003 146.708 159.407 147.957 159.643 149.216C159.831 150.214 159.925 151.213 159.925 152.201L159.924 152.835L161.271 153.025L161.272 152.392C161.274 151.329 161.175 150.254 160.975 149.179C160.716 147.807 160.272 146.445 159.655 145.131ZM158.966 158.059L158.698 158.6C157.801 160.371 156.208 161.7 153.922 162.525L153.33 162.735L153.956 163.934L154.548 163.724C157.106 162.803 158.914 161.304 159.923 159.277L160.193 158.735L158.966 158.059ZM154.877 138.844C152.873 137.074 150.615 135.599 148.2 134.48L147.565 134.181L147.124 135.314L147.758 135.616C150.029 136.666 152.153 138.052 154.038 139.715L154.562 140.185L155.406 139.318L154.877 138.844ZM169.554 231.319C167.095 230.567 164.67 229.741 162.343 228.866L161.691 228.621L161.366 229.802L162.018 230.047C164.373 230.934 166.831 231.77 169.319 232.534L169.983 232.736L170.216 231.524L169.554 231.319ZM147.092 163.463C144.678 163.384 142.241 163.048 139.825 162.463L139.158 162.302L139.015 163.538L139.683 163.699C142.193 164.306 144.725 164.655 147.234 164.738L147.9 164.755L147.738 163.479L147.092 163.463ZM140.809 131.964C138.294 131.399 135.763 131.085 133.259 131.027L132.592 131.009L132.757 132.288L133.423 132.305C135.831 132.36 138.265 132.661 140.683 133.202L141.348 133.361L141.466 132.117L140.809 131.964ZM155.263 225.931C152.901 224.856 150.591 223.7 148.39 222.493L147.774 222.156L147.239 223.241L147.855 223.577C150.089 224.805 152.441 225.982 154.836 227.072L155.475 227.361L155.912 226.231L155.263 225.931ZM132.652 160.181C130.295 159.246 127.985 158.167 125.737 156.953L125.117 156.621L124.593 157.711L125.212 158.043C127.517 159.286 129.884 160.392 132.299 161.353L132.95 161.609L133.303 160.438L132.652 160.181ZM126.532 131.469L125.896 131.584C124.955 131.754 124.027 131.968 123.138 132.214C121.729 132.6 120.375 133.105 119.09 133.723L118.527 133.992L119.267 135.156L119.83 134.887C121.053 134.3 122.342 133.82 123.683 133.453C124.538 133.218 125.43 133.014 126.339 132.853L126.976 132.735L126.532 131.469ZM141.795 218.523C139.653 217.105 137.575 215.591 135.57 213.988L135.021 213.547L134.249 214.475L134.798 214.916C136.84 216.549 138.957 218.09 141.138 219.533L141.724 219.922L142.376 218.907L141.795 218.523ZM119.172 152.961C117.05 151.514 114.997 149.969 113.022 148.331L112.481 147.88L111.688 148.79L112.227 149.239C114.24 150.908 116.333 152.484 118.495 153.958L119.08 154.354L119.749 153.352L119.172 152.961ZM129.828 208.892C128.002 207.105 126.273 205.233 124.651 203.283L124.206 202.749L123.201 203.447L123.646 203.982C125.306 205.971 127.075 207.881 128.943 209.704L129.446 210.194L130.337 209.373L129.828 208.892ZM113.876 137.229L113.441 137.651C111.816 139.25 110.449 141.076 109.375 143.082L109.087 143.614L110.301 144.322L110.588 143.792C111.614 141.878 112.918 140.137 114.468 138.611L114.903 138.189L113.876 137.229ZM120.1 197.245C118.697 195.166 117.38 193.015 116.18 190.847L115.847 190.25L114.678 190.707L114.997 191.297C116.219 193.503 117.562 195.695 118.987 197.809L119.375 198.381L120.475 197.808L120.1 197.245ZM107.346 143.155C105.53 141.354 103.799 139.48 102.158 137.539L101.708 137.007L100.709 137.713L101.158 138.247C102.836 140.231 104.612 142.159 106.434 143.973L106.933 144.467L107.835 143.657L107.346 143.155ZM107.063 148.862L106.911 149.458C106.35 151.682 105.999 153.976 105.86 156.315L105.821 156.94L107.162 157.202L107.203 156.575C107.336 154.309 107.678 152.086 108.226 149.933L108.377 149.337L107.063 148.862ZM112.883 184.206C111.893 181.959 111.018 179.681 110.26 177.382L110.054 176.753L108.785 176.97L108.991 177.6C109.759 179.937 110.646 182.253 111.647 184.539L111.919 185.155L113.15 184.819L112.883 184.206ZM105.917 162.751L105.972 163.389C106.185 165.761 106.549 168.139 107.062 170.511L107.199 171.148L108.516 171.076L108.378 170.439C107.879 168.117 107.524 165.788 107.315 163.466L107.26 162.828L105.917 162.751ZM97.5381 131.524C96.1141 129.455 94.8166 127.321 93.6533 125.135L93.3383 124.539L92.1641 124.966L92.4791 125.563C93.67 127.8 94.9974 129.983 96.4533 132.101L96.8441 132.67L97.9374 132.086L97.5381 131.524ZM83.2687 68.917L83.2003 69.5307C82.9778 71.8161 82.8191 74.1471 82.7223 76.459L82.7018 77.0785L84.0447 77.3168L84.0652 76.6974C84.1589 74.4054 84.3194 72.0979 84.5314 69.8272L84.6012 69.2113L83.2687 68.917ZM82.6222 82.8334L82.6287 83.4722C82.6612 85.8418 82.7668 88.213 82.9396 90.5213L82.9866 91.1605L84.3293 91.2592L84.2808 90.6221C84.1113 88.3351 84.0074 85.9874 83.9712 83.6437L83.9672 83.0067L82.6222 82.8334ZM90.512 118.454C89.6142 116.251 88.797 113.941 88.0819 111.587L87.8892 110.955L86.6017 111.136L86.7944 111.769C87.5214 114.163 88.3546 116.513 89.2683 118.756L89.5208 119.377L90.7685 119.075L90.512 118.454ZM83.6072 96.9633L83.6962 97.6009C84.0371 100.001 84.4529 102.353 84.9597 104.698L85.0995 105.337L86.4152 105.261L86.2779 104.624C85.7763 102.308 85.364 99.9869 85.0308 97.6177L84.9394 96.9784L83.6072 96.9633Z" fill="#49263E"/>
<path d="M89.4258 61.674L90.488 54.2628C90.488 54.2628 112.432 38.8339 112.65 38.5043L120.901 26.0518L104.997 33.7924L82.4226 50.8596L89.4258 61.674Z" fill="#EF9D43"/>
<path d="M68.4515 43.3227L120.902 26.0464L82.4231 50.8568L68.4515 43.3227Z" fill="#FEC786"/>
<path d="M90.4888 54.2525L105.278 62.3244L120.901 26.0465L90.4888 54.2525Z" fill="#FEC786"/>
</svg>
