<svg width="926" height="190" viewBox="0 0 926 190" fill="none" xmlns="http://www.w3.org/2000/svg">
<path d="M925.242 169.679H0.758087V189.052H925.242V169.679Z" fill="#163152"/>
<path fill-rule="evenodd" clip-rule="evenodd" d="M89.4632 109.611H95.7796V115.035L102.398 115.035L112.621 147.873H106.305V188.843H17.2737V147.873H12.7679L23.2942 115.035L89.4632 115.035V109.611Z" fill="#163152"/>
<path fill-rule="evenodd" clip-rule="evenodd" d="M630.303 109.61H636.619V115.034H630.303V109.61ZM630.303 115.034L630.304 120.458H636.62L636.619 115.034H702.787L713.315 147.873H708.809L708.808 188.843H619.777L619.778 147.873H613.461L623.685 115.034H630.303Z" fill="#163152"/>
<path d="M636.619 115.034H630.303V120.458H636.619V115.034Z" fill="#163152"/>
<path d="M292.577 147.225L276.364 126.982V109.381H269.205V118.046L260.038 106.599L228.736 147.225H233.069V188.843H287.006V147.225H292.577Z" fill="#163152"/>
<path d="M175.88 59.0645L159.668 38.8215V21.2206H152.508V29.8857L143.341 18.439L112.039 59.0645H116.373L116.987 188.843H170.924L170.31 59.0645H175.88Z" fill="#163152"/>
<path d="M455.72 59.0645L439.508 38.8215V21.2206H432.348V29.8857L423.181 18.439L391.879 59.0645H396.213L396.835 188.843H450.764L450.149 59.0645H455.72Z" fill="#163152"/>
<path d="M731.419 41.5294L715.207 21.2946V3.68558H708.047V12.3506L698.888 0.912109L667.586 41.5294H671.92L672.534 188.843H726.471L725.848 41.5294H731.419Z" fill="#163152"/>
<path d="M228.736 147.873L218.513 115.034H150.199V109.61H143.883V115.034H139.41L128.883 147.873H133.397V188.843H222.42V147.873H228.736Z" fill="#163152"/>
<path d="M391.799 114.903L382.763 84.9694H316.063V78.2983H311.156V84.9694H305.118L295.787 114.903H299.548V188.843H387.817V114.903H391.799Z" fill="#163152"/>
<path d="M818.389 69.6253L827.417 39.6916H894.125V33.0205H899.032V39.6916H905.078L914.4 69.6253H910.64L910.525 188.843H822.256L822.37 69.6253H818.389Z" fill="#163152"/>
<path d="M822.002 114.903L812.966 84.9694H746.266V78.2983H741.351V84.9694H735.313L725.983 114.903H729.743V188.843H818.013V114.903H822.002Z" fill="#163152"/>
<path d="M554.289 114.903L545.253 84.9694H478.553V78.2983H473.638V84.9694H467.6L458.278 114.903H462.03V188.843H550.299V114.903H554.289Z" fill="#163152"/>
<path d="M620.908 107.125L604.696 86.8815V69.2807H597.536V77.9457L588.369 66.499L557.067 107.125H561.4L562.023 188.843H615.951L615.337 107.125H620.908Z" fill="#163152"/>
</svg>
