<svg width="605" height="441" viewBox="0 0 605 441" fill="none" xmlns="http://www.w3.org/2000/svg">
<g clip-path="url(#clip0_616_250)">
<path d="M56.9732 169.643C73.7027 157.341 92.1132 147.307 108.589 135.927C136.879 116.344 164.684 95.7592 191.35 73.3774C227.043 43.4276 263.242 19.5829 306.845 8.2826C355.794 -4.47734 407.425 -2.42889 455.211 14.1689L456.535 14.6297C496.453 28.733 531.277 54.395 556.578 88.3524C587.043 129.522 602.863 181.197 604.314 234.646C604.682 248.296 604.441 261.946 603.865 275.573C597.866 418.837 438.62 441.738 372.139 440.977C305.659 440.217 170.349 399.796 135.29 406.927C115.421 410.815 94.8717 409.268 75.8077 402.451C56.7438 395.633 39.8713 383.796 26.9684 368.188C-5.60403 328.516 -6.15669 264.803 14.5911 218.865C24.2857 197.404 39.7371 182.314 56.9732 169.643Z" fill="white"/>
<path d="M56.9732 169.643C73.7027 157.341 92.1132 147.307 108.589 135.927C136.879 116.344 164.684 95.7592 191.35 73.3774C227.043 43.4276 263.242 19.5829 306.845 8.2826C355.794 -4.47734 407.425 -2.42889 455.211 14.1689L456.535 14.6297C496.453 28.733 531.277 54.395 556.578 88.3524C587.043 129.522 602.863 181.197 604.314 234.646C604.682 248.296 604.441 261.946 603.865 275.573C597.866 418.837 438.62 441.738 372.139 440.977C305.659 440.217 170.349 399.796 135.29 406.927C115.421 410.815 94.8717 409.268 75.8077 402.451C56.7438 395.633 39.8713 383.796 26.9684 368.188C-5.60403 328.516 -6.15669 264.803 14.5911 218.865C24.2857 197.404 39.7371 182.314 56.9732 169.643Z" fill="#EAF4FF"/>
<path d="M490.005 49.0947H134.817V267.372H490.005V49.0947Z" fill="white" stroke="#353A3A" stroke-miterlimit="10"/>
<path d="M134.817 70.6357H490.005" stroke="#353A3A" stroke-miterlimit="10"/>
<path d="M516.199 83.0879H373.866V152.076H516.199V83.0879Z" fill="white" stroke="#353A3A" stroke-miterlimit="10"/>
<path d="M460.952 107.479H438.27C437.792 107.479 437.333 107.669 436.994 108.007C436.656 108.345 436.466 108.804 436.466 109.282V127.827C436.466 128.306 436.656 128.764 436.994 129.102C437.333 129.44 437.792 129.63 438.27 129.63H460.952C461.43 129.63 461.889 129.44 462.227 129.102C462.566 128.764 462.756 128.306 462.756 127.827V109.282C462.756 108.804 462.566 108.345 462.227 108.007C461.889 107.669 461.43 107.479 460.952 107.479ZM438.27 109.025H460.952C461.02 109.025 461.086 109.052 461.134 109.1C461.182 109.148 461.209 109.214 461.209 109.282V123.136L457.411 119.34C457.244 119.173 457.045 119.04 456.826 118.95C456.607 118.859 456.373 118.812 456.136 118.812C455.899 118.812 455.664 118.859 455.445 118.95C455.226 119.04 455.027 119.173 454.86 119.34L452.099 122.099L446.247 116.25C446.08 116.082 445.881 115.949 445.662 115.859C445.443 115.768 445.208 115.721 444.971 115.721C444.734 115.721 444.5 115.768 444.281 115.859C444.062 115.949 443.863 116.082 443.696 116.25L438.012 121.929V109.282C438.012 109.214 438.039 109.148 438.088 109.1C438.136 109.052 438.202 109.025 438.27 109.025ZM438.012 127.827V124.114L444.788 117.343C444.812 117.319 444.841 117.3 444.872 117.287C444.904 117.273 444.937 117.267 444.971 117.267C445.005 117.267 445.039 117.273 445.071 117.287C445.102 117.3 445.13 117.319 445.154 117.343L455.904 128.085H438.27C438.202 128.085 438.136 128.058 438.088 128.01C438.039 127.961 438.012 127.896 438.012 127.827ZM460.952 128.085H458.091L453.193 123.191L455.953 120.433C455.977 120.409 456.005 120.39 456.036 120.377C456.068 120.364 456.101 120.357 456.135 120.357C456.169 120.357 456.202 120.364 456.234 120.377C456.265 120.39 456.293 120.409 456.317 120.433L461.215 125.326V127.827C461.215 127.862 461.208 127.896 461.194 127.927C461.181 127.959 461.162 127.987 461.137 128.011C461.113 128.035 461.084 128.054 461.052 128.067C461.02 128.079 460.986 128.086 460.952 128.085ZM451.931 114.949C451.931 114.694 452.006 114.445 452.148 114.233C452.289 114.022 452.491 113.856 452.726 113.759C452.962 113.662 453.221 113.636 453.471 113.686C453.721 113.735 453.95 113.858 454.131 114.038C454.311 114.218 454.433 114.448 454.483 114.698C454.533 114.947 454.507 115.206 454.41 115.442C454.312 115.677 454.147 115.878 453.935 116.02C453.723 116.161 453.474 116.237 453.219 116.237C452.877 116.237 452.55 116.101 452.308 115.859C452.066 115.618 451.931 115.29 451.931 114.949Z" fill="#353A3A"/>
<path d="M376.86 80.1851H370.734V86.3133H376.86V80.1851Z" fill="white" stroke="#353A3A" stroke-miterlimit="10"/>
<path d="M376.86 148.01H370.734V154.138H376.86V148.01Z" fill="white" stroke="#353A3A" stroke-miterlimit="10"/>
<path d="M519.262 80.1851H513.137V86.3133H519.262V80.1851Z" fill="white" stroke="#353A3A" stroke-miterlimit="10"/>
<path d="M519.262 148.01H513.137V154.138H519.262V148.01Z" fill="white" stroke="#353A3A" stroke-miterlimit="10"/>
<path d="M515.416 124.857L513.16 135.039L510.097 126.216L507.034 117.392L516.199 119.143L525.376 120.905L515.416 124.857Z" fill="#263238" stroke="#263238" stroke-linecap="round" stroke-linejoin="round"/>
<path d="M323.621 81.6597H144.236V170.772H323.621V81.6597Z" stroke="#353A3A" stroke-miterlimit="10"/>
<path d="M144.236 183.881H227.734" stroke="#353A3A" stroke-miterlimit="10"/>
<path d="M233.985 183.881H269.275" stroke="#353A3A" stroke-miterlimit="10"/>
<path d="M275.527 183.881H323.609" stroke="#353A3A" stroke-miterlimit="10"/>
<path d="M144.294 206.735H227.792" stroke="#353A3A" stroke-miterlimit="10"/>
<path d="M234.043 206.735H269.333" stroke="#353A3A" stroke-miterlimit="10"/>
<path d="M275.585 206.735H323.678" stroke="#353A3A" stroke-miterlimit="10"/>
<path d="M144.294 218.162H227.792" stroke="#353A3A" stroke-miterlimit="10"/>
<path d="M234.043 218.162H269.333" stroke="#353A3A" stroke-miterlimit="10"/>
<path d="M275.585 218.162H323.678" stroke="#353A3A" stroke-miterlimit="10"/>
<path d="M144.294 195.308H178.605" stroke="#353A3A" stroke-miterlimit="10"/>
<path d="M184.787 195.308H220.077" stroke="#353A3A" stroke-miterlimit="10"/>
<path d="M226.26 195.308H269.39" stroke="#353A3A" stroke-miterlimit="10"/>
<path d="M275.585 195.308H323.678" stroke="#353A3A" stroke-miterlimit="10"/>
<path d="M323.701 231.305H144.386V256.832H323.701V231.305Z" stroke="#353A3A" stroke-miterlimit="10"/>
<path d="M413.991 173.203H335.122V256.82H413.991V173.203Z" fill="white" stroke="#353A3A" stroke-miterlimit="10"/>
<path d="M480.599 173.202H421.913V256.82H480.599V173.202Z" fill="white" stroke="#353A3A" stroke-miterlimit="10"/>
<path d="M257.738 144.094H197.844V160.071H257.738V144.094Z" fill="#F68520"/>
<path d="M317.691 138.945C317.691 138.945 305.751 142.17 302.527 149.98C299.303 157.79 301.606 159.414 302.297 159.195C302.988 158.976 304.6 155.97 304.6 155.97C304.6 155.97 302.067 163.1 305.29 166.084C308.514 169.067 313.788 173.214 313.788 173.214C313.788 173.214 313.097 182.429 310.333 188.189C307.57 193.949 302.446 220.028 304.519 222.551C306.591 225.073 309.124 221.399 309.124 221.399C309.124 221.399 311.427 227.158 319.487 229.22C327.546 231.282 349.423 234.001 356.331 233.079C363.239 232.158 362.675 228.299 362.675 228.299C362.675 228.299 360.602 232.204 364.275 229.911C367.948 227.619 371.471 204.972 375.144 196.702C378.817 188.431 381.12 175.322 379.289 165.197C377.459 155.071 368.489 146.582 362.514 141.755C356.538 136.929 344.357 132.333 333.326 133.473C322.296 134.613 317.691 138.945 317.691 138.945Z" fill="#263238"/>
<path d="M377.77 227.354L380.74 264.642L364.805 294.154L358.139 280.584L377.505 227.32C377.516 227.291 377.537 227.268 377.563 227.253C377.59 227.237 377.62 227.231 377.65 227.235C377.681 227.239 377.709 227.253 377.73 227.274C377.752 227.296 377.766 227.324 377.77 227.354Z" fill="#57C6D4" stroke="#231F20" stroke-miterlimit="10"/>
<g style="mix-blend-mode:multiply">
<path d="M366.589 258.525L361.972 288.141L358 281.609L366.589 258.525Z" fill="#3CA2AA"/>
</g>
<path d="M274.917 392.791L278.187 352.786L374.143 357.07L375.777 392.073L274.917 392.791Z" fill="#263238" stroke="#222C67" stroke-linecap="round" stroke-linejoin="round"/>
<path d="M325.416 149.093C325.416 149.093 323.931 158.873 325.635 160.612C327.339 162.351 335.836 166.372 335.836 166.372C335.836 166.372 334.777 155.532 334.777 154.852C334.777 154.173 340.729 169.528 343.7 171.451C346.67 173.375 352.209 178.04 352.209 178.04C352.209 178.04 353.061 180.598 353.913 180.344C354.937 179.784 355.869 179.069 356.676 178.225C356.676 178.225 362.836 176.52 362.202 181.404C361.569 186.288 357.309 192.923 354.753 193.326C353.283 193.584 351.785 193.653 350.297 193.534C350.297 193.534 346.843 203.74 346.463 207.149C346.083 210.559 345.83 211.193 346.256 212.46C346.682 213.727 356.457 218.427 358.587 219.06C360.303 219.579 371.77 224.267 376.077 226.041C376.509 226.223 376.856 226.561 377.05 226.988C377.245 227.415 377.271 227.899 377.124 228.345L357.528 283.372L378.356 358.028C378.356 358.028 347.108 365.262 317.333 362.497C287.559 359.732 275.228 353.351 275.228 353.351L300.558 281.667L291.554 221.145C291.51 220.886 291.57 220.62 291.721 220.404C291.872 220.189 292.101 220.041 292.36 219.993L325.002 214.003L325.646 206.343C325.646 206.343 317.356 204.039 314.582 198.049C311.726 191.875 314.374 181.035 314.582 177.845C314.904 174.092 314.904 170.32 314.582 166.567C314.156 162.916 315.848 151.639 325.416 149.093Z" fill="#57C6D4" stroke="#231F20" stroke-miterlimit="10"/>
<path d="M310.426 273.408C310.426 273.408 333.453 287.231 334.397 287.542" stroke="#263238" stroke-linecap="round" stroke-linejoin="round"/>
<path d="M319.648 282.324L335.929 293.382" stroke="#263238" stroke-linecap="round" stroke-linejoin="round"/>
<path d="M354.765 217.471C351.173 215.789 346.544 213.347 346.256 212.471C345.83 211.204 346.038 210.559 346.464 207.161C346.89 203.763 350.298 193.522 350.298 193.522C351.786 193.635 353.282 193.565 354.753 193.315C357.31 192.889 361.558 186.288 362.203 181.393C362.848 176.497 356.676 178.213 356.676 178.213C355.869 179.058 354.937 179.773 353.913 180.333C353.061 180.552 352.209 178.029 352.209 178.029C352.209 178.029 351.541 170.138 348.571 168.226C345.6 166.314 334.754 154.207 334.754 154.841C334.754 155.475 336.009 162.133 336.009 162.133C333.962 161.013 332.033 159.689 330.252 158.182C328.56 156.488 325.37 149.104 325.37 149.104C315.802 151.65 314.11 162.927 314.524 166.545C314.847 170.297 314.847 174.07 314.524 177.822C314.317 181.013 311.669 191.852 314.524 198.026C317.299 203.982 325.589 206.32 325.589 206.32L324.944 213.98L315.549 215.697L314.018 224.555C313.66 226.609 313.737 228.715 314.243 230.738C314.75 232.76 315.675 234.654 316.958 236.297C318.242 237.939 319.856 239.294 321.695 240.274C323.535 241.253 325.56 241.836 327.639 241.984C332.872 242.353 338.081 240.98 342.454 238.08C346.827 235.18 350.119 230.915 351.817 225.949L354.765 217.471Z" fill="#FCD9C0" stroke="#263238" stroke-miterlimit="10"/>
<path d="M324.99 213.969L324.702 220.569" stroke="#263238" stroke-miterlimit="10"/>
<path d="M251.648 237.122L275.378 272.74L287.444 247.663L291.439 226.79L299.625 276.599C299.625 276.599 275.965 301.538 274.871 301.814C273.777 302.091 268.861 296.343 265.027 291.689C261.193 287.035 243.98 244.921 243.98 244.921C243.98 244.921 228.678 247.386 224.844 246.292C221.01 245.197 211.177 234.773 212.271 232.618C213.364 230.464 225.396 236.178 225.396 236.178L240.698 231.248" fill="#FCD9C0"/>
<path d="M251.648 237.122L275.378 272.74L287.444 247.663L291.439 226.79L299.625 276.599C299.625 276.599 275.965 301.538 274.871 301.814C273.777 302.091 268.861 296.343 265.027 291.689C261.193 287.035 243.98 244.921 243.98 244.921C243.98 244.921 228.678 247.386 224.844 246.292C221.01 245.197 211.177 234.773 212.271 232.618C213.364 230.464 225.396 236.178 225.396 236.178L240.698 231.248" stroke="#263238" stroke-miterlimit="10" stroke-linecap="round"/>
<path d="M286.546 290.433C293.121 283.764 299.626 276.61 299.626 276.61L291.474 220.65C291.474 220.632 291.467 220.614 291.454 220.601C291.441 220.588 291.423 220.581 291.405 220.581C291.387 220.581 291.369 220.588 291.356 220.601C291.343 220.614 291.336 220.632 291.336 220.65L287.444 247.663L275.378 272.763L286.546 290.433Z" fill="#57C6D4" stroke="#231F20" stroke-miterlimit="10"/>
<path d="M382.64 254.182C382.64 254.182 383.353 242.041 385.967 240.14C388.581 238.24 397.147 235.613 398.091 233.955C399.035 232.296 400.474 232.999 400.233 235.107C399.699 237.283 398.44 239.213 396.663 240.578C395.961 240.82 392.392 242.963 392.392 242.963C393.512 243.926 394.705 244.8 395.961 245.578C396.663 245.819 405.943 247.72 405.943 247.72C405.943 247.72 415.224 240.106 415.224 241.96C415.224 243.815 409.041 255.53 408.315 256.935C407.59 258.341 402.363 258.848 400.256 259.078C398.149 259.308 387.89 260.23 387.89 260.23C387.89 260.23 385.276 287.116 385.034 293.301C384.793 299.487 380.763 305.201 378.621 306.629C376.48 308.057 364.586 297.817 364.805 294.016C365.024 290.214 379.773 259.988 379.773 259.988L382.64 254.182Z" fill="#FCD9C0" stroke="#263238" stroke-miterlimit="10"/>
<path d="M385.622 256.221C385.622 256.221 387.867 251.556 391.195 252.27C394.522 252.984 404.516 254.182 404.516 254.182C404.516 254.182 409.041 248.227 410.941 247.997" stroke="#222C67" stroke-linecap="round" stroke-linejoin="round"/>
<path d="M214.642 237.618C214.642 237.618 210.981 238.77 210.451 241.212C209.921 243.654 208.724 247.052 210.129 247.063C211.533 247.075 213.859 242.594 213.859 242.594L216.784 241.327L214.642 237.618Z" fill="#FCD9C0" stroke="#263238" stroke-miterlimit="10"/>
<path d="M238.812 214.635L214.834 217.148L218.412 251.323L242.391 248.81L238.812 214.635Z" fill="white" stroke="#263238" stroke-linecap="round" stroke-linejoin="round"/>
<path d="M214.835 217.155L211.251 217.53L214.884 252.229L218.468 251.853L214.835 217.155Z" fill="#F68520"/>
<path d="M232.363 209.649C230.99 209.805 229.735 210.499 228.872 211.578C228.009 212.657 227.608 214.034 227.757 215.409C227.757 215.535 227.815 215.65 227.826 215.777L229.047 215.65L230.325 215.512C230.295 215.391 230.272 215.268 230.255 215.144C230.203 214.668 230.277 214.187 230.47 213.749C230.663 213.311 230.968 212.932 231.355 212.65C231.741 212.368 232.195 212.193 232.671 212.142C233.146 212.092 233.627 212.168 234.064 212.363C234.5 212.558 234.878 212.865 235.158 213.253C235.439 213.641 235.612 214.096 235.66 214.572C235.708 215.048 235.63 215.528 235.433 215.964C235.236 216.401 234.927 216.777 234.539 217.056C234.685 217.48 234.949 217.853 235.299 218.133C235.65 218.412 236.073 218.586 236.519 218.634C237.303 217.883 237.833 216.905 238.034 215.838C238.235 214.771 238.098 213.667 237.641 212.682C237.184 211.697 236.431 210.879 235.486 210.343C234.542 209.808 233.454 209.581 232.374 209.695L232.363 209.649Z" fill="white" stroke="#263238" stroke-linecap="round" stroke-linejoin="round"/>
<path d="M219.352 224.244L227.596 223.368" stroke="#263238" stroke-linecap="round" stroke-linejoin="round"/>
<path d="M219.743 227.999L235.782 226.329" stroke="#263238" stroke-linecap="round" stroke-linejoin="round"/>
<path d="M220.135 231.766L228.16 230.925" stroke="#263238" stroke-linecap="round" stroke-linejoin="round"/>
<path d="M220.526 235.533L233.917 234.127" stroke="#263238" stroke-linecap="round" stroke-linejoin="round"/>
<path d="M220.929 239.299L228.942 238.458" stroke="#263238" stroke-linecap="round" stroke-linejoin="round"/>
<path d="M221.321 243.066L238.914 241.223" stroke="#263238" stroke-linecap="round" stroke-linejoin="round"/>
<path d="M221.712 246.833L229.967 245.969" stroke="#263238" stroke-linecap="round" stroke-linejoin="round"/>
<path d="M227.918 210.156C226.546 210.312 225.291 211.006 224.428 212.085C223.565 213.164 223.164 214.541 223.313 215.915C223.329 216.036 223.352 216.155 223.382 216.272L224.591 216.146L225.88 216.008C225.841 215.892 225.814 215.772 225.8 215.65C225.747 215.175 225.82 214.695 226.012 214.257C226.204 213.819 226.508 213.44 226.894 213.157C227.279 212.874 227.732 212.698 228.207 212.647C228.682 212.595 229.162 212.67 229.599 212.863C230.036 213.057 230.415 213.362 230.696 213.748C230.978 214.135 231.152 214.589 231.202 215.064C231.253 215.539 231.177 216.02 230.982 216.456C230.787 216.893 230.481 217.271 230.094 217.551C230.24 217.98 230.509 218.356 230.868 218.632C231.226 218.909 231.658 219.074 232.109 219.106C232.895 218.355 233.425 217.376 233.626 216.307C233.827 215.238 233.689 214.134 233.23 213.148C232.772 212.162 232.016 211.344 231.07 210.81C230.123 210.275 229.033 210.051 227.953 210.167L227.918 210.156Z" fill="white" stroke="#263238" stroke-linecap="round" stroke-linejoin="round"/>
<path d="M223.486 210.628C222.113 210.785 220.858 211.478 219.995 212.558C219.132 213.637 218.731 215.014 218.88 216.388C218.9 216.509 218.927 216.628 218.961 216.745L220.112 216.618L221.39 216.492C221.39 216.365 221.332 216.25 221.321 216.123C221.269 215.647 221.343 215.166 221.536 214.728C221.729 214.291 222.034 213.911 222.42 213.629C222.806 213.347 223.26 213.172 223.736 213.122C224.212 213.071 224.692 213.148 225.129 213.343C225.566 213.538 225.944 213.845 226.224 214.232C226.504 214.62 226.677 215.075 226.725 215.551C226.773 216.027 226.695 216.508 226.498 216.944C226.301 217.38 225.993 217.757 225.604 218.035C225.756 218.46 226.027 218.832 226.384 219.108C226.741 219.383 227.17 219.551 227.619 219.59C228.411 218.842 228.947 217.864 229.152 216.794C229.358 215.724 229.221 214.616 228.763 213.628C228.305 212.64 227.548 211.82 226.598 211.286C225.649 210.752 224.556 210.53 223.474 210.651L223.486 210.628Z" fill="white" stroke="#263238" stroke-linecap="round" stroke-linejoin="round"/>
<path d="M219.052 211.089C217.679 211.245 216.424 211.939 215.561 213.018C214.699 214.097 214.298 215.475 214.446 216.849C214.446 216.975 214.446 217.091 214.516 217.217L215.724 217.091L217.014 216.952C216.978 216.824 216.955 216.693 216.945 216.561C216.892 216.199 216.913 215.83 217.007 215.476C217.1 215.123 217.263 214.792 217.488 214.503C217.712 214.214 217.992 213.973 218.311 213.795C218.63 213.617 218.982 213.505 219.346 213.467C219.709 213.428 220.077 213.463 220.427 213.569C220.776 213.676 221.101 213.852 221.381 214.087C221.661 214.323 221.89 214.612 222.056 214.938C222.222 215.264 222.32 215.62 222.345 215.985C222.392 216.463 222.31 216.945 222.108 217.381C221.905 217.816 221.589 218.189 221.194 218.461C221.339 218.89 221.608 219.266 221.967 219.543C222.325 219.819 222.757 219.984 223.208 220.016C223.993 219.265 224.522 218.288 224.724 217.22C224.925 216.153 224.787 215.05 224.33 214.064C223.874 213.079 223.12 212.261 222.176 211.726C221.231 211.19 220.143 210.964 219.063 211.078L219.052 211.089Z" fill="white" stroke="#263238" stroke-linecap="round" stroke-linejoin="round"/>
<path d="M212.455 217.033C212.4 216.557 212.473 216.075 212.664 215.636C212.856 215.197 213.16 214.817 213.546 214.533C213.932 214.25 214.385 214.073 214.861 214.021C215.337 213.97 215.818 214.045 216.256 214.239C216.694 214.433 217.072 214.74 217.353 215.127C217.635 215.515 217.808 215.97 217.857 216.447C217.906 216.923 217.828 217.404 217.632 217.841C217.435 218.277 217.127 218.654 216.738 218.933C216.884 219.364 217.155 219.741 217.516 220.018C217.876 220.294 218.311 220.458 218.764 220.488C219.339 219.944 219.78 219.274 220.054 218.53C220.327 217.787 220.426 216.991 220.342 216.203C220.301 215.499 220.117 214.81 219.802 214.178C219.487 213.546 219.048 212.985 218.51 212.528C217.972 212.071 217.347 211.729 216.672 211.521C215.998 211.312 215.289 211.243 214.587 211.317C213.885 211.392 213.206 211.607 212.59 211.952C211.974 212.296 211.435 212.762 211.004 213.321C210.573 213.88 210.26 214.521 210.084 215.204C209.908 215.888 209.872 216.6 209.979 217.298C210.109 218.521 210.672 219.657 211.568 220.5L211.257 217.528L212.535 217.39C212.502 217.272 212.475 217.153 212.455 217.033Z" fill="white" stroke="#263238" stroke-linecap="round" stroke-linejoin="round"/>
<path d="M208.471 226.709C208.695 227.208 208.956 227.69 209.254 228.149C209.001 229.061 208.955 230.018 209.118 230.951C209.281 231.884 209.65 232.768 210.198 233.54C210.198 233.54 210.313 237.307 211.649 237.906C212.985 238.505 215.103 239.219 215.103 238.171C215.103 237.122 214.435 233.943 212.04 233.252C212.04 233.252 214.804 233.793 214.493 232.261C214.182 230.729 213.664 228.506 211.971 227.872L210.567 227.7C210.567 227.7 213.249 227.872 213.077 226.214C212.904 224.555 212.697 222.62 211.453 222.147C211.154 222.044 210.82 221.952 210.486 221.871C208.586 221.433 207.4 224.348 208.471 226.709Z" fill="#FCD9C0" stroke="#263238" stroke-linecap="round" stroke-linejoin="round"/>
<path d="M251.648 237.122C251.648 237.122 249.875 231.213 248.77 228.759C247.664 226.306 242.759 225.477 240.019 223.564C237.279 221.652 235.414 215.639 233.192 217.805C230.969 219.97 232.374 223.818 233.192 224.912C234.009 226.006 240.814 231.893 240.814 231.893" fill="#FCD9C0"/>
<path d="M251.648 237.122C251.648 237.122 249.875 231.213 248.77 228.759C247.664 226.306 242.759 225.477 240.019 223.564C237.279 221.652 235.414 215.639 233.192 217.805C230.969 219.97 232.374 223.818 233.192 224.912C234.009 226.006 240.814 231.893 240.814 231.893" stroke="#263238" stroke-miterlimit="10" stroke-linecap="round"/>
<path d="M358.035 145.625C366.753 153.018 372.581 163.254 374.488 174.527" stroke="#A7A4A4" stroke-linecap="round" stroke-linejoin="round"/>
<g style="mix-blend-mode:multiply">
<path d="M325.427 205.675C325.427 205.675 341.547 206.447 350.297 193.545L346.463 207.161L324.645 217.955L325.427 205.675Z" fill="#ECBE9D"/>
</g>
<path d="M324.956 190.631C326.638 191.258 328.46 191.408 330.221 191.064C331.983 190.721 333.615 189.897 334.938 188.684" stroke="#263238" stroke-linecap="round" stroke-linejoin="round"/>
<path d="M327.546 173.064C327.686 173.907 327.686 174.767 327.546 175.61C327.362 177.615 323.758 182.913 324.852 183.455C325.946 183.996 326.89 183.766 329.077 183.95" stroke="#263238" stroke-width="0.75" stroke-linecap="round" stroke-linejoin="round"/>
<path d="M323.286 171.164C323.286 172.5 322.618 173.571 321.801 173.571C320.983 173.571 320.315 172.5 320.315 171.164C320.315 169.827 320.972 168.768 321.801 168.768C322.63 168.768 323.286 169.839 323.286 171.164Z" fill="#263238"/>
<path d="M337.437 172.65C337.437 173.974 336.78 175.057 335.963 175.057C335.145 175.057 334.478 173.974 334.478 172.65C334.478 171.325 335.134 170.254 335.963 170.254C336.792 170.254 337.437 171.325 337.437 172.65Z" fill="#263238"/>
<path d="M319.176 165.796C319.176 165.796 322.63 163.284 325.336 164.644" stroke="#263238" stroke-linecap="round" stroke-linejoin="round"/>
<path d="M334.247 165.346C334.247 165.346 339.267 164.655 341.098 168.802" stroke="#263238" stroke-linecap="round" stroke-linejoin="round"/>
<path d="M341.973 378.071C341.973 378.071 335.928 388.438 338.311 388.841C340.695 389.245 345.657 380.225 345.657 380.225L359.301 376.608L349.031 375.548L341.973 378.071Z" fill="white" stroke="#263238" stroke-linecap="round" stroke-linejoin="round"/>
<path d="M341.973 378.071C341.973 378.071 335.928 388.438 338.311 388.841C340.695 389.245 345.657 380.225 345.657 380.225L359.301 376.608L349.031 375.548L341.973 378.071Z" fill="#C19475" stroke="#263238" stroke-miterlimit="10"/>
<path d="M346.556 370.975C346.556 370.975 338.116 368.971 335.779 372.933C333.441 376.896 326.568 388.657 329.181 390.005C331.795 391.353 333.971 386.998 333.971 386.998L346.556 370.975Z" fill="#FCD9C0" stroke="#263238" stroke-miterlimit="10"/>
<path d="M381.132 383.024C375.571 384.947 369.643 385.57 363.804 384.844L354.19 388.047C354.19 388.047 345.739 392.205 341.812 390.108C337.886 388.012 351.829 383.381 351.829 383.381C351.829 383.381 361.213 379.315 358.404 378.347C355.594 377.38 345.025 377.553 342.941 379.142C340.857 380.732 335.411 391.088 331.427 390.489C327.443 389.89 333.085 384.28 334.501 382.103C335.917 379.925 339.107 371.298 345.52 370.941C351.933 370.583 373.567 371.678 373.567 371.678L399.001 368.959L405 383.439L381.132 383.024Z" fill="#FCD9C0" stroke="#263238" stroke-miterlimit="10"/>
<path d="M394.395 386.607C395.105 387.118 395.961 387.388 396.836 387.376C397.711 387.363 398.559 387.069 399.254 386.538C400.02 386.867 400.866 386.962 401.686 386.81C402.506 386.659 403.262 386.267 403.86 385.685C405.725 383.646 405.886 365.757 400.739 363.741C399.266 363.165 395.558 363.223 394.982 365.296C394.586 365.136 394.158 365.071 393.731 365.107C393.305 365.143 392.894 365.278 392.53 365.502C392.165 365.726 391.859 366.033 391.635 366.397C391.411 366.762 391.276 367.174 391.24 367.6C390.734 370.825 393.935 373.832 392.864 383.116C392.77 383.783 392.864 384.462 393.135 385.079C393.405 385.695 393.841 386.224 394.395 386.607Z" fill="#FCB431" stroke="#263238" stroke-linecap="round" stroke-linejoin="round"/>
<path d="M400.267 382.437C400.26 377.568 399.224 372.755 397.228 368.314" stroke="#263238" stroke-linecap="round" stroke-linejoin="round"/>
<path d="M521.311 375.94C520.459 382.494 519.492 389.59 518.387 397.297H419.587L420.059 384.556C414.153 385.985 402.674 385.109 402.674 385.109V366.31C409.651 362.359 410.733 363.465 410.733 363.465C410.733 363.465 411.09 317.503 415.27 306.03C416.864 301.71 419.71 297.964 423.444 295.271C424.439 294.531 425.481 293.857 426.565 293.255L426.714 293.163C427.866 292.553 429.259 291.908 430.848 291.239L431.285 291.067C446.76 284.743 480.53 277.405 511.997 290.859C514.196 291.804 532.157 300.386 533.689 312.746C534.483 319.819 529.67 354.998 521.311 375.94Z" fill="#F6851F"/>
<mask id="mask0_616_250" style="mask-type:luminance" maskUnits="userSpaceOnUse" x="402" y="283" width="132" height="115">
<path d="M521.311 375.94C520.459 382.494 519.492 389.59 518.387 397.297H419.587L420.059 384.556C414.153 385.985 402.674 385.109 402.674 385.109V366.31C409.651 362.359 410.733 363.465 410.733 363.465C410.733 363.465 411.09 317.503 415.27 306.03C416.864 301.71 419.71 297.964 423.444 295.271C424.439 294.531 425.481 293.857 426.565 293.255L426.714 293.163C427.866 292.553 429.259 291.908 430.848 291.239L431.285 291.067C446.76 284.743 480.53 277.405 511.997 290.859C514.196 291.804 532.157 300.386 533.689 312.746C534.483 319.819 529.67 354.998 521.311 375.94Z" fill="white"/>
</mask>
<g mask="url(#mask0_616_250)">
<path opacity="0.2" d="M505.652 319.277L495.797 365.043C494.265 363.891 489.855 363.753 484.283 364.282C485.494 362.95 486.499 361.443 487.265 359.813C502.129 327.559 505.388 319.922 505.652 319.277Z" fill="black"/>
<path opacity="0.2" d="M523.66 369.559C521.26 378.671 519.498 387.939 518.387 397.297H419.587L420.497 382.621C426.657 381.746 437.468 380.847 448.694 378.855C449.555 382.368 449.645 386.027 448.959 389.579C448.959 389.579 494.415 395.223 509.671 391.549C514.023 390.5 517.961 384.418 521.334 376.044C522.117 374.005 522.9 371.828 523.66 369.559Z" fill="black"/>
<path opacity="0.3" d="M411.839 364.306C411.839 364.306 409.628 362.324 402.628 366.287V385.121C402.628 385.121 414.141 384.706 418.666 382.253C422.546 384.66 421.856 340.588 422.546 316.835C416.916 318.39 416.456 329.126 415.581 339.24C414.857 347.665 413.607 356.037 411.839 364.306Z" fill="black"/>
</g>
<path d="M521.311 375.94C520.459 382.494 519.492 389.59 518.387 397.297H419.587L420.059 384.556C414.153 385.985 402.674 385.109 402.674 385.109V366.31C409.651 362.359 410.733 363.465 410.733 363.465C410.733 363.465 411.09 317.503 415.27 306.03C416.864 301.71 419.71 297.964 423.444 295.271C424.439 294.531 425.481 293.857 426.565 293.255L426.714 293.163C427.866 292.553 429.259 291.908 430.848 291.239L431.285 291.067C446.76 284.743 480.53 277.405 511.997 290.859C514.196 291.804 532.157 300.386 533.689 312.746C534.483 319.819 529.67 354.998 521.311 375.94Z" stroke="#263238" stroke-linecap="round" stroke-linejoin="round"/>
<path d="M533.574 312.746C533.574 313.022 533.643 313.345 533.654 313.702C534.161 322.549 529.348 355.931 521.265 376.044C517.892 384.418 513.954 390.5 509.602 391.549C494.346 395.223 448.89 389.579 448.89 389.579C450.059 383.33 448.826 376.87 445.436 371.494C445.436 371.494 490.063 360.573 495.705 365.043L505.584 319.231" stroke="#263238" stroke-linecap="round" stroke-linejoin="round"/>
<path d="M498.905 367.542C502.087 369.072 504.813 371.407 506.815 374.316" stroke="#263238" stroke-linecap="round" stroke-linejoin="round"/>
<path d="M385.219 369.19C385.219 369.19 381.063 368.303 379.37 370.203C377.678 372.104 370.424 383.001 372.876 385.086C375.329 387.171 380.314 375.756 380.314 375.756L385.219 369.19Z" fill="#FCD9C0" stroke="#263238" stroke-miterlimit="10"/>
<path d="M393.577 368.982C393.577 368.982 384.366 367.001 382.259 369.823C380.152 372.646 368.546 387.252 375.789 387.724L387.348 374.719L393.577 368.982Z" fill="#FCD9C0" stroke="#263238" stroke-miterlimit="10"/>
<path d="M414.464 384.522C414.464 384.522 404.965 386.584 401.108 387.344C397.251 388.104 390.101 393.104 385.864 391.111C381.627 389.118 399.68 381.78 399.68 381.78L405.886 379.281L414.464 384.522Z" fill="#C19475" stroke="#263238" stroke-miterlimit="10"/>
<path d="M422.155 327.651C422.293 324.05 422.428 320.444 422.558 316.835" stroke="#263238" stroke-linecap="round" stroke-linejoin="round"/>
<path d="M419.587 397.296C421.349 375.491 422.005 332.559 422.005 332.559" stroke="#263238" stroke-linecap="round" stroke-linejoin="round"/>
<path d="M448.925 372.749H416.134C416.134 372.749 390.803 365.158 386.52 371.056C382.237 376.954 373.245 386.031 375.789 387.724C378.334 389.417 389.065 377.126 389.065 377.126L398.379 377.207C398.379 377.207 390.47 380.663 388.777 382.356C387.084 384.049 383.412 388.853 385.392 389.694C387.372 390.535 393.578 384.326 393.578 384.326C393.578 384.326 402.904 382.022 405.161 383.174C412.396 386.888 420.772 387.711 428.592 385.478L453.588 388.588L448.925 372.749Z" fill="#FCD9C0" stroke="#263238" stroke-miterlimit="10"/>
<path d="M502.256 335.093C501.352 329.847 501.317 324.488 502.152 319.231" stroke="#263238" stroke-linecap="round" stroke-linejoin="round"/>
<path d="M509.694 307.62C509.694 307.62 525.583 286.678 533.608 312.746" stroke="#263238" stroke-linecap="round" stroke-linejoin="round"/>
<path d="M442.212 370.157C442.771 369.488 443.53 369.015 444.377 368.807C445.224 368.6 446.116 368.67 446.921 369.005C447.583 368.495 448.381 368.192 449.215 368.135C450.049 368.078 450.881 368.268 451.607 368.683C453.91 370.203 458.515 387.482 454.025 390.719C452.735 391.652 449.132 392.505 448.026 390.65C447.681 390.905 447.281 391.074 446.859 391.145C446.436 391.215 446.002 391.184 445.594 391.055C445.185 390.926 444.813 390.702 444.507 390.401C444.201 390.101 443.971 389.732 443.835 389.325C442.534 386.319 444.894 382.621 441.532 373.901C441.293 373.274 441.23 372.594 441.35 371.934C441.47 371.274 441.768 370.66 442.212 370.157Z" fill="#FCB431"/>
<path d="M442.212 370.157C442.771 369.488 443.53 369.015 444.377 368.807C445.224 368.6 446.116 368.67 446.921 369.005C447.583 368.495 448.381 368.192 449.215 368.135C450.049 368.078 450.881 368.268 451.607 368.683C453.91 370.203 458.515 387.482 454.025 390.719C452.735 391.652 449.132 392.505 448.026 390.65C447.681 390.905 447.281 391.074 446.859 391.145C446.436 391.215 446.002 391.184 445.594 391.055C445.185 390.926 444.813 390.702 444.507 390.401C444.201 390.101 443.971 389.732 443.835 389.325C442.534 386.319 444.894 382.621 441.532 373.901C441.293 373.274 441.23 372.594 441.35 371.934C441.47 371.274 441.768 370.66 442.212 370.157Z" stroke="#263238" stroke-linecap="round" stroke-linejoin="round"/>
<path d="M449.523 379.131C449.935 381.801 449.966 384.516 449.616 387.194" stroke="#263238" stroke-linecap="round" stroke-linejoin="round"/>
<path d="M463.881 327.41C463.855 327.853 463.698 328.279 463.43 328.634C463.162 328.988 462.795 329.255 462.376 329.401C461.956 329.547 461.503 329.565 461.073 329.452C460.643 329.34 460.256 329.103 459.961 328.771C459.666 328.439 459.476 328.026 459.416 327.586C459.355 327.146 459.426 326.697 459.62 326.298C459.814 325.898 460.122 325.565 460.506 325.34C460.889 325.116 461.331 325.01 461.774 325.037C462.368 325.072 462.923 325.342 463.318 325.787C463.713 326.232 463.916 326.816 463.881 327.41Z" fill="white" stroke="#263238" stroke-linecap="round" stroke-linejoin="round"/>
<path d="M462.269 362.186C462.243 362.63 462.086 363.056 461.818 363.41C461.55 363.765 461.183 364.032 460.764 364.177C460.344 364.323 459.89 364.341 459.461 364.229C459.031 364.117 458.644 363.879 458.349 363.547C458.054 363.215 457.864 362.803 457.803 362.362C457.743 361.922 457.814 361.474 458.008 361.074C458.202 360.674 458.51 360.341 458.894 360.117C459.277 359.892 459.718 359.787 460.162 359.813C460.756 359.849 461.311 360.119 461.706 360.564C462.101 361.008 462.303 361.592 462.269 362.186Z" fill="white" stroke="#263238" stroke-linecap="round" stroke-linejoin="round"/>
<path d="M482.821 284.801L481.186 261.589L457.18 267.153L455.902 285.791C454.382 285.975 452.943 286.194 451.538 286.413L457.41 300.49L468.924 301.999L487.288 285.077C485.761 284.962 484.272 284.87 482.821 284.801Z" fill="#FCD9C0"/>
<mask id="mask1_616_250" style="mask-type:luminance" maskUnits="userSpaceOnUse" x="451" y="261" width="37" height="41">
<path d="M482.821 284.801L481.186 261.589L457.18 267.153L455.902 285.791C454.382 285.975 452.943 286.194 451.538 286.413L457.41 300.49L468.924 301.999L487.288 285.077C485.761 284.962 484.272 284.87 482.821 284.801Z" fill="white"/>
</mask>
<g mask="url(#mask1_616_250)">
<g style="mix-blend-mode:multiply">
<path d="M456.823 275.366C456.984 291.885 476.27 286.816 481.601 270.321L481.186 261.589L457.18 267.153L456.823 275.366Z" fill="#ECBE9D"/>
</g>
</g>
<path d="M482.821 284.801L481.186 261.589L457.18 267.153L455.902 285.791C454.382 285.975 452.943 286.194 451.538 286.413L457.41 300.49L468.924 301.999L487.288 285.077C485.761 284.962 484.272 284.87 482.821 284.801Z" stroke="#263238" stroke-miterlimit="10"/>
<path d="M482.487 220.408C467.876 220.788 452.805 214.199 452.805 214.199C439.196 222.401 441.211 235.752 441.211 235.752C444.331 267.66 448.533 276.161 463.432 276.161C478.331 276.161 490.443 260.034 491.411 236.996C485.78 237.295 482.487 220.408 482.487 220.408Z" fill="#FCD9C0" stroke="#263238" stroke-miterlimit="10"/>
<path d="M490.166 235.751C490.498 235.257 490.94 234.847 491.458 234.553C491.975 234.259 492.554 234.089 493.148 234.058C495.808 234.058 497.754 237.514 496.821 241.834C495.889 246.153 494.68 249.597 492.02 249.597C491.416 249.576 490.833 249.372 490.348 249.012C489.863 248.652 489.498 248.153 489.303 247.582" fill="#FCD9C0"/>
<path d="M490.166 235.751C490.498 235.257 490.94 234.847 491.458 234.553C491.975 234.259 492.554 234.089 493.148 234.058C495.808 234.058 497.754 237.514 496.821 241.834C495.889 246.153 494.68 249.597 492.02 249.597C491.416 249.576 490.833 249.372 490.348 249.012C489.863 248.652 489.498 248.153 489.303 247.582" stroke="#263238" stroke-miterlimit="10"/>
<path d="M454.83 238.608C452.988 237.675 445.62 234.45 438.619 238.85L439.068 245.623C439.068 245.623 441.647 247.04 447.565 247.04C449.501 247.076 451.435 246.875 453.322 246.441" stroke="#1A2F36" stroke-linecap="round" stroke-linejoin="round"/>
<path d="M460.956 238.85L463.098 245.911C463.098 245.911 463.973 247.063 469.903 247.063C475.832 247.063 477.778 245.646 477.778 245.646L477.605 238.873C477.605 238.873 469.004 233.77 460.956 238.85Z" stroke="#1A2F36" stroke-linecap="round" stroke-linejoin="round"/>
<path d="M455.314 238.85H460.956" stroke="#1A2F36" stroke-linecap="round" stroke-linejoin="round"/>
<path d="M456.512 262.257C458.754 262.896 461.14 262.824 463.339 262.05C465.032 261.411 466.507 260.3 467.588 258.848" stroke="#263238" stroke-linecap="round" stroke-linejoin="round"/>
<path d="M468.843 237.295C469.522 237.295 469.994 238.447 469.994 239.795C469.994 241.143 469.43 242.295 468.751 242.295C468.072 242.295 467.6 241.143 467.6 239.795C467.6 238.447 468.152 237.295 468.843 237.295Z" fill="#263238"/>
<path d="M450.455 237.007C451.123 237.007 451.607 238.159 451.607 239.507C451.607 240.855 451.043 242.007 450.363 242.007C449.684 242.007 449.212 240.855 449.212 239.507C449.212 238.159 449.776 237.007 450.455 237.007Z" fill="#263238"/>
<path d="M454.704 284.72L463.581 300.651L484.87 283.844L491.41 284.766L477.593 309.129C477.468 309.348 477.299 309.54 477.097 309.692C476.896 309.845 476.666 309.955 476.421 310.016C476.175 310.078 475.92 310.089 475.671 310.049C475.421 310.009 475.182 309.92 474.968 309.785L463.19 302.344L453.979 307.965C453.709 308.13 453.403 308.224 453.087 308.239C452.772 308.254 452.458 308.188 452.174 308.049C451.891 307.911 451.647 307.702 451.465 307.444C451.283 307.186 451.17 306.886 451.135 306.572L448.832 285.779L454.704 284.72Z" fill="#F1BF4E"/>
<path d="M454.704 284.72L463.581 300.651L484.87 283.844L491.41 284.766L477.593 309.129C477.468 309.348 477.299 309.54 477.097 309.692C476.896 309.845 476.666 309.955 476.421 310.016C476.175 310.078 475.92 310.089 475.671 310.049C475.421 310.009 475.182 309.92 474.968 309.785L463.19 302.344L453.979 307.965C453.709 308.13 453.403 308.224 453.087 308.239C452.772 308.254 452.458 308.188 452.174 308.049C451.891 307.911 451.647 307.702 451.465 307.444C451.283 307.186 451.17 306.886 451.135 306.572L448.832 285.779L454.704 284.72Z" stroke="#263238" stroke-miterlimit="10"/>
<path d="M477.628 239.991L490.166 235.751L488.67 237.629" stroke="#263238" stroke-linecap="round" stroke-linejoin="round"/>
<path d="M453.358 257.27C452.931 257.25 452.514 257.136 452.136 256.937C451.758 256.738 451.428 256.458 451.17 256.118C450.896 255.692 450.731 255.205 450.691 254.701C450.651 254.196 450.737 253.69 450.94 253.226L454.567 242.341C454.62 242.18 454.735 242.048 454.886 241.972C455.037 241.896 455.212 241.884 455.373 241.937C455.533 241.991 455.665 242.106 455.741 242.257C455.817 242.408 455.829 242.583 455.776 242.744L452.16 253.629C452.022 253.898 451.95 254.197 451.95 254.499C451.95 254.802 452.022 255.1 452.16 255.369C452.304 255.538 452.479 255.678 452.677 255.779C452.875 255.879 453.09 255.94 453.312 255.956C453.403 255.944 453.495 255.951 453.583 255.978C453.671 256.004 453.753 256.05 453.822 256.11C453.891 256.171 453.947 256.245 453.985 256.329C454.023 256.413 454.042 256.504 454.042 256.596C454.042 256.688 454.023 256.779 453.985 256.862C453.947 256.946 453.891 257.021 453.822 257.081C453.753 257.142 453.671 257.187 453.583 257.213C453.495 257.24 453.403 257.247 453.312 257.235L453.358 257.27Z" fill="#263238"/>
<path d="M453.334 246.441C453.334 246.441 455.038 241.834 454.831 238.85" stroke="#1A2F36" stroke-linecap="round" stroke-linejoin="round"/>
<path d="M440.174 237.422C436.662 232.215 428.775 218.669 441.682 208.912C441.682 208.912 445.769 193.937 466.863 195.089C490.166 196.379 506.735 215.029 492.193 238.804C491.56 239.853 489.775 241.604 489.303 240.463C488.152 237.814 484.882 231.524 484.225 226.997C483.995 225.442 483.995 223.864 482.441 223.645C479.372 223.257 476.434 222.169 473.851 220.466C473.768 220.402 473.665 220.371 473.56 220.378C473.455 220.386 473.357 220.432 473.285 220.508C473.212 220.584 473.17 220.683 473.166 220.788C473.162 220.893 473.197 220.996 473.264 221.076C474.89 222.958 477.064 224.283 479.482 224.866C479.575 224.888 479.658 224.941 479.717 225.017C479.777 225.092 479.809 225.185 479.809 225.281C479.809 225.377 479.777 225.47 479.717 225.545C479.658 225.62 479.575 225.673 479.482 225.696C475.279 226.26 465.504 226.847 458.573 221.733C458.491 221.675 458.392 221.648 458.292 221.656C458.193 221.663 458.099 221.706 458.028 221.776C457.956 221.846 457.912 221.939 457.902 222.039C457.892 222.138 457.918 222.238 457.974 222.32C458.878 223.631 460.057 224.727 461.428 225.534C461.515 225.578 461.584 225.65 461.624 225.739C461.664 225.827 461.673 225.927 461.649 226.021C461.624 226.115 461.569 226.198 461.491 226.256C461.413 226.314 461.318 226.344 461.221 226.341C457.905 226.237 452.459 225.465 448.556 221.894C448.309 221.674 448.013 221.515 447.692 221.431C447.372 221.346 447.036 221.339 446.713 221.41C446.389 221.481 446.087 221.628 445.831 221.838C445.575 222.048 445.372 222.316 445.24 222.62C443.685 226.156 441.394 232.215 441.463 236.961C441.482 237.119 441.447 237.279 441.363 237.414C441.279 237.55 441.152 237.652 441.002 237.706C440.852 237.759 440.689 237.76 440.538 237.709C440.388 237.657 440.259 237.556 440.174 237.422Z" fill="#263238" stroke="#263238" stroke-linecap="round" stroke-linejoin="round"/>
<path d="M465.389 233.448C472.792 230.395 476.05 234.058 476.05 234.058" stroke="#263238" stroke-linecap="round" stroke-linejoin="round"/>
<path d="M445.851 233.148C447.121 232.54 448.537 232.303 449.937 232.464C451.336 232.625 452.661 233.177 453.761 234.058" stroke="#263238" stroke-linecap="round" stroke-linejoin="round"/>
<path d="M492.343 214.752C494.159 218.869 494.465 223.495 493.206 227.815" stroke="#A7A4A4" stroke-linecap="round" stroke-linejoin="round"/>
<path d="M93.46 398.322H525.226" stroke="#263238" stroke-linecap="round" stroke-linejoin="round"/>
<path d="M419.553 390.961H337.126V397.481H419.553V390.961Z" fill="#263238" stroke="#263238" stroke-linecap="round" stroke-linejoin="round"/>
<path d="M322.779 326.626H224.222L239.915 397.481H338.473L322.779 326.626Z" fill="#263238" stroke="#263238" stroke-linecap="round" stroke-linejoin="round"/>
<path d="M281.353 363.43C281.353 364.663 280.988 365.868 280.303 366.892C279.619 367.917 278.646 368.716 277.508 369.188C276.37 369.659 275.117 369.783 273.909 369.542C272.701 369.302 271.591 368.708 270.72 367.837C269.849 366.965 269.255 365.855 269.015 364.646C268.775 363.437 268.898 362.184 269.37 361.045C269.841 359.907 270.639 358.933 271.664 358.248C272.688 357.564 273.892 357.198 275.124 357.198C276.776 357.198 278.361 357.855 279.529 359.024C280.697 360.192 281.353 361.777 281.353 363.43Z" fill="white"/>
<path d="M188.564 332.904C188.564 332.904 177.442 350.31 177.822 351.07C178.202 351.83 185.387 360.343 185.951 360.723C186.515 361.103 189.923 360.907 189.923 360.907L195.599 356.173C195.579 355.445 195.381 354.734 195.024 354.1C194.459 353.155 192.721 352.948 192.721 352.948C192.721 352.948 195.749 345.564 195.565 343.732C195.38 341.901 195.012 336.153 195.012 336.153L188.564 332.904Z" fill="#ECBE9D"/>
<path d="M188.161 361.426C187.315 361.492 186.465 361.382 185.663 361.103C182.725 357.975 179.958 354.691 177.373 351.266C177.223 350.967 176.866 350.275 188.138 332.64L188.369 332.271L195.484 335.784V336.061C195.484 336.118 195.853 341.763 196.037 343.629C196.221 345.495 194.114 350.759 193.389 352.591C194.194 352.734 194.915 353.179 195.403 353.835C195.793 354.542 196.01 355.332 196.037 356.139V356.369L190.073 361.345H189.911C189.52 361.391 188.864 361.426 188.161 361.426ZM178.283 350.944C179.042 352.095 185.594 359.859 186.204 360.32C187.366 360.496 188.545 360.531 189.716 360.424L195.07 355.943C195.028 355.373 194.863 354.819 194.586 354.319C194.084 353.788 193.403 353.464 192.675 353.409L192.041 353.34L192.283 352.752C193.112 350.736 195.231 345.172 195.081 343.71C194.931 342.247 194.632 337.547 194.551 336.383L188.702 333.504C184.765 339.724 178.709 349.504 178.306 350.944H178.283Z" fill="#263238"/>
<path d="M192.42 352.587L188.64 356.557L189.332 357.216L193.112 353.246L192.42 352.587Z" fill="#263238"/>
<path d="M190.532 233.954C190.547 233.925 190.569 233.901 190.596 233.883C190.624 233.866 190.655 233.857 190.688 233.857C190.72 233.857 190.752 233.866 190.78 233.883C190.807 233.901 190.829 233.925 190.843 233.954C193.998 239.368 227.204 296.331 227.204 297.149C227.204 297.966 195.069 336.095 195.069 336.095L188.564 332.904L202.725 294.534L184.234 281.724L190.532 233.954Z" fill="#90CC8E"/>
<path d="M195.173 336.683L187.966 333.135L202.151 294.707L183.729 281.944L190.073 233.897C190.091 233.763 190.151 233.637 190.244 233.538C190.337 233.439 190.458 233.371 190.591 233.344C190.722 233.321 190.858 233.338 190.979 233.394C191.1 233.449 191.202 233.54 191.27 233.655C207.884 262.154 227.688 296.285 227.688 297.091C227.688 297.898 216.819 311.018 195.415 336.36L195.173 336.683ZM189.152 332.651L194.908 335.496C207.182 320.936 225.293 299.245 226.675 297.057C225.316 294.154 203.912 257.269 190.879 234.922L184.707 281.483L203.267 294.338L189.152 332.651Z" fill="#263238"/>
<path d="M188.955 263.294L197.498 290.802L187.354 284.121L188.955 263.294Z" fill="#629160"/>
<path d="M218.58 291.504L202.726 294.522L211.269 288.866" fill="#90CC8E"/>
<path d="M200.492 295.444L211.016 288.463L211.534 289.258L204.971 293.612L218.488 291.032L218.661 291.965L200.492 295.444Z" fill="#231F20"/>
<path d="M190.343 327.987L190.021 328.887L198.544 331.933L198.865 331.033L190.343 327.987Z" fill="#231F20"/>
<path d="M189.704 257.004L185.225 297.771L186.123 346.601H108.716L107.38 324.196C107.38 324.196 82.315 246.925 82.5338 244.207C82.7525 241.488 124.329 221.168 124.329 221.168L159.48 220.016L190.567 233.459L190.786 244.437" fill="#90CC8E"/>
<path d="M186.607 347.073H108.313L106.955 324.288C104.295 316.098 81.8662 246.891 82.0965 244.195C82.3268 241.5 114.335 225.546 124.156 220.731H124.352L159.607 219.579H159.699L191.109 233.137L191.339 244.425H190.383L190.165 233.747L159.377 220.523L124.433 221.675C108.751 229.358 83.7084 242.283 82.9831 244.333C82.9025 246.43 97.7897 293.186 107.818 324.081V324.207L109.131 346.151H185.594L184.707 297.771L189.186 256.947L190.13 257.05L185.651 297.817L186.607 347.073Z" fill="#263238"/>
<path d="M142.348 233.782L149.567 242.537L144.628 334.033L154.299 344.596L165.168 332.893L154.138 242.917L156.798 229.969L152.618 219.314L133.978 220.835L142.348 233.782Z" fill="#FDB738"/>
<path d="M154.299 345.068C154.172 345.068 154.046 345.011 153.954 344.919L144.27 334.356C144.229 334.309 144.198 334.254 144.178 334.194C144.159 334.135 144.151 334.072 144.155 334.01L149.083 242.698L141.979 234.081L133.609 221.145C133.565 221.076 133.54 220.997 133.536 220.915C133.532 220.833 133.548 220.752 133.584 220.678C133.619 220.604 133.673 220.541 133.74 220.494C133.807 220.446 133.884 220.417 133.966 220.408L152.572 218.864C152.674 218.853 152.778 218.876 152.865 218.931C152.953 218.985 153.02 219.067 153.055 219.164L157.246 229.819C157.269 229.91 157.269 230.005 157.246 230.096L154.598 242.951L165.617 332.858C165.628 332.927 165.622 332.997 165.6 333.064C165.578 333.13 165.54 333.19 165.49 333.238L154.633 344.942C154.541 345.023 154.422 345.068 154.299 345.068ZM145.088 333.86L154.299 343.894L164.661 332.731L153.62 242.974C153.608 242.921 153.608 242.866 153.62 242.813L156.256 230.015L152.25 219.821L134.76 221.249L142.682 233.494L149.889 242.225C149.967 242.319 150.008 242.438 150.004 242.559L145.088 333.86Z" fill="#263238"/>
<path d="M122.544 188.903L127.242 211.976L145.146 227.216L157.016 217.355L156.567 205.71H151.421L129.026 194.501L122.544 188.903Z" fill="#ECBE9D"/>
<path d="M145.146 227.838L126.804 212.241L121.796 187.636L129.303 194.11L151.536 205.226H157.074L157.546 217.575L145.146 227.838ZM127.679 211.711L145.157 226.571L156.533 217.125L156.107 206.171H151.317L128.727 194.859L123.293 190.17L127.679 211.711Z" fill="#263238"/>
<path d="M149.187 223.403L152.986 240.428L163.51 223.622L156.797 212.656L157.016 217.356L149.187 223.403Z" fill="#51A54D"/>
<path d="M152.986 240.901H152.906C152.813 240.883 152.728 240.838 152.661 240.773C152.593 240.707 152.547 240.624 152.526 240.532L148.715 223.472C148.698 223.383 148.705 223.292 148.735 223.207C148.766 223.122 148.818 223.046 148.887 222.988L156.533 217.09L156.314 212.644C156.309 212.536 156.341 212.43 156.404 212.343C156.466 212.255 156.556 212.191 156.659 212.16C156.76 212.132 156.867 212.136 156.964 212.174C157.062 212.211 157.145 212.279 157.2 212.368L163.913 223.345C163.961 223.419 163.987 223.505 163.987 223.593C163.987 223.681 163.961 223.767 163.913 223.841L153.389 240.647C153.351 240.721 153.293 240.784 153.222 240.828C153.151 240.873 153.07 240.898 152.986 240.901ZM149.716 223.622L153.171 239.207L162.911 223.645L157.327 214.51L157.454 217.355C157.457 217.432 157.443 217.509 157.41 217.579C157.378 217.649 157.33 217.711 157.269 217.759L149.716 223.622Z" fill="#263238"/>
<path d="M127.242 211.976L121.416 222.286L143.81 241.546L145.825 225.2L127.242 211.976Z" fill="#51A54D"/>
<path d="M144.179 242.49L120.817 222.389L127.081 211.285L146.332 224.969L144.179 242.49ZM122.026 222.182L143.442 240.612L145.319 225.43L127.392 212.69L122.026 222.182Z" fill="#263238"/>
<path d="M121.059 183.316C121.059 183.316 117.8 177.119 115.382 179.722C112.965 182.326 115.751 189.387 118.906 191.242C122.06 193.096 124.11 192.175 124.11 192.175C124.11 192.175 129.498 201.09 130.615 201.828C131.732 202.565 148.45 210.191 150.672 210.939C152.894 211.688 160.332 209.085 161.817 207.034C163.303 204.984 164.258 182.245 163.89 176.301C163.521 170.357 157.362 149.427 156.613 148.125C155.865 146.824 157.362 133.07 153.827 133.07C151.414 133.169 149.054 133.806 146.919 134.936C146.919 134.936 149.152 130.846 146.55 132.148C143.948 133.45 139.861 136.422 125.008 141.997C110.155 147.572 115.014 156.661 115.382 157.606C115.751 158.55 121.059 183.316 121.059 183.316Z" fill="#FCD9C0"/>
<path d="M151.662 211.538C151.273 211.551 150.884 211.5 150.511 211.388C148.346 210.674 131.571 203.049 130.339 202.231C129.107 201.413 125.123 194.778 123.891 192.739C122.07 193.086 120.186 192.697 118.652 191.656C116.545 190.412 114.542 186.968 114.047 183.8C113.863 183.041 113.853 182.25 114.016 181.486C114.18 180.723 114.513 180.006 114.991 179.388C115.226 179.109 115.527 178.892 115.867 178.757C116.206 178.623 116.574 178.574 116.937 178.616C118.203 178.993 119.294 179.81 120.011 180.92C117.927 171.152 115.198 158.446 114.933 157.813L114.876 157.663C114.266 156.435 113.924 155.091 113.872 153.721C113.82 152.351 114.061 150.985 114.576 149.715C115.981 146.351 119.447 143.621 124.87 141.582C136.81 137.101 141.68 134.36 144.593 132.724C145.295 132.332 145.859 132.01 146.377 131.756C146.665 131.607 147.529 131.169 148.058 131.756C148.588 132.344 148.312 133.139 147.966 134.06C149.815 133.242 151.806 132.792 153.827 132.736C156.728 132.736 156.786 139.083 156.832 144.186C156.776 145.471 156.841 146.76 157.028 148.033C157.845 149.45 163.936 170.553 164.362 176.405C164.788 182.256 163.832 205.203 162.209 207.449C160.793 209.257 154.771 211.538 151.662 211.538ZM124.306 191.564L124.524 191.921C126.585 195.377 130.132 200.941 130.88 201.436C131.824 202.069 148.473 209.707 150.822 210.49C152.848 211.158 160.033 208.612 161.437 206.758C162.842 204.903 163.821 182.844 163.418 176.324C163.026 170.184 156.797 149.404 156.199 148.367C155.922 147.872 155.899 146.616 155.876 144.059C155.876 140.384 155.784 133.553 153.827 133.553C151.511 133.655 149.246 134.269 147.195 135.35L145.756 136.145L146.539 134.705C146.977 134.006 147.26 133.22 147.368 132.401C147.173 132.462 146.985 132.539 146.803 132.632C146.297 132.874 145.744 133.196 145.065 133.576C142.129 135.224 137.212 138 125.204 142.504C120.045 144.439 116.764 146.996 115.452 150.106C114.994 151.258 114.783 152.493 114.832 153.731C114.882 154.969 115.191 156.183 115.739 157.294L115.82 157.49C116.2 158.423 120.978 180.724 121.577 183.27L122.291 186.645L120.679 183.593C120.138 182.556 118.376 179.826 116.902 179.63C116.686 179.601 116.465 179.629 116.263 179.712C116.061 179.795 115.884 179.929 115.751 180.102C115.38 180.619 115.126 181.21 115.007 181.835C114.887 182.459 114.906 183.102 115.06 183.719C115.475 186.576 117.363 189.79 119.17 190.884C122.049 192.578 123.868 191.829 123.937 191.794L124.306 191.564Z" fill="#263238"/>
<path d="M122.533 176.301L125.791 187.083C125.906 187.484 126.149 187.836 126.482 188.085L132.907 193.004C133.223 193.248 133.605 193.391 134.004 193.413C134.403 193.436 134.799 193.337 135.141 193.131C137.486 191.711 139.929 190.46 142.452 189.387C144.582 188.73 150.511 190.758 153.885 191.691C154.205 191.777 154.499 191.942 154.739 192.171C154.978 192.401 155.156 192.687 155.255 193.004L156.073 195.55C156.17 196.009 156.417 196.423 156.776 196.725C157.135 197.028 157.584 197.202 158.053 197.22H160.62C161.599 197.22 163.292 196.944 163.43 197.923C163.925 201.655 163.004 211.193 151.916 211.124C151.642 211.12 151.372 211.061 151.122 210.951L131.168 202.104C130.826 201.956 130.534 201.712 130.328 201.402L124.225 192.371C124.151 192.257 124.086 192.137 124.03 192.013L120.495 183.259C120.317 182.795 120.317 182.282 120.495 181.819L122.533 176.301Z" fill="#263238"/>
<path d="M152.341 186.265C152.196 186.283 152.049 186.283 151.904 186.265L148.565 186C148.503 185.996 148.442 185.979 148.387 185.951C148.331 185.923 148.281 185.885 148.241 185.838C148.2 185.791 148.169 185.736 148.15 185.677C148.13 185.618 148.123 185.555 148.127 185.493C148.132 185.431 148.148 185.371 148.176 185.315C148.204 185.259 148.243 185.21 148.29 185.169C148.337 185.128 148.391 185.097 148.45 185.078C148.51 185.059 148.572 185.051 148.634 185.056L152.088 185.321C152.225 185.366 152.371 185.375 152.512 185.347C152.654 185.319 152.785 185.254 152.894 185.159C152.99 185.074 153.064 184.967 153.108 184.846C153.153 184.725 153.166 184.595 153.147 184.468L150.165 172.511C150.134 172.388 150.152 172.256 150.217 172.146C150.282 172.036 150.387 171.956 150.511 171.924C150.572 171.908 150.636 171.906 150.698 171.915C150.76 171.925 150.82 171.947 150.874 171.981C150.928 172.014 150.974 172.058 151.011 172.109C151.047 172.161 151.073 172.219 151.086 172.281L154.103 184.215C154.148 184.465 154.138 184.722 154.074 184.968C154.009 185.214 153.892 185.442 153.729 185.638C153.567 185.833 153.363 185.991 153.134 186.099C152.904 186.208 152.653 186.264 152.399 186.265H152.341Z" fill="#263238"/>
<path d="M134.334 171.705C134.175 171.709 134.019 171.66 133.891 171.565C133.763 171.47 133.671 171.335 133.628 171.181C133.586 171.027 133.596 170.864 133.657 170.717C133.719 170.57 133.827 170.447 133.966 170.369C137.846 168.065 144.547 168.929 144.824 168.975C144.917 168.988 145.006 169.019 145.087 169.066C145.168 169.114 145.239 169.177 145.296 169.252C145.353 169.327 145.394 169.412 145.418 169.503C145.441 169.594 145.447 169.688 145.434 169.782C145.423 169.875 145.393 169.966 145.346 170.048C145.299 170.129 145.236 170.201 145.16 170.258C145.085 170.315 144.999 170.356 144.908 170.379C144.816 170.402 144.721 170.407 144.628 170.392C144.628 170.392 138.146 169.528 134.691 171.602C134.584 171.668 134.461 171.703 134.334 171.705Z" fill="#263238"/>
<path d="M153.125 168.03C153.028 168.03 152.932 168.011 152.843 167.973C152.754 167.936 152.674 167.881 152.606 167.811C152.54 167.745 152.487 167.666 152.45 167.579C152.414 167.492 152.396 167.399 152.396 167.305C152.396 167.21 152.414 167.117 152.45 167.03C152.487 166.943 152.54 166.864 152.606 166.798C155.439 164.045 160.908 164.31 161.138 164.321C161.327 164.336 161.504 164.423 161.63 164.565C161.757 164.706 161.824 164.892 161.817 165.081C161.806 165.272 161.719 165.45 161.577 165.577C161.435 165.704 161.248 165.77 161.058 165.761C161.058 165.761 155.98 165.519 153.597 167.823C153.472 167.95 153.303 168.025 153.125 168.03Z" fill="#263238"/>
<path d="M138.007 204.362C138.007 204.362 137.155 191.138 144.006 192.359C150.857 193.58 153.689 194.778 153.85 196.967C153.815 198.695 153.381 200.391 152.582 201.924C151.783 203.456 150.641 204.784 149.245 205.802C144.985 208.497 139.182 207.08 138.007 204.362Z" fill="#FCD9C0"/>
<path d="M151.881 197.174C148.827 196.813 145.837 196.038 142.992 194.87C142.875 194.822 142.782 194.729 142.733 194.613C142.684 194.497 142.681 194.366 142.727 194.248C142.776 194.131 142.868 194.038 142.984 193.989C143.1 193.939 143.231 193.937 143.349 193.983C146.097 195.097 148.982 195.837 151.927 196.183C151.989 196.186 152.05 196.201 152.106 196.228C152.162 196.254 152.212 196.292 152.254 196.338C152.296 196.384 152.328 196.438 152.349 196.496C152.37 196.555 152.379 196.617 152.376 196.679C152.377 196.744 152.366 196.809 152.341 196.87C152.317 196.931 152.281 196.986 152.234 197.032C152.188 197.079 152.133 197.115 152.072 197.139C152.011 197.164 151.946 197.176 151.881 197.174Z" fill="#263238"/>
<path d="M143.257 175.633C143.257 176.866 142.67 177.856 141.956 177.856C141.242 177.856 140.655 176.866 140.655 175.633C140.655 174.401 141.242 173.398 141.956 173.398C142.67 173.398 143.257 174.401 143.257 175.633Z" fill="#263238"/>
<path d="M141.945 178.34C140.943 178.34 140.172 177.188 140.172 175.633C140.172 174.078 140.943 172.926 141.945 172.926C142.947 172.926 143.718 174.078 143.718 175.633C143.718 177.188 142.935 178.34 141.945 178.34ZM141.945 173.882C141.565 173.882 141.116 174.643 141.116 175.633C141.116 176.624 141.565 177.384 141.945 177.384C142.325 177.384 142.762 176.612 142.762 175.633C142.762 174.654 142.325 173.94 141.945 173.94V173.882Z" fill="#263238"/>
<path d="M159.215 170.979C159.215 172.212 158.64 173.214 157.914 173.214C157.189 173.214 156.613 172.212 156.613 170.979C156.613 169.747 157.2 168.756 157.914 168.756C158.628 168.756 159.215 169.747 159.215 170.979Z" fill="#263238"/>
<path d="M157.915 173.686C156.925 173.686 156.142 172.535 156.142 170.979C156.142 169.424 156.925 168.272 157.915 168.272C158.905 168.272 159.699 169.424 159.699 170.979C159.699 172.535 158.916 173.686 157.915 173.686ZM157.915 169.229C157.535 169.229 157.097 170 157.097 170.979C157.097 171.959 157.535 172.742 157.915 172.742C158.295 172.742 158.744 171.97 158.744 170.979C158.744 169.989 158.295 169.229 157.915 169.229Z" fill="#263238"/>
<path d="M144.409 213.163C144.409 213.163 141.807 208.705 142.543 208.555C143.28 208.405 152.572 205.583 152.388 204.097C152.203 202.611 149.417 201.309 147.195 201.862C144.973 202.415 133.632 204.65 134 206.332C135.444 211.142 137.182 215.858 139.204 220.454C140.506 222.862 141.991 243.308 141.991 243.308H151.467L151.835 237.364C151.835 237.364 156.659 236.431 157.223 235.13C157.788 233.828 157.408 229.923 157.408 229.923C157.408 229.923 161.679 229.186 161.679 228.253C161.679 227.32 162.98 218.968 161.679 217.885C160.378 216.803 151.317 210.974 149.601 210.974C147.886 210.974 144.409 213.163 144.409 213.163Z" fill="#FCD9C0"/>
<path d="M151.927 243.746H141.565V243.308C141.15 237.652 139.861 222.574 138.825 220.638C136.79 216.004 135.04 211.249 133.586 206.401C133.275 204.984 136.292 203.809 145.56 201.724C146.24 201.574 146.781 201.459 147.126 201.367C147.897 201.2 148.692 201.189 149.467 201.333C150.242 201.478 150.981 201.775 151.64 202.208C151.965 202.401 152.247 202.661 152.465 202.97C152.683 203.28 152.834 203.633 152.906 204.005C153.159 205.963 144.513 208.486 142.947 208.923C143.376 210.173 143.936 211.373 144.616 212.506C145.652 211.884 148.185 210.455 149.648 210.455C151.582 210.455 160.885 216.468 162.036 217.447C163.188 218.427 162.9 221.687 162.336 226.824C162.267 227.481 162.198 228.045 162.198 228.218C162.198 229.243 159.987 229.9 157.961 230.28C158.169 231.948 158.083 233.64 157.707 235.279C157.143 236.592 153.654 237.445 152.33 237.721L151.927 243.746ZM142.44 242.801H151.029L151.398 236.926L151.755 236.857C153.954 236.431 156.51 235.567 156.798 234.911C157.102 233.269 157.152 231.591 156.947 229.934V229.497L157.385 229.427C158.757 229.286 160.084 228.854 161.277 228.16C161.294 227.679 161.337 227.198 161.403 226.72C161.61 224.785 162.255 218.887 161.403 218.173C160.022 217.021 151.041 211.411 149.636 211.411C148.381 211.411 145.641 212.967 144.697 213.577L144.271 213.83L144.029 213.404C142.947 211.55 141.726 209.177 142.037 208.428C142.074 208.337 142.132 208.257 142.206 208.193C142.28 208.129 142.368 208.083 142.463 208.059C144.651 207.518 151.674 205.087 151.95 204.085C151.816 203.622 151.506 203.229 151.087 202.991C150.539 202.635 149.927 202.391 149.285 202.272C148.643 202.154 147.983 202.163 147.345 202.3L145.756 202.657C138.525 204.281 134.737 205.479 134.507 206.228C135.943 210.98 137.662 215.642 139.654 220.189C140.874 222.504 142.187 239.299 142.44 242.801Z" fill="#263238"/>
<path d="M157.419 229.888L157.603 226.179L159.273 225.246" fill="#FCD9C0"/>
<path d="M157.891 229.911L156.936 229.865L157.143 225.891L159.043 224.831L159.503 225.661L158.064 226.467L157.891 229.911Z" fill="#263238"/>
<path d="M142.847 213.009L138.958 215.587L139.483 216.381L143.373 213.802L142.847 213.009Z" fill="#263238"/>
<path d="M119.838 245.796L140.206 280.354L142.002 243.331H151.478C151.478 243.331 157.442 281.471 158.789 290.882C160.136 300.294 159.941 309.924 158.571 311.939C157.2 313.955 151.248 320.625 149.014 320.625C146.78 320.625 139.987 316.87 138.859 315.073C138.295 314.151 124.34 306.433 112.446 294.131C101.174 282.45 89.5226 265.529 89.5226 265.529" fill="#90CC8E"/>
<path d="M149.014 321.04C146.711 321.04 139.676 317.215 138.456 315.28C138.295 315.084 137.109 314.301 135.738 313.379C127.195 307.932 119.269 301.57 112.101 294.407C100.932 282.888 89.2459 265.932 89.0732 265.759L89.8562 265.218C89.9828 265.39 101.612 282.243 112.734 293.751C121.507 302.839 131.432 309.417 136.199 312.584C137.289 313.19 138.302 313.925 139.216 314.773C140.263 316.466 146.918 320.095 148.956 320.095C150.798 320.095 156.532 314.001 158.11 311.628C159.319 309.808 159.641 300.57 158.259 290.894C157.004 282.116 151.65 247.87 151.006 243.746H142.451L140.609 281.909L119.423 246.038L120.241 245.554L139.814 278.683L141.553 242.801H151.915L151.984 243.204C151.984 243.585 157.972 281.448 159.296 290.756C160.62 300.063 160.447 309.935 158.996 312.147C157.695 314.047 151.57 321.04 149.014 321.04Z" fill="#231F20"/>
<path d="M137.742 302.724C137.616 302.71 137.5 302.646 137.42 302.547C137.341 302.447 137.303 302.321 137.316 302.194L139.78 280.239C139.797 280.114 139.862 280.001 139.961 279.924C140.06 279.847 140.185 279.811 140.31 279.824C140.372 279.831 140.432 279.85 140.487 279.881C140.541 279.912 140.589 279.953 140.628 280.002C140.666 280.051 140.695 280.108 140.711 280.168C140.728 280.229 140.732 280.292 140.724 280.354L138.26 302.298C138.255 302.36 138.237 302.42 138.207 302.475C138.178 302.531 138.138 302.579 138.09 302.619C138.042 302.659 137.986 302.688 137.927 302.706C137.867 302.724 137.804 302.73 137.742 302.724Z" fill="#222C67"/>
<path d="M151.627 249.195H141.553C141.425 249.195 141.302 249.144 141.211 249.053C141.12 248.962 141.069 248.839 141.069 248.711C141.069 248.648 141.082 248.585 141.106 248.527C141.131 248.469 141.167 248.417 141.212 248.373C141.257 248.329 141.31 248.294 141.369 248.271C141.427 248.248 141.49 248.237 141.553 248.238H151.627C151.753 248.238 151.873 248.288 151.961 248.377C152.05 248.465 152.1 248.585 152.1 248.711C152.101 248.774 152.09 248.836 152.067 248.895C152.044 248.954 152.009 249.007 151.965 249.052C151.921 249.097 151.869 249.133 151.811 249.157C151.753 249.182 151.69 249.195 151.627 249.195Z" fill="#222C67"/>
<path d="M108.278 346.601L108.727 398.621H187.528L186.606 346.877L108.278 346.601Z" fill="#263238"/>
<path d="M126.655 159.138C126.655 159.138 147.172 159.218 158.663 152.145C170.154 145.073 157.512 125.916 146.309 130.708C135.106 135.5 114.657 143.575 112.919 151.051C111.18 158.527 122.234 186.519 122.234 186.519C122.234 186.519 127.99 171.544 127.633 170.968C127.277 170.392 124.559 164.367 124.559 164.367L126.655 159.138Z" fill="#263238"/>
<path d="M71.1815 158.562H93.8866C94.5876 158.562 95.2818 158.7 95.9293 158.969C96.5768 159.237 97.165 159.631 97.6602 160.128C98.1553 160.624 98.5478 161.213 98.815 161.862C99.0822 162.51 99.219 163.205 99.2175 163.906V174.953C99.2175 176.368 98.6558 177.724 97.6561 178.725C96.6563 179.725 95.3004 180.287 93.8866 180.287H87.9915L86.253 190.481L77.1571 180.287H71.1815C69.7676 180.287 68.4117 179.725 67.412 178.725C66.4122 177.724 65.8506 176.368 65.8506 174.953V163.906C65.8491 163.205 65.9859 162.51 66.2531 161.862C66.5203 161.213 66.9127 160.624 67.4079 160.128C67.9031 159.631 68.4912 159.237 69.1388 158.969C69.7863 158.7 70.4804 158.562 71.1815 158.562Z" fill="white" stroke="#263238" stroke-linecap="round" stroke-linejoin="round"/>
<path d="M87.0244 172.788V171.29L91.25 169.781L87.0244 168.272V166.786L93.1843 169.09V170.484L87.0244 172.788Z" fill="#263238"/>
<path d="M86.1721 176.359H84.3875L79.1718 163.146H80.9679L86.1721 176.359Z" fill="#263238"/>
<path d="M72.1709 170.484V169.009L78.3308 166.706V168.192L74.0937 169.701L78.3308 171.21V172.788L72.1709 170.484Z" fill="#263238"/>
<g clip-path="url(#clip1_616_250)">
<path d="M529.698 258.515C532.741 259.092 535.886 258.756 538.737 257.547L542.651 261.141L546.716 258.181L544.482 253.354C545.495 252.192 546.326 250.884 546.946 249.472C547.574 248.063 547.989 246.569 548.178 245.038L553.244 243.448L552.714 238.46L547.418 237.965C546.4 235.042 544.541 232.485 542.076 230.616L543.227 225.432L540.924 224.407" stroke="#263238" stroke-miterlimit="10"/>
<path d="M538.634 223.393L535.583 227.736C532.542 227.149 529.395 227.481 526.544 228.692L522.618 225.098L518.554 228.058L520.776 232.885C518.758 235.235 517.477 238.128 517.092 241.202L512.026 242.791L512.555 247.779L517.852 248.263C518.867 251.194 520.73 253.756 523.205 255.624L522.054 260.807L526.66 262.846L529.722 258.515" stroke="#263238" stroke-miterlimit="10"/>
<path d="M528.951 250.705C521.018 246.443 524.771 233.841 533.879 235.373" stroke="#263238" stroke-miterlimit="10"/>
<path d="M539.866 240.004C542.284 245.545 537.759 252.249 531.611 251.523" stroke="#263238" stroke-miterlimit="10"/>
<path d="M536.734 236.433C537.408 236.834 538.017 237.335 538.541 237.919" stroke="#263238" stroke-miterlimit="10"/>
<path d="M552.473 272.96L554.004 272.234C555.577 273.535 557.501 274.337 559.531 274.538L560.682 277.856" stroke="#263238" stroke-miterlimit="10"/>
<path d="M556.94 253.274L556.848 254.599C554.943 255.323 553.292 256.593 552.105 258.25L548.651 257.582L547.384 260.635L550.285 262.581C550.141 263.586 550.141 264.606 550.285 265.611C550.41 266.619 550.69 267.602 551.114 268.525L548.812 271.152L550.815 273.743" stroke="#263238" stroke-miterlimit="10"/>
<path d="M560.625 277.833L563.894 277.395L564.125 273.939C566.031 273.215 567.681 271.945 568.868 270.288L572.323 270.956L573.578 267.869L570.676 265.922C571.009 263.909 570.732 261.843 569.882 259.99L572.184 257.352L570.123 254.725L566.992 256.269C565.413 254.971 563.486 254.17 561.454 253.965L560.302 250.647L557.021 251.085" stroke="#263238" stroke-miterlimit="10"/>
<path d="M565.737 265.254C564.965 269.401 559.807 271.428 556.71 268.237C556.048 267.515 555.591 266.629 555.387 265.67C555.184 264.712 555.241 263.716 555.552 262.787C555.864 261.858 556.419 261.029 557.159 260.387C557.899 259.745 558.798 259.314 559.761 259.137" stroke="#263238" stroke-miterlimit="10"/>
<path d="M564.148 260.52C564.779 261.11 565.251 261.851 565.518 262.674" stroke="#263238" stroke-miterlimit="10"/>
</g>
</g>
<defs>
<clipPath id="clip0_616_250">
<rect width="604" height="441" fill="white" transform="translate(0.486328)"/>
</clipPath>
<clipPath id="clip1_616_250">
<rect width="62.8766" height="55.3381" fill="white" transform="translate(511.404 223.059)"/>
</clipPath>
</defs>
</svg>
