<svg width="127" height="285" viewBox="0 0 127 285" fill="none" xmlns="http://www.w3.org/2000/svg">
<path d="M34.7371 219.302L34.6967 218.622L34.1436 219.02L16.4367 231.772L16.2192 231.929L16.2971 232.185C19.054 241.264 22.4753 251.831 25.2069 260.127C26.5727 264.276 27.7663 267.857 28.6185 270.401C29.0446 271.673 29.3853 272.686 29.6195 273.381C29.7366 273.728 29.8271 273.996 29.8883 274.177L29.9579 274.383L29.9755 274.435L29.98 274.448L29.9811 274.452L29.9814 274.453C29.9815 274.453 29.9815 274.453 30.3367 274.332L29.9815 274.453L30.1026 274.81L30.4592 274.687L40.8826 271.085L41.1736 270.984L41.1316 270.679L40.7601 270.73C41.1316 270.679 41.1316 270.679 41.1315 270.678L41.1313 270.677L41.1305 270.671L41.1274 270.648L41.1147 270.556L41.0654 270.197C41.0222 269.882 40.9588 269.419 40.8779 268.827C40.716 267.642 40.4843 265.939 40.2045 263.869C39.645 259.729 38.8937 254.118 38.1263 248.236C36.5903 236.463 34.9934 223.628 34.7371 219.302Z" fill="#FCD9C0" stroke="#263238" stroke-width="0.75"/>
<path d="M17.6726 282.594L43.0276 273.876L41.2491 268.694C41.2491 268.694 38.552 266.84 36.1807 269.079C36.1807 269.079 32.969 273.562 27.9657 271.2L20.0895 278.535C20.0895 278.535 17.0667 280.852 17.6726 282.594Z" fill="#3AA1C9"/>
<path d="M43.3468 274.032L17.5227 282.934L17.438 282.699C16.7866 280.787 19.8094 278.437 19.9397 278.339L27.9201 270.906L28.0765 270.978C32.8257 273.216 35.8485 269.112 35.9788 268.935C38.4999 266.553 41.3599 268.472 41.3859 268.492L41.4576 268.537L43.3468 274.032ZM17.855 282.288L42.7084 273.719L41.0407 268.89C40.3269 268.42 39.4762 268.205 38.6254 268.278C37.7746 268.351 36.9732 268.709 36.3501 269.294C36.3501 269.294 33.0602 273.758 28.0179 271.5L20.2589 278.718C19.4902 279.331 17.6986 281.002 17.855 282.288Z" fill="#263238"/>
<path d="M40.9962 271.809L40.0808 273.022L40.2367 273.14L41.1521 271.927L40.9962 271.809Z" fill="#010101"/>
<path d="M40.0647 271.877L39.1549 273.086L39.311 273.204L40.2208 271.995L40.0647 271.877Z" fill="#010101"/>
<path d="M16.7637 282.164L43.3199 273.009C43.3395 273.002 43.361 273.003 43.3796 273.012C43.3982 273.022 43.4125 273.038 43.4192 273.057L44.2269 275.408C44.2336 275.428 44.2323 275.45 44.2232 275.468C44.2142 275.487 44.198 275.501 44.1784 275.508L17.6222 284.663C17.5128 284.701 17.3928 284.693 17.2888 284.642C17.1848 284.591 17.1051 284.501 17.0675 284.392L16.4972 282.732C16.4596 282.622 16.4669 282.502 16.5177 282.398C16.5684 282.293 16.6585 282.214 16.7679 282.176L16.7637 282.164Z" fill="#7FC6A6"/>
<path d="M44.278 275.82L17.7243 284.957C17.529 285.022 17.3161 285.007 17.131 284.917C16.946 284.827 16.8035 284.668 16.7341 284.474L16.1673 282.823C16.1025 282.627 16.1166 282.414 16.2067 282.228C16.2968 282.043 16.4557 281.9 16.6494 281.831L43.2031 272.694C43.254 272.676 43.308 272.668 43.362 272.671C43.416 272.674 43.4689 272.687 43.5175 272.711C43.5661 272.735 43.6094 272.768 43.645 272.809C43.6805 272.85 43.7075 272.897 43.7243 272.949L44.5321 275.298C44.5674 275.401 44.5605 275.514 44.5129 275.612C44.4652 275.71 44.3808 275.785 44.278 275.82ZM16.8644 282.477C16.836 282.489 16.8129 282.51 16.7997 282.538C16.7864 282.566 16.784 282.597 16.7927 282.627L17.366 284.278C17.3763 284.306 17.3969 284.329 17.4235 284.342C17.4501 284.356 17.4808 284.358 17.5093 284.35L43.822 275.279L43.1706 273.412L16.8644 282.477Z" fill="#263238"/>
<path d="M91.9116 219.02L91.3582 218.621L91.3178 219.302C91.0615 223.628 89.4662 236.463 87.9319 248.236C87.1653 254.118 86.4147 259.729 85.8558 263.869C85.5764 265.939 85.3449 267.642 85.1832 268.827C85.1024 269.419 85.039 269.882 84.9959 270.197L84.9466 270.556L84.934 270.648L84.9308 270.671L84.93 270.677L84.9298 270.679C84.9298 270.679 84.9298 270.679 85.3013 270.73L84.9298 270.679L84.8878 270.984L85.1788 271.085L95.6022 274.687L95.9592 274.81L96.08 274.452L95.7247 274.332C96.08 274.452 96.0801 274.452 96.0801 274.452L96.0804 274.451L96.0815 274.448L96.086 274.435L96.1036 274.383L96.1728 274.177C96.2338 273.996 96.3239 273.728 96.4406 273.381C96.6739 272.686 97.0133 271.673 97.4378 270.401C98.2868 267.857 99.4762 264.276 100.838 260.127C103.56 251.831 106.972 241.264 109.725 232.185L109.803 231.929L109.586 231.772L91.9116 219.02Z" fill="#FCD9C0" stroke="#263238" stroke-width="0.75"/>
<path d="M108.337 282.594L82.9819 273.856L84.7604 268.674C84.7604 268.674 87.4575 266.821 89.8354 269.059C89.8354 269.059 93.0406 273.543 98.0438 271.18L105.92 278.516C105.92 278.516 108.943 280.852 108.337 282.594Z" fill="#3AA1C9"/>
<path d="M84.5257 268.537L84.5973 268.491C84.5973 268.491 87.4833 266.534 90.011 268.935C90.1348 269.111 93.1641 273.216 97.9068 270.978L98.0631 270.906L106.044 278.339C106.174 278.437 109.203 280.787 108.545 282.699L108.467 282.934L82.6429 274.032L84.5257 268.537ZM105.724 278.718L97.9915 271.5C92.9556 273.765 89.6657 269.281 89.6592 269.268C89.0362 268.683 88.2347 268.325 87.3839 268.252C86.5331 268.178 85.6824 268.394 84.9687 268.863L83.3009 273.725L108.154 282.294C108.311 281.002 106.519 279.331 105.75 278.718H105.724Z" fill="#263238"/>
<path d="M85.0109 271.801L84.855 271.919L85.7704 273.132L85.9263 273.014L85.0109 271.801Z" fill="#010101"/>
<path d="M85.9445 271.875L85.7885 271.993L86.6982 273.202L86.8543 273.084L85.9445 271.875Z" fill="#010101"/>
<path d="M108.596 284.582L81.9222 275.3C81.9025 275.293 81.8863 275.279 81.8772 275.26C81.8681 275.241 81.8669 275.219 81.8737 275.2L82.6928 272.838C82.6996 272.818 82.714 272.802 82.7328 272.793C82.7516 272.783 82.7732 272.782 82.7929 272.789L109.467 282.071C109.577 282.109 109.667 282.19 109.718 282.295C109.769 282.4 109.776 282.521 109.738 282.631L109.159 284.299C109.121 284.409 109.041 284.499 108.936 284.55C108.831 284.601 108.711 284.608 108.601 284.57L108.596 284.582Z" fill="#7FC6A6"/>
<path d="M81.4768 275.305L82.2846 272.955C82.3015 272.904 82.3285 272.856 82.364 272.816C82.3995 272.775 82.4429 272.741 82.4915 272.718C82.5401 272.694 82.593 272.68 82.647 272.677C82.7009 272.674 82.755 272.682 82.8058 272.701L109.36 281.837C109.553 281.907 109.712 282.05 109.802 282.235C109.892 282.42 109.906 282.634 109.842 282.829L109.275 284.48C109.205 284.674 109.063 284.834 108.878 284.924C108.693 285.014 108.48 285.028 108.285 284.963L81.7309 275.827C81.6282 275.791 81.5437 275.716 81.4961 275.618C81.4485 275.521 81.4415 275.408 81.4768 275.305ZM82.8319 273.412L82.1804 275.279L108.493 284.35C108.522 284.358 108.552 284.356 108.579 284.342C108.606 284.329 108.626 284.306 108.636 284.278L109.21 282.627C109.218 282.598 109.216 282.566 109.203 282.538C109.19 282.51 109.166 282.489 109.138 282.477L82.8319 273.412Z" fill="#263238"/>
<path d="M40.8774 143.589C40.8774 143.589 -2.51019 171.508 0.649419 193.611C2.98818 209.979 25.4507 266.181 25.4507 266.181L42.5582 263.238C42.5582 263.238 43.2097 214.501 36.5843 197.364C33.3921 189.128 40.4931 184.997 40.4931 184.997C40.4931 184.997 57.9328 175.737 69.9914 166.241C77.0273 160.733 40.8774 143.589 40.8774 143.589Z" fill="#566A8B"/>
<path d="M86.0696 143.589C86.0696 143.589 129.483 171.527 126.324 193.631C123.978 209.998 101.522 266.201 101.522 266.201L84.4149 263.258C84.4149 263.258 83.7634 214.521 90.3888 197.384C93.581 189.148 86.48 185.017 86.48 185.017C86.48 185.017 69.0403 175.756 56.9752 166.261C49.9458 160.733 86.0696 143.589 86.0696 143.589Z" fill="#566A8B"/>
<g style="mix-blend-mode:multiply" opacity="0.39">
<path d="M91.2679 182.622C84.9306 177.487 77.1736 177.849 73.6454 170.488C73.6454 170.488 71.9244 166.537 62.8495 166.654C54.2501 166.759 52.7599 170.488 52.7599 170.488C49.3479 178.085 42.4928 177.791 35.7174 182.622C29.6132 187.098 35.7174 193.716 35.7174 193.716C34.8379 190.068 37.0985 186.805 40.5317 184.997C50.6034 179.665 62.1213 171.978 62.1213 171.978L64.5969 171.788C64.5969 171.788 76.3819 179.665 86.4796 184.997C89.9128 186.805 92.1734 190.068 91.2939 193.716C91.2679 193.716 97.1571 187.373 91.2679 182.622Z" fill="#566A8B"/>
</g>
<path d="M27.5879 98.5593C24.3305 101.868 21.4446 107.291 19.4511 111.5C18.9846 112.382 18.6655 113.335 18.5064 114.32C18.2133 116.656 19.5423 120.572 23.412 121.25V135.667C18.0702 133.98 13.144 131.182 8.95596 127.457C4.754 123.698 1.78983 118.19 2.28495 112.571C2.55856 109.308 3.92013 106.286 5.35987 103.369C8.04391 97.9262 11.1058 92.601 15.21 88.1306L22.8517 94.6436L27.5879 98.5593Z" fill="#FCD9C0"/>
<path d="M23.737 136.11L23.307 135.973C17.9296 134.273 12.9719 131.453 8.75976 127.698C4.06921 123.502 1.53501 117.837 1.978 112.544C2.26465 109.177 3.73045 105.966 5.0855 103.225C7.32654 98.657 10.4796 92.8227 14.9878 87.9086L15.1962 87.6802L23.0594 94.3694L28.0692 98.5591L27.8151 98.8137C25.2549 101.424 22.6034 105.607 19.7435 111.67C19.2984 112.522 18.9885 113.438 18.8249 114.385C18.5448 116.656 19.8217 120.311 23.4633 120.957L23.737 121.002V136.11ZM15.2679 88.5873C10.9096 93.3905 7.85423 99.0747 5.69787 103.512C4.31025 106.325 2.93566 109.347 2.66204 112.597C2.23207 117.694 4.6881 123.156 9.2223 127.209C13.2576 130.803 17.9874 133.529 23.1181 135.216V121.511C19.2614 120.669 17.9063 116.734 18.2125 114.274C18.3786 113.255 18.7086 112.27 19.1897 111.357C21.9845 105.425 24.5904 101.241 27.105 98.5591L22.636 94.8719L15.2679 88.5873Z" fill="#263238"/>
<path d="M100.975 157.294H25.991C25.2198 157.292 24.4808 156.984 23.9361 156.437C23.3914 155.89 23.0854 155.149 23.0854 154.377V106.795C23.0854 106.023 23.3914 105.282 23.9361 104.735C24.4808 104.188 25.2198 103.88 25.991 103.878H100.975C101.747 103.878 102.488 104.185 103.034 104.732C103.58 105.279 103.887 106.021 103.887 106.795V154.364C103.888 154.748 103.814 155.129 103.669 155.484C103.523 155.839 103.309 156.163 103.038 156.435C102.768 156.707 102.446 156.923 102.092 157.071C101.738 157.218 101.358 157.294 100.975 157.294ZM25.991 104.531C25.6944 104.531 25.4008 104.589 25.1269 104.703C24.853 104.817 24.6042 104.984 24.3948 105.194C24.1854 105.405 24.0195 105.654 23.9066 105.929C23.7937 106.204 23.7361 106.498 23.7369 106.795V154.364C23.7343 154.662 23.7907 154.958 23.9029 155.234C24.015 155.51 24.1806 155.761 24.3902 155.973C24.5997 156.185 24.8491 156.353 25.1239 156.467C25.3986 156.582 25.6933 156.641 25.991 156.641H100.975C101.574 156.641 102.149 156.403 102.573 155.978C102.997 155.553 103.235 154.977 103.235 154.377V106.795C103.235 106.194 102.997 105.618 102.573 105.194C102.149 104.769 101.574 104.531 100.975 104.531H25.991Z" fill="#263238"/>
<path d="M93.2032 104.204L95.8091 97.3388C96.5583 97.9196 98.0762 98.8528 98.6494 99.6164C103.49 94.6957 110.311 89.9056 115.158 84.9849C88.4801 46.8727 44.1348 58.0975 33.3791 64.9303C24.998 70.1947 17.6861 76.9991 11.8286 84.9849C16.6755 89.9056 23.4899 94.6957 28.3368 99.6164C28.9035 98.8528 30.4214 97.9196 31.1771 97.3388L33.783 104.204" fill="#90CC8E"/>
<path d="M93.5097 104.315L92.8973 104.087L95.6465 96.8102L95.9983 97.0778C96.2002 97.2344 96.4543 97.4171 96.7344 97.6194C97.4171 98.0653 98.0581 98.5721 98.6497 99.1335C101.034 96.7449 103.901 94.3629 106.682 92.0462C109.464 89.7294 112.344 87.3343 114.721 84.9458C100.461 64.715 81.6009 59.3636 68.2654 58.4369C52.3761 57.3209 38.7996 61.8761 33.5553 65.2044C25.2865 70.3979 18.0611 77.0958 12.2523 84.9523C14.6302 87.3343 17.5097 89.7294 20.2914 92.0462C23.0732 94.3629 25.9331 96.7449 28.324 99.1335C28.9154 98.5699 29.5565 98.061 30.2393 97.6129C30.5194 97.4171 30.7735 97.2344 30.9755 97.0778L31.3208 96.8102L34.0765 104.087L33.4641 104.315L31.0211 97.8544C30.8973 97.9522 30.754 98.0501 30.6107 98.148C29.8733 98.6168 29.197 99.1759 28.5976 99.8122L28.3696 100.112L28.109 99.8448C25.6986 97.3975 22.7344 94.9307 19.8745 92.5487C17.0146 90.1666 14.0113 87.6867 11.5944 85.2134L11.3989 85.0176L11.5618 84.7892C17.4438 76.7599 24.7891 69.9178 33.21 64.6236C38.526 61.2496 52.2589 56.6422 68.311 57.7582C81.8354 58.7045 100.989 64.1537 115.412 84.7696L115.568 84.9915L115.379 85.1872C112.943 87.6606 109.972 90.134 107.099 92.5226C104.226 94.9111 101.275 97.3975 98.8582 99.8644L98.5911 100.132L98.3631 99.8318C97.7676 99.1938 97.0933 98.6346 96.3566 98.1676L95.9462 97.8805L93.5097 104.315Z" fill="#263238"/>
<path d="M100.975 97.3715C104.233 100.687 106.838 105.855 108.845 110.045C109.306 110.927 109.625 111.876 109.79 112.858C110.083 115.194 107.777 118.275 103.562 120.174V136.176C108.923 134.453 115.119 129.747 119.32 125.995C123.522 122.242 126.487 116.728 125.992 111.109C125.718 107.846 124.356 104.831 122.917 101.914C120.233 96.4644 117.477 91.1718 113.373 86.7014L105.444 93.1622L100.975 97.3715Z" fill="#FCD9C0"/>
<path d="M103.236 136.619V119.965L103.431 119.88C107.724 117.922 109.718 114.9 109.47 112.897C109.306 111.95 108.996 111.034 108.552 110.182C106.337 105.509 103.861 100.752 100.734 97.5998L100.5 97.3649L105.21 92.9206L113.399 86.251L113.607 86.4794C117.718 90.9563 120.493 96.2685 123.203 101.763C124.558 104.511 126.024 107.722 126.304 111.083C126.754 116.382 124.219 122.046 119.529 126.236C116.825 128.657 109.868 134.485 103.653 136.482L103.236 136.619ZM103.887 120.382V135.719C109.874 133.637 116.493 128.083 119.099 125.753C123.659 121.694 126.096 116.232 125.666 111.141C125.392 107.878 124.011 104.87 122.623 102.057C119.978 96.6927 117.275 91.511 113.34 87.145L105.646 93.4101L101.464 97.3845C104.539 100.602 106.982 105.294 109.164 109.901C109.641 110.816 109.971 111.801 110.141 112.819C110.441 115.429 107.887 118.516 103.887 120.382Z" fill="#263238"/>
<path d="M100.982 104.204H25.9979C24.5696 104.204 23.4116 105.364 23.4116 106.795V154.364C23.4116 155.795 24.5696 156.955 25.9979 156.955H100.982C102.41 156.955 103.568 155.795 103.568 154.364V106.795C103.568 105.364 102.41 104.204 100.982 104.204Z" fill="#263238"/>
<path d="M67.0074 130.576C67.0086 131.275 66.803 131.958 66.4166 132.539C66.0301 133.121 65.4801 133.574 64.8362 133.843C64.1923 134.111 63.4834 134.182 62.7993 134.046C62.1152 133.911 61.4866 133.575 60.9931 133.081C60.4995 132.588 60.1632 131.959 60.0267 131.274C59.8902 130.589 59.9596 129.879 60.2262 129.233C60.4927 128.587 60.9445 128.036 61.5242 127.647C62.1039 127.259 62.7856 127.052 63.4829 127.052C64.4165 127.052 65.312 127.423 65.9728 128.084C66.6335 128.744 67.0056 129.641 67.0074 130.576Z" fill="white"/>
<path d="M70.9491 57.6211L69.9002 42.8069L54.5973 46.3505L53.7765 58.2541C52.8123 58.3716 51.7765 59.4484 50.8774 59.5593L54.7406 67.6125L62.0436 67.0578L73.7699 59.0633C72.7993 59.0176 71.8677 57.6667 70.9491 57.6211Z" fill="#FCD9C0"/>
<path d="M54.5579 67.9781L50.395 59.3311L50.825 59.2658C51.2763 59.1418 51.702 58.9385 52.0823 58.6654C52.5103 58.3725 52.9774 58.1418 53.4699 57.9802L54.2843 46.0897L70.1931 42.4351L71.255 57.3732C71.7309 57.5395 72.1725 57.7916 72.5579 58.1172C72.9097 58.4347 73.3352 58.659 73.7957 58.7698L74.7273 58.8416L62.154 67.4038H62.0693L54.5579 67.9781ZM51.3396 59.8009L54.9357 67.2929L61.9325 66.7642L73.0074 59.194C72.6992 59.0219 72.4051 58.8255 72.1279 58.6067C71.7855 58.2866 71.3655 58.0617 70.9097 57.9541H70.623L69.5807 43.2312L54.9032 46.6183L54.0888 58.5414L53.8217 58.5806C53.3176 58.7067 52.8422 58.9282 52.4211 59.2332C52.0793 59.4561 51.7172 59.6463 51.3396 59.8009Z" fill="#263238"/>
<mask id="mask0_616_891" style="mask-type:luminance" maskUnits="userSpaceOnUse" x="50" y="42" width="24" height="26">
<mask id="mask1_616_891" style="mask-type:luminance" maskUnits="userSpaceOnUse" x="50" y="42" width="24" height="26">
<path d="M70.9491 57.6211L69.9002 42.8069L54.5973 46.3505L53.7765 58.2541C52.8123 58.3716 51.7765 59.4484 50.8774 59.5593L54.7406 67.6125L62.0436 67.0578L73.7699 59.0633C72.7993 59.0176 71.8677 57.6667 70.9491 57.6211Z" fill="white"/>
</mask>
<g mask="url(#mask1_616_891)">
<path d="M54.5579 67.9779L50.395 59.3308L50.825 59.2656C51.2763 59.1415 51.702 58.9382 52.0823 58.6652C52.5103 58.3723 52.9774 58.1416 53.4699 57.9799L54.2843 46.0894L70.1931 42.4348L71.255 57.373C71.7309 57.5393 72.1725 57.7914 72.5579 58.117C72.9097 58.4345 73.3352 58.6588 73.7957 58.7696L74.7273 58.8414L62.154 67.4036H62.0693L54.5579 67.9779ZM51.3396 59.8007L54.9357 67.2926L61.9325 66.764L73.0074 59.1938C72.6992 59.0216 72.4051 58.8252 72.1279 58.6064C71.7855 58.2864 71.3655 58.0614 70.9097 57.9538H70.623L69.5807 43.231L54.9032 46.618L54.0888 58.5412L53.8217 58.5803C53.3176 58.7065 52.8422 58.928 52.4211 59.2329C52.0793 59.4559 51.7172 59.646 51.3396 59.8007Z" fill="white"/>
</g>
</mask>
<g mask="url(#mask0_616_891)">
<g style="mix-blend-mode:multiply">
<path d="M54.3696 51.604C54.4673 62.1436 66.7475 58.9067 70.1677 48.3801L69.9006 42.8069L54.5976 46.3505L54.3696 51.604Z" fill="#ECBE9D"/>
</g>
</g>
<path d="M70.7276 16.5135C61.4181 16.755 51.8351 12.5457 51.8351 12.5457C43.1641 17.7665 44.4474 26.3157 44.4474 26.3157C46.4018 46.6835 49.1119 52.1067 58.6103 52.1067C68.1087 52.1067 75.8351 41.8412 76.454 27.1445C72.7992 27.3141 70.7276 16.5135 70.7276 16.5135Z" fill="#FCD9C0"/>
<path d="M58.5774 52.433C48.3624 52.433 45.9976 45.9069 44.0953 26.3287C43.9184 24.636 44.0711 22.925 44.5448 21.2906C45.6341 17.4688 48.18 14.2294 51.6327 12.2715L51.7826 12.1802L51.9324 12.252C52.0301 12.2911 61.5806 16.4221 70.7207 16.1676H70.9943L71.0464 16.4417C71.6132 19.3393 73.6523 26.8051 76.3363 26.8051H76.4015H76.7598V27.164C76.1279 41.7824 68.4927 52.433 58.5774 52.433ZM51.8282 12.9111C48.5935 14.7919 46.2101 17.8529 45.1767 21.4537C44.7267 23.0145 44.5786 24.647 44.7402 26.2634C46.7337 46.7749 49.4503 51.7804 58.5774 51.7804C68.0562 51.7804 75.3852 41.5736 76.0823 27.4577C72.7468 27.0466 70.8705 18.7258 70.4601 16.8463C61.9324 16.9834 53.1116 13.4462 51.8282 12.9111Z" fill="#263238"/>
<path d="M75.6266 26.3155C75.8381 25.9996 76.1201 25.7372 76.4502 25.5492C76.7804 25.3612 77.1496 25.2527 77.5289 25.2322C79.2227 25.2322 80.4735 27.4576 79.8741 30.192C79.2748 32.9264 78.4995 35.1518 76.8122 35.1518C76.4251 35.1369 76.0517 35.004 75.742 34.7707C75.4323 34.5375 75.2011 34.215 75.0793 33.8466" fill="#FCD9C0"/>
<path d="M76.8121 35.4782C76.3581 35.4748 75.9164 35.3305 75.5478 35.0652C75.1791 34.7999 74.9016 34.4266 74.7534 33.9968L75.3463 33.7227C75.4438 34.0326 75.6344 34.3048 75.8921 34.5022C76.1497 34.6995 76.4619 34.8125 76.786 34.8256C78.2909 34.8256 79.014 32.4501 79.5287 30.1203C79.6997 29.4744 79.7301 28.7992 79.6177 28.1404C79.5053 27.4817 79.2527 26.8549 78.8772 26.3026C78.7174 26.0781 78.5077 25.8941 78.2646 25.7649C78.0214 25.6358 77.7516 25.5652 77.4765 25.5586C77.1477 25.582 76.8285 25.6799 76.543 25.8449C76.2574 26.01 76.0131 26.2379 75.8283 26.5114L75.3137 26.1133C75.5567 25.7585 75.8784 25.4648 76.2536 25.2553C76.6289 25.0459 77.0475 24.9263 77.4765 24.906C77.8485 24.9143 78.2137 25.0073 78.5445 25.178C78.8752 25.3488 79.1628 25.5928 79.3853 25.8914C79.8231 26.5204 80.1171 27.2383 80.2466 27.994C80.3761 28.7497 80.3378 29.5247 80.1345 30.2639C79.5938 32.9722 78.773 35.4782 76.8121 35.4782Z" fill="#263238"/>
<path d="M48.4675 33.8467C44.6564 33.8467 42.9691 32.9396 42.8974 32.9004C42.8488 32.8739 42.8078 32.8354 42.7781 32.7886C42.7485 32.7418 42.7313 32.6882 42.728 32.6329L42.4414 28.3126C42.4383 28.2538 42.4504 28.1953 42.4767 28.1426C42.5029 28.09 42.5424 28.0451 42.5912 28.0124C47.1515 25.1475 51.9007 27.1575 53.2492 27.8427C53.3197 27.8852 53.3715 27.9528 53.3943 28.032C53.4171 28.1112 53.4091 28.196 53.372 28.2695C53.3349 28.3431 53.2714 28.3998 53.1942 28.4284C53.1171 28.4569 53.032 28.4552 52.9561 28.4235C51.6987 27.7709 47.3144 25.9306 43.1059 28.4627L43.3665 32.3783C44.9983 32.9762 46.7315 33.2467 48.4675 33.1745C49.6792 33.1948 50.8889 33.0677 52.0701 32.796C52.1565 32.7752 52.2475 32.7897 52.3233 32.8362C52.399 32.8827 52.4532 32.9575 52.474 33.044C52.4947 33.1305 52.4803 33.2218 52.4338 33.2977C52.3874 33.3735 52.3128 33.4278 52.2264 33.4486C50.9942 33.7337 49.7319 33.8674 48.4675 33.8467Z" fill="#1A2F36"/>
<path d="M62.7015 33.8596C58.9491 33.8596 58.2129 33.1418 58.1413 32.9982C58.1152 32.9685 58.0972 32.9325 58.0892 32.8938L56.7211 28.3843C56.7 28.3158 56.7019 28.2423 56.7266 28.1751C56.7514 28.1079 56.7975 28.0506 56.8579 28.0123C62.0696 24.7036 67.7569 28.0123 67.8155 28.0123C67.863 28.0405 67.9024 28.0806 67.9298 28.1287C67.9572 28.1767 67.9717 28.231 67.9719 28.2864L68.0826 32.6066C68.0853 32.6596 68.0748 32.7123 68.052 32.7602C68.0293 32.808 67.995 32.8494 67.9523 32.8807C67.8611 32.9329 66.5452 33.8596 62.7015 33.8596ZM58.6494 32.6458C58.8058 32.7502 59.6722 33.2331 62.7015 33.2331C65.6201 33.2331 66.9817 32.6784 67.3921 32.4696L67.2944 28.554C66.3953 28.0841 61.7504 25.8913 57.3856 28.4887L58.6494 32.6458Z" fill="#1A2F36"/>
<path d="M57.0012 28.6194H53.4051C53.3187 28.6194 53.2358 28.585 53.1748 28.5238C53.1137 28.4626 53.0793 28.3796 53.0793 28.2931C53.0793 28.2066 53.1137 28.1236 53.1748 28.0624C53.2358 28.0012 53.3187 27.9668 53.4051 27.9668H57.0012C57.0876 27.9668 57.1704 28.0012 57.2315 28.0624C57.2926 28.1236 57.3269 28.2066 57.3269 28.2931C57.3269 28.3796 57.2926 28.4626 57.2315 28.5238C57.1704 28.585 57.0876 28.6194 57.0012 28.6194Z" fill="#1A2F36"/>
<path d="M56.1804 43.8381C55.4662 43.8451 54.7549 43.7462 54.0696 43.5444C54.0269 43.5311 53.9871 43.5095 53.9527 43.4808C53.9182 43.4522 53.8898 43.417 53.8689 43.3773C53.848 43.3376 53.8352 43.2942 53.831 43.2495C53.8269 43.2048 53.8316 43.1598 53.8449 43.1169C53.8581 43.0741 53.8797 43.0343 53.9083 42.9998C53.9369 42.9653 53.9721 42.9367 54.0117 42.9158C54.0513 42.8949 54.0947 42.882 54.1393 42.8779C54.1838 42.8738 54.2288 42.8785 54.2716 42.8918C55.6313 43.2738 57.0754 43.2283 58.4084 42.7613C59.4241 42.3741 60.3095 41.7066 60.9621 40.8361C61.0131 40.7665 61.0887 40.719 61.1734 40.7032C61.2581 40.6875 61.3456 40.7046 61.4182 40.7512C61.4537 40.7749 61.4841 40.8054 61.5077 40.841C61.5313 40.8765 61.5475 40.9165 61.5554 40.9585C61.5633 41.0005 61.5627 41.0436 61.5537 41.0853C61.5447 41.1271 61.5274 41.1666 61.5029 41.2015C60.7793 42.1876 59.7859 42.9425 58.6429 43.3747C57.8562 43.675 57.0222 43.8319 56.1804 43.8381Z" fill="#263238"/>
<path d="M62.3759 29.1218C62.8123 29.1218 63.1185 29.8201 63.1185 30.7142C63.1185 31.6083 62.7537 32.3065 62.3237 32.3065C61.8938 32.3065 61.6136 31.5756 61.6136 30.6881C61.6136 29.8005 61.9589 29.1218 62.3759 29.1218Z" fill="#263238"/>
<path d="M49.5423 29.1218C49.9723 29.1218 50.2785 29.8201 50.2785 30.7142C50.2785 31.6083 49.9137 32.3065 49.4837 32.3065C49.0537 32.3065 48.7476 31.5756 48.7476 30.6881C48.7476 29.8005 49.1124 29.1218 49.5423 29.1218Z" fill="#263238"/>
<path d="M67.6335 29.3373C67.5471 29.3511 67.4587 29.33 67.3879 29.2786C67.317 29.2272 67.2694 29.1497 67.2556 29.0632C67.2418 28.9766 67.2629 28.8881 67.3142 28.8171C67.3655 28.7462 67.4428 28.6985 67.5292 28.6846L75.5227 25.9829C75.5887 25.9609 75.66 25.9611 75.7259 25.9835C75.7917 26.0059 75.8485 26.0492 75.8875 26.1068C75.9288 26.1637 75.9511 26.2323 75.9511 26.3026C75.9511 26.373 75.9288 26.4415 75.8875 26.4984L74.9364 27.6927C74.9103 27.7267 74.8777 27.7551 74.8404 27.7763C74.8031 27.7974 74.762 27.8108 74.7194 27.8157C74.6769 27.8205 74.6338 27.8168 74.5927 27.8046C74.5516 27.7925 74.5134 27.7722 74.4804 27.7449C74.4464 27.7188 74.418 27.6861 74.3969 27.6487C74.3758 27.6114 74.3625 27.5702 74.3576 27.5276C74.3527 27.4849 74.3565 27.4418 74.3686 27.4006C74.3808 27.3595 74.401 27.3212 74.4282 27.2881L74.6888 26.9552L67.7442 29.3046C67.7099 29.3229 67.6722 29.334 67.6335 29.3373Z" fill="#263238"/>
<path d="M52.1613 40.0465C51.8896 40.0369 51.6233 39.9676 51.3813 39.8436C51.1393 39.7195 50.9274 39.5438 50.7606 39.3287C50.5916 39.0538 50.4931 38.7414 50.4737 38.4192C50.4544 38.0969 50.5149 37.7749 50.6499 37.4818L52.93 30.5381C52.9462 30.4868 52.9725 30.4392 53.0073 30.3982C53.0421 30.3572 53.0847 30.3236 53.1326 30.2993C53.1805 30.2749 53.2328 30.2605 53.2864 30.2566C53.34 30.2528 53.3938 30.2597 53.4447 30.277C53.5471 30.3113 53.6319 30.3847 53.6806 30.4812C53.7294 30.5777 53.7383 30.6896 53.7053 30.7926L51.3926 37.7428C51.304 37.9143 51.2578 38.1045 51.2578 38.2975C51.2578 38.4906 51.304 38.6808 51.3926 38.8523C51.4835 38.9618 51.5956 39.0518 51.7221 39.1168C51.8486 39.1819 51.9869 39.2206 52.1287 39.2308C52.1865 39.2234 52.2452 39.2285 52.3009 39.2457C52.3566 39.2628 52.408 39.2916 52.4517 39.3302C52.4954 39.3688 52.5304 39.4162 52.5544 39.4694C52.5783 39.5226 52.5907 39.5803 52.5907 39.6387C52.5907 39.697 52.5783 39.7547 52.5544 39.8079C52.5304 39.8611 52.4954 39.9085 52.4517 39.9471C52.408 39.9857 52.3566 40.0145 52.3009 40.0317C52.2452 40.0488 52.1865 40.0539 52.1287 40.0465H52.1613Z" fill="#263238"/>
<path d="M52.1473 33.4616C52.1107 33.4684 52.0732 33.4684 52.0366 33.4616C51.9554 33.4322 51.8892 33.3716 51.8526 33.2933C51.8159 33.215 51.8118 33.1253 51.8412 33.0439C51.8412 33.0439 52.8965 30.1137 52.7793 28.3321C52.7757 28.2896 52.7807 28.2468 52.7939 28.2062C52.8072 28.1656 52.8284 28.1281 52.8563 28.0959C52.8842 28.0636 52.9183 28.0373 52.9565 28.0185C52.9948 27.9997 53.0364 27.9887 53.0789 27.9862C53.1643 27.9808 53.2484 28.0093 53.313 28.0655C53.3776 28.1216 53.4175 28.201 53.4242 28.2864C53.561 30.2443 52.4991 33.1418 52.4535 33.2658C52.427 33.3247 52.3839 33.3746 52.3295 33.4094C52.2751 33.4441 52.2118 33.4623 52.1473 33.4616Z" fill="#1A2F36"/>
<path d="M43.7504 27.3728C41.5289 24.0511 36.4865 15.404 44.7145 9.15206C44.7145 9.15206 47.3204 -0.382524 60.7667 0.361447C75.6266 1.19026 86.1738 13.0938 76.923 28.2734C76.5126 28.9261 75.379 30.0551 75.0794 29.3307C74.3758 27.6339 72.2585 23.6204 71.822 20.7293C71.6787 19.7373 71.6787 18.7323 70.6885 18.5953C68.7343 18.3435 66.8629 17.6494 65.2162 16.5657C65.1632 16.5291 65.099 16.5124 65.0349 16.5186C64.9708 16.5247 64.911 16.5533 64.8659 16.5993C64.8207 16.6453 64.7932 16.7057 64.7882 16.77C64.7832 16.8342 64.8009 16.8982 64.8383 16.9507C65.8762 18.1527 67.2635 18.9993 68.8057 19.3719C68.8629 19.3921 68.9116 19.4308 68.9444 19.4819C68.9773 19.5329 68.9922 19.5934 68.987 19.6539C68.9818 19.7143 68.9567 19.7714 68.9156 19.816C68.8746 19.8606 68.8199 19.8904 68.7601 19.9005C66.0891 20.2594 59.8546 20.6379 55.4377 17.3684C55.3853 17.3309 55.3214 17.3131 55.2572 17.3182C55.1931 17.3232 55.1327 17.3508 55.0868 17.396C55.0409 17.4412 55.0124 17.5011 55.0063 17.5653C55.0001 17.6295 55.0168 17.6938 55.0533 17.7469C55.6393 18.5881 56.4048 19.2881 57.2943 19.7961C57.3481 19.825 57.3907 19.8711 57.4153 19.927C57.4399 19.983 57.4451 20.0456 57.4301 20.1048C57.4151 20.1641 57.3808 20.2166 57.3326 20.2541C57.2844 20.2916 57.2251 20.3118 57.164 20.3116C55.0403 20.2464 51.5745 19.7504 49.0794 17.4728C48.9218 17.3312 48.733 17.2291 48.5283 17.175C48.3237 17.1208 48.1091 17.1162 47.9023 17.1614C47.6955 17.2067 47.5024 17.3005 47.339 17.4352C47.1755 17.5699 47.0463 17.7416 46.9621 17.9362C45.9784 20.1876 44.5126 24.0576 44.5582 27.0726C44.5645 27.1694 44.5395 27.2657 44.4869 27.3471C44.4342 27.4285 44.3568 27.4907 44.266 27.5244C44.1752 27.5581 44.076 27.5616 43.9831 27.5343C43.8902 27.507 43.8086 27.4504 43.7504 27.3728Z" fill="#263238"/>
<path d="M75.4052 29.9115H75.3466C75.2198 29.9019 75.0986 29.8555 74.9979 29.7778C74.8972 29.7001 74.8214 29.5946 74.7798 29.4742C74.6234 29.0957 74.3954 28.5997 74.1283 28.032C73.2163 26.0742 71.8482 23.0787 71.5224 20.7946L71.4964 20.4422C71.3661 19.4567 71.2488 19.0129 70.6821 18.9346C68.8038 18.6944 66.9982 18.0559 65.3856 17.0617C66.3535 18.035 67.5636 18.7312 68.8905 19.0782C69.0207 19.1183 69.1333 19.2017 69.2099 19.3145C69.2865 19.4273 69.3224 19.5629 69.3118 19.6989C69.3012 19.8349 69.2446 19.9632 69.1515 20.0627C69.0583 20.1622 68.9341 20.227 68.7993 20.2464C66.2912 20.5792 60.0632 20.9969 55.529 17.8644C56.0458 18.5432 56.6953 19.1094 57.4378 19.5285C57.5545 19.5914 57.6471 19.6914 57.7011 19.8127C57.7551 19.934 57.7674 20.0698 57.7362 20.1989C57.7049 20.3279 57.6318 20.443 57.5283 20.5259C57.4248 20.6089 57.2967 20.6552 57.1641 20.6575C54.7602 20.5792 51.3726 20.0049 48.871 17.7338C48.7554 17.6267 48.6156 17.5493 48.4635 17.5084C48.3114 17.4674 48.1516 17.4642 47.998 17.4989C47.8391 17.531 47.6903 17.6012 47.5643 17.7035C47.4384 17.8058 47.3391 17.9371 47.2749 18.0862C46.3694 20.1615 44.8514 24.0837 44.897 27.1118C44.8988 27.2793 44.8465 27.4429 44.7479 27.5781C44.6492 27.7134 44.5096 27.813 44.3498 27.8623C44.1918 27.9137 44.0213 27.9115 43.8647 27.856C43.7081 27.8006 43.5741 27.695 43.4834 27.5556C38.2716 19.8548 38.6299 13.4332 44.4345 8.97585C44.7863 7.89905 48.0436 -0.637051 60.7863 0.0547126C69.112 0.518064 75.9264 4.31624 79.0273 10.2093C81.8091 15.5084 81.1641 21.9954 77.2097 28.4823C76.9166 28.926 76.0566 29.9115 75.4052 29.9115ZM65.0729 16.2067C65.1955 16.2083 65.3152 16.2445 65.4182 16.3112C67.0205 17.3659 68.8441 18.0359 70.7472 18.269C71.8742 18.4256 72.0045 19.4437 72.1218 20.3443L72.1674 20.6836C72.4866 22.8764 73.8351 25.8001 74.7277 27.7383C74.9948 28.3191 75.2228 28.8216 75.3791 29.2067C75.5615 29.2719 76.2586 28.7303 76.643 28.1038C80.4671 21.8387 81.1055 15.5802 78.441 10.4834C75.5029 4.88401 68.7277 1.12499 60.7472 0.694267C47.7179 -0.0170742 45.112 8.87143 45.0273 9.24995C45.0085 9.31815 44.9672 9.37796 44.9101 9.41962C37.8808 14.7449 40.5452 22.0149 44.0241 27.1771C44.0354 27.2005 44.055 27.2188 44.0791 27.2284C44.1032 27.2381 44.1301 27.2384 44.1544 27.2293C44.1813 27.2219 44.205 27.2057 44.2215 27.1832C44.2381 27.1607 44.2466 27.1332 44.2456 27.1053C44.2 23.9597 45.7505 19.9266 46.6755 17.8121C46.7829 17.5688 46.9464 17.3543 47.1525 17.1864C47.3586 17.0185 47.6014 16.902 47.8612 16.8463C48.1159 16.7903 48.3804 16.7966 48.6322 16.8648C48.8839 16.933 49.1156 17.0609 49.3075 17.2379C51.7244 19.4371 55.1251 19.907 57.0338 19.9919C56.1431 19.4904 55.3805 18.789 54.8058 17.9427C54.7183 17.83 54.6758 17.6887 54.6866 17.5463C54.6975 17.4039 54.7609 17.2707 54.8645 17.1726C54.9635 17.0684 55.0976 17.0046 55.2408 16.9938C55.384 16.9829 55.5262 17.0257 55.6397 17.1139C59.8677 20.2333 65.8612 19.9396 68.4866 19.6199C66.9648 19.2156 65.6017 18.3576 64.5778 17.1595C64.4852 17.0527 64.4343 16.916 64.4343 16.7745C64.4343 16.633 64.4852 16.4963 64.5778 16.3895C64.6403 16.3241 64.7166 16.2737 64.8012 16.2421C64.8858 16.2104 64.9765 16.1983 65.0664 16.2067H65.0729Z" fill="#263238"/>
<path d="M66.6302 25.5585C66.5845 25.558 66.5394 25.5479 66.4979 25.5287C66.4563 25.5096 66.4193 25.482 66.3891 25.4476C66.311 25.3627 64.3761 23.3135 59.9527 25.1408C59.9129 25.1579 59.8702 25.1669 59.8269 25.1673C59.7837 25.1677 59.7408 25.1594 59.7008 25.143C59.6608 25.1266 59.6244 25.1024 59.5938 25.0718C59.5633 25.0412 59.5391 25.0047 59.5227 24.9646C59.5068 24.9248 59.499 24.8822 59.4995 24.8393C59.5001 24.7964 59.5091 24.7541 59.5261 24.7147C59.543 24.6753 59.5676 24.6396 59.5983 24.6097C59.629 24.5798 59.6653 24.5563 59.7051 24.5405C64.5781 22.5239 66.78 24.9124 66.8712 25.0169C66.9024 25.0461 66.9272 25.0815 66.9442 25.1208C66.9612 25.1601 66.9699 25.2025 66.9699 25.2453C66.9699 25.2881 66.9612 25.3304 66.9442 25.3697C66.9272 25.409 66.9024 25.4444 66.8712 25.4737C66.8398 25.5047 66.8019 25.5285 66.7602 25.5431C66.7185 25.5578 66.6741 25.563 66.6302 25.5585Z" fill="#263238"/>
<path d="M52.4152 25.5587C52.3395 25.5523 52.2682 25.52 52.2133 25.4673C51.5586 24.9448 50.7706 24.617 49.939 24.5212C49.1074 24.4255 48.2657 24.5656 47.5097 24.9256C47.4717 24.9444 47.4303 24.9555 47.388 24.9581C47.3457 24.9607 47.3033 24.9549 47.2633 24.9409C47.2233 24.9269 47.1864 24.9051 47.1549 24.8767C47.1234 24.8483 47.0978 24.8139 47.0797 24.7755C47.0608 24.737 47.0497 24.6951 47.047 24.6522C47.0443 24.6093 47.0501 24.5664 47.064 24.5257C47.078 24.4851 47.0997 24.4477 47.1282 24.4155C47.1566 24.3833 47.191 24.3571 47.2296 24.3383C48.0996 23.9307 49.0663 23.7757 50.0199 23.8911C50.9735 24.0065 51.8756 24.3875 52.6237 24.9909C52.6572 25.0175 52.685 25.0506 52.7055 25.0881C52.726 25.1257 52.7388 25.167 52.743 25.2096C52.7473 25.2522 52.7429 25.2953 52.7303 25.3362C52.7176 25.3771 52.6969 25.415 52.6693 25.4477C52.6387 25.4849 52.5997 25.5144 52.5555 25.5336C52.5114 25.5529 52.4633 25.5615 52.4152 25.5587Z" fill="#263238"/>
<path d="M77.568 21.5516H77.4768C77.3939 21.5274 77.3239 21.4711 77.2824 21.3953C77.2409 21.3194 77.2311 21.2301 77.2553 21.147C78.0172 18.4722 77.8236 15.6149 76.7081 13.0677C76.6787 12.99 76.6801 12.9041 76.7118 12.8273C76.7436 12.7506 76.8033 12.6889 76.8789 12.6548C76.9545 12.6207 77.0403 12.6167 77.1187 12.6437C77.1971 12.6707 77.2623 12.7267 77.3009 12.8002C78.4893 15.5007 78.6922 18.5337 77.8742 21.3689C77.8458 21.4253 77.8019 21.4725 77.7476 21.5049C77.6934 21.5372 77.6311 21.5534 77.568 21.5516Z" fill="#A7A4A4"/>
<path d="M53.6131 57.7713L58.6359 66.8099L70.6815 57.2883L74.9747 58.9133L66.5903 71.6131C66.5179 71.7368 66.4215 71.8449 66.3069 71.9308C66.1922 72.0168 66.0615 72.0789 65.9225 72.1136C65.7836 72.1482 65.6391 72.1547 65.4976 72.1326C65.356 72.1106 65.2204 72.0604 65.0985 71.985L58.4665 67.7692L53.2548 70.9539C53.1024 71.0472 52.9289 71.1005 52.7504 71.1089C52.572 71.1172 52.3943 71.0803 52.2339 71.0016C52.0734 70.9228 51.9354 70.8048 51.8326 70.6585C51.7298 70.5121 51.6655 70.3421 51.6457 70.1643L49.105 59.3571L53.6131 57.7713Z" fill="#F1BF4E"/>
<path d="M65.6658 72.4548C65.4047 72.4559 65.149 72.3811 64.9296 72.2395L58.4149 68.1346L53.3921 71.2149C53.1942 71.334 52.9697 71.4017 52.7391 71.4119C52.5084 71.4222 52.2788 71.3746 52.0712 71.2735C51.8635 71.1724 51.6843 71.021 51.5498 70.8329C51.4153 70.6449 51.3298 70.4263 51.3009 70.1968L48.6951 59.1482L53.7439 57.3666L58.7081 66.3203L70.5973 56.9163L75.4768 58.7501L66.8579 71.8022C66.7676 71.9635 66.6453 72.1046 66.4985 72.2168C66.3517 72.329 66.1836 72.41 66.0045 72.4548C65.8919 72.4673 65.7783 72.4673 65.6658 72.4548ZM58.4671 67.3906L65.3009 71.7043C65.385 71.7584 65.4791 71.795 65.5776 71.8118C65.6761 71.8286 65.777 71.8254 65.8742 71.8022C65.9701 71.7776 66.06 71.7336 66.1384 71.673C66.2168 71.6124 66.2821 71.5365 66.3302 71.4498L74.5061 59.0503L70.7667 57.6341L58.5387 67.3058L53.4638 58.1693L49.4899 59.5724L51.9524 70.0859C51.9605 70.2162 52.0027 70.3421 52.0747 70.4509C52.1467 70.5598 52.2461 70.6477 52.3628 70.7058C52.4708 70.7683 52.5932 70.8011 52.7179 70.8011C52.8425 70.8011 52.965 70.7683 53.0729 70.7058L58.4671 67.3906Z" fill="#263238"/>
</svg>
