<svg width="329" height="310" viewBox="0 0 329 310" fill="none" xmlns="http://www.w3.org/2000/svg">
<g clip-path="url(#clip0_475_2553)">
<path d="M304.708 95.8153C293.869 84.4735 278.824 78.1742 263.169 76.9981C232.115 74.7341 175.245 67.3836 157.733 44.1634C133.19 11.689 80.7813 -18.6612 27.4745 69.6549C-25.8323 157.971 9.16062 212.387 57.1949 217.973C105.229 223.56 152.13 239.892 185.171 265.325C220.9 292.823 390.681 185.807 304.708 95.8153Z" fill="#BFC998"/>
<path d="M134.155 32.5828C134.426 31.8493 134.891 31.1723 134.971 30.3917C135.051 29.6112 134.715 28.7691 134.932 27.9928C135.232 26.9216 136.426 26.401 137.229 25.6177C138.529 24.3207 138.722 22.3258 139.453 20.6457C140.654 17.8662 143.423 15.9716 146.319 15.1567C149.215 14.3418 152.335 14.4697 155.362 14.7891C158.127 15.0824 161.125 15.6741 162.904 17.8104C164.684 19.9467 164.225 19.3899 165.496 19.8516C168.928 21.0986 170.672 22.2958 172.607 24.2967C174.022 25.7576 174.1 28.1729 173.196 29.9975C172.292 31.8221 170.567 33.1547 168.773 34.1118C166.081 35.5427 163.058 36.3061 160.091 37.0767C156.096 38.0546 130.258 43.2049 134.155 32.5828Z" fill="#582731"/>
<path d="M136.93 36.0389C136.644 35.9343 136.399 35.7413 136.231 35.4879C136.062 35.2346 135.979 34.9341 135.994 34.6302C136.037 34.024 136.193 33.431 136.453 32.8811C136.714 32.3297 136.814 31.7159 136.741 31.1104C136.597 30.727 136.506 30.3255 136.472 29.9172C136.524 29.148 137.375 28.7099 137.846 28.1019C138.225 27.4967 138.436 26.8014 138.456 26.0879" stroke="#704652" stroke-miterlimit="10"/>
<path d="M142.139 33.9793C142.382 33.6554 142.539 33.2746 142.594 32.8733C142.648 32.4719 142.599 32.0634 142.45 31.6867C142.153 30.9512 141.468 30.3233 141.506 29.5323C141.564 28.4106 142.994 27.8216 143.25 26.7304C143.321 26.2152 143.261 25.6904 143.076 25.2046C142.841 24.3392 142.665 23.4587 142.551 22.5693C142.445 21.7656 142.429 20.8511 142.992 20.2725" stroke="#704652" stroke-miterlimit="10"/>
<path d="M147.166 18.7526C148.194 18.8515 149.339 18.984 150.057 19.7349C150.459 20.2502 150.773 20.8284 150.986 21.4461C151.306 22.2478 151.841 22.946 152.533 23.4644C153.475 24.0993 154.706 24.1873 155.689 24.7578C156.318 25.111 156.838 25.6291 157.193 26.2561C157.548 26.8832 157.725 27.5953 157.704 28.3156" stroke="#704652" stroke-miterlimit="10"/>
<path d="M153.56 17.7095C155.462 17.676 157.532 17.695 159.024 18.8728C159.549 19.2858 160.017 19.8423 160.669 19.9709C160.946 20.0186 161.258 19.9983 161.47 20.1811C161.601 20.3236 161.688 20.5006 161.721 20.6913C162.088 22.0002 162.335 23.3395 162.46 24.693" stroke="#704652" stroke-miterlimit="10"/>
<path d="M166.238 30.3857C166.296 30.4629 166.405 30.3479 166.448 30.2681C166.848 29.3953 166.999 28.4288 166.882 27.4761C166.815 27.0019 166.616 26.556 166.308 26.1886C166.001 25.8212 165.596 25.5469 165.141 25.3965" stroke="#603642" stroke-miterlimit="10"/>
<path d="M148.961 32.1873C148.663 31.4548 148.53 30.6655 148.572 29.8756C148.615 29.0858 148.831 28.3148 149.205 27.6175C149.555 26.9415 150.103 26.2759 150.076 25.5096C150.027 25.1594 149.909 24.8226 149.728 24.5188C149.548 24.215 149.308 23.9505 149.023 23.7409C148.454 23.3265 147.948 22.8326 147.52 22.2745" stroke="#704652" stroke-miterlimit="10"/>
<path d="M145.17 17.2323C145.907 16.7117 146.747 16.3544 147.633 16.1844C148.52 16.0144 149.432 16.0357 150.309 16.2467" stroke="#704652" stroke-miterlimit="10"/>
<path d="M166.234 23.2484C166.833 23.6082 167.467 23.9086 168.125 24.1454C168.662 24.2745 169.188 24.4495 169.695 24.6685C169.952 24.781 170.172 24.9619 170.332 25.1912C170.492 25.4205 170.585 25.6895 170.602 25.9685C170.593 26.1713 170.532 26.3706 170.512 26.5707C170.504 26.7364 170.513 26.9025 170.539 27.0664L170.697 28.4351" stroke="#704652" stroke-miterlimit="10"/>
<path d="M165.877 178.229C99.544 178.229 47.9456 210.454 44.168 308.891H296.394C287.911 207.66 231.209 178.229 165.877 178.229Z" fill="#582731"/>
<path d="M142.844 137.353H194.98V182.786C189.523 195.642 179.795 201.861 169.854 201.809C159.913 201.758 149.552 195.422 142.844 182.786V137.353Z" fill="white" stroke="#582731" stroke-width="1.73"/>
<path d="M210.723 309.457C210.723 303.562 209.56 297.725 207.3 292.279C205.04 286.833 201.727 281.884 197.551 277.716C193.376 273.547 188.418 270.241 182.962 267.985C177.506 265.729 171.658 264.568 165.752 264.568C159.847 264.568 153.999 265.729 148.543 267.985C143.086 270.241 138.129 273.547 133.953 277.716C129.777 281.884 126.464 286.833 124.204 292.279C121.944 297.725 120.781 303.562 120.781 309.457" stroke="white" stroke-width="2.59"/>
<path d="M217.837 309.472C217.837 302.594 216.48 295.784 213.843 289.43C211.206 283.076 207.342 277.303 202.47 272.439C197.598 267.576 191.814 263.718 185.448 261.086C179.082 258.455 172.26 257.1 165.37 257.1C158.48 257.1 151.657 258.455 145.291 261.086C138.926 263.718 133.142 267.576 128.27 272.439C123.398 277.303 119.533 283.076 116.896 289.43C114.259 295.784 112.902 302.594 112.902 309.472" stroke="white" stroke-width="2.59"/>
<path d="M224.951 309.494C224.951 293.62 218.633 278.395 207.388 267.17C196.143 255.945 180.891 249.639 164.987 249.639C149.084 249.639 133.832 255.945 122.586 267.17C111.341 278.395 105.023 293.62 105.023 309.494" stroke="white" stroke-width="2.59"/>
<path d="M180.974 230.565C184.096 230.565 189.81 231.939 192.218 234.306C194.089 236.173 194.089 232.432 197.837 230.565C200.841 229.094 205.333 228.69 205.333 228.69" stroke="#FAF7F0" stroke-width="1.73" stroke-linecap="round"/>
<path d="M203.463 241.083C204.936 241.083 207.557 241.921 208.654 243.369C209.516 244.508 209.516 242.222 211.246 241.083C212.311 240.472 213.488 240.082 214.707 239.936" stroke="#FAF7F0" stroke-width="1.29" stroke-linecap="round"/>
<path d="M217.366 101.255C217.366 121.057 211.858 138.963 202.984 151.9C194.111 164.836 181.916 172.76 168.507 172.76C155.097 172.76 142.903 164.836 134.007 151.914C125.112 138.992 119.633 121.042 119.633 101.269C119.633 91.3095 119.633 81.8568 120.369 73.2567C121.106 64.6566 122.674 56.9753 125.723 50.5437C128.684 44.0064 133.766 38.6564 140.149 35.3575C146.99 31.7632 156.158 29.7565 168.455 29.7565C180.753 29.7565 189.972 31.7485 196.821 35.3428C203.199 38.6444 208.278 43.9939 211.239 50.529C214.288 56.9606 215.827 64.6493 216.593 73.242C217.358 81.8347 217.366 91.2948 217.366 101.255Z" fill="white" stroke="#582731" stroke-width="1.55"/>
<path d="M115.958 65.0315C113.212 76.5938 114.81 87.671 115.958 91.7652C118.617 90.5597 124.25 87.0683 125.531 82.7315C127.159 77.3142 129.331 74.7856 129.692 62.1501C130.053 49.5146 138.764 43.5313 147.262 43.1711C155.76 42.8109 168.801 48.5884 180.922 45.8834C193.043 43.1785 203.014 45.3395 209.155 55.2774C215.297 65.2152 212.417 76.954 214.766 84.7234C216.651 90.9346 218.927 92.0078 219.833 91.7652C220.436 87.3108 221.305 76.0499 219.833 66.6559C218.028 54.8878 209.707 41.5467 203.014 37.2466C196.32 32.9466 191.371 25.2506 169.42 25.2506C150.046 25.2506 141.658 32.6967 134.419 37.2099C127.181 41.7231 119.397 50.5804 115.958 65.0315Z" fill="#582731"/>
<path d="M129.037 135.434C126.643 129.554 124.361 127.106 123.514 126.614C127.137 144.674 142.431 172.415 168.764 172.415C195.65 172.415 209.089 143.836 214.008 126.614C212.339 128.337 210.88 130.252 209.663 132.318C208.301 134.736 202.159 153.502 196.776 155.781C192.925 157.405 192.086 139.801 189.803 139.801C187.52 139.801 196.799 167.733 169.678 167.733C147.586 167.733 155.451 141.153 153.102 139.801C150.752 138.448 151.452 158.081 146.923 159.199C142.395 160.316 132.019 142.778 129.037 135.434Z" fill="#70454F"/>
<path d="M167.697 131.179C164.53 130.59 155.046 133.016 154.044 133.876C154.044 135.412 159.538 135.412 170.377 135.412C180.156 135.412 189.273 134.736 188.131 133.876C186.563 132.693 178.485 130.752 175.061 131.179C171.636 131.605 171.651 131.914 167.697 131.179Z" fill="#70454F"/>
<path d="M111.798 82.6211C115.089 82.4374 118.271 88.3251 119.545 91.9048L119.662 111.656C118.101 113.126 113.992 114.669 110.053 109.149C105.119 102.24 101.275 83.2018 111.798 82.6211Z" fill="white" stroke="#582731" stroke-width="1.55"/>
<path d="M167.623 104.643C166.386 110.046 164.28 121.373 165.768 123.394C167.255 125.416 172.064 124.24 174.288 123.394" stroke="#582731" stroke-width="1.55" stroke-linecap="round" stroke-linejoin="round"/>
<path d="M108.05 90.7876C107.895 89.6483 108.3 87.4137 111.135 87.5975" stroke="#582731" stroke-width="0.78" stroke-linecap="round" stroke-linejoin="round"/>
<path d="M170.893 139.984C166.784 140.293 160.834 139.815 157.078 139.984C156.898 139.99 156.724 140.044 156.572 140.141C156.421 140.238 156.299 140.374 156.218 140.534C156.138 140.695 156.103 140.874 156.117 141.053C156.131 141.232 156.193 141.404 156.297 141.55C159.11 145.799 163.948 150.246 171.622 149.636C179.604 148.989 184.876 145.034 186.121 139.088C186.155 138.934 186.152 138.775 186.113 138.623C186.075 138.471 186.001 138.33 185.898 138.212C185.795 138.093 185.665 138.001 185.52 137.941C185.375 137.881 185.217 137.856 185.061 137.868C180.871 138.154 175.245 139.668 170.893 139.984Z" fill="#582731"/>
<path d="M171.46 141.352C168.397 141.477 163.014 141.234 159.369 141.3C159.169 141.267 158.964 141.309 158.793 141.417C158.622 141.526 158.497 141.693 158.442 141.887C158.386 142.081 158.404 142.289 158.492 142.471C158.58 142.653 158.732 142.796 158.919 142.873C161.644 144.343 165.841 145.409 171.725 144.961C178.279 144.461 182.572 143.101 184.082 140.69C184.162 140.551 184.2 140.391 184.191 140.23C184.182 140.069 184.125 139.915 184.029 139.786C183.933 139.657 183.8 139.559 183.649 139.504C183.497 139.449 183.333 139.44 183.176 139.477C180.009 139.86 177.174 141.116 171.46 141.352Z" fill="white"/>
<path d="M151.519 97.278C153.776 97.278 155.606 95.5141 155.606 93.3382C155.606 91.1623 153.776 89.3983 151.519 89.3983C149.261 89.3983 147.432 91.1623 147.432 93.3382C147.432 95.5141 149.261 97.278 151.519 97.278Z" fill="#582731"/>
<path d="M190.576 95.7345C192.833 95.7345 194.663 93.9705 194.663 91.7946C194.663 89.6187 192.833 87.8547 190.576 87.8547C188.319 87.8547 186.489 89.6187 186.489 91.7946C186.489 93.9705 188.319 95.7345 190.576 95.7345Z" fill="#582731"/>
<path d="M173.286 35.6368C176.129 36.6733 179.28 36.0485 182.307 36.0191C187.552 35.986 192.644 37.7766 196.71 41.0836" stroke="#704652" stroke-miterlimit="10"/>
<path d="M121.783 64.6639C122.313 61.0916 122.976 57.5339 123.786 54.0131C123.966 52.8536 124.417 51.7529 125.104 50.8009C126.246 49.4411 128.131 49.0588 129.758 48.3458C132.308 47.2185 134.347 45.1856 135.48 42.6418" stroke="#704652" stroke-miterlimit="10"/>
<path d="M143.691 40.863C144.312 39.585 145.381 38.5784 146.695 38.0331C148 37.4998 149.378 37.1653 150.782 37.0408C155.618 36.4374 160.517 36.5563 165.318 37.3936" stroke="#704652" stroke-miterlimit="10"/>
<path d="M168.168 41.01C171.967 41.9052 175.889 42.166 179.773 41.7818" stroke="#704652" stroke-miterlimit="10"/>
<path d="M206.452 44.3031C208.205 46.817 211.511 48.0151 212.999 50.698C213.65 52.084 214.032 53.5804 214.125 55.1083L215.024 62.4588" stroke="#704652" stroke-miterlimit="10"/>
<path d="M144.692 31.1604C148.816 30.6458 152.874 29.6903 157.012 29.2786C161.151 28.867 165.48 29.1757 169.185 31.0722" stroke="#704652" stroke-miterlimit="10"/>
<path d="M171.379 30.7929C177.859 31.9102 184.484 31.8953 190.959 30.7488" stroke="#704652" stroke-miterlimit="10"/>
<path d="M122.667 78.9827C125.254 75.6167 126.791 71.5646 127.085 67.3322C127.262 64.8036 126.989 62.2457 127.38 59.7391" stroke="#704652" stroke-miterlimit="10"/>
<path d="M216.483 80.7688C216.317 76.8367 215.824 72.925 215.01 69.0742" stroke="#704652" stroke-miterlimit="10"/>
<path d="M197.483 78.3064H183.669C182.306 78.3064 181.202 79.4089 181.202 80.7688V80.7762C181.202 82.1361 182.306 83.2386 183.669 83.2386H197.483C198.846 83.2386 199.95 82.1361 199.95 80.7762V80.7688C199.95 79.4089 198.846 78.3064 197.483 78.3064Z" fill="#582731"/>
<path d="M158.426 78.3064H144.611C143.249 78.3064 142.145 79.4089 142.145 80.7688V80.7762C142.145 82.1361 143.249 83.2386 144.611 83.2386H158.426C159.788 83.2386 160.893 82.1361 160.893 80.7762V80.7688C160.893 79.4089 159.788 78.3064 158.426 78.3064Z" fill="#582731"/>
<path d="M225.231 82.6211C221.939 82.4374 218.758 88.3251 217.484 91.9048L217.366 111.656C218.927 113.126 223.036 114.669 226.976 109.149C231.947 102.24 235.754 83.2018 225.231 82.6211Z" fill="white" stroke="#582731" stroke-width="1.55"/>
<path d="M229.001 90.7876C229.148 89.6483 228.75 87.4137 225.915 87.5975" stroke="#582731" stroke-width="0.78" stroke-linecap="round" stroke-linejoin="round"/>
</g>
<defs>
<clipPath id="clip0_475_2553">
<rect width="328" height="309" fill="white" transform="translate(0.72168 0.494141)"/>
</clipPath>
</defs>
</svg>
