<svg width="53" height="25" viewBox="0 0 53 25" fill="none" xmlns="http://www.w3.org/2000/svg">
<g clip-path="url(#clip0_640_1109)">
<path d="M0.699219 4.07996C0.699219 3.28871 1.35672 2.64746 2.16797 2.64746H19.2305C20.0417 2.64746 20.6992 3.28871 20.6992 4.07996V21.215C20.6992 22.0062 20.0417 22.6475 19.2305 22.6475H2.16797C1.35672 22.6475 0.699219 22.0062 0.699219 21.215V4.07996ZM6.87797 19.39V10.3587H3.87672V19.39H6.87797ZM5.37797 9.12496C6.42422 9.12496 7.07547 8.43246 7.07547 7.56496C7.05672 6.67871 6.42547 6.00496 5.39797 6.00496C4.37047 6.00496 3.69922 6.67996 3.69922 7.56496C3.69922 8.43246 4.35047 9.12496 5.35797 9.12496H5.37797ZM11.513 19.39V14.3462C11.513 14.0762 11.533 13.8062 11.613 13.6137C11.8292 13.075 12.323 12.5162 13.153 12.5162C14.2392 12.5162 14.673 13.3437 14.673 14.5587V19.39H17.6742V14.21C17.6742 11.435 16.1942 10.145 14.2192 10.145C12.6267 10.145 11.913 11.02 11.513 11.6362V11.6675H11.493L11.513 11.6362V10.3587H8.51297C8.55047 11.2062 8.51297 19.39 8.51297 19.39H11.513Z" fill="#464444"/>
</g>
<path d="M41.7278 2.64746C42.8528 2.65046 43.4238 2.65646 43.9168 2.67046L44.1108 2.67746C44.3348 2.68546 44.5558 2.69546 44.8228 2.70746C45.8868 2.75746 46.6128 2.92546 47.2498 3.17246C47.9098 3.42646 48.4658 3.77046 49.0218 4.32546C49.5303 4.82536 49.9237 5.43005 50.1748 6.09746C50.4218 6.73446 50.5898 7.46046 50.6398 8.52546C50.6518 8.79146 50.6618 9.01246 50.6698 9.23746L50.6758 9.43146C50.6908 9.92346 50.6968 10.4945 50.6988 11.6195L50.6998 12.3655V13.6755C50.7023 14.4049 50.6946 15.1343 50.6768 15.8635L50.6708 16.0575C50.6628 16.2825 50.6528 16.5035 50.6408 16.7695C50.5908 17.8345 50.4208 18.5595 50.1748 19.1975C49.9245 19.8652 49.5309 20.4701 49.0218 20.9695C48.5218 21.4778 47.9171 21.8712 47.2498 22.1225C46.6128 22.3695 45.8868 22.5375 44.8228 22.5875C44.5855 22.5986 44.3482 22.6086 44.1108 22.6175L43.9168 22.6235C43.4238 22.6375 42.8528 22.6445 41.7278 22.6465L40.9818 22.6475H39.6728C38.9431 22.65 38.2133 22.6423 37.4838 22.6245L37.2898 22.6185C37.0524 22.6095 36.8151 22.5991 36.5778 22.5875C35.5138 22.5375 34.7878 22.3695 34.1498 22.1225C33.4825 21.8718 32.878 21.4783 32.3788 20.9695C31.8698 20.4697 31.476 19.865 31.2248 19.1975C30.9778 18.5605 30.8098 17.8345 30.7598 16.7695C30.7487 16.5322 30.7387 16.2948 30.7298 16.0575L30.7248 15.8635C30.7064 15.1343 30.698 14.4049 30.6998 13.6755V11.6195C30.697 10.8901 30.7043 10.1607 30.7218 9.43146L30.7288 9.23746C30.7368 9.01246 30.7468 8.79146 30.7588 8.52546C30.8088 7.46046 30.9768 6.73546 31.2238 6.09746C31.4749 5.42937 31.8695 4.82448 32.3798 4.32546C32.8789 3.81693 33.4829 3.42345 34.1498 3.17246C34.7878 2.92546 35.5128 2.75746 36.5778 2.70746C36.8438 2.69546 37.0658 2.68546 37.2898 2.67746L37.4838 2.67146C38.213 2.65369 38.9424 2.64603 39.6718 2.64846L41.7278 2.64746ZM40.6998 7.64746C39.3737 7.64746 38.1019 8.17424 37.1643 9.11193C36.2266 10.0496 35.6998 11.3214 35.6998 12.6475C35.6998 13.9735 36.2266 15.2453 37.1643 16.183C38.1019 17.1207 39.3737 17.6475 40.6998 17.6475C42.0259 17.6475 43.2976 17.1207 44.2353 16.183C45.173 15.2453 45.6998 13.9735 45.6998 12.6475C45.6998 11.3214 45.173 10.0496 44.2353 9.11193C43.2976 8.17424 42.0259 7.64746 40.6998 7.64746ZM40.6998 9.64746C41.0938 9.6474 41.4839 9.72493 41.8479 9.87563C42.2119 10.0263 42.5426 10.2473 42.8213 10.5258C43.0999 10.8043 43.3209 11.135 43.4717 11.4989C43.6226 11.8629 43.7002 12.253 43.7003 12.647C43.7004 13.0409 43.6228 13.431 43.4721 13.795C43.3214 14.1591 43.1005 14.4898 42.822 14.7684C42.5434 15.0471 42.2128 15.2681 41.8488 15.4189C41.4849 15.5697 41.0948 15.6474 40.7008 15.6475C39.9051 15.6475 39.1421 15.3314 38.5795 14.7688C38.0169 14.2062 37.7008 13.4431 37.7008 12.6475C37.7008 11.8518 38.0169 11.0887 38.5795 10.5261C39.1421 9.96353 39.9051 9.64746 40.7008 9.64746M45.9508 6.14746C45.6193 6.14746 45.3013 6.27916 45.0669 6.51358C44.8325 6.748 44.7008 7.06594 44.7008 7.39746C44.7008 7.72898 44.8325 8.04692 45.0669 8.28134C45.3013 8.51576 45.6193 8.64746 45.9508 8.64746C46.2823 8.64746 46.6003 8.51576 46.8347 8.28134C47.0691 8.04692 47.2008 7.72898 47.2008 7.39746C47.2008 7.06594 47.0691 6.748 46.8347 6.51358C46.6003 6.27916 46.2823 6.14746 45.9508 6.14746Z" fill="#464444"/>
<defs>
<clipPath id="clip0_640_1109">
<rect width="20" height="20" fill="white" transform="translate(0.699219 2.64746)"/>
</clipPath>
</defs>
</svg>
