<svg width="127" height="286" viewBox="0 0 127 286" fill="none" xmlns="http://www.w3.org/2000/svg">
<path d="M34.5109 220.032L34.4706 219.351L33.9174 219.749L16.2105 232.501L15.993 232.658L16.0709 232.915C18.8278 241.993 22.2491 252.561 24.9807 260.857C26.3465 265.005 27.5401 268.587 28.3923 271.131C28.8184 272.403 29.1591 273.416 29.3933 274.11C29.5104 274.458 29.6009 274.726 29.6621 274.907L29.7317 275.112L29.7493 275.165L29.7538 275.178L29.7549 275.181L29.7552 275.182C29.7553 275.182 29.7553 275.182 30.1105 275.062L29.7553 275.182L29.8764 275.54L30.233 275.416L40.6564 271.814L40.9474 271.713L40.9054 271.408L40.5339 271.46C40.9054 271.408 40.9054 271.408 40.9053 271.408L40.9051 271.406L40.9043 271.401L40.9012 271.377L40.8885 271.286L40.8392 270.927C40.796 270.612 40.7326 270.149 40.6517 269.556C40.4899 268.371 40.2581 266.669 39.9783 264.599C39.4188 260.458 38.6675 254.848 37.9001 248.965C36.3641 237.192 34.7672 224.358 34.5109 220.032Z" fill="#FCD9C0" stroke="#263238" stroke-width="0.75"/>
<path d="M17.4455 283.324L42.8006 274.605L41.022 269.424C41.022 269.424 38.325 267.57 35.9536 269.809C35.9536 269.809 32.7419 274.292 27.7387 271.93L19.8624 279.265C19.8624 279.265 16.8396 281.582 17.4455 283.324Z" fill="#3AA1C9"/>
<path d="M43.1198 274.762L17.2957 283.664L17.211 283.429C16.5595 281.517 19.5823 279.167 19.7126 279.069L27.6931 271.636L27.8494 271.708C32.5986 273.946 35.6214 269.842 35.7517 269.665C38.2729 267.283 41.1328 269.202 41.1589 269.222L41.2305 269.267L43.1198 274.762ZM17.6279 283.018L42.4814 274.449L40.8136 269.62C40.0999 269.15 39.2492 268.934 38.3983 269.008C37.5475 269.081 36.7461 269.439 36.123 270.024C36.123 270.024 32.8331 274.488 27.7908 272.23L20.0318 279.448C19.2631 280.061 17.4716 281.732 17.6279 283.018Z" fill="#263238"/>
<path d="M40.7689 272.539L39.8535 273.752L40.0094 273.87L40.9248 272.657L40.7689 272.539Z" fill="#010101"/>
<path d="M39.8375 272.607L38.9277 273.816L39.0838 273.934L39.9936 272.725L39.8375 272.607Z" fill="#010101"/>
<path d="M16.5358 282.893L43.092 273.739C43.1116 273.732 43.1331 273.733 43.1517 273.742C43.1703 273.751 43.1846 273.767 43.1913 273.787L43.999 276.138C44.0057 276.158 44.0044 276.179 43.9953 276.198C43.9863 276.217 43.9701 276.231 43.9505 276.238L17.3943 285.393C17.2849 285.43 17.1649 285.423 17.0609 285.372C16.9568 285.321 16.8772 285.231 16.8396 285.121L16.2693 283.461C16.2317 283.352 16.239 283.232 16.2898 283.127C16.3405 283.023 16.4305 282.943 16.54 282.906L16.5358 282.893Z" fill="#7FC6A6"/>
<path d="M44.0512 276.55L17.4975 285.686C17.3022 285.751 17.0893 285.737 16.9042 285.647C16.7192 285.557 16.5767 285.398 16.5073 285.204L15.9405 283.552C15.8757 283.357 15.8898 283.144 15.9799 282.958C16.07 282.773 16.2289 282.63 16.4226 282.56L42.9763 273.424C43.0272 273.406 43.0812 273.398 43.1352 273.4C43.1892 273.403 43.2421 273.417 43.2907 273.441C43.3393 273.465 43.3826 273.498 43.4181 273.539C43.4537 273.579 43.4807 273.627 43.4975 273.679L44.3053 276.028C44.3406 276.131 44.3337 276.244 44.2861 276.342C44.2384 276.439 44.154 276.514 44.0512 276.55ZM16.6376 283.207C16.6092 283.218 16.5861 283.24 16.5729 283.268C16.5596 283.296 16.5571 283.327 16.5659 283.357L17.1392 285.008C17.1495 285.036 17.1701 285.059 17.1967 285.072C17.2233 285.085 17.254 285.088 17.2825 285.08L43.5952 276.008L42.9437 274.142L16.6376 283.207Z" fill="#263238"/>
<path d="M91.6845 219.75L91.1311 219.35L91.0908 220.032C90.8344 224.358 89.2392 237.192 87.7048 248.966C86.9382 254.848 86.1877 260.458 85.6288 264.599C85.3493 266.669 85.1178 268.371 84.9562 269.556C84.8753 270.149 84.812 270.612 84.7688 270.927L84.7196 271.286L84.707 271.378L84.7038 271.401L84.703 271.407L84.7028 271.408C84.7027 271.408 84.7027 271.408 85.0742 271.46L84.7027 271.408L84.6608 271.713L84.9517 271.814L95.3752 275.416L95.7322 275.54L95.853 275.182L95.4977 275.062C95.853 275.182 95.853 275.182 95.8531 275.182L95.8534 275.181L95.8545 275.177L95.8589 275.164L95.8765 275.112L95.9458 274.906C96.0068 274.725 96.0969 274.457 96.2135 274.11C96.4469 273.415 96.7863 272.402 97.2108 271.13C98.0598 268.586 99.2491 265.005 100.61 260.857C103.333 252.56 106.745 241.993 109.498 232.915L109.576 232.658L109.359 232.502L91.6845 219.75Z" fill="#FCD9C0" stroke="#263238" stroke-width="0.75"/>
<path d="M108.109 283.324L82.7539 274.586L84.5324 269.404C84.5324 269.404 87.2295 267.551 89.6073 269.789C89.6073 269.789 92.8125 274.273 97.8158 271.91L105.692 279.245C105.692 279.245 108.715 281.582 108.109 283.324Z" fill="#3AA1C9"/>
<path d="M84.2988 269.267L84.3704 269.221C84.3704 269.221 87.2564 267.264 89.7841 269.665C89.9079 269.841 92.9372 273.946 97.6799 271.708L97.8362 271.636L105.817 279.069C105.947 279.167 108.976 281.517 108.318 283.429L108.24 283.664L82.416 274.762L84.2988 269.267ZM105.497 279.448L97.7645 272.23C92.7287 274.494 89.4388 270.011 89.4323 269.998C88.8092 269.413 88.0078 269.055 87.157 268.982C86.3062 268.908 85.4555 269.124 84.7417 269.593L83.074 274.455L107.927 283.024C108.084 281.732 106.292 280.061 105.524 279.448H105.497Z" fill="#263238"/>
<path d="M84.7848 272.531L84.6289 272.649L85.5443 273.862L85.7002 273.744L84.7848 272.531Z" fill="#010101"/>
<path d="M85.7166 272.604L85.5605 272.722L86.4703 273.931L86.6264 273.813L85.7166 272.604Z" fill="#010101"/>
<path d="M108.369 285.312L81.6943 276.03C81.6746 276.023 81.6584 276.008 81.6493 275.99C81.6402 275.971 81.639 275.949 81.6458 275.929L82.4649 273.567C82.4717 273.548 82.4861 273.531 82.5049 273.522C82.5237 273.513 82.5453 273.512 82.565 273.519L109.239 282.801C109.349 282.839 109.439 282.92 109.49 283.025C109.541 283.13 109.548 283.25 109.51 283.361L108.932 285.028C108.893 285.138 108.813 285.229 108.708 285.28C108.603 285.331 108.483 285.338 108.373 285.299L108.369 285.312Z" fill="#7FC6A6"/>
<path d="M81.2488 276.034L82.0566 273.685C82.0735 273.633 82.1004 273.586 82.136 273.545C82.1715 273.504 82.2149 273.471 82.2635 273.447C82.3121 273.423 82.3649 273.41 82.4189 273.407C82.4729 273.404 82.5269 273.412 82.5778 273.43L109.132 282.567C109.325 282.636 109.484 282.779 109.574 282.965C109.664 283.15 109.678 283.363 109.614 283.559L109.047 285.21C108.977 285.404 108.835 285.563 108.65 285.653C108.465 285.744 108.252 285.758 108.057 285.693L81.5029 276.556C81.4001 276.521 81.3157 276.446 81.2681 276.348C81.2204 276.25 81.2135 276.137 81.2488 276.034ZM82.6039 274.142L81.9524 276.008L108.265 285.079C108.294 285.088 108.324 285.085 108.351 285.072C108.378 285.059 108.398 285.036 108.408 285.008L108.982 283.357C108.99 283.327 108.988 283.295 108.975 283.268C108.961 283.24 108.938 283.218 108.91 283.206L82.6039 274.142Z" fill="#263238"/>
<path d="M40.6504 144.319C40.6504 144.319 -2.73724 172.237 0.422369 194.341C2.76113 210.709 25.2237 266.911 25.2237 266.911L42.3312 263.968C42.3312 263.968 42.9826 215.231 36.3572 198.094C33.165 189.858 40.266 185.727 40.266 185.727C40.266 185.727 57.7058 176.466 69.7644 166.971C76.8002 161.463 40.6504 144.319 40.6504 144.319Z" fill="#566A8B"/>
<path d="M85.8435 144.319C85.8435 144.319 129.257 172.257 126.098 194.361C123.752 210.728 101.296 266.931 101.296 266.931L84.1888 263.987C84.1888 263.987 83.5373 215.251 90.1628 198.113C93.3549 189.877 86.254 185.746 86.254 185.746C86.254 185.746 68.8142 176.486 56.7491 166.99C49.7198 161.463 85.8435 144.319 85.8435 144.319Z" fill="#566A8B"/>
<g style="mix-blend-mode:multiply" opacity="0.39">
<path d="M91.0408 183.351C84.7035 178.216 76.9466 178.578 73.4183 171.218C73.4183 171.218 71.6973 167.266 62.6224 167.384C54.0231 167.488 52.5328 171.218 52.5328 171.218C49.1208 178.815 42.2658 178.521 35.4903 183.351C29.3861 187.828 35.4903 194.446 35.4903 194.446C34.6109 190.798 36.8714 187.535 40.3047 185.727C50.3763 180.395 61.8942 172.707 61.8942 172.707L64.3698 172.518C64.3698 172.518 76.1548 180.395 86.2525 185.727C89.6858 187.535 91.9464 190.798 91.0669 194.446C91.0408 194.446 96.9301 188.102 91.0408 183.351Z" fill="#566A8B"/>
</g>
<path d="M27.3608 99.289C24.1035 102.598 21.2175 108.021 19.224 112.23C18.7576 113.112 18.4385 114.064 18.2794 115.049C17.9862 117.386 19.3152 121.301 23.1849 121.98V136.396C17.8431 134.709 12.917 131.912 8.72891 128.186C4.52695 124.427 1.56278 118.919 2.0579 113.3C2.33151 110.037 3.69308 107.016 5.13282 104.099C7.81685 98.656 10.8787 93.3307 14.983 88.8604L22.6247 95.3734L27.3608 99.289Z" fill="#FCD9C0"/>
<path d="M23.5099 136.84L23.0799 136.703C17.7025 135.003 12.7449 132.183 8.53271 128.428C3.84216 124.232 1.30796 118.567 1.75095 113.274C2.0376 109.907 3.5034 106.696 4.85844 103.955C7.09949 99.387 10.2526 93.5527 14.7607 88.6386L14.9692 88.4102L22.8324 95.0994L27.8422 99.2891L27.5881 99.5436C25.0278 102.154 22.3764 106.337 19.5164 112.4C19.0713 113.252 18.7614 114.168 18.5979 115.115C18.3177 117.386 19.5946 121.041 23.2363 121.687L23.5099 121.732V136.84ZM15.0409 89.3173C10.6825 94.1205 7.62717 99.8047 5.47082 104.242C4.0832 107.055 2.70861 110.077 2.43499 113.327C2.00502 118.424 4.46105 123.886 8.99525 127.939C13.0306 131.533 17.7603 134.259 22.891 135.946V122.241C19.0343 121.399 17.6793 117.464 17.9855 115.004C18.1515 113.985 18.4815 113 18.9627 112.087C21.7575 106.155 24.3633 101.971 26.878 99.2891L22.4089 95.6019L15.0409 89.3173Z" fill="#263238"/>
<path d="M100.749 158.023H25.7649C24.9937 158.022 24.2547 157.713 23.71 157.167C23.1653 156.62 22.8594 155.879 22.8594 155.106V107.525C22.8594 106.752 23.1653 106.011 23.71 105.464C24.2547 104.917 24.9937 104.609 25.7649 104.607H100.749C101.521 104.607 102.262 104.915 102.808 105.462C103.354 106.009 103.661 106.751 103.661 107.525V155.093C103.662 155.477 103.588 155.858 103.443 156.213C103.297 156.569 103.083 156.892 102.812 157.164C102.542 157.437 102.22 157.653 101.866 157.8C101.512 157.947 101.132 158.023 100.749 158.023ZM25.7649 105.26C25.4684 105.26 25.1747 105.319 24.9008 105.433C24.6269 105.546 24.3781 105.713 24.1687 105.924C23.9593 106.134 23.7934 106.384 23.6805 106.658C23.5677 106.933 23.51 107.227 23.5108 107.525V155.093C23.5083 155.391 23.5647 155.687 23.6768 155.963C23.7889 156.239 23.9545 156.491 24.1641 156.702C24.3737 156.914 24.623 157.082 24.8978 157.197C25.1725 157.312 25.4673 157.371 25.7649 157.371H100.749C101.348 157.371 101.923 157.132 102.347 156.707C102.771 156.283 103.009 155.707 103.009 155.106V107.525C103.009 106.924 102.771 106.348 102.347 105.923C101.923 105.499 101.348 105.26 100.749 105.26H25.7649Z" fill="#263238"/>
<path d="M92.9762 104.934L95.582 98.0688C96.3312 98.6496 97.8491 99.5828 98.4224 100.346C103.263 95.4257 110.084 90.6356 114.931 85.7149C88.253 47.6026 43.9078 58.8275 33.1521 65.6603C24.771 70.9247 17.459 77.7291 11.6016 85.7149C16.4485 90.6356 23.2628 95.4257 28.1097 100.346C28.6765 99.5828 30.1944 98.6496 30.9501 98.0688L33.556 104.934" fill="#90CC8E"/>
<path d="M93.2826 105.045L92.6702 104.816L95.4194 97.5397L95.7712 97.8072C95.9732 97.9639 96.2272 98.1466 96.5074 98.3489C97.19 98.7948 97.831 99.3016 98.4227 99.863C100.807 97.4744 103.674 95.0924 106.455 92.7756C109.237 90.4589 112.117 88.0638 114.494 85.6753C100.234 65.4445 81.3738 60.0931 68.0383 59.1664C52.1491 58.0504 38.5725 62.6056 33.3282 65.9339C25.0594 71.1274 17.8341 77.8253 12.0253 85.6818C14.4031 88.0638 17.2826 90.4589 20.0644 92.7756C22.8461 95.0924 25.7061 97.4744 28.097 99.863C28.6884 99.2994 29.3294 98.7904 30.0123 98.3424C30.2924 98.1466 30.5465 97.9639 30.7484 97.8072L31.0937 97.5397L33.8494 104.816L33.237 105.045L30.794 98.5838C30.6702 98.6817 30.5269 98.7796 30.3836 98.8775C29.6462 99.3463 28.97 99.9054 28.3706 100.542L28.1426 100.842L27.882 100.574C25.4715 98.127 22.5074 95.6602 19.6474 93.2781C16.7875 90.8961 13.7843 88.4162 11.3673 85.9429L11.1719 85.7471L11.3347 85.5187C17.2168 77.4894 24.562 70.6472 32.9829 65.3531C38.2989 61.9791 52.0318 57.3717 68.0839 58.4877C81.6084 59.434 100.761 64.8832 115.185 85.4991L115.341 85.721L115.152 85.9167C112.716 88.3901 109.745 90.8635 106.872 93.252C103.999 95.6406 101.048 98.127 98.6312 100.594L98.3641 100.861L98.136 100.561C97.5406 99.9233 96.8663 99.3641 96.1295 98.8971L95.7191 98.61L93.2826 105.045Z" fill="#263238"/>
<path d="M100.748 98.1013C104.005 101.417 106.611 106.585 108.618 110.775C109.079 111.657 109.398 112.606 109.562 113.588C109.856 115.924 107.549 119.004 103.334 120.903V136.905C108.696 135.182 114.891 130.477 119.093 126.725C123.295 122.972 126.259 117.458 125.764 111.839C125.491 108.576 124.129 105.561 122.689 102.643C120.005 97.1942 117.25 91.9015 113.145 87.4312L105.217 93.892L100.748 98.1013Z" fill="#FCD9C0"/>
<path d="M103.01 137.349V120.695L103.205 120.61C107.498 118.652 109.492 115.63 109.244 113.627C109.08 112.68 108.77 111.764 108.326 110.912C106.111 106.239 103.635 101.482 100.508 98.3298L100.273 98.0949L104.984 93.6506L113.172 86.981L113.381 87.2094C117.492 91.6863 120.267 96.9985 122.977 102.493C124.332 105.241 125.798 108.452 126.078 111.813C126.528 117.112 123.993 122.776 119.303 126.966C116.599 129.387 109.642 135.215 103.427 137.212L103.01 137.349ZM103.661 121.112V136.449C109.648 134.367 116.267 128.813 118.873 126.483C123.433 122.424 125.87 116.962 125.44 111.871C125.166 108.608 123.785 105.6 122.397 102.787C119.752 97.4227 117.049 92.241 113.114 87.875L105.42 94.1401L101.238 98.1144C104.313 101.332 106.756 106.024 108.938 110.631C109.415 111.546 109.745 112.531 109.915 113.549C110.215 116.159 107.661 119.246 103.661 121.112Z" fill="#263238"/>
<path d="M100.754 104.934H25.7699C24.3415 104.934 23.1836 106.094 23.1836 107.525V155.093C23.1836 156.524 24.3415 157.684 25.7699 157.684H100.754C102.182 157.684 103.34 156.524 103.34 155.093V107.525C103.34 106.094 102.182 104.934 100.754 104.934Z" fill="#263238"/>
<path d="M66.7793 131.306C66.7806 132.004 66.575 132.688 66.1885 133.269C65.802 133.851 65.252 134.304 64.6082 134.572C63.9643 134.841 63.2554 134.911 62.5713 134.776C61.8872 134.64 61.2586 134.305 60.7651 133.811C60.2715 133.318 59.9352 132.689 59.7987 132.004C59.6621 131.318 59.7316 130.608 59.9981 129.963C60.2647 129.317 60.7164 128.765 61.2962 128.377C61.8759 127.989 62.5576 127.782 63.2549 127.782C64.1885 127.782 65.084 128.153 65.7447 128.814C66.4055 129.474 66.7776 130.371 66.7793 131.306Z" fill="white"/>
<path d="M70.7221 58.3508L69.6732 43.5366L54.3703 47.0803L53.5494 58.9838C52.5852 59.1013 51.5494 60.1781 50.6504 60.289L54.5136 68.3422L61.8165 67.7875L73.5429 59.7931C72.5722 59.7474 71.6406 58.3965 70.7221 58.3508Z" fill="#FCD9C0"/>
<path d="M54.3308 68.7081L50.168 60.061L50.5979 59.9958C51.0492 59.8717 51.4749 59.6685 51.8553 59.3954C52.2832 59.1025 52.7504 58.8718 53.2429 58.7101L54.0572 46.8196L69.966 43.165L71.0279 58.1032C71.5039 58.2695 71.9455 58.5216 72.3308 58.8472C72.6827 59.1647 73.1082 59.389 73.5686 59.4998L74.5002 59.5716L61.9269 68.1338H61.8422L54.3308 68.7081ZM51.1126 60.5309L54.7087 68.0228L61.7054 67.4942L72.7803 59.924C72.4721 59.7519 72.178 59.5555 71.9009 59.3366C71.5584 59.0166 71.1385 58.7916 70.6826 58.684H70.396L69.3536 43.9612L54.6761 47.3483L53.8618 59.2714L53.5947 59.3105C53.0906 59.4367 52.6151 59.6582 52.194 59.9631C51.8522 60.1861 51.4901 60.3762 51.1126 60.5309Z" fill="#263238"/>
<mask id="mask0_640_585" style="mask-type:luminance" maskUnits="userSpaceOnUse" x="50" y="43" width="24" height="26">
<mask id="mask1_640_585" style="mask-type:luminance" maskUnits="userSpaceOnUse" x="50" y="43" width="24" height="26">
<path d="M70.7221 58.3508L69.6732 43.5366L54.3703 47.0803L53.5494 58.9838C52.5852 59.1013 51.5494 60.1781 50.6504 60.289L54.5136 68.3422L61.8165 67.7875L73.5429 59.7931C72.5722 59.7474 71.6406 58.3965 70.7221 58.3508Z" fill="white"/>
</mask>
<g mask="url(#mask1_640_585)">
<path d="M54.3308 68.7076L50.168 60.0605L50.5979 59.9953C51.0492 59.8713 51.4749 59.668 51.8553 59.3949C52.2832 59.102 52.7504 58.8713 53.2429 58.7097L54.0572 46.8191L69.966 43.1646L71.0279 58.1027C71.5039 58.269 71.9455 58.5211 72.3308 58.8467C72.6827 59.1642 73.1082 59.3885 73.5686 59.4993L74.5002 59.5711L61.9269 68.1333H61.8422L54.3308 68.7076ZM51.1126 60.5304L54.7087 68.0224L61.7054 67.4937L72.7803 59.9235C72.4721 59.7514 72.178 59.555 71.9009 59.3362C71.5584 59.0161 71.1385 58.7912 70.6826 58.6835H70.396L69.3536 43.9607L54.6761 47.3478L53.8618 59.2709L53.5947 59.31C53.0906 59.4362 52.6151 59.6577 52.194 59.9627C51.8522 60.1856 51.4901 60.3757 51.1126 60.5304Z" fill="white"/>
</g>
</mask>
<g mask="url(#mask0_640_585)">
<g style="mix-blend-mode:multiply">
<path d="M54.1426 52.3338C54.2403 62.8734 66.5204 59.6364 69.9406 49.1099L69.6735 43.5366L54.3706 47.0803L54.1426 52.3338Z" fill="#ECBE9D"/>
</g>
</g>
<path d="M70.5014 17.2432C61.1919 17.4847 51.6089 13.2754 51.6089 13.2754C42.9379 18.4962 44.2213 27.0454 44.2213 27.0454C46.1756 47.4133 48.8857 52.8364 58.3841 52.8364C67.8825 52.8364 75.6089 42.5709 76.2278 27.8742C72.573 28.0439 70.5014 17.2432 70.5014 17.2432Z" fill="#FCD9C0"/>
<path d="M58.3503 53.163C48.1353 53.163 45.7705 46.6369 43.8682 27.0587C43.6914 25.366 43.844 23.655 44.3177 22.0205C45.4071 18.1988 47.9529 14.9594 51.4057 13.0015L51.5555 12.9102L51.7054 12.9819C51.8031 13.0211 61.3536 17.1521 70.4936 16.8976H70.7673L70.8194 17.1717C71.3862 20.0693 73.4252 27.5351 76.1093 27.5351H76.1744H76.5327V27.894C75.9008 42.5124 68.2656 53.163 58.3503 53.163ZM51.6011 13.6411C48.3664 15.5219 45.983 18.5829 44.9497 22.1837C44.4997 23.7445 44.3515 25.377 44.5132 26.9934C46.5067 47.5049 49.2233 52.5103 58.3503 52.5103C67.8291 52.5103 75.1581 42.3036 75.8552 28.1877C72.5197 27.7765 70.6435 19.4558 70.2331 17.5763C61.7054 17.7133 52.8845 14.1762 51.6011 13.6411Z" fill="#263238"/>
<path d="M75.3988 27.0452C75.6103 26.7293 75.8923 26.467 76.2225 26.279C76.5526 26.091 76.9219 25.9824 77.3011 25.9619C78.9949 25.9619 80.2457 28.1873 79.6464 30.9217C79.047 33.6562 78.2718 35.8815 76.5845 35.8815C76.1973 35.8667 75.8239 35.7337 75.5142 35.5004C75.2045 35.2672 74.9734 34.9448 74.8516 34.5763" fill="#FCD9C0"/>
<path d="M76.586 36.208C76.1321 36.2045 75.6904 36.0602 75.3217 35.7949C74.953 35.5296 74.6755 35.1564 74.5273 34.7266L75.1202 34.4525C75.2178 34.7623 75.4084 35.0345 75.666 35.2319C75.9237 35.4293 76.2358 35.5422 76.5599 35.5554C78.0648 35.5554 78.7879 33.1799 79.3026 30.8501C79.4736 30.2041 79.504 29.5289 79.3916 28.8702C79.2792 28.2115 79.0267 27.5847 78.6511 27.0323C78.4914 26.8079 78.2816 26.6238 78.0385 26.4947C77.7954 26.3655 77.5256 26.2949 77.2505 26.2883C76.9216 26.3117 76.6024 26.4096 76.3169 26.5747C76.0313 26.7397 75.787 26.9676 75.6023 27.2412L75.0876 26.8431C75.3306 26.4882 75.6523 26.1945 76.0276 25.9851C76.4028 25.7756 76.8214 25.656 77.2505 25.6357C77.6225 25.644 77.9877 25.737 78.3184 25.9078C78.6491 26.0785 78.9367 26.3225 79.1593 26.6212C79.597 27.2502 79.8911 27.968 80.0205 28.7237C80.15 29.4794 80.1118 30.2544 79.9085 30.9936C79.3677 33.702 78.5469 36.208 76.586 36.208Z" fill="#263238"/>
<path d="M48.2414 34.5767C44.4303 34.5767 42.743 33.6696 42.6714 33.6304C42.6228 33.6039 42.5817 33.5654 42.5521 33.5186C42.5224 33.4718 42.5052 33.4182 42.502 33.3628L42.2153 29.0426C42.2122 28.9838 42.2243 28.9253 42.2506 28.8726C42.2769 28.82 42.3164 28.7751 42.3652 28.7424C46.9254 25.8774 51.6746 27.8875 53.0231 28.5727C53.0936 28.6152 53.1454 28.6828 53.1682 28.762C53.191 28.8411 53.183 28.926 53.1459 28.9995C53.1088 29.073 53.0453 29.1298 52.9681 29.1584C52.891 29.1869 52.8059 29.1852 52.73 29.1535C51.4727 28.5009 47.0883 26.6606 42.8798 29.1927L43.1404 33.1083C44.7722 33.7062 46.5054 33.9767 48.2414 33.9045C49.4531 33.9247 50.6628 33.7976 51.844 33.526C51.9304 33.5052 52.0215 33.5197 52.0972 33.5662C52.173 33.6127 52.2272 33.6874 52.2479 33.774C52.2686 33.8605 52.2542 33.9518 52.2078 34.0276C52.1613 34.1035 52.0867 34.1578 52.0003 34.1786C50.7681 34.4637 49.5059 34.5974 48.2414 34.5767Z" fill="#1A2F36"/>
<path d="M62.4755 34.5894C58.723 34.5894 57.9869 33.8715 57.9152 33.7279C57.8891 33.6982 57.8711 33.6623 57.8631 33.6235L56.495 29.114C56.4739 29.0456 56.4758 28.972 56.5006 28.9048C56.5253 28.8376 56.5714 28.7804 56.6318 28.742C61.8435 25.4333 67.5308 28.742 67.5895 28.742C67.637 28.7703 67.6764 28.8104 67.7038 28.8584C67.7312 28.9064 67.7457 28.9608 67.7458 29.0161L67.8566 33.3364C67.8592 33.3893 67.8487 33.4421 67.826 33.4899C67.8032 33.5377 67.769 33.5792 67.7263 33.6105C67.6351 33.6627 66.3191 34.5894 62.4755 34.5894ZM58.4233 33.3755C58.5797 33.48 59.4461 33.9629 62.4755 33.9629C65.394 33.9629 66.7556 33.4082 67.166 33.1993L67.0683 29.2837C66.1693 28.8138 61.5243 26.6211 57.1595 29.2184L58.4233 33.3755Z" fill="#1A2F36"/>
<path d="M56.7734 29.3489H53.1773C53.0909 29.3489 53.0081 29.3145 52.947 29.2533C52.8859 29.1921 52.8516 29.1091 52.8516 29.0226C52.8516 28.9361 52.8859 28.8531 52.947 28.7919C53.0081 28.7307 53.0909 28.6963 53.1773 28.6963H56.7734C56.8598 28.6963 56.9426 28.7307 57.0037 28.7919C57.0648 28.8531 57.0991 28.9361 57.0991 29.0226C57.0991 29.1091 57.0648 29.1921 57.0037 29.2533C56.9426 29.3145 56.8598 29.3489 56.7734 29.3489Z" fill="#1A2F36"/>
<path d="M55.9524 44.5678C55.2382 44.5749 54.5269 44.4759 53.8416 44.2741C53.7988 44.2608 53.7591 44.2393 53.7246 44.2106C53.6902 44.1819 53.6617 44.1467 53.6409 44.107C53.62 44.0673 53.6071 44.0239 53.603 43.9792C53.5989 43.9346 53.6036 43.8895 53.6169 43.8467C53.6301 43.8038 53.6517 43.764 53.6803 43.7295C53.7089 43.695 53.744 43.6665 53.7837 43.6456C53.8233 43.6247 53.8666 43.6118 53.9112 43.6077C53.9558 43.6035 54.0008 43.6082 54.0436 43.6215C55.4033 44.0036 56.8473 43.958 58.1804 43.491C59.1961 43.1038 60.0815 42.4363 60.7341 41.5658C60.7851 41.4962 60.8606 41.4487 60.9454 41.433C61.0301 41.4172 61.1176 41.4344 61.1901 41.481C61.2257 41.5046 61.2561 41.5351 61.2797 41.5707C61.3032 41.6063 61.3195 41.6463 61.3273 41.6882C61.3352 41.7302 61.3347 41.7733 61.3256 41.8151C61.3166 41.8568 61.2994 41.8963 61.2748 41.9313C60.5513 42.9174 59.5579 43.6722 58.4149 44.1045C57.6282 44.4047 56.7942 44.5616 55.9524 44.5678Z" fill="#263238"/>
<path d="M62.1489 29.8516C62.5854 29.8516 62.8916 30.5499 62.8916 31.4439C62.8916 32.338 62.5268 33.0363 62.0968 33.0363C61.6668 33.0363 61.3867 32.3054 61.3867 31.4178C61.3867 30.5303 61.732 29.8516 62.1489 29.8516Z" fill="#263238"/>
<path d="M49.3143 29.8516C49.7443 29.8516 50.0505 30.5499 50.0505 31.4439C50.0505 32.338 49.6857 33.0363 49.2557 33.0363C48.8257 33.0363 48.5195 32.3054 48.5195 31.4178C48.5195 30.5303 48.8844 29.8516 49.3143 29.8516Z" fill="#263238"/>
<path d="M67.4054 30.067C67.319 30.0808 67.2307 30.0597 67.1598 30.0083C67.089 29.9569 67.0414 29.8794 67.0276 29.7929C67.0138 29.7064 67.0348 29.6179 67.0861 29.5469C67.1374 29.4759 67.2148 29.4282 67.3012 29.4144L75.2947 26.7126C75.3607 26.6906 75.432 26.6909 75.4979 26.7132C75.5637 26.7356 75.6205 26.7789 75.6595 26.8366C75.7008 26.8935 75.7231 26.962 75.7231 27.0324C75.7231 27.1027 75.7008 27.1713 75.6595 27.2282L74.7084 28.4224C74.6823 28.4565 74.6496 28.4849 74.6124 28.506C74.5751 28.5271 74.534 28.5405 74.4914 28.5454C74.4489 28.5503 74.4058 28.5465 74.3647 28.5344C74.3236 28.5222 74.2854 28.5019 74.2523 28.4746C74.2184 28.4485 74.19 28.4158 74.1689 28.3785C74.1478 28.3411 74.1344 28.2999 74.1296 28.2573C74.1247 28.2147 74.1285 28.1715 74.1406 28.1304C74.1527 28.0892 74.173 28.0509 74.2002 28.0178L74.4608 27.685L67.5162 30.0344C67.4819 30.0526 67.4442 30.0638 67.4054 30.067Z" fill="#263238"/>
<path d="M51.9333 40.7763C51.6616 40.7666 51.3953 40.6974 51.1533 40.5733C50.9112 40.4493 50.6994 40.2735 50.5326 40.0584C50.3636 39.7836 50.265 39.4711 50.2457 39.1489C50.2264 38.8267 50.2869 38.5047 50.4219 38.2115L52.702 31.2678C52.7182 31.2165 52.7445 31.1689 52.7793 31.1279C52.8141 31.0869 52.8567 31.0533 52.9046 31.029C52.9525 31.0047 53.0048 30.9902 53.0584 30.9864C53.112 30.9826 53.1658 30.9895 53.2166 31.0067C53.3191 31.0411 53.4038 31.1144 53.4526 31.2109C53.5014 31.3074 53.5102 31.4193 53.4772 31.5223L51.1645 38.4726C51.076 38.644 51.0298 38.8342 51.0298 39.0273C51.0298 39.2203 51.076 39.4105 51.1645 39.582C51.2554 39.6915 51.3675 39.7815 51.494 39.8465C51.6205 39.9116 51.7589 39.9504 51.9007 39.9605C51.9585 39.9532 52.0172 39.9582 52.0729 39.9754C52.1285 39.9925 52.1799 40.0214 52.2236 40.0599C52.2674 40.0985 52.3024 40.146 52.3263 40.1992C52.3503 40.2523 52.3627 40.31 52.3627 40.3684C52.3627 40.4268 52.3503 40.4844 52.3263 40.5376C52.3024 40.5908 52.2674 40.6383 52.2236 40.6769C52.1799 40.7154 52.1285 40.7443 52.0729 40.7614C52.0172 40.7785 51.9585 40.7836 51.9007 40.7763H51.9333Z" fill="#263238"/>
<path d="M51.9193 34.1914C51.8827 34.1981 51.8452 34.1981 51.8086 34.1914C51.7274 34.1619 51.6612 34.1014 51.6245 34.023C51.5879 33.9447 51.5838 33.855 51.6131 33.7737C51.6131 33.7737 52.6685 30.8435 52.5512 29.0619C52.5477 29.0193 52.5527 28.9765 52.5659 28.9359C52.5791 28.8954 52.6003 28.8579 52.6283 28.8256C52.6562 28.7934 52.6903 28.7671 52.7285 28.7482C52.7668 28.7294 52.8084 28.7184 52.8509 28.716C52.9363 28.7106 53.0204 28.739 53.085 28.7952C53.1496 28.8514 53.1895 28.9307 53.1962 29.0162C53.333 30.974 52.2711 33.8716 52.2255 33.9956C52.1989 34.0545 52.1559 34.1043 52.1015 34.1391C52.0471 34.1739 51.9838 34.192 51.9193 34.1914Z" fill="#1A2F36"/>
<path d="M43.5226 28.1026C41.3011 24.7808 36.2587 16.1338 44.4868 9.8818C44.4868 9.8818 47.0926 0.347212 60.5389 1.09118C75.3988 1.91999 85.946 13.8235 76.6952 29.0032C76.2848 29.6558 75.1512 30.7848 74.8516 30.0604C74.148 28.3636 72.0307 24.3501 71.5942 21.459C71.4509 20.4671 71.4509 19.4621 70.4607 19.325C68.5065 19.0732 66.6351 18.3791 64.9884 17.2954C64.9354 17.2588 64.8712 17.2422 64.8071 17.2483C64.743 17.2545 64.6832 17.283 64.6381 17.329C64.593 17.375 64.5655 17.4354 64.5604 17.4997C64.5554 17.564 64.5731 17.628 64.6105 17.6805C65.6484 18.8824 67.0357 19.729 68.578 20.1016C68.6351 20.1219 68.6839 20.1606 68.7167 20.2116C68.7495 20.2626 68.7644 20.3231 68.7592 20.3836C68.754 20.4441 68.7289 20.5011 68.6878 20.5457C68.6468 20.5904 68.5921 20.6201 68.5324 20.6302C65.8613 20.9892 59.6268 21.3677 55.2099 18.0981C55.1575 18.0607 55.0936 18.0429 55.0295 18.0479C54.9653 18.053 54.9049 18.0805 54.859 18.1257C54.8132 18.1709 54.7846 18.2309 54.7785 18.2951C54.7724 18.3592 54.789 18.4235 54.8255 18.4766C55.4115 19.3178 56.177 20.0178 57.0666 20.5258C57.1203 20.5547 57.1629 20.6008 57.1875 20.6568C57.2121 20.7127 57.2173 20.7753 57.2023 20.8346C57.1874 20.8938 57.153 20.9464 57.1048 20.9838C57.0566 21.0213 56.9973 21.0416 56.9363 21.0414C54.8125 20.9761 51.3467 20.4801 48.8516 18.2025C48.694 18.0609 48.5052 17.9588 48.3005 17.9047C48.0959 17.8506 47.8813 17.8459 47.6745 17.8912C47.4677 17.9364 47.2746 18.0303 47.1112 18.165C46.9477 18.2997 46.8185 18.4714 46.7343 18.6659C45.7506 20.9174 44.2848 24.7873 44.3304 27.8024C44.3368 27.8992 44.3118 27.9954 44.2591 28.0768C44.2065 28.1582 44.129 28.2204 44.0382 28.2541C43.9474 28.2879 43.8482 28.2914 43.7553 28.264C43.6624 28.2367 43.5808 28.1801 43.5226 28.1026Z" fill="#263238"/>
<path d="M75.1779 30.6412H75.1193C74.9925 30.6317 74.8713 30.5852 74.7706 30.5075C74.6699 30.4298 74.5941 30.3243 74.5525 30.204C74.3961 29.8255 74.1681 29.3295 73.901 28.7617C72.989 26.8039 71.6209 23.8084 71.2952 21.5243L71.2691 21.1719C71.1388 20.1865 71.0215 19.7427 70.4548 19.6644C68.5765 19.4242 66.7709 18.7857 65.1583 17.7914C66.1262 18.7647 67.3363 19.461 68.6632 19.8079C68.7934 19.8481 68.906 19.9314 68.9826 20.0442C69.0592 20.157 69.0951 20.2926 69.0845 20.4286C69.0739 20.5646 69.0173 20.6929 68.9242 20.7925C68.831 20.892 68.7068 20.9567 68.572 20.9761C66.0639 21.3089 59.8359 21.7266 55.3017 18.5941C55.8185 19.2729 56.468 19.8392 57.2105 20.2582C57.3272 20.3212 57.4198 20.4211 57.4738 20.5424C57.5278 20.6637 57.5401 20.7995 57.5089 20.9286C57.4776 21.0577 57.4045 21.1727 57.301 21.2557C57.1975 21.3387 57.0694 21.3849 56.9368 21.3873C54.5329 21.3089 51.1453 20.7346 48.6437 18.4636C48.5281 18.3564 48.3883 18.279 48.2362 18.2381C48.0841 18.1972 47.9243 18.1939 47.7707 18.2286C47.6118 18.2607 47.463 18.3309 47.337 18.4332C47.2111 18.5355 47.1118 18.6668 47.0476 18.816C46.1421 20.8913 44.6241 24.8134 44.6697 27.8415C44.6715 28.009 44.6192 28.1726 44.5206 28.3078C44.4219 28.4431 44.2823 28.5428 44.1225 28.592C43.9645 28.6434 43.794 28.6412 43.6374 28.5858C43.4808 28.5303 43.3468 28.4247 43.2561 28.2853C38.0443 20.5845 38.4026 14.1629 44.2072 9.70559C44.559 8.62879 47.8163 0.0926855 60.559 0.784449C68.8847 1.2478 75.6991 5.04597 78.8 10.939C81.5818 16.2382 80.9368 22.7251 76.9824 29.212C76.6893 29.6558 75.8294 30.6412 75.1779 30.6412ZM64.8456 16.9365C64.9682 16.938 65.0879 16.9742 65.1909 17.0409C66.7932 18.0956 68.6168 18.7656 70.5199 18.9987C71.6469 19.1553 71.7772 20.1734 71.8945 21.074L71.9401 21.4134C72.2593 23.6061 73.6079 26.5298 74.5004 28.468C74.7675 29.0489 74.9955 29.5514 75.1518 29.9364C75.3342 30.0017 76.0313 29.46 76.4157 28.8335C80.2398 22.5685 80.8782 16.31 78.2137 11.2131C75.2756 5.61374 68.5004 1.85472 60.5199 1.424C47.4906 0.712662 44.8847 9.60117 44.8 9.97968C44.7812 10.0479 44.7399 10.1077 44.6828 10.1494C37.6535 15.4746 40.318 22.7447 43.7968 27.9068C43.8081 27.9302 43.8277 27.9485 43.8518 27.9582C43.8759 27.9678 43.9028 27.9681 43.9271 27.959C43.954 27.9517 43.9777 27.9354 43.9942 27.9129C44.0108 27.8904 44.0193 27.863 44.0183 27.835C43.9727 24.6894 45.5232 20.6563 46.4482 18.5419C46.5556 18.2985 46.7191 18.0841 46.9252 17.9162C47.1313 17.7483 47.3742 17.6317 47.6339 17.576C47.8886 17.52 48.1531 17.5264 48.4049 17.5945C48.6566 17.6627 48.8883 17.7907 49.0802 17.9676C51.4971 20.1669 54.8978 20.6368 56.8066 20.7216C55.9158 20.2201 55.1532 19.5187 54.5785 18.6724C54.491 18.5597 54.4485 18.4184 54.4593 18.276C54.4702 18.1336 54.5336 18.0004 54.6372 17.9023C54.7362 17.7981 54.8703 17.7344 55.0135 17.7235C55.1567 17.7127 55.2989 17.7555 55.4124 17.8436C59.6404 20.9631 65.6339 20.6694 68.2593 20.3496C66.7375 19.9454 65.3744 19.0874 64.3505 17.8893C64.2579 17.7824 64.207 17.6457 64.207 17.5042C64.207 17.3628 64.2579 17.226 64.3505 17.1192C64.413 17.0538 64.4893 17.0035 64.5739 16.9718C64.6586 16.9402 64.7492 16.9281 64.8391 16.9365H64.8456Z" fill="#263238"/>
<path d="M66.4041 26.2883C66.3584 26.2877 66.3133 26.2776 66.2718 26.2585C66.2303 26.2394 66.1932 26.2117 66.1631 26.1773C66.0849 26.0925 64.15 24.0433 59.7266 25.8706C59.6869 25.8877 59.6441 25.8967 59.6009 25.897C59.5576 25.8974 59.5148 25.8892 59.4747 25.8728C59.4347 25.8564 59.3983 25.8321 59.3678 25.8015C59.3372 25.7709 59.313 25.7345 59.2966 25.6944C59.2808 25.6545 59.2729 25.6119 59.2735 25.569C59.274 25.5261 59.2831 25.4838 59.3 25.4444C59.317 25.405 59.3415 25.3693 59.3722 25.3394C59.4029 25.3095 59.4392 25.286 59.479 25.2702C64.352 23.2536 66.5539 25.6422 66.6452 25.7466C66.6763 25.7759 66.7011 25.8113 66.7181 25.8506C66.7351 25.8898 66.7439 25.9322 66.7439 25.975C66.7439 26.0178 66.7351 26.0602 66.7181 26.0995C66.7011 26.1387 66.6763 26.1741 66.6452 26.2034C66.6137 26.2345 66.5758 26.2582 66.5341 26.2729C66.4924 26.2875 66.448 26.2928 66.4041 26.2883Z" fill="#263238"/>
<path d="M52.1892 26.2886C52.1134 26.2822 52.0421 26.25 51.9872 26.1973C51.3325 25.6748 50.5445 25.347 49.7129 25.2512C48.8813 25.1555 48.0396 25.2956 47.2836 25.6556C47.2456 25.6744 47.2043 25.6854 47.162 25.6881C47.1197 25.6907 47.0773 25.6848 47.0372 25.6709C46.9972 25.6569 46.9604 25.6351 46.9289 25.6067C46.8973 25.5783 46.8718 25.5439 46.8537 25.5055C46.8348 25.467 46.8237 25.4251 46.821 25.3822C46.8183 25.3393 46.824 25.2963 46.838 25.2557C46.8519 25.2151 46.8737 25.1776 46.9021 25.1455C46.9305 25.1133 46.965 25.0871 47.0035 25.0683C47.8735 24.6607 48.8403 24.5057 49.7938 24.6211C50.7474 24.7365 51.6495 25.1175 52.3976 25.7209C52.4311 25.7475 52.4589 25.7805 52.4794 25.8181C52.4999 25.8557 52.5127 25.897 52.5169 25.9396C52.5212 25.9822 52.5169 26.0253 52.5042 26.0661C52.4915 26.107 52.4708 26.145 52.4432 26.1777C52.4126 26.2149 52.3736 26.2443 52.3295 26.2636C52.2853 26.2829 52.2372 26.2915 52.1892 26.2886Z" fill="#263238"/>
<path d="M77.34 22.2811H77.2488C77.1658 22.2569 77.0959 22.2006 77.0544 22.1248C77.0128 22.0489 77.0031 21.9596 77.0273 21.8765C77.7891 19.2017 77.5956 16.3444 76.4801 13.7972C76.4507 13.7195 76.4521 13.6336 76.4838 13.5568C76.5156 13.4801 76.5753 13.4184 76.6509 13.3843C76.7265 13.3502 76.8122 13.3462 76.8907 13.3732C76.9691 13.4002 77.0342 13.4562 77.0729 13.5296C78.2612 16.2301 78.4642 19.2632 77.6462 22.0984C77.6177 22.1548 77.5738 22.202 77.5196 22.2344C77.4654 22.2667 77.4031 22.2829 77.34 22.2811Z" fill="#A7A4A4"/>
<path d="M53.3871 58.501L58.4099 67.5396L70.4555 58.0181L74.7486 59.6431L66.3643 72.3428C66.2918 72.4666 66.1955 72.5746 66.0808 72.6606C65.9661 72.7465 65.8354 72.8086 65.6965 72.8433C65.5575 72.8779 65.413 72.8844 65.2715 72.8624C65.13 72.8403 64.9943 72.7901 64.8724 72.7148L58.2405 68.4989L53.0287 71.6837C52.8763 71.777 52.7028 71.8303 52.5244 71.8386C52.3459 71.8469 52.1682 71.81 52.0078 71.7313C51.8474 71.6526 51.7094 71.5346 51.6065 71.3882C51.5037 71.2418 51.4394 71.0719 51.4196 70.894L48.8789 60.0868L53.3871 58.501Z" fill="#F1BF4E"/>
<path d="M65.4394 73.1846C65.1784 73.1857 64.9227 73.1109 64.7033 72.9692L58.1886 68.8643L53.1658 71.9446C52.9679 72.0637 52.7434 72.1314 52.5127 72.1417C52.2821 72.1519 52.0525 72.1043 51.8448 72.0032C51.6372 71.9021 51.458 71.7507 51.3235 71.5627C51.189 71.3747 51.1034 71.156 51.0746 70.9265L48.4688 59.8779L53.5176 58.0963L58.4818 67.0501L70.371 57.646L75.2505 59.4798L66.6316 72.532C66.5412 72.6932 66.4189 72.8343 66.2722 72.9465C66.1254 73.0588 65.9573 73.1398 65.7782 73.1846C65.6656 73.197 65.552 73.197 65.4394 73.1846ZM58.2407 68.1203L65.0746 72.4341C65.1587 72.4882 65.2528 72.5247 65.3513 72.5416C65.4498 72.5584 65.5507 72.5551 65.6479 72.532C65.7438 72.5073 65.8337 72.4633 65.9121 72.4027C65.9905 72.3422 66.0558 72.2662 66.1039 72.1796L74.2798 59.78L70.5404 58.3639L58.3124 68.0355L53.2375 58.899L49.2635 60.3021L51.7261 70.8156C51.7342 70.9459 51.7763 71.0718 51.8484 71.1807C51.9204 71.2895 52.0198 71.3774 52.1365 71.4356C52.2444 71.498 52.3669 71.5309 52.4916 71.5309C52.6162 71.5309 52.7387 71.498 52.8466 71.4356L58.2407 68.1203Z" fill="#263238"/>
</svg>
