<svg width="329" height="308" viewBox="0 0 329 308" fill="none" xmlns="http://www.w3.org/2000/svg">
<g clip-path="url(#clip0_640_1114)">
<path d="M322.309 152.759C316.601 168.17 304.763 180.479 290.208 188.071C261.33 203.136 209.763 233.732 202.529 263.34C192.396 304.824 154.652 355.727 66.8735 292.675C-20.9054 229.622 -9.79398 162.72 34.0322 137.448C77.8583 112.176 116.142 77.0435 137.332 38.8689C160.281 -2.40793 367.641 30.4695 322.309 152.759Z" fill="#F6D27C"/>
<path d="M145.81 175.691C138.875 175.891 107.886 175.271 103.989 176.879C96.7474 157.071 102.656 114.466 112.722 104.532C125.285 92.1099 128.436 70.4207 171.157 73.9833C205.33 76.8321 202.053 137.363 201.22 174.123L145.81 175.691Z" fill="#542934"/>
<path d="M134.666 136.909C134.346 125.001 125.853 115.56 115.701 115.847C105.549 116.134 97.588 126.001 97.9077 137.91C98.2275 149.819 106.721 159.259 116.873 158.972" stroke="white" stroke-width="1.58"/>
<path d="M129.848 127.082H182.52V195.345H129.848V127.082Z" fill="white" stroke="#582731" stroke-width="2" stroke-miterlimit="10"/>
<path d="M111.016 97.6205C111.489 115.04 116.938 130.651 125.338 141.8C133.738 152.948 145.043 159.619 157.253 159.286C169.464 158.952 180.402 151.687 188.183 140.078C195.963 128.47 200.553 112.605 200.08 95.1854C199.607 77.766 194.158 62.1613 185.765 51.0064C177.371 39.8516 166.06 33.1934 153.843 33.527C141.625 33.8606 130.701 41.1192 122.92 52.7144C115.139 64.3095 110.543 80.2011 111.016 97.6205Z" fill="white" stroke="#582731" stroke-width="2"/>
<path d="M156.854 105.026C157.846 109.95 159.199 120.137 157.413 121.585C156.686 122.126 155.848 122.496 154.959 122.669C154.07 122.843 153.154 122.814 152.277 122.586" stroke="#582731" stroke-width="1.58" stroke-linecap="round" stroke-linejoin="round"/>
<path d="M172.144 104.005C171.654 104.02 171.171 103.888 170.755 103.627C170.34 103.366 170.011 102.988 169.811 102.54C169.61 102.092 169.547 101.594 169.629 101.11C169.71 100.626 169.934 100.177 170.271 99.8198C170.608 99.4629 171.042 99.2141 171.52 99.1048C171.999 98.9956 172.498 99.0308 172.956 99.206C173.414 99.3813 173.81 99.6887 174.094 100.089C174.377 100.49 174.536 100.966 174.549 101.457C174.559 101.782 174.504 102.107 174.389 102.411C174.273 102.716 174.098 102.994 173.875 103.231C173.651 103.468 173.384 103.658 173.087 103.791C172.79 103.924 172.469 103.997 172.144 104.005Z" fill="#582731"/>
<path d="M135.997 104.005C135.507 104.018 135.024 103.886 134.61 103.624C134.195 103.362 133.867 102.983 133.668 102.535C133.468 102.087 133.406 101.589 133.489 101.105C133.571 100.622 133.795 100.173 134.132 99.8172C134.47 99.4609 134.905 99.2128 135.382 99.1041C135.86 98.9954 136.36 99.0311 136.817 99.2065C137.275 99.382 137.67 99.6894 137.954 100.09C138.237 100.49 138.395 100.966 138.408 101.457C138.417 101.783 138.362 102.107 138.245 102.412C138.129 102.716 137.954 102.995 137.73 103.231C137.506 103.468 137.238 103.658 136.94 103.791C136.643 103.924 136.322 103.997 135.997 104.005Z" fill="#582731"/>
<path d="M140.993 87.2864L130.721 87.5666C130.437 87.5735 130.156 87.6367 129.896 87.7526C129.636 87.8685 129.401 88.0348 129.206 88.242C129.01 88.4491 128.857 88.6929 128.756 88.9594C128.655 89.226 128.607 89.5099 128.616 89.7949C128.623 90.0799 128.686 90.3608 128.802 90.6213C128.918 90.8818 129.084 91.1168 129.291 91.3127C129.497 91.5087 129.741 91.6618 130.007 91.7631C130.273 91.8644 130.557 91.912 130.841 91.9031L141.113 91.6229C141.398 91.616 141.678 91.5528 141.938 91.4368C142.199 91.3209 142.433 91.1546 142.629 90.9475C142.825 90.7404 142.977 90.4965 143.079 90.23C143.18 89.9635 143.227 89.6796 143.218 89.3946C143.211 89.1098 143.147 88.8294 143.031 88.5693C142.915 88.3092 142.749 88.0745 142.542 87.8787C142.335 87.683 142.092 87.5299 141.827 87.4282C141.561 87.3266 141.278 87.2784 140.993 87.2864Z" fill="#582731"/>
<path d="M177.152 86.2989L166.873 86.5791C166.3 86.5965 165.756 86.8407 165.362 87.2583C164.967 87.6758 164.754 88.2328 164.768 88.8074C164.784 89.3831 165.027 89.9291 165.444 90.3255C165.861 90.722 166.418 90.9366 166.993 90.9223L177.299 90.6421C177.873 90.6263 178.419 90.3829 178.814 89.9652C179.21 89.5474 179.425 88.9895 179.41 88.4138C179.403 88.1258 179.338 87.8422 179.22 87.5795C179.102 87.3168 178.933 87.0802 178.723 86.8835C178.513 86.6867 178.266 86.5337 177.996 86.4333C177.726 86.333 177.439 86.2873 177.152 86.2989Z" fill="#582731"/>
<path d="M165.976 131.912L144.659 133.08C144.438 133.066 144.218 133.108 144.017 133.202C143.817 133.295 143.643 133.436 143.511 133.614C143.379 133.791 143.292 133.999 143.26 134.217C143.228 134.436 143.251 134.66 143.326 134.868C144.339 137.37 147.323 141.433 154.724 141.433C163.997 141.433 166.748 137.43 167.807 134.094C167.886 133.823 167.896 133.537 167.838 133.262C167.78 132.986 167.655 132.729 167.473 132.513C167.292 132.297 167.061 132.13 166.8 132.025C166.538 131.92 166.255 131.881 165.976 131.912Z" stroke="#582731" stroke-width="1.18"/>
<path fill-rule="evenodd" clip-rule="evenodd" d="M182.522 174.183C255.746 190.916 274.951 258.118 276.077 302.023C276.1 302.737 275.979 303.448 275.721 304.113C275.463 304.779 275.074 305.385 274.576 305.896C274.078 306.407 273.483 306.812 272.825 307.087C272.167 307.361 271.46 307.5 270.747 307.494H40.8183C40.1852 307.496 39.5588 307.364 38.98 307.107C38.4011 306.85 37.8827 306.474 37.4586 306.003C37.0344 305.533 36.714 304.978 36.5181 304.375C36.3223 303.772 36.2553 303.134 36.3217 302.504C41.138 261.334 63.8938 192.357 121.869 175.471C122.189 175.391 130.289 172.135 128.957 172.135" fill="white"/>
<path d="M182.522 174.183C255.746 190.916 274.951 258.118 276.077 302.023C276.1 302.737 275.979 303.448 275.721 304.113C275.463 304.779 275.074 305.385 274.576 305.896C274.078 306.407 273.483 306.812 272.825 307.087C272.167 307.361 271.46 307.5 270.747 307.494H40.8183C40.1852 307.496 39.5588 307.364 38.98 307.107C38.4011 306.85 37.8827 306.474 37.4586 306.003C37.0344 305.533 36.714 304.978 36.5181 304.375C36.3223 303.772 36.2553 303.134 36.3217 302.504C41.138 261.334 63.8938 192.357 121.869 175.471C122.189 175.391 130.289 172.135 128.957 172.135" stroke="#582731" stroke-width="2" stroke-miterlimit="10" stroke-linecap="round"/>
<path d="M99.2321 244.255C93.1442 263.588 91.4843 284.047 94.3759 304.112" stroke="#582731" stroke-width="2" stroke-linecap="round" stroke-linejoin="round"/>
<path d="M228.666 259.239C231.869 273.846 234.031 288.663 235.134 303.578" stroke="#582731" stroke-width="2" stroke-linecap="round" stroke-linejoin="round"/>
<path d="M122.773 223.012L158.239 244.255L189.828 223.012L185.985 307.494H125.818L122.773 223.012Z" fill="#582731"/>
<path fill-rule="evenodd" clip-rule="evenodd" d="M182.521 174.183L189.136 218.596C189.717 224.295 189.802 230.034 189.39 235.748L186.532 270.907C186.532 270.907 188.004 261.567 193.526 260.867C199.049 260.166 203.632 254.442 201.7 251.053C199.768 247.664 202.972 241.946 206.003 242.84C209.034 243.734 220.266 234.834 217.235 229.63C214.204 224.427 213.271 215.527 217.748 214.813C222.224 214.099 226.501 207.314 223.83 203.745C221.158 200.176 226.841 195.812 226.841 195.812" fill="white"/>
<path d="M182.521 174.183L189.136 218.596C189.717 224.295 189.802 230.034 189.39 235.748L186.532 270.907C186.532 270.907 188.004 261.567 193.526 260.867C199.049 260.166 203.632 254.442 201.7 251.053C199.768 247.664 202.972 241.946 206.003 242.84C209.034 243.734 220.266 234.834 217.235 229.63C214.204 224.427 213.271 215.527 217.748 214.813C222.224 214.099 226.501 207.314 223.83 203.745C221.158 200.176 226.841 195.812 226.841 195.812" stroke="#582731" stroke-width="2" stroke-miterlimit="10" stroke-linecap="round"/>
<path fill-rule="evenodd" clip-rule="evenodd" d="M129.849 172.362L123.228 216.314C122.647 222.016 122.562 227.757 122.974 233.473L125.832 268.632C125.832 268.632 124.367 259.292 118.844 258.592C113.322 257.891 108.732 252.16 110.684 248.771C112.636 245.382 109.405 239.671 106.381 240.565C103.356 241.459 92.1182 232.526 95.1492 227.356C98.1802 222.185 99.1461 213.252 94.6363 212.538C90.1264 211.824 85.8764 205.039 88.5543 201.47C91.2323 197.901 86.6758 196.373 86.6758 196.373" fill="white"/>
<path d="M129.849 172.362L123.228 216.314C122.647 222.016 122.562 227.757 122.974 233.473L125.832 268.632C125.832 268.632 124.367 259.292 118.844 258.592C113.322 257.891 108.732 252.16 110.684 248.771C112.636 245.382 109.405 239.671 106.381 240.565C103.356 241.459 92.1182 232.526 95.1492 227.356C98.1802 222.185 99.1461 213.252 94.6363 212.538C90.1264 211.824 85.8764 205.039 88.5543 201.47C91.2323 197.901 86.6758 196.373 86.6758 196.373" stroke="#582731" stroke-width="2" stroke-miterlimit="10" stroke-linecap="round"/>
<path d="M117.344 119.697C116.505 81.5622 151.225 92.5903 164.601 58.3185C164.647 58.1993 164.723 58.0942 164.822 58.0142C164.921 57.9341 165.04 57.8819 165.166 57.8629C165.292 57.8439 165.421 57.8588 165.54 57.906C165.658 57.9532 165.762 58.0311 165.84 58.1317C170.803 64.5564 173.774 67.612 184.413 79.8543C195.051 92.0966 196.59 94.0113 200.02 99.3619C200.117 99.5158 200.178 99.6888 200.2 99.8689C200.4 101.503 198.868 110.637 198.968 113.993C199.501 133.647 182.82 176.445 187.11 179.307C191.4 182.169 229.904 169.867 238.331 160.7C246.758 151.533 210.786 73.8366 201.493 57.5513C195.251 46.6033 183.507 39.9184 171.516 35.4751C162.989 32.5597 146.868 29.0571 135.877 36.3024C134.884 36.9696 133.812 37.4633 132.792 38.0637C110.603 51.1199 61.1078 145.916 72.932 161.16C85.0027 176.712 124.665 188.187 127.59 186.372C130.514 184.558 118.43 168.319 117.344 119.697Z" fill="#582731"/>
<path d="M200.221 105.233C199.708 111.591 199.235 112.405 202.099 112.758C204.964 113.112 207.728 109.83 208.268 105.42C208.807 101.01 206.935 97.1736 204.058 96.82C201.18 96.4664 200.713 99.0616 200.221 105.233Z" fill="white"/>
<path d="M201.947 100.363C202.113 99.9069 202.433 99.5236 202.852 99.279C203.27 99.0343 203.761 98.9437 204.239 99.0229C204.717 99.102 205.152 99.3458 205.469 99.7123C205.787 100.079 205.967 100.545 205.977 101.03" stroke="#582731" stroke-width="0.79" stroke-linecap="round" stroke-linejoin="round"/>
<path d="M200.528 99.0082C200.228 103.325 200.308 108.128 199.369 112.785" stroke="#582731"/>
<path d="M260.701 107.201C260.701 107.201 261.074 109.089 260.701 110.07" stroke="#582731" stroke-width="0.5" stroke-miterlimit="10" stroke-linecap="round"/>
<path d="M124.547 88.5748C135.434 81.8117 157.67 66.2729 159.517 58.2231" stroke="#704652"/>
<path d="M113.404 101.346C109.957 118.718 105.47 157.176 115.091 172.031" stroke="#704652"/>
<path d="M203.239 120.78C203.551 135.337 202.305 166.039 194.832 172.391" stroke="#704652"/>
</g>
<defs>
<clipPath id="clip0_640_1114">
<rect width="328" height="307" fill="white" transform="translate(0.722656 0.837402)"/>
</clipPath>
</defs>
</svg>
